<svg width="650" height="650" viewBox="0 0 650 650" fill="none" xmlns="http://www.w3.org/2000/svg">
<g clip-path="url(#clip0_527_3311)">
<path d="M497.697 237.3C497.457 235.66 495.867 232.76 494.517 231.76C494.067 231.43 493.347 231.39 492.777 231.02C491.407 230.13 489.967 227.68 488.497 226.98C487.727 226.62 486.447 226.16 485.067 225.73C484.317 225.63 483.557 225.56 482.817 225.53C477.347 225.34 471.947 226.83 466.497 226.82C464.307 226.91 462.077 227 459.887 227.27C455.317 226.24 450.927 223.05 446.827 220.81C446.017 220.37 444.527 220.03 443.667 219.55C440.147 217.6 437.407 214.71 433.997 212.59C429.087 209.53 422.827 205.96 417.977 203.87C417.877 203.83 417.787 203.78 417.687 203.74C417.537 203.54 417.367 203.35 417.177 203.19L417.267 203.36C416.747 202.66 415.617 202.11 415.597 201.97C416.087 202.41 415.497 201.79 415.287 201.65C413.877 200.97 413.737 201.03 412.877 200.29C411.457 199.54 411.347 199.71 410.117 199.14C408.867 198.59 407.737 197.84 406.567 197.16C405.047 196.35 402.927 195.96 402.197 195.68C401.507 195.46 400.837 195.17 400.167 194.88C396.597 194.35 393.037 193.78 389.447 193.38C389.187 193.35 388.997 193.26 388.837 193.14C387.617 193.07 386.407 192.97 385.197 192.85C384.707 192.8 384.207 192.75 383.717 192.69C383.477 192.66 383.237 192.63 382.987 192.6C382.547 192.54 382.107 192.48 381.657 192.42C381.357 192.38 381.057 192.33 380.747 192.29C379.417 192.08 378.087 191.84 376.767 191.56C373.137 190.78 369.377 189.88 365.867 188.5C363.687 188.45 361.477 188.56 359.017 188.28C356.327 187.98 353.627 187.48 350.947 187.05C348.727 187.02 346.457 186.79 344.247 186.45L344.217 186.48C344.157 186.46 344.097 186.44 344.037 186.41C343.697 186.36 343.357 186.31 343.017 186.25C341.787 186.03 340.557 185.77 339.337 185.43C338.677 185.4 338.007 185.39 337.337 185.39C335.337 184.94 333.127 184.66 331.147 184.42C329.537 184.37 327.957 184.19 326.357 184.04C324.467 183.96 322.577 184.16 320.687 184.19C319.237 184.23 317.797 183.97 316.357 184C314.417 184.16 312.487 184.32 310.547 184.46C308.087 184.63 305.707 185.18 303.367 185.85C303.327 185.85 303.277 185.85 303.237 185.85C298.617 185.78 293.967 185.26 289.357 185.15C283.077 185 275.487 186.06 269.067 186.4C259.027 186.93 250.577 187.9 240.667 190.02C240.247 190.11 239.747 190.2 239.217 190.3C239.117 190.34 239.007 190.37 238.907 190.41C235.627 191.44 232.337 192.43 229.097 193.56C222.107 196 215.477 199.01 208.297 201.01C204.067 202.19 200.087 203.68 196.037 205.37C195.157 205.93 194.207 206.4 193.267 206.84C192.717 207.1 192.147 207.3 191.607 207.57C191.127 207.81 190.597 208.09 190.097 208.34C189.867 208.45 189.617 208.48 189.397 208.43C187.697 209.15 185.977 209.82 184.197 210.36C184.197 210.36 184.187 210.37 184.177 210.37C183.937 210.44 183.697 210.52 183.447 210.59C182.277 210.92 181.097 211.18 179.907 211.41C178.807 212.07 177.747 212.79 176.517 213.2C175.627 213.54 174.917 214.21 174.027 214.55C171.947 215.17 170.347 216.65 168.547 217.79C166.257 219.33 165.527 219.91 163.557 221.65C162.367 222.68 161.207 223.76 160.247 225.02C158.877 226.49 158.337 228.38 157.877 230.27C156.627 231.88 155.977 233.05 155.227 235.35C154.067 238.88 152.337 243.21 153.467 246.9C153.177 247.48 153.067 248.15 153.017 248.8C152.957 249.66 152.977 250.52 153.107 251.37C153.117 251.51 153.127 251.57 153.127 251.6C153.147 251.89 153.157 252.05 153.127 251.59C153.127 251.73 153.137 251.87 153.147 252.01C153.147 252.09 153.147 252.17 153.147 252.26C153.157 252.09 153.167 251.98 153.167 251.91C153.097 253.26 152.837 254.81 153.287 257C153.377 258.18 153.647 259.27 154.007 260.34C153.967 269.67 154.867 279.73 157.677 288.5C158.237 290.23 159.157 291.76 159.637 293.56C160.127 295.37 160.287 298.17 161.067 299.86C161.277 300.31 162.447 301.59 162.727 302.38C163.377 303.1 163.867 303.96 164.167 304.92C164.257 305.21 164.337 305.51 164.367 305.82C165.757 308.25 167.037 310.69 168.037 312.51C170.627 317.18 174.847 323.27 178.797 327.34C180.017 327.77 181.047 328.53 182.037 329.46C183.347 330.68 184.617 331.89 186.127 332.87C187.477 333.74 188.847 334.28 190.327 334.74C191.027 334.78 191.727 334.81 192.417 334.86C202.097 335.59 211.677 336.08 221.327 336.31C225.847 336.42 230.457 335.68 234.977 335.28C239.707 334.87 245.187 334.49 246.807 340.4C246.967 340.98 247.087 341.57 247.157 342.15C247.607 342.87 247.957 343.47 248.067 343.68C248.467 344.52 248.847 346.3 249.307 347.12C249.777 347.95 249.677 347.51 250.217 348.75C251.667 352.07 254.897 355.94 256.777 359.15C257.997 361.22 259.027 363.65 260.357 365.64C260.807 366.31 261.497 367.11 262.197 367.95C262.357 368.01 262.507 368.13 262.627 368.33C262.727 368.49 262.817 368.66 262.917 368.83C263.667 369.77 264.337 370.72 264.617 371.58C264.647 371.69 264.677 371.79 264.687 371.89C266.997 375.9 269.237 379.95 271.397 384.05C276.297 393.38 280.877 402.87 285.077 412.53C286.217 414.77 287.287 417.04 288.347 419.32C289.077 420.5 289.777 421.71 290.417 422.94C290.517 423.05 290.597 423.17 290.657 423.33C290.727 423.49 290.787 423.65 290.857 423.81C291.367 424.84 291.837 425.89 292.267 426.96C292.407 427.25 292.547 427.53 292.677 427.82C293.297 429.15 293.837 430.51 294.317 431.89C294.347 431.89 294.367 431.89 294.407 431.89C294.447 432.07 294.457 432.17 294.437 432.23C294.647 432.86 294.847 433.5 295.037 434.14C296.657 438.23 298.237 442.33 299.717 446.48C300.617 449.01 301.497 451.56 302.357 454.11C303.307 456.41 304.297 458.71 305.367 461.04C306.567 462.98 307.817 464.89 309.157 466.74C313.587 472.85 319.157 478 324.667 483.12C327.717 485.46 330.537 488.72 334.067 490.21C347.107 498.98 359.597 508.3 372.187 517.66C373.277 518.47 375.837 520.14 376.687 521.04C377.657 522.07 378.047 523 379.307 524.27C380.647 525.62 381.487 527.27 382.607 528.5C384.717 530.84 387.017 532.66 388.987 535.25C390.167 536.8 392.437 540.57 394.497 543.5C397.347 545.51 400.727 546.88 403.977 547.88C406.527 548.66 409.197 549.24 411.857 549.85C414.607 550.29 417.547 551.05 420.347 551.2C423.717 551.38 426.607 550.7 429.507 550.15C430.067 550.04 431.197 550.36 432.007 550.1C433.097 549.74 433.887 549.37 435.207 549.14C438.937 548.47 441.837 548.5 445.387 547.11C450.567 545.07 454.337 542.28 458.887 539.01C461.017 537.48 460.337 537.52 461.827 535.73C462.507 534.91 463.777 534.12 464.687 533.2C465.407 530.61 466.757 528.17 468.487 526.08C468.927 524.97 469.397 523.86 469.897 522.76C470.357 521.75 470.847 520.74 471.357 519.74C471.407 519.48 471.467 519.19 471.507 518.87C471.547 518.61 472.617 516.91 472.847 515.88C473.277 513.97 473.127 514.66 473.917 513C475.017 510.67 475.437 508.79 475.817 506.32C476.147 504.12 476.217 503.23 475.867 501.15C475.377 498.22 475.947 495.1 475.967 492.23C475.967 491.16 475.507 487.35 475.127 486.54C472.617 481.27 469.677 475.81 468.117 470.16C467.467 467.81 465.537 456.52 464.327 455.35C461.857 452.94 462.047 452.36 461.027 449.55C460.947 449.46 460.867 449.37 460.787 449.27C458.787 446.76 457.657 443.9 457.107 440.91C456.437 439.76 455.807 438.59 455.517 437.52C455.287 436.67 455.497 435.57 455.117 434.55C453.707 430.81 446.917 423.87 444.097 420.34C444.057 420.29 443.997 420.23 443.947 420.17C443.617 419.66 443.297 419.17 442.967 418.7C442.387 418.34 441.837 417.89 441.327 417.39C441.267 417.33 441.197 417.27 441.137 417.21C440.877 416.95 440.627 416.68 440.377 416.39C440.347 416.35 440.307 416.31 440.277 416.27C440.067 416.03 439.867 415.78 439.677 415.52C439.597 415.42 439.527 415.31 439.447 415.21C439.297 415.01 439.157 414.81 439.017 414.61C438.937 414.49 438.857 414.38 438.777 414.26C438.647 414.06 438.507 413.86 438.387 413.67C438.317 413.56 438.237 413.44 438.167 413.33C438.027 413.11 437.897 412.9 437.767 412.69C437.707 412.6 437.657 412.51 437.597 412.42C437.417 412.14 437.247 411.85 437.087 411.58C436.237 410.18 435.447 408.71 434.727 407.2C434.097 405.87 433.517 404.51 433.007 403.13C432.537 402.34 431.977 401.42 431.467 400.75C430.407 399.44 429.177 398.3 428.057 397.04C425.627 394.39 424.997 392.82 423.137 390.3C421.237 387.94 419.857 386.36 418.827 384.46C415.447 379.06 413.807 375.77 409.477 370.29C408.237 368.51 408.197 367.94 406.187 365.77C405.227 364.66 404.477 363.38 403.557 362.24C402.417 360.83 401.147 359.53 400.137 358.01C400.327 358.3 399.797 357.48 399.727 357.38C399.687 357.31 399.657 357.24 399.617 357.17C399.257 356.73 398.937 356.26 398.647 355.77C398.597 355.69 398.547 355.6 398.497 355.51C398.227 355.02 397.987 354.51 397.787 353.99C397.127 352.25 396.907 350.36 397.297 348.56C396.917 344.53 396.577 340.42 395.607 336.79C395.527 336.5 395.497 336.24 395.537 335.95C396.587 336.34 397.207 335.74 398.267 335.69C399.287 335.64 400.167 335.44 400.847 335.41C400.987 335.41 401.147 335.43 401.307 335.46C402.067 334.96 402.907 334.58 403.777 334.25C405.907 333.44 408.127 332.91 410.377 332.61C412.477 332.34 414.637 332.29 416.777 332.47C416.927 332.44 417.087 332.41 417.237 332.37C420.937 331.56 424.667 330.81 428.407 330.12C430.957 328.97 433.667 328.21 436.407 327.97C437.957 327.38 439.497 326.73 441.017 326.07C441.537 325.73 442.067 325.39 442.587 325.06V325.03C442.587 325.03 442.617 325.03 442.637 325.03C445.227 323.43 447.917 322.07 450.847 321.24C451.387 320.94 451.937 320.65 452.477 320.35C455.197 318.82 457.857 317.18 460.477 315.48C460.627 315.23 460.767 315.02 460.887 314.87C461.987 313.55 465.627 309.75 466.827 308.7C477.717 299.13 481.857 281.42 487.757 268.43C489.447 264.71 492.237 260.1 492.997 256C493.197 254.95 492.997 253.6 493.337 252.44C493.807 250.88 495.617 247.73 496.377 246.32C496.937 245.28 497.867 238.6 497.677 237.31L497.697 237.3ZM448.687 250.39C453.937 249.54 457.427 244.08 461.167 240.79C462.267 239.82 462.097 240.79 462.787 241C463.317 241.16 463.917 240.92 464.447 241.16L464.697 241.7L464.167 260.28C463.017 260.06 461.797 261.15 460.907 261.31C459.387 261.58 456.467 261.16 454.687 261.33C453.257 261.47 451.737 262.02 450.277 262.12C446.847 262.33 441.967 261.54 438.587 261.08C437.417 260.92 435.217 260.87 434.357 260.35C433.547 259.86 433.657 259.26 433.207 258.64C431.837 256.79 430.857 255.42 429.947 253.33C429.757 252.89 428.997 253.03 429.337 251.63C429.397 251.4 430.507 250.99 430.787 250.95C431.427 250.87 433.857 250.65 434.397 250.68C434.997 250.72 435.467 251.27 436.027 251.39C437.527 251.71 446.677 250.72 448.697 250.39H448.687ZM421.647 215.87C422.277 215.87 422.927 216 423.477 216.23C425.717 217.16 427.877 218.45 429.937 219.72C431.147 220.47 432.327 221.26 433.477 222.09C433.877 222.31 434.287 222.54 434.707 222.81C437.127 224.34 439.897 226.3 442.407 227.71C443.337 228.23 445.907 228.76 446.367 229.88C445.647 233.19 445.017 236.6 443.767 239.75C443.677 239.98 443.827 240.32 443.737 240.53C443.037 242.07 437.087 244.03 435.417 244.15C434.067 244.24 431.967 243.73 430.497 243.68C429.287 243.64 427.977 243.99 426.567 243.89C424.207 242.86 421.637 242.59 419.297 241.76C418.247 241.53 417.207 241.17 416.167 240.81C414.807 240.13 413.147 239.37 412.017 238.35C411.837 238.19 411.677 237.14 410.667 237.1L412.117 228.36C412.377 227.13 413.157 225.91 413.547 224.85C414.827 221.32 415.767 217.44 418.207 214.56L418.537 214.51C419.637 214.83 420.657 215.32 421.647 215.86V215.87ZM372.667 204.52C372.857 204.08 374.327 201.25 374.487 201.15C374.927 200.88 379.857 201.69 380.797 201.86C387.137 203.01 393.877 204.6 400.027 206.02C401.747 206.41 401.777 206.73 403.107 207.36C404.417 207.98 405.587 208.34 406.807 208.98C408.567 209.89 408.637 209.41 408.547 211.82C408.457 214.13 408.307 217.63 407.617 219.73C406.847 222.06 403.767 227.45 402.267 229.45C401.827 230.03 400.987 230.55 400.527 231.23C398.217 230.27 395.817 229.5 393.447 228.69C390.857 227.56 388.307 226.31 385.527 225.72C385.047 225.55 383.387 225.05 382.027 224.8C381.717 224.83 381.397 224.85 381.087 224.89C379.847 225.05 378.627 225.3 377.427 225.68C377.427 225.68 377.377 225.69 377.357 225.7C376.237 226.06 375.007 226.31 373.847 225.95C373.657 225.89 373.487 225.82 373.317 225.74C373.237 225.7 373.167 225.65 373.087 225.61C373.007 225.56 372.937 225.52 372.857 225.47C372.767 225.41 372.677 225.34 372.597 225.26C372.557 225.22 372.507 225.18 372.467 225.14C372.387 225.06 372.307 224.97 372.227 224.88C371.647 224.18 371.377 223.26 371.547 222.33C371.497 221.75 371.437 221.18 371.347 220.66C370.217 214.59 370.207 210.26 372.667 204.51V204.52ZM362.737 199.41C363.517 199.58 364.177 198.78 364.367 200.36C364.807 203.99 364.157 209.67 362.957 213.15C362.687 213.95 361.677 215.89 361.417 216.68C361.267 217.15 361.017 218.46 360.747 219.36C360.277 218.97 359.627 218.74 359.027 218.55C357.097 217.94 355.087 217.64 353.097 217.3C347.567 216.21 341.887 216.27 336.307 216.98C334.847 217.12 333.387 217.31 331.947 217.53C330.627 217.34 329.407 217.13 328.497 216.91C327.547 216.88 326.607 216.7 325.717 216.33C324.297 215.74 323.127 214.69 322.287 213.41C321.467 212.14 321.237 210.77 321.197 209.29C321.197 209.26 321.207 209.24 321.207 209.21C320.737 206.26 320.747 201.98 320.677 199.33C320.647 198.29 320.077 197.32 320.637 196.24C320.957 195.79 322.037 196.34 322.587 196.32C335.167 196 350.537 196.71 362.717 199.42L362.737 199.41ZM267.937 198.28C268.567 198.06 269.317 198.13 269.967 198.17C270.587 198.2 271.217 198.27 271.837 198.37C272.267 198.36 272.847 198.36 271.867 198.37C272.017 198.39 272.157 198.41 272.307 198.43C272.357 198.43 272.397 198.46 272.447 198.47C272.817 198.51 273.167 198.56 273.487 198.66C275.137 198.93 276.917 199.44 278.567 199.98L280.527 200.23C286.337 201.07 291.127 200.35 296.707 199.52C299.927 199.04 303.057 199.17 306.247 198.94C307.267 198.87 311.077 197.97 311.687 198.18C312.257 198.38 312.577 201.48 312.627 202.18C312.847 205.31 312.557 211.44 311.157 213.82C309.837 216.08 312.327 216.65 307.787 217.35C305.287 217.74 301.677 217.66 298.947 217.82C294.337 218.09 289.687 217.83 285.097 217.86C284.267 218.49 283.427 218.97 282.607 219.17C278.227 220.28 274.927 217.54 272.657 214.15C271.497 212.42 270.647 210.34 269.847 208.42C269.337 207.18 268.517 205.52 268.387 204.01C268.097 203.47 267.807 202.93 267.527 202.39C267.157 201.69 266.707 200.95 266.657 200.15C266.597 199.29 267.167 198.56 267.957 198.28H267.937ZM217.597 206.98C222.177 205.35 227.057 204.03 231.867 203.01C234.107 201.75 236.577 200.84 238.687 200.08C243.087 198.49 247.367 195.87 251.957 194.92C254.077 194.48 255.577 195.04 256.537 196.14C257.157 196.28 257.767 196.54 258.287 196.92C260.027 198.2 260.627 200.49 260.677 202.56C260.717 204.12 260.397 205.6 260.517 207.16C260.617 208.4 260.857 209.62 260.937 210.86C261.067 212.86 261.197 215.15 260.427 217.05C260.337 217.27 260.197 217.51 260.047 217.74C259.707 219.75 257.707 221.17 255.517 220.67C255.307 220.62 254.877 220.43 254.507 220.25L237.727 222.39C237.067 222.98 236.197 223.33 235.157 223.2C234.667 223.14 234.187 223.03 233.707 222.9L229.807 223.4C228.727 223.51 228.037 222.34 227.497 221.53C225.247 218.21 223.037 215.05 220.967 211.68C220.327 210.64 218.467 209.06 217.767 207.86C217.617 207.6 217.327 207.27 217.587 206.98H217.597ZM181.197 224.14C181.197 224.14 181.227 224.12 181.237 224.11C181.237 224.16 181.237 224.21 181.237 224.25C181.227 224.21 181.217 224.17 181.207 224.13L181.197 224.14ZM194.187 218.91C195.297 218.28 197.087 216.74 198.157 216.15C202.557 213.72 207.967 212.05 212.537 209.85C212.887 213.45 213.597 217.04 213.857 220.64C214.087 223.81 213.937 227.18 213.837 230.25C213.807 231.19 214.167 234.48 213.867 234.89C210.347 236.23 206.657 237.2 203.117 238.5C201.087 239.24 196.227 241.86 194.467 241.82C194.077 241.82 193.717 241.67 193.397 241.45C193.207 240.87 192.987 240.34 192.817 240C192.157 237.68 191.167 236.6 190.387 235.23C189.697 234.01 188.287 232.81 187.187 232.04C186.657 231.35 186.197 230.63 185.537 229.77C184.837 228.97 184.267 228.08 183.597 227.26C182.907 226.52 182.497 225.45 181.957 224.24C181.927 224.02 181.917 223.82 181.907 223.62C182.807 223.07 183.707 222.84 184.717 222.45C187.957 221.21 191.287 220.55 194.177 218.9L194.187 218.91ZM238.587 329.06C237.707 328.98 236.827 328.88 235.947 328.76C235.707 328.73 235.457 328.69 235.217 328.65C234.477 328.54 233.747 328.43 233.017 328.29L231.107 328.26C229.987 328.11 228.877 327.92 227.747 327.86C227.147 327.78 226.837 327.45 225.837 327.54C224.357 327.85 223.607 328 221.877 327.89C221.197 327.89 220.527 328.01 219.857 328.13C219.017 328.13 218.177 328.14 217.327 328.13C211.157 328.1 205.217 329.64 199.007 328.25C194.367 327.21 188.907 325.46 184.777 323.25C184.177 322.93 183.587 323.03 182.877 322.55C182.057 321.99 180.037 319.79 178.987 318.48C177.377 317.38 175.997 315.95 174.997 314.25C174.417 313.27 175.577 312.11 176.557 312.69C177.057 312.99 177.567 313.26 178.087 313.53C178.207 313.56 178.317 313.6 178.437 313.63C178.567 313.73 178.707 313.82 178.847 313.91C180.037 314.48 181.257 314.98 182.507 315.4C183.247 315.5 184.007 315.53 184.757 315.58C184.777 315.62 184.807 315.66 184.857 315.67C185.417 315.77 186.017 315.8 186.607 315.81C187.787 315.98 188.967 316.16 190.147 316.32C191.077 316.53 192.017 316.7 192.947 316.83C196.377 317.25 199.857 317.32 203.297 317.55C205.267 317.62 207.217 317.35 209.187 317.35C209.647 317.42 210.097 317.48 210.557 317.55C211.437 317.48 212.327 317.41 213.207 317.35C213.817 317.31 214.417 317.26 215.027 317.22C215.867 317.17 216.847 317.06 217.647 317.41C218.147 317.39 218.647 317.37 219.147 317.36C220.527 317.27 221.887 317.02 223.237 316.73C225.707 316.9 228.387 315.91 230.617 315.69C230.867 315.67 231.567 315.73 232.297 315.83C232.847 315.84 233.377 315.94 233.887 316.14C234.137 316.21 234.317 316.28 234.367 316.35C234.547 316.45 234.727 316.57 234.897 316.7C236.367 317.79 236.977 319.63 237.647 321.26C238.457 323.22 239.217 325.2 239.997 327.17C240.337 328.04 239.457 329.15 238.547 329.08L238.587 329.06ZM453.447 455.45C453.537 455.65 453.617 455.86 453.707 456.08C454.807 458.23 455.767 460.45 456.607 462.7C456.737 462.77 456.837 462.81 456.847 462.82C456.867 462.85 456.817 462.97 456.767 463.13C457.507 465.16 458.147 467.2 458.697 469.25C459.997 472.36 461.537 475.53 462.767 478.35C464.427 482.15 466.337 485.09 466.767 489.43C467.427 496.1 466.667 502.67 465.757 509.21C465.427 511.55 465.837 511.93 464.287 513.98C459.897 519.78 456.807 525.84 450.907 530.78C450.317 531.76 449.547 532.63 448.637 533.36C447.407 534.33 446.057 535 444.647 535.45C441.657 537.78 437.877 538.58 434.187 539.02C429.797 539.54 425.407 540.08 421.017 540.61C418.867 540.87 416.077 541.17 414.217 539.91C409.977 538.27 405.987 535.77 402.387 533.02C398.227 529.85 395.807 525.31 392.797 521.03C387.357 513.3 380.507 507.92 372.787 502.48C372.547 502.39 372.297 502.3 372.057 502.2C369.697 501.21 367.147 499.76 365.197 497.85C363.197 496.66 361.137 494.76 359.227 493.52C355.537 491.14 350.187 488.88 347.337 485.91C342.627 481.01 336.347 477.88 330.347 474.54C330.327 474.54 330.297 474.53 330.277 474.52C328.337 473.95 326.507 473.08 324.997 471.72C324.847 471.58 324.707 471.44 324.557 471.3C324.457 471.31 324.377 471.33 324.357 471.31C323.717 470.68 321.777 467.21 321.267 466.23C317.417 458.72 313.677 451.23 310.167 443.63C306.297 438.39 303.447 432.54 303.127 426.04C301.977 423.32 300.737 420.59 299.797 418.03C298.547 414.62 297.837 411 296.357 407.69C295.867 406.58 295.217 406.24 294.967 405.82C294.897 405.7 295.167 405.13 295.027 404.63C294.347 402.22 292.577 399.07 291.637 396.56C287.657 385.92 283.807 375.92 276.607 366.87C274.687 364.45 272.087 362.09 270.247 359.65C269.197 358.26 268.657 356.37 267.547 355C267.167 354.53 266.027 353.74 265.557 353.15C260.847 347.24 257.717 340.96 253.807 334.56C251.717 331.13 245.697 323.36 245.057 319.89C244.917 319.14 245.267 318.26 245.197 317.42C245.137 316.77 244.767 315.7 244.627 314.88C243.177 306.1 241.497 297.28 240.617 288.49C240.697 288.4 240.827 288.22 240.977 287.99C241.007 287.95 241.047 287.92 241.077 287.88C241.847 286.83 242.267 285.59 242.947 284.49C243.697 283.46 243.967 281.45 243.907 281.32C243.957 280.92 243.927 280.46 243.867 280C244.027 278.99 244.197 278.25 244.757 277.13C245.517 275.59 246.017 274.44 246.987 272.8C249.327 268.83 252.827 263.6 256.127 259.96C257.507 258.44 259.187 255.9 260.737 254.84C263.177 253.17 266.357 252.16 268.757 250.91C269.417 250.56 270.407 249.93 270.977 249.45C271.347 249.47 271.727 249.48 272.097 249.51C275.787 250 277.187 250.35 279.777 251.79C280.727 252.19 282.047 252.84 282.907 253.36C283.337 253.79 283.517 253.93 283.787 254.08C283.787 254.09 283.787 254.1 283.787 254.11C284.167 254.6 284.497 254.77 284.767 254.75C285.127 255.22 285.657 256.09 285.957 256.38C288.977 259.33 292.287 262.66 295.347 265.06C296.607 266.05 297.637 269.29 298.567 270.54C302.387 275.66 306.527 281.05 309.637 286.71C310.337 289.05 311.157 291.91 311.837 294.19C312.817 297.17 313.737 299.53 314.627 301.83C314.727 302.31 314.847 302.83 314.977 303.4C315.957 306.82 317.047 310.2 318.117 313.6C318.587 315.71 319.087 317.81 319.677 319.89C319.757 320.16 319.837 320.42 319.907 320.67C320.117 321.55 320.337 322.43 320.547 323.29C320.897 324.92 321.147 326.45 321.537 328.17C321.927 328.96 322.307 329.76 322.697 330.55C323.017 331.22 323.347 331.88 323.667 332.55C327.077 339.63 330.417 346.73 333.757 353.84C334.237 354.58 334.707 355.32 335.147 356.05C337.547 358.56 339.717 361.29 341.627 364.24C342.947 366.28 344.107 368.52 344.817 370.83C345.087 371.23 345.357 371.63 345.627 372.04C349.017 377.23 352.287 382.53 355.387 387.91C356.077 388.67 356.737 389.47 357.367 390.29C357.367 390.29 357.387 390.3 357.397 390.31C357.777 390.98 358.167 391.54 358.377 391.83C360.127 394.88 361.547 397.55 363.397 400.71C363.867 401.47 364.487 402.13 365.137 402.74C365.147 402.76 365.157 402.77 365.177 402.79C365.177 402.78 365.157 402.76 365.147 402.75C365.237 402.89 365.327 403.03 365.457 403.1C365.527 403.13 365.587 403.14 365.647 403.14C366.087 403.93 366.487 404.75 366.837 405.61C367.087 406.23 367.347 406.86 367.597 407.51C368.067 408.13 368.507 408.73 368.857 409.29C368.947 409.43 369.017 409.57 369.077 409.69C370.247 411.15 371.157 412.76 371.597 414.53C373.187 416.81 374.657 419.16 375.977 421.61C377.237 423.96 378.567 426.44 379.457 429C380.477 429.85 382.417 429.31 382.547 427.86C382.657 426.65 381.567 425.34 381.007 424.17C381.007 424.05 381.027 423.93 381.027 423.82C381.037 423.47 381.037 423.11 380.997 422.76C380.247 417.55 377.427 413.7 376.027 409.46C374.957 407.08 374.937 407.03 374.037 404.64C373.317 402.93 372.357 401.33 371.597 399.63C371.217 398.7 370.947 397.87 370.537 396.87C370.517 396.85 370.497 396.83 370.477 396.81C369.367 395.22 368.317 393.6 367.287 391.96C366.887 391.57 366.507 391.15 366.137 390.74C365.977 390.57 365.817 390.4 365.667 390.22C365.247 389.73 364.837 389.24 364.447 388.73C363.387 387.34 362.427 385.87 361.877 384.2C361.847 384.1 361.837 384 361.847 383.9C360.847 382.44 360.007 380.89 359.387 379.24C358.277 377.64 357.257 376.06 356.247 374.39C355.787 373.81 355.337 373.22 354.897 372.62C353.477 369.93 352.097 367.23 350.637 364.58C348.987 361.58 346.217 357.98 344.867 355.14C344.817 355.04 345.017 353.66 344.797 353.06C344.187 351.36 342.227 349.21 341.307 347.41C340.767 346.37 338.897 342.37 338.627 341.49C338.387 340.69 338.427 338.15 337.997 336.95C337.727 336.19 336.727 335.37 336.477 334.83C336.007 333.83 335.827 331.95 335.367 330.73C332.647 323.52 330.567 316.6 328.507 309.25C327.277 304.84 324.357 296.38 324.567 292.15C324.587 291.66 325.257 291.19 325.337 290.08C325.787 283.89 323.897 276.08 323.507 269.8C323.417 268.33 323.717 266.77 323.667 265.43C323.467 260.14 321.147 254.45 320.127 249.27C321.717 249.11 323.337 248.72 324.947 248.87C325.807 248.95 326.607 249.41 327.277 249.41C328.717 249.41 330.997 248.48 332.477 248.36C333.967 248.24 335.637 248.4 337.167 248.36C346.767 248.05 355.967 249.86 364.757 254.04C366.297 254.77 370.277 257.11 373.257 259.28C374.087 260.43 374.887 261.61 375.677 262.8C375.887 263.14 377.127 265.2 377.797 266.85C378.157 267.85 378.367 268.9 378.677 269.92C378.837 270.4 378.977 270.88 379.097 271.37C379.587 275.27 380.217 280.68 380.507 283.81C380.507 284.23 380.537 285.38 380.617 286.59L380.567 287.14C380.657 287.53 380.737 287.92 380.817 288.29C380.857 288.49 380.897 288.69 380.937 288.89C380.987 289.12 381.027 289.35 381.077 289.58C381.097 289.7 381.127 289.82 381.147 289.95C381.187 290.13 381.217 290.31 381.247 290.5C381.277 290.65 381.297 290.79 381.327 290.94C381.357 291.11 381.387 291.27 381.407 291.44C381.437 291.6 381.457 291.76 381.477 291.92C381.497 292.08 381.527 292.23 381.547 292.39C381.567 292.56 381.587 292.73 381.607 292.9C381.627 293.05 381.647 293.2 381.657 293.34C381.677 293.52 381.687 293.71 381.707 293.89C381.717 294.03 381.727 294.16 381.737 294.3C381.747 294.51 381.757 294.72 381.757 294.93C381.757 295.04 381.757 295.16 381.757 295.27C381.757 295.59 381.757 295.92 381.737 296.24C381.727 296.52 381.697 296.8 381.657 297.08C381.647 298 381.587 299.54 381.577 299.89C381.477 302.85 382.187 306.48 382.257 309.86C382.347 314.32 382.707 317.72 383.437 322.21C383.747 324.12 384.047 328.6 384.637 330.08C385.657 332.61 385.287 333.76 385.657 336.34C386.017 338.86 387.277 342.81 387.397 345.03C387.397 345.13 387.377 345.2 387.367 345.28C387.437 345.75 387.507 346.22 387.597 346.69C387.657 346.73 387.697 346.77 387.707 346.82C387.787 347.31 387.897 347.98 387.997 348.66C388.457 350.71 389.027 352.73 389.637 354.71C390.737 358.26 392.067 361.69 393.637 365.06C399.307 377.24 407.617 387.95 415.537 398.71C419.527 404.13 423.397 409.63 426.897 415.38C427.847 416.95 428.767 418.54 429.637 420.15C430.107 420.77 430.397 421.38 431.107 422.1C434.637 425.67 438.187 429.62 441.617 433.36C444.007 435.97 446.417 438.46 447.507 441.91C449.317 447.62 451.087 450.35 453.407 455.51L453.447 455.45ZM463.917 294.2C461.487 297.85 457.657 301.79 454.807 305.12C446.857 314.38 442.667 316.42 430.697 319.23C423.307 320.96 415.817 322.1 408.277 322.95C405.357 323.65 402.397 324.23 399.407 324.72C398.177 325.38 396.867 326.02 395.447 325.61C392.597 324.8 392.507 320.56 392.407 318.21C392.277 315.1 392.687 311.66 393.857 308.76C394.097 308.16 394.537 307.93 395.167 308.02C396.167 308.16 397.197 308.15 398.207 308.25C398.987 308.07 399.897 307.73 400.637 307.64C408.377 306.64 415.897 305.75 423.417 303.84C424.107 303.65 424.797 303.47 425.487 303.29C426.437 302.96 427.487 302.26 428.347 302.61C428.537 302.57 428.717 302.53 428.907 302.49V302.43C429.007 302.43 429.087 302.43 429.167 302.43C430.757 302.1 432.357 301.81 433.967 301.58C434.567 301.42 435.177 301.27 435.767 301.17C440.467 300.34 445.237 299.95 449.827 298.59C455.207 296.99 459.387 293.66 464.367 291.24C464.587 291.14 465.357 290.86 465.457 290.95C465.587 291.08 464.197 293.75 463.907 294.19L463.917 294.2Z" fill="black"/>
<path d="M153.028 248.85C153.028 248.85 153.028 248.87 153.028 248.89C153.018 249.07 153.028 248.95 153.028 248.85Z" fill="black"/>
<path d="M363.367 400.58C363.347 400.54 363.347 400.56 363.367 400.58V400.58Z" fill="black"/>
<path d="M363.457 400.71C363.457 400.71 363.447 400.69 363.437 400.68C363.417 400.65 363.387 400.62 363.367 400.58C363.387 400.62 363.437 400.69 363.447 400.71H363.457Z" fill="black"/>
</g>
<defs>
<clipPath id="clip0_527_3311">
<rect width="344.73" height="367.21" fill="white" transform="translate(153 184)"/>
</clipPath>
</defs>
</svg>
