<svg width="650" height="650" viewBox="0 0 650 650" fill="none" xmlns="http://www.w3.org/2000/svg">
<g clip-path="url(#clip0_527_3368)">
<path d="M118.315 230.142C118.315 230.142 118.375 230.099 118.401 230.082C120.216 228.073 122.091 226.133 123.932 224.245C128.594 219.472 133.506 214.949 138.401 210.417C138.788 209.859 139.175 209.301 139.554 208.734C139.821 208.571 140.087 208.408 140.371 208.271C140.672 208.056 140.973 207.695 141.214 207.498C142.642 206.348 143.236 204.871 144.173 203.266C144.517 202.932 145.016 201.592 144.913 200.717C144.973 200.159 144.948 199.55 144.586 199.095C144.105 198.442 143.64 198.605 143.227 198.992C143.167 198.992 143.098 198.992 143.038 199.009C142.986 199.017 142.728 199.241 142.41 199.524C141.042 200.82 139.674 202.108 138.307 203.404C137.704 204.382 137.085 205.386 136.801 205.721C136.225 206.399 135.743 206.726 135.287 206.974C133.85 208.648 132.319 210.219 130.693 211.713L130.728 211.893L130.642 211.756C130.194 212.168 129.747 212.588 129.291 212.992C125.377 216.374 121.239 219.455 117.076 222.511C116.379 223.241 115.682 223.936 114.968 224.528C114.856 224.623 114.65 224.768 114.4 224.94C112.405 227.206 110.288 229.369 108.035 231.404C106.03 233.223 103.923 234.923 101.72 236.502C101.634 236.571 101.557 236.64 101.471 236.7C96.5246 242.786 92.2062 249.369 88.6878 256.399C87.1565 259.447 85.7888 262.571 84.55 265.756C84.3694 266.562 84.1973 267.361 84.0855 268.099C83.2941 273.601 83.2855 278.58 82.9844 283.756C83.1306 284.992 83.1908 286.253 83.2252 287.507C83.2941 287.661 83.3199 287.876 83.2424 288.159C83.2424 288.331 83.2511 288.502 83.2597 288.674C83.3113 290.657 83.3027 292.64 83.2338 294.623C83.1994 295.55 83.1564 296.477 83.1048 297.412C83.165 297.756 83.2166 298.073 83.2424 298.339C83.4919 300.811 83.4747 304.614 84.0855 307.695C84.0855 309.756 84.0683 310.477 84.6188 313.095C85.4361 315.936 87.1479 320.451 87.3286 321.781C87.5179 322.7 87.4318 322.537 88.12 324.399C88.3523 324.94 88.5329 325.627 89.1179 325.876C89.1351 325.876 89.1437 325.876 89.1609 325.884C89.548 326.176 90.0556 326.279 90.7266 326.039C90.7524 326.03 90.8814 325.919 91.0362 325.773C91.2341 325.713 91.4147 325.678 91.5782 325.704C94.5804 325.206 93.2213 318.717 92.447 315.498C92.3352 312.726 92.4298 309.944 92.7567 307.129C92.9116 304.914 93.1954 302.7 93.5654 300.511C93.7288 299.532 93.9008 298.459 94.2019 297.489C94.4514 295.738 94.9503 293.876 95.0106 292.228C95.2686 285.412 94.7525 278.811 95.8192 271.927C96.017 270.64 96.2407 270.082 96.3955 269.06C96.4214 268.03 96.602 267.009 96.8687 266.03C97.2214 264.768 97.7891 263.61 98.3139 262.425C98.4773 261.541 99.4494 259.326 100.464 257.283C101.006 255.318 102.039 253.404 102.994 251.695C103.579 250.631 104.232 249.618 104.912 248.605C104.895 248.554 104.886 248.511 104.869 248.459L104.981 248.494C105.015 248.442 105.05 248.391 105.084 248.339C105.583 247.61 106.133 246.562 107.002 246.168C107.622 245.12 108.809 243.095 109.91 241.429C112.164 237.421 115.071 233.756 118.177 230.288C118.203 230.236 118.237 230.193 118.28 230.142H118.315Z" fill="black"/>
<path d="M565.985 243.42C566.019 242.296 565.985 241.18 565.787 240.09C565.813 240.073 565.83 240.047 565.856 240.03C565.83 240.03 565.804 240.03 565.778 240.021C565.623 239.171 565.365 238.339 564.952 237.54C564.643 236.854 564.144 236.304 563.653 235.738C563.378 235.008 563.06 234.236 562.681 233.403C562.157 231.987 562.053 231.54 560.987 229.377C560.6 228.562 558.922 226.442 557.511 224.699C556.178 223.042 556.445 223.154 555.146 221.317C554.758 220.811 552.427 218.871 553.107 219.472C552.978 219.36 552.711 219.137 552.548 219.008C552.539 219 552.522 218.991 552.513 218.982C552.384 218.862 552.264 218.768 552.135 218.665C552.066 218.639 552.006 218.63 551.945 218.613C551.025 217.403 549.864 216.399 548.788 215.326C547.567 213.789 546.061 212.51 544.719 211.077C544.263 210.605 543.937 210.021 543.455 209.575C543.403 209.455 543.343 209.352 543.274 209.266C542.861 208.751 540.384 205.738 540.134 205.558C539.635 205.197 538.81 205.3 538.465 204.982C537.915 204.467 535.696 200.553 535.455 200.373C535.119 200.124 533.76 199.643 533.149 199.111C530.87 197.077 529.665 194.124 527.437 191.918C526.904 191.394 523.635 188.811 523.136 189.025L522.336 189.935C522.396 191.111 523.867 191.764 524.538 192.699C525.226 193.652 525.691 195.223 526.284 196.158C527.652 198.313 530.113 201.008 531.764 203.111C532.9 204.553 534.001 206.03 535.111 207.489C535.128 207.558 535.145 207.626 535.171 207.686C535.197 207.815 535.24 207.935 535.3 208.03C535.343 208.107 535.412 208.201 535.48 208.304C535.936 209.085 536.539 209.772 537.149 210.433C537.253 210.527 537.339 210.579 537.416 210.596C537.459 210.63 537.493 210.673 537.536 210.708C537.605 210.742 537.683 210.802 537.76 210.819L546.147 220.339C548.462 223.592 550.724 226.914 552.677 230.424C553.227 232.098 553.262 232.751 553.718 234.716C553.847 235.661 553.967 236.613 554.285 237.523C554.664 238.751 554.423 238.218 554.87 239.738C555.146 240.519 555.472 241.283 555.653 242.09C555.679 242.236 555.705 242.39 555.739 242.536C555.799 242.785 555.98 243.583 556.075 243.97C556.565 247.334 556.565 248.287 557.15 251.274C557.262 252.33 557.313 253.403 557.623 254.433C557.657 254.519 557.683 254.613 557.718 254.699C557.718 255.085 557.7 255.48 557.692 255.867C557.219 257.609 556.978 259.394 557.133 261.197C556.909 261.935 556.307 264.648 555.903 266.57C555.782 268.476 555.447 269.6 555.352 272.639C555.352 272.673 555.352 272.708 555.343 272.742C555.12 274.133 554.931 275.523 554.999 276.931C554.999 276.974 554.999 277 554.999 277.034C554.939 277.815 554.87 278.596 554.922 279.377C555.051 283.163 555.275 283.334 556.436 287.575C556.462 287.661 556.488 287.738 556.522 287.815C556.522 287.841 556.556 287.935 556.599 288.107C556.625 288.253 556.651 288.407 556.668 288.553C557.434 292.107 558.501 295.618 559.748 299.042C559.782 299.171 559.817 299.309 559.851 299.437C559.98 299.849 560.169 300.253 560.479 300.545C560.479 300.562 560.488 300.57 560.496 300.588C560.634 300.914 560.978 301.283 561.357 301.257C561.649 301.583 561.898 301.97 561.855 302.382C562.492 302.553 563.361 301.832 563.421 301.206C563.516 300.201 562.578 297.017 562.406 295.643C562.122 293.334 561.959 291.386 562.045 289.429C561.27 288.201 561.116 286.562 561.176 285.146C561.296 282.313 561.812 279.429 562.346 276.639C562.587 275.386 562.871 274.133 563.18 272.897C563.404 269.334 563.524 265.764 563.585 262.218C563.61 260.502 563.37 258.708 563.413 256.948C563.679 256.407 564.307 255.206 564.419 254.287C564.471 254.03 564.548 252.939 564.574 252.519C564.574 252.45 564.591 252.382 564.6 252.313C564.651 251.609 564.884 251.678 565.124 250.227C565.142 249.987 565.15 249.781 565.159 249.6C565.253 249.412 565.322 249.188 565.382 248.974C565.589 248.493 565.684 247.978 565.658 247.455C565.675 247.326 565.701 247.025 565.735 246.742C565.924 245.643 566.002 244.536 565.942 243.42H565.985Z" fill="black"/>
<path d="M532.112 220.674C532.112 220.674 532.112 220.657 532.103 220.648C532.086 220.562 532.069 220.528 532.069 220.554C531.922 220.133 531.724 219.653 531.269 219.55C530.838 219.369 530.503 219.859 530.314 220.176C530.236 220.331 530.185 220.485 530.133 220.648C530.073 220.683 530.013 220.717 529.952 220.76C529.884 220.657 529.798 220.554 529.694 220.468C529.522 220.382 529.35 220.451 529.238 220.571C529.17 220.657 529.118 220.76 529.075 220.863C529.049 220.871 529.032 220.88 529.006 220.889C528.542 221.155 528.017 221.361 527.664 221.79C527.225 222.356 527.045 223.052 526.701 223.67C525.496 224.382 524.352 225.172 523.939 225.464C523.38 225.859 522.993 226.485 522.46 226.88C515.526 232.013 505.521 231.369 497.487 233.798C495.913 234.271 496.42 234.605 495.018 234.58C494.708 234.691 494.39 234.794 494.08 234.897C494.054 234.966 494.011 235.026 493.943 235.043C493.814 235.069 493.676 235.077 493.538 235.077C492.016 235.584 490.476 236.056 488.927 236.485C483.826 237.884 478.639 238.828 473.391 239.412C470.983 239.678 468.419 240.013 465.976 239.91C456.221 242.193 445.864 243.258 436.427 246.339C434.233 247.052 430.483 247.206 428.091 247.438C426.887 247.558 425.88 247.421 425.209 247.489C424.34 247.575 422.706 248.485 421.932 248.665C418.138 249.532 414.043 249.601 410.396 250.854C410.233 250.854 410.121 250.76 410.017 250.648C407.17 251.275 404.28 251.592 401.32 251.532C400.245 251.507 399.161 251.455 398.086 251.352C397.303 251.386 396.572 251.404 396.15 251.429C382.163 252.099 368.253 252.588 354.411 253.859C349.715 254.288 344.914 254.923 340.226 255.275C337.852 255.455 335.366 255.343 332.897 255.215C331.495 254.992 330.075 254.871 328.69 254.511C326.325 254.202 323.916 254.245 321.524 254.15C320.294 254.219 319.081 254.391 317.851 254.391C315.855 254.828 313.808 255.009 311.838 255.558C311.21 255.687 310.324 255.979 309.395 256.313C301.937 256.614 294.478 256.854 287.029 256.854C285.454 256.854 285.394 256.983 284.078 257.137C280.13 257.601 276.155 257.893 272.233 258.468V258.416C269.075 258.7 265.884 258.528 262.787 258.022C260.834 257.704 258.907 257.249 257.006 256.743C256.103 256.674 255.191 256.605 254.296 256.502C245.763 255.532 236.472 256.374 227.655 256.382C224.721 256.382 221.874 255.807 218.958 255.584C209.512 254.854 199.757 255.73 190.699 254.365C183.524 253.283 175.533 253.129 168.117 252.477C167.55 252.099 166.965 251.73 166.363 251.404C165.889 250.992 165.296 250.837 164.711 250.674C162.741 250.004 160.702 249.747 158.638 249.653C155.79 249.034 151.265 249.095 149.261 249.893C148.59 250.099 147.971 250.253 147.351 250.382C146.267 250.288 145.175 250.185 144.082 250.056C139.695 249.524 135.626 248.502 131.428 247.421C128.495 246.665 125.484 246.365 122.628 245.644C122.249 245.395 121.836 245.215 121.467 244.957C120.907 244.562 119.823 244.219 119.393 244.116C117.888 243.644 116.959 243.704 115.531 243.129C115.281 243.06 115.006 242.914 114.739 242.992C114.335 243.095 114.12 243.515 114 243.884C113.724 244.708 113.879 245.584 114.215 246.374C114.086 246.374 113.965 246.374 113.931 246.408C113.311 247.052 115.015 250.459 115.488 251.172C115.703 251.498 116.288 251.781 116.512 252.107C117.122 252.992 117.656 253.919 118.155 254.854C118.654 255.618 119.135 256.391 119.6 257.137C120.864 259.18 122.034 261.283 123.144 263.421C124.064 264.82 124.899 266.279 125.639 267.79C126 268.537 126.335 269.292 126.654 270.056L126.783 270.099C126.774 270.176 126.774 270.253 126.774 270.322C127.153 271.249 127.497 272.185 127.807 273.129C128.297 273.884 128.856 274.622 129.243 275.404C133.914 284.82 138.8 294.588 142.835 304.202C143.024 304.657 143.084 305.884 143.274 306.253C143.351 306.408 143.48 306.485 143.601 306.528C143.635 306.7 143.661 306.846 143.687 306.949C143.704 307.095 143.721 307.232 143.738 307.369C143.721 307.498 143.712 307.627 143.738 307.738C143.773 307.944 143.859 308.21 143.97 308.494C144.297 309.747 144.831 310.94 145.416 312.116C145.743 312.7 146.061 314.58 146.921 315.953C147.532 316.966 148.1 317.987 148.53 319.086C149.373 320.657 149.313 320.279 149.932 321.412C150.465 322.665 151.136 323.841 151.893 324.974C151.893 324.992 151.936 325.06 152.031 325.223C152.616 326.271 153.08 327.395 153.743 328.408C154.982 330.734 156.031 333.172 157.425 335.412C158.861 338.322 160.306 341.24 162.027 343.996C163.343 346.717 165.459 348.897 167.378 351.198C168.169 352.494 168.866 353.841 169.769 355.069C170.526 356.09 171.292 357.112 172.126 358.065C172.582 358.537 173.09 358.957 173.511 359.464C173.511 359.481 173.511 359.498 173.511 359.515H173.563C173.614 359.584 173.675 359.644 173.718 359.713C173.933 360.133 174.724 361.61 174.879 361.987C174.905 362.039 174.931 362.099 174.948 362.15C175.077 362.485 175.275 363.009 175.421 363.361C175.438 363.404 175.455 363.455 175.473 363.524C175.619 363.944 175.765 364.374 175.877 364.803C175.877 364.846 175.877 364.897 175.877 364.94C175.756 366.588 175.473 368.219 175.309 369.859C175.283 371.532 174.991 373.833 174.698 376.331C174.535 376.76 174.371 377.215 174.208 377.713C173.201 380.837 173.657 379.481 172.341 382.477C171.67 384.253 172.023 383.343 171.249 385.026C170.707 386.176 170.475 387.421 170.07 388.614C169.554 389.91 168.883 391.129 168.221 392.356C166.603 395.962 165.184 397.137 162.509 401.635C162.457 401.901 161.365 403.026 160.444 404.296C158.672 406.768 158.276 407.532 157.167 409.034C155.971 410.562 154.896 412.159 154.061 413.91C153.812 414.313 154.027 413.979 154.173 413.756C153.158 415.335 150.99 418.537 150.319 419.687C148.065 423.06 144.624 427.395 141.811 431.781C140.813 432.957 140.022 434.296 138.998 435.455C138.362 436.159 137.596 436.725 136.994 437.464C136.538 437.996 136.151 438.58 135.738 439.146C134.559 440.09 133.441 441.086 132.521 442.116C132.383 442.219 132.237 442.331 132.082 442.459C131.007 443.361 130.267 444.597 129.458 445.73C128.521 447.155 128.822 446.846 127.376 448.262C126.748 448.974 126.026 449.919 125.381 450.82C124.555 451.567 123.729 452.365 122.843 453.249C121.475 455.198 120.658 457 120.107 458.519C120.125 458.485 120.133 458.451 120.15 458.416C119.471 460.262 119.522 459.824 118.585 462.519C118.318 463.515 118.146 464.451 117.94 465.575C117.69 466.348 117.535 467.146 117.389 467.953C117.363 468.056 117.337 468.193 117.32 468.305C117.337 468.236 117.363 468.107 117.38 468.039C117.294 468.545 117.2 469.069 117.165 469.584C116.486 472.468 116.09 476.768 116.236 479.824C116.219 480.219 116.21 480.614 116.185 481.009C116.047 482.588 116.038 484.176 116.296 485.738C116.296 485.876 116.296 486.047 116.296 486.219C116.279 487.79 116.821 489.283 117.475 490.683C117.475 490.7 117.484 490.708 117.492 490.725C117.604 491.043 117.724 491.361 117.879 491.653C118.748 493.567 119.755 495.421 121.251 496.923C122.404 498.09 123.832 498.906 125.097 499.927C125.501 500.245 125.957 500.451 126.439 500.614C127.153 500.923 127.85 501.258 128.615 501.429C130.224 501.756 131.789 502.322 133.45 502.271C134.835 502.374 136.159 502.889 137.536 503.026C138.534 503.069 139.557 503.129 140.521 502.828C141.278 502.554 141.88 501.996 142.594 501.635C143.067 501.481 143.497 501.283 143.919 501.077C143.927 501.077 143.936 501.077 143.945 501.077V501.06C144.005 501.026 144.074 501 144.143 500.966C145.149 500.854 146.147 500.717 147.136 500.52C148.745 500.382 150.31 500.073 151.799 499.421C152.521 499.232 153.734 498.966 155.068 498.374C157.631 497.472 158.483 497.335 161.588 496.073C162.285 495.841 162.879 495.404 163.524 495.06C164.358 494.683 165.167 494.236 165.855 493.627C166.612 493.095 167.421 492.562 168.083 491.901C168.479 491.807 168.883 491.704 169.322 491.584C171.412 490.76 173.46 489.704 175.24 488.331C176.47 487.292 177.64 486.176 178.759 485.009C181.477 483.447 184.178 481.859 186.578 479.816C188.918 478.056 191.353 476.356 193.28 474.125C193.658 473.618 194.114 473.163 194.57 472.708C194.621 472.665 194.665 472.622 194.716 472.571C194.776 472.545 194.837 472.511 194.897 472.485C195.619 472.176 196.325 471.987 197.073 471.781C198.14 471.163 199.129 470.416 200.342 470.073C201.366 469.601 202.174 468.786 203.026 468.065C203.026 468.065 203.026 468.065 203.043 468.056C203.06 468.039 203.095 468.022 203.138 467.979C203.792 467.489 204.514 467.112 205.194 466.665C206.39 465.816 207.482 464.545 207.947 464.236C208.902 463.455 209.994 462.889 211.001 462.176C212.841 461.077 215.525 458.803 216.153 458.219C216.343 458.073 216.523 457.91 216.713 457.756C216.996 457.653 217.289 457.55 217.573 457.438C219.25 456.562 220.885 455.558 222.321 454.322C223.156 453.532 223.904 452.725 224.592 451.901C224.911 451.687 225.229 451.472 225.539 451.232C227.027 449.944 228.3 448.442 229.53 446.906C229.831 446.777 230.141 446.528 230.425 446.245C230.726 445.996 231.036 445.704 231.767 445.052C231.827 445.009 231.913 444.94 232.051 444.82C232.825 444.185 233.728 443.704 234.433 442.983C235.044 442.416 235.552 441.764 236.034 441.095C237.281 440.245 238.27 439.034 239.397 438.03C241.427 436.022 243.234 433.833 244.903 431.524C246.167 429.635 247.948 428.142 249.178 426.219C250.081 424.803 251.501 423.309 253.015 421.532C254.365 420.159 255.724 418.786 257.049 417.395C259.097 415.155 260.86 413.515 262.753 411.944C263.802 411.927 264.834 412.099 265.875 412.159C268.06 412.09 270.245 411.962 272.43 412.056C273.213 412.176 274.039 412.288 274.357 412.279C274.555 412.279 274.736 412.219 274.908 412.15C275.415 412.168 275.932 412.176 276.439 412.193C276.861 412.339 278.031 412.502 278.745 412.554C278.813 412.571 278.874 412.597 278.942 412.614C278.942 412.614 278.942 412.614 278.96 412.614C279.243 412.691 279.502 412.82 279.785 412.906C280.353 413.077 280.947 413.095 281.515 413.24C283.097 413.601 284.697 413.867 286.323 414.013C288.99 414.168 291.837 414.082 294.478 413.661C296.62 413.867 298.762 413.979 300.913 413.859C301.188 413.824 301.429 413.816 301.73 413.73C301.945 413.67 302.031 413.67 302.195 413.429C302.212 413.404 302.229 413.369 302.255 413.343C307.322 413.584 312.475 413.73 317.292 413.017C320.905 412.477 325.155 413.541 328.673 413.275C329.679 413.198 331.83 413.18 333.49 413.06C333.49 413.06 333.508 413.077 333.516 413.077C334.084 413.438 334.832 413.429 335.159 413.532C335.469 413.635 335.796 413.721 336.123 413.687C336.665 413.618 337.207 413.421 337.749 413.61C338.385 413.704 339.03 413.713 339.667 413.841C340.209 413.936 340.648 414.142 341.68 414.219C342.497 414.168 343.288 414.382 344.097 414.382C345.663 414.339 347.289 414.554 348.725 413.798C349.852 413.386 351.048 413.155 352.14 412.648C352.777 412.365 353.379 412.013 353.981 411.644C354.076 411.644 354.171 411.635 354.274 411.627C356.011 411.558 357.173 410.399 359.04 410.065C362.197 409.489 364.881 408.494 367.969 408.434C368.451 408.425 368.941 408.262 369.431 408.219C370.274 408.288 371.109 408.082 371.943 408.004C371.943 408.004 371.96 408.004 371.969 408.004C373.793 408.751 375.909 409.412 377.371 409.678C377.827 409.781 378.386 409.996 378.989 410.245C379.126 410.365 379.247 410.468 379.324 410.554C380.417 411.67 381.475 412.82 382.636 413.884C384.305 415.386 384.434 415.378 385.802 416.528C386.671 417.18 387.522 417.876 388.537 418.296C389.182 418.614 390.017 418.914 390.911 419.249C392.598 420.966 394.378 422.957 395.729 424.253C396.563 425.052 397.424 425.962 398.284 426.846C398.602 427.352 398.938 427.85 399.325 428.305C400.933 430.562 402.895 432.519 404.899 434.416C405.914 435.412 406.731 436.133 407.617 436.846C416.099 445.996 423.179 456.262 432.693 464.399C434.087 465.584 435.386 466.614 436.745 467.756C436.866 467.944 436.977 468.116 437.072 468.21C438.208 469.979 440.169 472.339 442.345 473.558C443.576 474.365 444.728 475.309 446.156 475.781C447.326 476.236 448.926 476.597 449.339 476.725C449.941 476.931 450.543 477.155 451.163 477.318C455.215 479.275 459.825 480.983 462.94 481.318C463.069 481.335 463.206 481.335 463.335 481.344C464.772 481.618 465.125 481.798 466.948 482.262C467.378 482.305 467.8 482.374 468.221 482.451C469.667 483.936 471.224 485.429 473.391 484.597C473.718 484.494 474.028 484.408 474.338 484.331C475.009 484.468 475.697 484.554 476.351 484.665C478.252 485.112 480.127 485.129 482.063 485.077C483.147 484.923 484.213 484.631 485.323 484.614C486.183 484.537 487.087 484.614 487.912 484.339C488.592 484.013 489.203 483.567 489.831 483.146C490.803 483.009 491.749 482.717 492.583 482.202C493.143 481.919 493.762 481.781 494.304 481.464C494.872 481.129 495.302 480.622 495.749 480.15C497.272 478.597 498.175 478.056 498.855 477.386C499.792 476.683 500.618 475.833 501.186 474.803C501.934 473.447 501.685 473.91 502.364 472.811C503.01 471.653 503.25 470.786 503.311 470.717C504.085 468.7 504.223 468.846 504.696 466.477C504.73 466.236 504.764 465.996 504.799 465.747C504.833 465.704 504.868 465.653 504.911 465.627L504.825 465.592C505.005 464.271 505.117 462.931 504.954 461.61C504.937 461.507 504.911 461.404 504.894 461.309C504.61 456.949 503.044 450.837 501.831 448.022C501.461 447.172 500.747 446.245 500.369 445.275C499.551 443.18 499.784 442.296 498.364 440.442C497.134 438.828 496.11 436.348 495.104 434.743C493.951 432.906 492.695 431.352 491.482 429.721C491.457 429.687 491.439 429.644 491.414 429.61C491.414 429.592 491.396 429.567 491.388 429.549C490.949 428.331 490.734 427.034 490.132 425.884C489.512 424.768 489.108 424.288 489.048 424.116C488.067 422.811 486.398 418.974 484.6 416.459C484.471 416.253 484.334 416.065 484.205 415.867C483.267 414.236 482.312 412.683 481.349 411.223C480.428 409.91 479.146 408.897 478.329 407.498C478.071 407.163 477.805 406.828 477.521 406.502C476.144 404.202 474.639 401.893 473.228 399.73C466.785 389.85 460.204 380.588 454.716 370.047C454.32 369.292 453.769 368.537 453.305 367.824C453.726 367.034 454.638 366.871 455.249 366.382C458.896 363.429 463.654 358.477 467.146 354.974C477.297 344.811 485.005 335.163 492.764 323.052C493.771 321.489 494.364 319.052 496.24 318.477L495.981 317.713H497.04L496.506 317.06C498.003 315.223 498.691 312.957 499.835 310.897C506.287 299.258 512.67 288.743 516.799 275.996C517.453 273.979 518.804 272.202 519.423 270.21C520.834 265.661 521.918 261.172 523.208 256.605C524.516 251.987 526.503 247.781 528.034 243.266C529.582 238.7 529.995 237.404 529.531 232.537C529.367 230.803 529.927 230.159 530.494 228.828C530.563 228.674 530.623 228.519 530.684 228.365C531.38 228.03 531.974 227.103 532.12 225.901C532.327 225.301 532.413 224.657 532.439 224.022C532.439 224.073 532.438 224.125 532.43 224.176C532.533 223.06 532.43 221.927 532.146 220.846C532.146 220.811 532.137 220.786 532.129 220.751L532.112 220.674ZM374.928 263.97C377.449 263.738 379.961 263.223 382.49 263.086C385.965 262.519 389.44 261.867 392.881 261.215C395.092 260.794 397.312 260.339 399.531 259.919C399.832 259.816 400.142 259.721 400.443 259.627C402.654 258.949 404.942 258.451 407.204 258.013C407.815 257.893 408.615 258.185 408.744 258.88C408.813 259.283 408.873 259.695 408.934 260.107C409.493 261.404 410.086 262.691 410.637 263.996C410.955 264.751 411.273 265.507 411.566 266.271C411.772 266.803 412.048 267.352 412.202 267.927C412.693 268.897 413.63 270.846 413.656 271C413.716 271.395 413.372 271.524 413.089 271.661C412.108 272.142 409.923 272.537 408.736 272.837C407.996 273.026 407.161 273.18 406.284 273.326C405.088 273.764 403.884 274.168 402.662 274.519C399.815 275.343 396.916 275.962 393.965 276.279C390.98 276.605 387.969 276.725 384.976 276.451C382.085 276.193 379.023 275.713 376.322 274.64C375.728 274.408 375.384 273.644 375.702 273.112C375.702 272.219 376.365 270.906 376.494 270.116C376.803 268.21 376.58 265.936 375.221 264.58C375.023 264.382 374.816 264.399 374.928 263.962V263.97ZM194.467 264.794L205.504 264.494C211.138 265.507 214.571 267.996 220.506 266.828C225.289 265.884 230.33 266.142 235.302 265.798C236.223 265.738 237.591 265.189 238.201 265.146C239.552 265.043 241.41 265.369 242.821 265.283C242.52 269.086 243.113 273.395 243.991 277.129C244.335 278.605 245.298 280.022 245.195 281.592L236.214 281.919C234.614 282.322 232.971 282.571 231.388 282.76C228.506 283.103 225.642 283.112 222.769 282.854C220.188 282.811 217.392 282.554 215.018 282.322C214.717 282.374 214.416 282.416 214.115 282.459C211.362 282.846 208.592 282.974 205.813 283.017C204.394 283.043 202.983 283.017 201.564 283C200.351 282.983 199.009 283.077 197.856 282.657C197.073 282.365 196.488 281.816 196.118 281.146C195.422 280.7 194.802 280.21 194.57 279.893C194.114 279.258 192.884 276.09 192.781 275.352C192.574 273.85 194.759 269.095 194.819 266.949C194.854 265.816 193.667 265.318 194.475 264.794H194.467ZM188.333 359.206C189.193 356.288 192.299 353.361 193.933 350.828C195.826 347.901 197.168 344.193 198.992 341.137C202.992 334.442 210.398 328.039 216.188 322.777C223.362 316.253 230.425 309.361 240.068 306.605C243.199 305.713 247.939 306.236 250.718 308.047C251.638 308.648 252.189 309.661 252.877 310.511C253.066 310.64 253.221 310.794 253.367 310.957C253.892 311.567 254.159 312.374 254.357 313.146C254.374 313.206 254.383 313.266 254.4 313.335C254.529 313.859 254.641 314.382 254.744 314.914C254.744 314.914 254.744 314.931 254.744 314.94C254.838 315.464 254.924 315.996 254.985 316.519C254.985 316.537 254.985 316.554 254.985 316.562C255.045 317.086 255.088 317.618 255.105 318.142C255.105 318.159 255.105 318.168 255.105 318.185C255.122 318.717 255.122 319.249 255.088 319.781C255.071 320.125 255.028 320.468 254.985 320.811C254.976 320.889 254.959 320.966 254.95 321.052C254.899 321.395 254.838 321.73 254.761 322.065C254.684 322.408 254.589 322.743 254.486 323.077C254.469 323.137 254.451 323.198 254.426 323.258C254.322 323.592 254.202 323.936 254.073 324.262C253.901 324.717 253.703 325.163 253.496 325.61C253.393 325.824 253.256 326.039 253.109 326.245C253.084 326.356 253.058 326.468 253.032 326.588C252.886 327.773 252.86 327.867 252.757 328.374C251.871 330.768 250.64 333.258 249.238 335.738C249.169 335.764 249.109 335.781 249.04 335.824C247.888 336.477 247.26 337.713 246.554 338.786C246.382 339.095 246.219 339.404 246.055 339.713C244.464 341.498 242.847 343.301 241.41 345.163C239.741 347.429 238.176 349.798 236.885 352.296C236.008 353.901 235.38 355.867 234.451 357.301C232.515 359.987 230.408 362.537 228.446 365.198C228.412 365.232 228.377 365.258 228.352 365.283C227.577 366.176 227.018 367.24 226.321 368.193C225.151 370.004 224.076 371.876 223.044 373.773C222.201 375.043 221.418 376.348 220.67 377.678C220.222 378.15 219.766 378.622 219.319 379.095C218.571 379.987 218.011 381.034 217.211 381.893C215.422 383.635 213.607 386.142 212.299 388.554C211.465 389.249 210.596 390.004 209.693 390.957C208.575 392.219 207.56 393.558 206.476 394.846C205.263 396.168 203.929 397.395 202.888 398.871C201.744 400.408 200.368 401.781 199.637 403.584C199.576 403.713 199.516 403.85 199.456 403.987C199.189 404.313 198.992 404.657 198.914 404.949C198.467 405.343 198.002 406.571 197.847 407.395C197.796 407.584 197.847 407.412 197.882 407.326C197.65 407.884 197.512 408.528 197.71 409.12C197.744 409.258 197.804 409.361 197.856 409.447C197.856 410.528 198.226 411.584 199.129 411.524C199.757 411.446 200.265 411.12 200.721 410.717C201.168 410.477 201.546 410.159 201.916 409.807C202.441 409.378 202.338 409.507 202.974 408.863C203.491 408.313 203.895 407.678 204.179 406.983C204.239 406.931 204.299 406.88 204.351 406.82C204.497 406.734 205.633 405.79 206.398 404.854C207.766 403.515 209.108 402.168 210.304 400.674C211.276 399.687 212.102 399.223 212.704 398.665C214.261 397.386 215.543 395.824 216.893 394.339C217.513 393.67 218.201 393.052 218.855 392.408C218.958 392.356 219.07 392.305 219.164 392.271C219.741 392.047 220.214 392.356 220.523 392.09C220.971 391.704 222.055 389.095 222.554 388.313C224.962 384.554 227.775 381 230.451 377.404C230.967 376.897 231.474 376.374 231.93 375.807C232.438 375.146 232.825 374.399 233.427 373.816C233.556 373.721 234.201 373.266 234.468 373C235.466 372.09 236.24 370.966 236.98 369.85C236.937 369.919 236.851 370.056 236.868 370.022C238.795 367.335 239.698 365.601 240.318 364.631C240.61 364.219 240.799 363.756 241.014 363.301C241.032 363.275 241.049 363.258 241.057 363.232C241.083 363.18 241.109 363.12 241.135 363.069C242.004 361.73 242.786 360.502 243.965 358.837C244.722 357.653 245.539 356.519 246.382 355.404C247.595 354.588 248.782 353.73 249.729 352.605C251.501 350.665 253.78 347.756 254.443 346.571C255.372 345.198 256.387 343.876 256.98 342.313C257.66 340.691 258.796 339.266 259.019 337.472C259.337 335.936 259.991 335.386 260.387 333.429C260.705 331.438 260.585 331.936 260.714 330.442C260.714 330.494 260.714 330.554 260.697 330.648C260.714 330.459 260.731 330.271 260.774 330.082C260.834 329.558 260.86 329.155 260.886 328.76C261.11 328.408 261.325 328.056 261.471 327.687C262.985 323.919 264.052 320.056 265.385 316.279C265.729 315.292 267.174 312.09 267.983 311.558C268.878 310.974 270.392 310.7 271.536 309.841C272.559 309.069 273.987 306.786 274.538 306.391C275.914 305.412 280.491 305.077 282.177 305.318C285.644 305.816 289.592 307.816 292.276 309.987C295.244 312.391 297.515 316.657 298.625 320.434C299.597 323.738 299.571 327.172 299.046 330.708C298.444 334.828 297.498 339.678 296.147 343.601C293.222 352.116 288.396 360.133 283.338 367.524C278.684 374.331 273.884 381.558 268.473 388.013C267.974 388.425 267.415 389.017 267.286 389.06C266.959 389.249 266.589 389.318 266.262 389.498C265.54 390.039 265.884 389.859 265.282 390.279C264.138 390.871 263.51 392.047 262.563 392.889C261.66 393.721 261.015 394.768 260.267 395.721C258.993 396.889 258.142 398.391 257.213 399.833C256.722 400.786 256.198 401.713 255.664 402.64L254.684 403.979C254.391 404.331 254.081 404.691 253.763 405.06C252.765 405.301 252.043 406.185 251.346 406.88C249.625 408.717 248.068 410.691 246.348 412.528C243.285 416.065 239.862 419.301 236.945 422.949C235.629 424.725 234.511 426.288 233.47 427.764C226.201 434.811 218.751 441.687 211.887 449.163C210.734 449.695 209.659 450.391 208.446 450.76C207 451.155 205.633 451.764 204.437 452.665C203.568 453.017 202.777 453.541 202.063 454.168C201.598 454.631 201.202 454.803 200.11 455.567C197.684 457.515 198.062 457.112 195.791 459.086C194.209 460.665 192.712 462.313 191.249 464.004C186.819 467.567 182.475 471.335 177.503 474.374C173.279 476.957 169.537 477.962 165.399 480.974C161.786 483.61 157.597 484.039 154.199 487.678C154.001 487.893 149.476 489.713 148.814 489.944C144.882 491.301 135.488 492.305 131.48 491.429C129.174 490.923 127.437 489.687 126.301 487.627C125.871 483.558 126.258 479.069 125.733 475.06C125.604 474.047 124.907 473.507 124.907 472.442C124.907 469.438 126.594 460.708 128.039 458.176C128.434 457.481 129.252 456.279 130.078 455.112C130.198 455.043 130.31 454.966 130.413 454.897C132.856 452.906 135.033 450.648 137.132 448.305C139.248 446.348 141.347 444.253 143.721 441.962C145.553 440.228 147.274 438.382 148.796 436.374C148.857 436.296 148.917 436.21 148.977 436.125C150.104 435.258 150.766 434.588 152.074 433.369C152.9 432.683 154.457 431.412 155.876 429.215C156.556 428.09 156.779 427.859 157.674 426.562C158.139 425.661 158.603 424.751 159.076 423.85C161.958 420.846 164.978 417.824 167.791 414.7C173.537 408.313 175.49 402.485 178.595 394.7C179.412 392.657 180.935 390.193 181.554 388.176C182.776 384.202 183.447 378.949 184.032 374.854C184.531 371.386 185.21 367.601 186.432 364.331C186.724 362.777 187.327 361.301 188.471 359.944C188.35 359.695 188.247 359.447 188.325 359.163L188.333 359.206ZM180.212 263.344C180.944 263.404 181.649 263.507 182.303 263.704C182.372 263.781 182.509 264.459 182.647 265.318C184.385 267.738 184.29 270.923 183.98 273.738C183.851 274.914 183.499 276.168 182.406 276.803C181.047 277.592 179.215 276.966 177.778 276.743C174.423 276.219 171.102 275.489 167.773 274.837C166.767 274.64 165.752 274.434 164.737 274.236C164.212 274.193 163.679 274.133 163.154 274.065C162.672 273.996 162.182 273.919 161.691 273.841C160.625 273.901 159.549 273.944 158.483 273.979C156.685 274.039 154.913 273.962 153.192 273.489C151.945 273.489 150.62 273.515 149.39 273.249C149.011 273.301 148.624 273.266 148.246 273.103C147.902 272.949 147.626 272.725 147.403 272.451C146.396 271.807 145.639 270.863 145.226 269.704C144.727 268.331 144.745 266.786 144.882 265.352C145.003 264.056 145.089 262.477 146.121 261.541C146.766 260.957 147.575 260.897 148.289 261.163L148.71 261.249C148.753 261.249 148.805 261.266 148.848 261.275L149.467 261.404C151.059 260.974 153.149 261.24 154.526 261.309C161.33 261.618 168.135 262.099 174.939 262.442C176.78 262.537 178.63 262.631 180.212 263.335V263.344ZM310.479 280.434C310.487 281.163 310.419 281.893 310.229 282.605C309.49 285.489 307.133 287.24 304.191 287.343C302.582 287.404 300.904 287.052 299.313 286.871C299.236 286.863 299.158 286.854 299.081 286.846C298.392 286.88 297.704 286.914 297.025 286.923C293.954 286.974 290.883 286.897 287.811 286.897C287.149 286.897 286.495 286.897 285.833 286.897C284.758 286.94 283.691 286.94 282.624 286.897C280.388 286.906 278.151 286.923 275.914 286.931C273.91 287.086 271.906 287.129 269.901 287.077C268.224 287.034 266.555 286.94 264.886 286.82C263.338 286.7 261.402 286.846 260.026 286.013C259.527 285.713 259.097 285.249 258.813 284.725L258.77 285.009C258.52 284.382 257.996 283.661 257.789 283.095C256.654 279.996 255.879 271.944 256.679 268.837C256.74 268.597 257.015 267.97 257.247 267.91C258.486 267.678 259.733 268.15 260.886 268.202C272.456 268.7 282.478 268.056 293.885 267.756C294.392 267.738 294.883 267.824 295.382 267.893C297.317 267.507 299.322 267.412 301.378 267.738C302.143 267.859 302.892 268.065 303.606 268.313C305.154 268.253 306.677 268.803 307.769 269.944C307.795 269.97 307.812 269.996 307.838 270.022H307.95L307.933 270.125C308.552 270.828 308.999 271.653 309.3 272.537C310.161 273.807 310.728 275.283 310.909 276.94C311.038 278.15 310.875 279.326 310.487 280.434H310.479ZM325.301 284.674C324.458 284.597 323.641 284.348 322.798 284.245C322.755 284.047 322.72 283.841 322.66 283.653C322.686 282.537 322.591 281.412 322.29 280.322C321.972 279.326 321.679 278.322 321.387 277.326C321.395 276.949 321.404 276.228 321.421 275.704C321.421 275.704 321.421 275.687 321.421 275.67C321.49 274.837 321.679 274.013 321.688 273.18C321.688 272.056 321.714 271.318 321.722 271.464C321.722 271.429 321.731 271.386 321.739 271.352C321.808 271.069 321.886 270.786 321.963 270.502C321.989 270.374 322.023 270.236 322.058 270.099C322.402 269.635 322.729 269.198 323.004 268.777C325.525 268.382 328.174 268.382 330.695 268.262C333.602 268.116 336.51 267.944 339.417 267.833C340.802 267.781 342.187 267.73 343.572 267.687C343.607 267.678 343.641 267.661 343.676 267.661C343.693 267.661 343.796 267.661 343.916 267.678C344.028 267.678 344.149 267.678 344.261 267.678C346.239 266.811 348.691 266.957 350.867 266.983C354.833 267.017 358.799 266.605 362.721 266.056C363.16 265.996 363.659 266.082 363.883 266.528C364.485 267.73 364.967 268.974 364.958 270.202C365.13 270.683 365.302 271.18 365.543 271.635C366.162 272.777 368.141 275.343 368.003 276.631C368.029 276.717 368.038 276.794 368.029 276.88C367.745 280.047 364.184 280.554 361.663 281.077C361.164 281.18 360.657 281.266 360.158 281.352C358.532 281.901 354.85 282.657 354.076 282.828C349.68 283.816 345.534 284.751 340.983 284.863C335.83 285 330.523 285.172 325.284 284.691L325.301 284.674ZM454.372 382.949C455.834 383.73 454.905 384.717 455.507 386.03C461.778 394.15 466.165 403.481 471.533 412.133C473.607 415.472 476.256 418.09 478.389 421.112C483.929 428.957 487.844 439.472 492.953 447.859C493.685 449.06 495.267 450.786 495.758 451.893C496.059 452.562 495.904 453.378 496.085 453.807C496.119 453.893 496.171 453.987 496.222 454.099C496.239 454.717 496.265 455.438 496.334 456.313C496.308 456.897 496.265 457.61 496.222 458.82C496.386 461.747 496.308 460.502 496.541 463.79C496.369 464.923 496.179 465.953 495.801 467.017C495.534 467.395 495.353 467.438 494.227 468.408C492.532 470.142 492.91 469.764 491.371 471.009C489.211 472.777 488.102 473.541 485.693 473.653C484.815 473.747 483.947 473.507 483.069 473.455C482.484 473.404 481.891 473.464 481.306 473.361C479.766 472.82 478.26 472.03 476.592 472.099C475.086 472.065 473.581 472.313 472.092 471.953C469.787 471.747 467.189 471.498 465.718 471.137C464.935 471.017 463.241 470.193 461.727 469.764C460.866 469.55 459.963 469.541 459.086 469.404C458.759 469.404 458.458 469.395 458.174 469.369C453.417 467.781 448.685 465.781 444.16 463.807C443.627 463.515 443.077 463.249 442.5 463.026C441.95 462.777 441.468 462.391 440.926 462.133C440.737 461.962 440.547 461.79 440.35 461.61C437.941 459.146 435.98 456.288 433.769 453.653C432.934 452.837 432.04 452.073 431.059 451.438C430.947 451.275 430.844 451.103 430.723 450.94C430.095 449.936 429.39 449 428.306 447.756C428.074 447.309 427.816 446.88 427.523 446.468C427.257 446.202 427.024 446.09 426.818 446.03C426.62 445.807 426.422 445.592 426.207 445.386C426.104 445.292 426.001 445.215 425.889 445.12C425.493 444.743 425.089 444.374 424.659 444.039C423.928 442.974 423.153 441.901 422.104 440.622C416.968 434.382 411.48 428.468 405.862 422.665C404.83 421.043 404.254 419.155 402.903 417.738C402.215 416.622 400.821 415.841 400.434 415.489C399.918 415.172 398.456 413.447 397.312 412.588C397.122 412.485 396.942 412.416 396.77 412.348C396.589 412.15 396.417 411.996 396.262 411.927C395.531 411.61 396.039 412.185 394.937 411.446C393.269 410.331 391.436 409.017 389.673 407.653C388.89 406.597 388.099 405.532 387.264 404.451C385.905 402.768 383.875 400.296 382.842 399.644C382.094 398.854 381.182 398.279 380.262 397.713C379.573 397.292 378.946 396.751 378.18 396.485C377.466 396.322 376.588 395.996 375.677 395.567C374.816 394.545 373.913 393.326 373.251 392.94C371.814 392.099 371.806 392.511 370.3 391.009C363.754 384.459 357.164 374.236 352.45 365.944C351.237 363.816 350.936 362.768 349.422 360.957C343.125 353.412 340.037 340.811 340.355 331.189C340.407 329.73 341.181 324.914 341.835 321.859C343.03 320.279 344.398 318.794 345.697 317.704C346.385 316.82 351.478 314.159 352.45 314.03C354.368 313.653 356.338 314.073 358.239 314.408C359.409 314.622 360.356 314.648 360.708 314.871C361.792 315.472 363.005 315.833 363.995 316.58C364.536 317.086 365.216 317.343 365.853 317.695C366.18 318.073 366.438 318.365 366.498 318.382C366.661 318.571 366.833 318.76 366.988 318.957C367.969 320.142 368.846 321.335 369.586 322.399C370.291 323.275 371.066 324.099 371.728 325.009C371.745 325.034 371.754 325.052 371.771 325.069C372.124 325.661 372.468 326.271 372.915 326.794C374.111 328.253 374.266 328.519 375.178 329.927C376.717 331.97 378.283 334.004 379.9 335.987C383.006 339.507 385.862 343.258 389.096 346.657C389.535 347.069 389.914 347.386 390.258 347.661C391.256 348.992 392.434 350.228 393.432 351.532C394.757 353.344 396.744 355.146 397.828 355.97C398.095 356.219 398.353 356.434 398.611 356.597C398.679 356.648 398.74 356.7 398.8 356.76C399.092 357.086 399.385 357.412 399.686 357.756C401.467 359.824 403.006 360.846 405.071 362.64C408.245 365.412 411.617 368.168 414.258 371.215C416.856 374.202 420.263 379.936 422.328 383.369C423.893 385.979 424.968 388.803 426.345 391.404C426.586 391.85 427.197 392.365 427.859 392.889C428.065 393.447 428.28 393.798 428.495 394.434C428.805 395.06 429.27 395.404 429.433 395.859C429.459 396.116 430.207 397.283 430.044 396.949C430.388 397.747 430.973 398.416 431.653 398.957C432.246 399.429 432.822 400.065 433.992 400.725C434.259 400.889 434.543 401.026 434.827 401.155C434.904 401.275 434.982 401.395 435.068 401.498C435.644 402.382 436.737 403.12 437.812 402.7C437.906 402.648 437.984 402.58 438.07 402.519C438.448 402.331 438.75 402.004 438.982 401.627C438.982 401.627 438.99 401.627 438.999 401.627C439.842 401.146 440.126 400.107 440.169 399.18C440.315 398.262 440.1 397.266 439.541 396.545C439.507 396.519 439.481 396.494 439.455 396.459C439.128 395.962 438.707 395.524 438.208 395.172C437.803 394.828 437.339 394.494 436.831 394.313C436.547 394.004 436.263 393.695 435.902 393.481C435.481 393.24 434.973 393.172 434.543 392.94C433.906 392.554 433.167 392.356 432.556 391.936C432.143 391.661 431.687 391.309 431.214 390.914C431.162 390.854 431.119 390.786 431.068 390.725C430.164 388.837 429.726 387.275 428.779 385.146C427.609 382.511 426.465 379.859 425.218 377.266C424.186 374.683 421.381 370.348 420.401 369.189C419.781 367.962 418.37 366.854 417.011 365.498C415.867 364.236 414.706 363.498 413.673 362.64C413.235 361.876 413.123 361.077 412.744 360.519C412.547 360.228 412.254 359.97 411.936 359.704C411.712 359.301 411.48 358.906 411.265 358.502C410.327 356.717 409.389 355.807 409.037 355.12C407.884 353.318 406.232 350.665 403.196 347.18C403.024 346.974 402.972 346.786 402.292 345.867C401.587 345.112 401.561 345.034 401.475 344.897C400.288 342.949 399.531 342.571 398.662 341.816C398.783 341.919 398.852 341.97 398.619 341.764C397.286 340.511 396.236 339.627 395.419 338.837C394.378 337.541 393.458 336.262 392.95 335.447C392.675 335.06 392.529 334.708 392.408 334.348C392.374 334.202 392.322 334.065 392.296 333.919C392.279 333.901 392.271 333.893 392.262 333.876C392.081 333.326 391.866 332.751 391.221 332.039C391.221 332.039 391.213 332.03 391.204 332.022L391.247 331.876C391.144 331.859 391.066 331.824 390.989 331.79C390.843 331.644 390.688 331.498 390.542 331.352C390.318 330.906 390.318 330.279 389.974 329.85C389.096 328.768 389.587 329.369 389.028 328.185C388.236 326.511 385.905 323.12 384.873 321.901C384.855 321.876 384.821 321.859 384.804 321.833C384.615 321.069 383.901 319.704 383.445 318.786C382.954 317.944 382.232 317.275 381.715 316.442C381.001 315.034 378.877 311.481 377.5 308.863C377.285 308.245 377.062 307.627 376.804 307.034C376.279 306.03 376.003 305.721 375.831 305.429C375.797 305.369 375.763 305.326 375.737 305.283C375.548 304.889 375.384 304.537 375.238 304.21C375.126 303.773 374.997 303.352 374.868 302.923C374.885 302.777 374.911 302.64 374.963 302.545C375.358 301.798 377.113 300.614 377.956 300.511C378.206 300.477 380.649 300.528 380.804 300.58C382.593 301.18 384.107 301.438 386.077 301.901C390.37 302.923 394.421 303.979 398.43 305.326C401.011 304.88 403.781 305.678 405.656 307.567C406.267 308.133 406.379 308.253 405.983 307.944C405.295 307.421 405.656 307.695 407.024 308.751C410.534 310.399 415.807 313.189 418.026 316.202C419.033 317.567 420.461 320.992 421.304 322.794C426.259 333.343 429.425 344.313 435.678 354.228C436.737 355.901 438.251 357.472 439.223 359.112C442.423 364.511 444.376 370.837 447.859 376.271C449.89 379.429 451.085 381.18 454.372 382.931V382.949ZM460.806 259.678C460.634 259.876 460.23 260.159 459.757 260.451C459.327 261.266 458.75 262.004 458.131 262.588C457.924 262.786 457.58 263.034 457.417 263.146C457.271 263.258 456.978 263.515 456.746 263.653C456.238 263.962 455.653 264.159 455.094 264.339C454.888 264.408 454.673 264.468 454.466 264.519C453.348 264.983 452.152 265.378 451.395 265.678C447.73 267.129 443.137 269.12 438.887 269.498C438.388 269.541 437.889 269.541 437.382 269.524C434.603 270.348 431.618 270.58 428.771 270.013C428.452 269.944 428.134 269.867 427.816 269.781C427.781 269.781 427.738 269.781 427.704 269.781C425.786 269.661 424.057 269.009 422.861 267.438C422.508 266.966 422.241 266.468 422.026 265.953C420.65 264.21 419.859 262.056 419.936 259.713C419.747 259.043 419.618 258.356 419.558 257.678C419.54 257.464 419.618 257.266 419.747 257.095C419.876 256.734 420.177 256.451 420.59 256.502C421.932 256.665 423.334 256.588 424.685 256.605C425.39 256.605 426.095 256.622 426.792 256.631C429.338 256.408 431.876 256.022 434.285 255.464C442.827 253.489 451.713 252.399 459.825 248.983C460.075 251.189 459.903 253.738 460.41 255.901C460.703 257.129 462.346 257.867 460.798 259.687L460.806 259.678ZM506.106 241.344C505.599 243.807 505.496 246.219 503.982 248.365C502.356 250.683 499.749 251.395 497.117 252.013C493.994 252.743 490.863 253.447 487.672 253.824C487.345 253.867 487.018 253.901 486.691 253.927C484.48 254.322 482.252 254.554 480.015 254.734C478.863 255.129 477.865 255.472 477.228 255.67C476.325 255.953 475.086 256.734 474.183 256.854C472.634 257.06 470.441 256.125 468.798 256.339C468.996 253.756 468.961 252.022 467.757 249.687C467.568 249.318 467.301 248.811 467.129 248.502C467.051 248.356 465.856 247.447 466.424 247.249C468.075 246.674 469.4 247.215 471.009 247.086C473.744 246.871 478.131 245.781 480.979 245.198C481.185 245.155 481.607 245.034 482.106 244.897C485.013 243.91 487.973 243.103 490.975 242.485C491.121 242.391 491.302 242.365 491.5 242.374C491.654 242.339 491.809 242.322 491.964 242.288C492.377 242.15 492.79 242.022 493.203 241.901L493.22 241.85C493.28 241.833 493.349 241.85 493.409 241.833C494.27 241.575 495.138 241.344 496.016 241.146C498.597 240.571 501.349 240.142 504.025 240.116C504.472 239.996 504.937 239.927 505.444 240.022L505.341 240.15C505.883 240.262 506.201 240.777 506.089 241.335L506.106 241.344Z" fill="black"/>
</g>
<defs>
<clipPath id="clip0_527_3368">
<rect width="483" height="314" fill="white" transform="translate(83 189)"/>
</clipPath>
</defs>
</svg>
