<svg width="650" height="650" viewBox="0 0 650 650" fill="none" xmlns="http://www.w3.org/2000/svg">
<g clip-path="url(#clip0_527_3344)">
<path d="M542.431 294.019C539.23 291.195 536.603 287.991 533.529 285.115C528.735 280.629 524.277 275.443 520.414 270.213C517.354 267.396 514.824 263.954 513.03 260.184C511.876 258.5 510.387 256.264 510.313 256.048C509.948 255.057 510.462 255.616 509.688 254.573C505.698 249.193 504.358 244.424 502.453 238.128C500.912 233.024 499.58 228.457 498.724 223.137C498.664 222.779 498.56 222.429 498.448 222.071C498.448 221.266 498.448 220.402 498.433 219.441C497.979 215.879 497.875 212.221 496.855 208.763C496.848 208.733 496.841 208.704 496.833 208.674C496.818 208.592 496.803 208.51 496.788 208.428C496.774 208.286 496.759 208.137 496.721 207.981C496.625 206.856 496.275 205.865 496.074 205.44C495.94 205.142 495.836 204.717 495.679 204.211L495.769 204.166C495.717 204.144 495.679 204.106 495.635 204.084C495.59 203.95 495.545 203.816 495.493 203.667C495.27 202.996 494.92 202.385 494.63 201.737C494.608 201.588 494.578 201.431 494.533 201.29C494.481 201.118 494.399 201.022 494.31 200.955C494.079 200.44 493.781 199.852 493.469 199.3C492.866 196.901 492.427 192.743 492.159 190.895C491.92 189.264 492.032 187.572 491.437 186.022C489.747 186.045 490.484 187.259 490.484 188.191C490.484 188.973 490.186 189.748 490.514 190.672L489.598 191.179C489.628 192.758 489.68 194.383 489.844 195.947C490.052 197.914 490.67 199.777 490.975 201.67C491.273 203.54 491.392 207.81 492.032 209.285C493.833 213.45 493.446 218.852 494.198 223.561C494.965 228.367 495.59 233.948 496.528 238.59C496.922 240.572 497.793 242.837 498.255 244.842C498.411 245.527 499.088 248.306 499.118 249.238C499.155 249.394 499.185 249.543 499.208 249.7C499.208 249.707 499.222 249.722 499.222 249.73C499.461 250.266 499.267 251.071 498.701 251.332C496.126 252.524 493.379 253.492 490.677 254.364C484.924 256.212 479.014 257.315 473.044 257.695C468.027 259.535 461.514 259.871 456.602 261.8C452.776 263.298 449.933 263.917 445.854 264.751C437.8 266.398 429.851 268.037 421.67 268.544C420.197 268.79 418.715 269.035 417.234 269.259C410.356 270.325 403.471 271.345 396.594 272.418C394.041 272.813 391.495 273.193 388.942 273.581C381.93 275.369 374.963 276.397 367.676 277.627C357.248 279.378 346.56 278.439 335.945 278.044C332.641 277.925 329.224 277.694 326.351 277.597C325.778 277.574 325.22 277.515 324.669 277.44C322.064 277.5 319.458 277.485 316.861 277.388C313.943 277.276 311.025 277.023 308.13 276.673C307.713 276.621 307.303 276.569 306.887 276.524C303.403 276.323 299.912 276.04 296.444 275.652C294.717 275.458 292.99 275.212 291.271 274.944C279.532 274.788 267.809 274.251 256.101 273.372C249.394 272.865 242.695 272.247 236.019 271.442C232.997 271.077 229.982 270.682 226.975 270.257C226.96 270.302 226.938 270.325 226.878 270.302C226.848 270.272 226.804 270.257 226.774 270.228C225.643 270.071 224.511 269.907 223.38 269.743C216.755 269.609 210.146 268.894 203.603 267.851C199.115 267.135 194.634 266.211 190.257 264.945C188.314 264.55 186.372 264.118 184.444 263.633C181.943 263 179.487 262.255 177.045 261.458C176.725 261.458 176.435 261.458 176.331 261.398L176.39 261.279C175.564 261.055 174.745 260.832 173.934 260.593C173.904 260.593 173.874 260.586 173.845 260.578C170.86 259.774 165.873 258.738 163.372 257.702C162.806 257.464 162.084 257.203 161.302 256.95C160.722 256.912 160.134 256.868 159.568 256.816C159.159 256.778 158.749 256.734 158.34 256.682C157.938 256.629 157.529 256.57 157.127 256.503C156.449 256.391 155.772 256.264 155.095 256.13C154.916 256.093 154.737 256.063 154.559 256.026C154.097 255.929 153.636 255.81 153.182 255.705C153.182 255.705 153.189 255.713 153.189 255.72C151.388 255.296 149.609 254.789 147.852 254.223C147.83 254.238 147.8 254.252 147.778 254.275C147.704 254.252 147.637 254.23 147.562 254.208C147.562 254.208 147.555 254.208 147.547 254.208C147.547 254.208 147.54 254.208 147.532 254.208C145.865 253.716 144.041 253.224 142.449 253.038C142.426 253.038 142.404 253.023 142.382 253.016C142.553 252.114 144.205 250.527 144.704 249.752C145.939 247.844 147.078 245.356 148.351 243.478C148.5 243.262 148.656 243.038 148.82 242.815C149.907 240.185 151.113 237.599 152.482 235.118C152.966 234.239 153.472 233.382 154.001 232.532C154.001 232.532 154.001 232.517 154.001 232.51C154.157 232.257 154.313 231.996 154.477 231.75C154.775 231.139 155.072 230.528 155.363 229.917C155.333 229.872 155.318 229.835 155.318 229.813C155.34 229.559 155.504 229.127 155.705 228.635C155.705 228.628 155.713 228.621 155.72 228.613C156.42 227.25 157 225.819 157.588 224.403C158.102 222.794 158.898 219.843 159.263 218.815C159.806 217.407 160.521 216.065 161.027 214.642C161.377 213.666 161.578 212.638 161.615 211.602C161.615 211.699 161.6 211.811 161.593 211.9C161.593 211.863 161.6 211.826 161.608 211.788C162.01 208.227 161.995 208.07 162.032 204.688C162.032 204.613 162.039 204.539 162.047 204.464C162.077 204.196 162.099 203.928 162.129 203.659C162.114 203.086 162.769 201.737 162.508 200.366C162.359 199.889 162.069 199.613 161.697 199.911L160.811 199.546C160.112 200.955 159.68 202.497 159.218 204.017C158.831 205.313 159.241 205.552 158.161 206.833C157.812 207.251 157.276 207.288 156.985 207.944C156.412 209.225 155.876 211.766 155.348 213.13C152.877 219.515 150.011 225.633 147.637 231.929C146.2 235.736 143.967 239.112 142.344 242.435C139.568 248.143 136.003 252.844 132.065 257.799C131.834 258.015 131.604 258.224 131.388 258.403C130.465 259.222 129.378 259.818 128.433 260.608C127.733 261.152 126.468 262.478 125.478 263.343C123.349 265.079 121.384 266.763 119.27 268.283C118.362 268.924 117.461 269.572 116.531 270.175C116.047 270.481 115.489 270.675 115.042 271.055C114.506 271.576 114.089 271.994 113.71 272.374C113.561 272.344 113.39 272.374 113.204 272.5C113.092 272.56 112.98 272.619 112.861 272.679C112.779 272.679 112.698 272.687 112.608 272.724C112.229 272.903 111.976 273.275 111.7 273.581C111.023 274.199 110.472 274.929 109.862 275.615C109.244 276.107 107.353 278.416 106.654 278.953C105.917 279.802 106.326 279.489 105.44 280.48C104.822 281.173 104.197 281.769 104.108 282.76C104.078 282.977 104.063 283.193 104.056 283.409C103.81 284.78 104.279 286.449 105.403 285.942C105.716 285.927 106.066 285.793 106.453 285.502C107.368 284.973 108.008 284.117 108.656 283.297C117.938 277.299 126.244 270.637 134.194 263.022C134.573 262.657 134.879 261.875 135.258 261.577C135.72 261.212 136.367 261.234 136.829 260.869C137.246 260.534 138.28 258.842 139.151 257.591C139.203 257.292 139.397 257.024 139.672 256.868C139.985 256.465 140.238 256.197 140.379 256.205C140.58 256.577 140.9 256.793 141.139 257.032C143.811 258.164 146.565 259.319 148.805 261.182C149.788 261.644 150.785 262.24 151.849 263.134C151.998 263.261 152.147 263.388 152.304 263.514C153.777 264.423 155.043 265.638 156.033 267.061C157.551 268.73 163.476 276.703 164.034 277.746C168.403 285.808 167.302 294.675 166.684 303.117C166.758 304.801 166.565 306.522 166.409 308.154C166.163 310.657 165.813 313.146 165.367 315.62C164.458 320.575 163.096 325.441 161.325 330.165C160.424 332.579 159.464 335.008 158.385 337.377C158.109 338.063 157.826 338.741 157.536 339.396C157.365 339.776 156.509 341.945 156.405 342.034C155.921 342.451 156.256 341.721 155.794 342.653C150.763 352.741 145.843 362.86 140.9 372.979C139.196 376.473 137.35 379.849 136.315 383.693C135.809 385.564 135.392 387.888 135.109 389.811C135.087 389.945 135.08 390.131 135.072 390.34C135.005 390.541 134.923 390.735 134.864 390.936C134.663 392.806 134.521 394.691 134.454 396.576C134.387 398.596 134.432 400.622 134.566 402.634C134.581 402.88 134.603 403.133 134.626 403.387C134.678 403.968 134.73 404.557 134.767 405.145C134.767 405.175 134.767 405.205 134.767 405.235C134.782 405.51 134.789 405.786 134.789 406.062C134.789 406.457 134.774 406.844 134.722 407.232L134.774 407.179C134.894 407.693 135.05 408.386 135.236 408.93C135.616 410.935 136.137 412.917 136.94 414.787C137.082 415.092 137.238 415.391 137.395 415.689C137.588 416.203 137.796 416.717 138.02 417.209C139.069 419.63 140.305 421.947 141.503 424.295C142.627 426.59 143.684 428.922 144.994 431.112C145.597 432.23 146.468 433.147 147.235 434.145C148.277 435.479 149.259 436.857 150.309 438.184C151.835 440.516 153.755 442.99 156.315 444.77C156.814 445.202 157.536 445.91 158.37 446.7C160.685 448.57 163.096 450.329 165.582 451.976C165.597 451.983 165.612 451.99 165.627 451.998C167.882 453.488 170.197 454.889 172.564 456.178C175.772 457.922 179.085 459.516 182.479 460.865C182.799 460.857 183.119 460.85 183.424 460.902C188.396 461.64 193.584 463.234 198.556 464.017C209.744 465.782 220.231 465 231.441 464.352C233.339 464.24 234.619 464.017 236.413 463.8C238.438 463.562 240.38 464.054 242.569 463.763C243.492 463.502 244.407 463.249 245.33 463.003C250.689 461.573 256.093 460.395 261.534 459.449C261.773 459.397 262.011 459.345 262.256 459.293C262.338 459.278 262.428 459.278 262.517 459.278C262.926 459.211 263.343 459.136 263.76 459.069C268.315 457.072 273.161 455.642 277.91 454.181C286.038 451.678 294.285 449.569 302.592 447.743C308.494 445.232 314.486 442.989 320.635 441.149C322.518 440.583 324.408 440.046 326.314 439.54C328.108 438.631 329.909 437.677 331.755 436.827C334.859 435.397 337.092 434.86 340.129 432.908C340.821 432.461 340.501 432.424 340.709 432.275C340.791 432.215 341.729 431.828 342.109 431.619C345.741 429.652 349.44 427.901 352.671 425.822C352.991 425.613 353.497 425.308 353.973 425.07C354.435 424.742 354.889 424.399 355.358 424.086C356.854 423.073 358.387 422.126 359.958 421.232C364.915 417.79 370.066 414.638 375.566 412.157C377.144 411.196 378.745 410.257 380.337 409.318C384.908 406.613 389.433 403.834 394.011 401.151C396.437 399.728 398.953 398.342 401.603 397.366C405.756 394.624 410.252 391.003 414.153 387.531C414.368 387.337 414.584 387.143 414.8 386.957C415.396 386.421 415.969 385.891 416.527 385.377C417.16 384.789 417.428 384.61 417.822 384.364C418.15 384.088 418.47 383.82 418.797 383.552C419.147 383.082 419.519 382.509 420.1 382.494C420.174 382.434 420.249 382.375 420.323 382.315C420.122 381.607 421.32 381.272 421.909 380.72C423.68 379.059 425.206 376.935 427.037 375.348C428.049 374.469 428.198 374.663 429.091 373.538C430.893 371.265 432.873 369.812 434.614 367.629C437.673 363.791 440.673 359.865 443.576 356.035C446.784 351.795 450.208 346.997 453.059 342.407C456.014 337.645 458.693 332.698 461.358 327.758C461.827 326.595 462.318 325.441 462.832 324.3C464.812 319.912 467.082 315.612 469.68 311.537C470.446 309.756 471.131 307.99 471.868 306.477C472.337 305.501 472.471 305.181 472.791 304.22C473.096 303.311 473.632 302.498 474.183 301.724C474.942 300.658 475.672 299.518 476.379 298.363C477.317 296.105 478.403 293.9 479.632 291.776C479.684 291.247 479.758 290.733 479.855 290.249C480.532 286.784 482.177 283.476 483.651 280.294C485.087 277.202 486.658 274.169 488.355 271.219C491.734 265.347 495.583 259.52 500.205 254.55C500.942 253.761 502.148 254.416 502.215 255.385C502.215 255.4 502.215 255.415 502.215 255.43C502.289 255.638 502.356 255.84 502.468 256.003C510.901 268.574 520.86 277.88 531.385 288.446C531.683 288.744 532.077 289.273 532.487 289.735C532.799 290.338 533.142 290.919 533.544 291.471C534.273 292.276 534.824 293.267 535.732 293.885C536.618 294.339 536.618 294.541 537.496 295.323C538.106 295.86 538.873 296.165 539.498 296.687C540.138 297.186 540.779 297.707 541.478 298.125C542.014 298.303 542.535 298.534 543.071 298.751C543.533 298.937 544.128 299.175 544.627 299.004C544.887 298.914 545.096 298.736 545.282 298.52C545.282 298.52 545.282 298.52 545.282 298.512C545.453 298.303 545.594 298.073 545.706 297.856C545.803 297.678 545.877 297.484 545.959 297.305C545.438 296.061 543.361 295.025 542.379 294.161L542.431 294.019ZM416.572 279.296L427.476 275.578C435.039 274.914 442.713 273.26 450.171 271.576C451.109 271.368 456.304 269.736 456.706 270.086C457.026 270.369 457.436 273.216 457.443 273.812C457.473 277.194 457.383 281.449 456.81 284.616C456.654 285.51 456.907 286.218 456.862 286.501C456.803 286.888 456.55 286.642 456.423 287.932C456.274 289.444 456.155 292.328 455.768 293.624C455.679 293.93 455.545 294.176 455.351 294.399C453.304 295.189 451.302 296.068 449.166 296.62C447.424 296.947 442.355 298.117 439.795 299.622C438.991 300.01 438.18 300.375 437.361 300.74C436.371 300.941 435.418 301.142 434.681 301.284C433.565 301.612 431.719 302.282 429.97 302.603C429.672 302.767 429.359 302.923 429.047 303.057C428.972 303.087 428.898 303.117 428.823 303.147C428.593 303.244 428.362 303.326 428.124 303.408C428.019 303.445 427.908 303.475 427.804 303.504C427.58 303.571 427.357 303.624 427.134 303.676C427.03 303.698 426.933 303.72 426.829 303.743C426.501 303.802 426.174 303.847 425.839 303.869C425.184 303.914 424.521 303.84 423.874 303.683C422.467 304.093 420.911 303.586 419.929 302.498C418.753 301.202 418.336 299.369 417.926 297.715C417.435 295.696 417.249 293.535 417.919 291.702C417.569 289.057 417.085 286.255 416.423 283.833L416.564 279.303L416.572 279.296ZM355.618 347.63C354.063 347.719 351.643 348.83 350.981 348.919C349.857 349.18 348.674 349.135 347.564 349.448C347.215 349.537 346.887 349.672 346.56 349.813C346.284 349.835 346.009 349.865 345.726 349.91C345.659 349.843 345.592 349.783 345.547 349.746C344.423 348.695 342.711 349.105 341.32 349.18C339.637 349.314 337.97 349.575 336.288 349.768C335.454 349.858 334.613 349.947 333.779 350.029C332.946 350.506 332.053 350.908 331.137 351.177C331.055 351.199 330.973 351.221 330.891 351.244C330.616 351.318 330.341 351.385 330.065 351.43C329.894 351.46 329.73 351.475 329.559 351.482C329.507 351.482 329.455 351.482 329.403 351.482C329.291 351.482 329.179 351.482 329.068 351.475C329.008 351.475 328.956 351.475 328.897 351.46C328.763 351.445 328.629 351.423 328.502 351.393C328.435 351.378 328.368 351.356 328.309 351.333C328.234 351.311 328.16 351.281 328.085 351.251C328.018 351.221 327.944 351.192 327.877 351.154C327.825 351.125 327.765 351.095 327.713 351.057C327.542 350.953 327.386 350.826 327.244 350.677C326.991 350.417 326.783 350.089 326.619 349.679C326.038 348.204 325.994 346.408 325.815 344.851C325.383 341.155 325.056 337.459 324.833 333.749C324.721 331.871 324.654 329.986 324.609 328.101C324.579 326.849 324.46 325.463 325.115 324.33C325.205 324.181 325.309 324.047 325.428 323.92C325.532 323.518 325.644 323.108 325.778 322.706C325.964 322.14 326.358 321.618 326.492 321.022C327.237 321.022 327.825 320.553 328.495 320.404C328.517 320.404 328.539 320.396 328.569 320.389C330.199 320.418 331.822 320.448 333.452 320.478C336.541 320.716 339.615 321.119 342.711 321.246C345.979 321.536 349.641 321.633 352.306 322.214C352.76 322.125 353.221 322.125 353.675 322.177C353.713 322.177 353.757 322.184 353.795 322.192C353.988 322.222 354.182 322.259 354.368 322.311C354.427 322.326 354.487 322.341 354.546 322.363C354.747 322.423 354.948 322.49 355.142 322.579C355.432 322.706 355.693 322.87 355.953 323.049C355.968 323.049 355.99 323.049 356.005 323.049C356.75 323.071 357.643 322.579 358.283 323.257C358.648 323.645 359.794 327.892 359.943 328.674C360.464 331.401 360.464 334.21 360.657 336.841C360.776 338.45 361.699 346.326 360.851 347.175C360.092 347.645 359.176 347.362 358.342 347.518C357.434 347.444 356.526 347.444 355.618 347.63ZM373.438 287.514C373.438 287.514 373.475 287.477 373.504 287.462C373.78 287.321 374.055 287.164 374.331 287.015C374.539 286.836 374.77 286.657 375.016 286.553C375.149 286.493 375.291 286.441 375.432 286.382C375.991 286.061 376.541 285.741 377.115 285.443C378.298 284.839 379.496 284.273 380.717 283.737C383.159 282.664 385.659 281.732 388.205 280.942C390.743 280.16 393.334 279.482 395.954 279.035C398.268 278.275 400.613 277.604 402.988 277.031C404.201 276.74 405.98 276.107 406.918 277.321C407.208 277.701 407.29 278.141 407.238 278.588C408.131 280.92 408.421 284.489 408.935 286.933C409.62 290.219 410.781 292.045 410.133 295.658C409.791 297.551 408.786 299.607 408.622 301.463C408.533 302.476 408.466 303.445 408.384 304.421C408.31 305.375 408.496 306.336 408.257 307.275L407.521 307.491C405.816 307.521 404.111 307.714 402.407 307.692C400.784 307.729 399.154 307.565 397.554 307.893C395.797 308.385 393.959 308.258 392.172 308.601C388.912 309.421 385.607 309.965 382.295 310.501C380.881 310.732 379.459 310.985 378.045 311.231C377.985 311.052 377.933 310.888 377.918 310.71C377.762 309.175 377.695 307.625 377.502 306.09C377.077 305.457 376.787 304.734 376.586 303.989C376.154 302.387 375.782 300.762 375.499 299.123C375.291 297.871 375.135 296.612 375.001 295.345C374.346 292.998 373.616 290.674 372.805 288.371C372.812 287.239 373.095 287.455 373.423 287.514H373.438ZM317.895 312.364C317.933 312.133 318.029 311.917 318.148 311.716C318.759 309.272 319.466 306.85 320.136 304.428C320.828 301.925 321.483 299.376 322.391 296.94C322.555 296.485 322.748 296.061 322.964 295.651C322.994 295.152 323.039 294.66 323.106 294.205C324.862 291.411 326.559 289.861 330.006 289.675C334.993 289.399 339.742 291.434 345.049 291.054C346.441 290.957 348.964 290.241 350.549 290.13C350.557 290.13 350.564 290.115 350.572 290.107C352.097 289.027 353.839 290.264 355.105 291.173C360.107 294.772 363.069 300.74 363.583 306.82C363.702 308.243 363.798 309.994 363.374 311.373C362.756 313.377 360.836 313.407 359.206 312.639C358.268 312.192 357.352 311.708 356.459 311.186C354.45 310.71 352.44 310.218 350.326 310.27C348.621 310.307 345.838 310.508 344.23 310.844C341.975 311.313 339.429 312.833 337.263 313.146C333.645 313.675 330.661 313.869 327.534 313.817C327.423 313.839 327.319 313.869 327.207 313.891C325.927 314.152 324.609 314.323 323.307 314.428C322.079 314.525 320.649 314.718 319.444 314.39C318.885 314.241 318.372 313.906 318.089 313.444C318.067 313.444 318.037 313.444 318.014 313.444C318.014 313.385 318.014 313.332 318.007 313.28C317.88 313.012 317.828 312.714 317.888 312.371L317.895 312.364ZM224.214 361.638C223.253 361.444 222.323 361.124 221.34 361.049C220.484 361.005 219.636 361.109 218.78 361.198C217.135 360.707 215.944 359.12 214.098 359.269C211.627 359.365 209.178 359.619 206.722 359.895C206.431 359.85 206.186 359.82 206.089 359.827C205.851 359.842 205.419 359.962 204.935 360.096C204.072 360.193 203.216 360.289 202.352 360.379C201.526 360.319 200.7 360.237 199.881 360.088C197.395 359.678 194.842 359.932 192.356 359.462C190.934 359.164 189.513 358.889 188.061 358.799C187.965 358.784 187.868 358.762 187.778 358.747C187.942 352.503 189.662 346.751 190.949 340.745C190.972 340.648 191.001 340.559 191.024 340.462C191.187 337.489 191.567 334.523 192.282 331.625C193.026 328.6 194.12 325.746 195.222 322.84C195.378 322.43 195.72 322.251 196.07 322.244C196.495 321.536 197.157 320.448 197.782 320.553C197.842 320.53 197.886 320.493 197.946 320.471C198.519 320.255 199.152 320.262 199.755 320.277C200.492 320.292 201.229 320.329 201.965 320.396C202.233 320.418 202.501 320.448 202.769 320.486L202.955 320.448C205.456 320.605 207.972 320.716 210.458 321.007C214.039 321.327 217.656 321.812 221.273 322.05C222.807 322.617 224.392 323.309 225.918 323.54C227.072 324.129 228.255 328.443 228.575 329.785C228.657 330.135 228.724 330.5 228.791 330.857C229.9 332.035 229.937 334.583 230.049 335.917C230.28 338.674 230.079 341.475 229.617 344.202C229.394 345.529 229.074 346.825 228.672 348.114C228.642 348.315 228.605 348.524 228.59 348.725C228.27 351.892 227.958 354.94 227.675 358.091C227.593 359.03 227.905 360.498 227.422 361.266C227.273 361.497 227.012 361.66 226.692 361.78C225.873 361.735 225.04 361.809 224.228 361.638H224.214ZM272.565 358.188C270.779 358.024 268.993 357.622 267.184 357.831C264.72 357.95 261.423 358.188 259.956 358.695C258.237 359.224 256.436 358.881 254.694 359.187C252.588 359.537 252.267 359.835 250.533 360.178C249.335 360.491 248.092 360.535 246.893 360.863C245.382 361.273 243.849 361.534 242.293 361.683C242.13 361.631 241.914 361.646 241.862 361.586C241.303 360.923 241.542 358.941 241.49 358.009C241.393 357.913 241.303 357.801 241.251 357.637C240.537 355.506 240.254 353.196 240.075 350.961C239.897 348.688 239.949 346.408 240.217 344.143C240.343 343.092 240.522 342.049 240.753 341.013C240.805 336.423 240.835 331.699 242.152 327.378C242.405 326.551 243.283 324.308 244.05 323.965C245.286 323.913 246.536 323.719 247.787 323.6C247.824 323.6 247.854 323.585 247.891 323.578C248.888 323.384 249.923 323.302 250.943 323.369C251.322 323.391 251.694 323.444 252.074 323.503V323.481C252.141 323.496 252.2 323.511 252.26 323.533C252.632 323.6 253.012 323.682 253.377 323.779C255.051 324.025 256.748 323.95 258.431 324.047C259.808 324.084 261.192 324.114 262.576 324.122C265.211 324.502 267.876 324.531 270.533 324.382C271.151 324.382 271.776 324.382 272.402 324.382C272.774 325.023 273.31 327.676 273.466 328.458C274.612 334.143 274.523 340.045 275.133 345.775C275.431 348.532 275.684 352.19 275.565 355.342C275.535 356.236 275.334 357.458 275.171 358.397C274.315 358.24 273.444 358.166 272.565 358.196V358.188ZM277.158 308.765C277.314 306.619 277.545 304.488 277.865 302.364C278.446 298.572 279.168 294.287 281.237 290.979C282.666 288.692 284.996 286.993 287.616 286.777C288.889 286.419 290.214 286.128 290.772 286.054C293.764 285.651 296.764 285.644 299.28 287.529C301.609 289.28 302.465 291.694 303.574 294.19C304.609 296.508 305.338 298.602 306.008 301.254C306.194 301.984 306.388 302.923 306.574 303.899C307.043 304.875 307.504 305.859 307.944 306.85C308.494 308.094 309.373 309.599 308.375 310.866C307.534 311.932 306.165 311.924 304.929 312.028C303.292 312.163 301.661 312.327 300.024 312.476C294.464 312.96 288.896 313.258 283.329 313.616C283.232 313.653 283.142 313.69 283.046 313.72C281.579 314.234 279.852 314.86 278.386 313.981C276.607 312.915 277.031 310.486 277.151 308.765H277.158ZM236.577 309.674C236.756 305.024 236.622 301.269 237.999 296.716C238.877 293.803 242.092 287.715 244.296 285.89C245.248 285.1 246.96 283.684 248.494 283.215C250.436 281.844 252.692 280.89 255.007 280.421C256.458 280.13 258.304 279.855 259.83 280.309C260.277 280.249 260.76 280.212 261.266 280.376C262.048 280.622 264.303 284.847 264.683 285.808C266.536 290.532 267.824 296.21 268.174 301.262C268.338 303.601 268.293 306.001 268.494 308.281C268.553 308.951 269.127 312.796 269 313.698C268.412 313.601 267.824 313.563 267.229 313.511C266.09 313.362 264.966 313.116 263.827 313.012C261.765 312.692 259.674 313.064 257.604 312.975C255.736 312.93 253.875 313.139 252.022 313.34C250.176 313.399 248.389 313.839 246.588 314.204C246.104 314.294 245.643 314.39 245.181 314.487C243.559 314.666 241.854 314.964 240.343 315.001C239.882 315.009 236.294 314.1 236.145 313.854C236.108 312.505 236.532 310.985 236.577 309.666V309.674ZM196.405 309.212C196.785 303.393 198.43 298.162 200.856 292.887C202.561 289.168 206.178 285.026 209.282 282.373C211.634 280.369 213.458 279.869 216.592 280.1C217.701 280.182 219.934 280.816 221.742 281.516C222.874 281.62 224.027 281.881 224.906 282.492C225.166 282.671 225.375 282.88 225.546 283.096L225.605 283.066L225.576 283.133C225.829 283.468 225.985 283.841 226.074 284.236C227.883 289.012 227.481 291.963 227.891 296.865C228.039 298.698 228.538 300.71 228.754 302.61C228.888 303.303 229.015 304.004 229.148 304.697C229.409 306.03 229.662 307.372 229.9 308.713C230.079 309.741 230.354 310.888 229.863 311.872C229.751 312.096 229.588 312.282 229.387 312.423C229.268 312.513 229.126 312.587 228.985 312.654C228.97 312.654 228.955 312.669 228.94 312.677C228.501 312.856 227.995 312.893 227.556 312.766C226.834 312.751 226.112 312.714 225.39 312.669C225.256 312.662 225.129 312.654 224.995 312.647C222.866 312.505 220.738 312.282 218.616 312.088C218.408 312.066 218.199 312.051 217.991 312.028C217.902 312.021 217.82 312.014 217.73 312.006C214.634 311.738 211.545 311.462 208.456 311.194C207.518 311.112 206.588 311.037 205.65 310.956C204.124 311.186 202.598 311.432 201.065 311.648C199.732 311.671 198.4 311.73 197.068 311.79C196.8 311.805 196.539 311.835 196.271 311.865C196.465 310.993 196.338 310.106 196.398 309.227L196.405 309.212ZM287.46 358.68C287.102 358.568 286.767 358.389 286.462 358.136C286.336 358.032 286.217 357.92 286.105 357.793C284.78 356.296 284.959 353.881 284.817 352.019C284.639 349.597 284.356 347.19 284.132 344.776C283.902 342.258 283.663 339.732 283.395 337.213C283.247 335.827 283.098 334.337 283.276 332.914C283.276 332.78 283.262 332.653 283.254 332.519C283.217 331.565 283.113 330.254 283.76 329.464C283.939 328.928 284.184 328.413 284.519 327.944C284.758 327.609 285.04 327.296 285.353 327.005C285.837 326.178 286.373 325.388 286.805 324.762C286.946 324.561 287.184 324.442 287.378 324.263C287.512 324.256 287.653 324.248 287.787 324.241C287.943 324.241 288.1 324.241 288.256 324.241C290.802 324.293 293.37 324.353 295.9 324.07C297.538 324.047 299.168 324.01 300.798 323.935C301.029 323.928 301.267 323.92 301.498 323.906C302.235 323.883 302.971 323.861 303.701 323.831C305.212 323.831 306.723 323.801 308.234 323.757C308.643 323.742 309.053 323.727 309.462 323.704C310.244 323.734 311.018 323.749 311.799 323.757C312.075 323.95 312.335 324.233 312.655 324.621C314.851 327.266 315.752 332.966 316.66 336.371C317.322 338.838 318.29 341.572 318.878 344.091C319.622 346.274 320.367 348.569 320.62 350.849C320.664 351.244 320.404 351.49 320.091 351.579C319.935 351.624 319.756 351.631 319.6 351.587C319.146 351.594 318.699 351.587 318.245 351.564C315 351.341 311.851 352.384 308.673 352.905C305.807 353.092 302.927 354.045 300.709 354.604C299.979 354.805 298.074 355.133 296.682 355.528C296.28 355.767 295.871 355.99 295.461 356.214C294.881 356.527 294.3 356.825 293.712 357.115C293.563 357.19 293.422 357.257 293.273 357.324C292.648 357.622 292.022 357.913 291.39 358.181C291.077 358.315 290.757 358.434 290.422 358.538C289.439 358.844 288.39 358.978 287.467 358.68H287.46ZM407.186 345.931C407.096 346.266 405.95 346.93 405.704 346.959C405.429 346.997 405.131 346.542 404.625 346.527C404.126 346.512 403.583 346.877 403.144 346.892C395.552 347.153 387.617 346.758 379.973 346.527C378.916 346.497 377.412 346.922 376.422 346.43C375.462 345.946 375.068 342.034 374.8 340.969C374.249 338.771 372.864 334.792 372.753 332.72C372.678 331.26 373.765 329.315 374.122 327.914C374.346 327.02 374.398 325.485 374.643 324.554C374.755 324.137 375.514 321.998 375.678 321.707C376.117 320.947 377.74 320.709 378.581 320.709C380.717 320.709 383.635 321.29 385.89 321.357C390.855 321.499 397.703 321.767 402.534 321.164C403.055 321.096 403.881 320.292 404.253 321.529C404.595 322.676 404.513 324.435 404.64 325.917C405.302 327.847 406.33 329.65 406.903 331.625C407.334 333.1 407.506 334.635 407.468 336.17C407.736 337.869 408.004 339.62 407.93 341.162C407.855 342.712 407.186 344.329 407.186 345.909V345.931ZM459.825 315.255C458.872 317.021 458.053 318.869 457.182 320.687C457.019 321.424 456.788 322.147 456.513 322.84C456.081 323.913 455.604 324.971 454.927 325.91C454.257 326.849 453.468 327.676 452.471 328.257C452.426 328.287 452.374 328.309 452.322 328.332C451.987 328.63 451.667 328.89 451.533 329.121C451.25 329.613 451.25 330.485 450.982 331.081C449.769 333.749 448.258 335.686 445.861 337.37C445.295 337.765 443.107 339.143 442.586 339.359C442.125 339.553 441.023 338.92 440.219 339.016C438.663 339.203 435.753 340.797 434.011 341.274C429.873 342.407 425.407 342.831 421.276 343.599C420.546 343.733 417.502 344.806 417.137 344.277C416.713 343.666 417.517 342.287 417.658 341.572C418.418 337.69 418.06 333.585 417.755 329.732C417.703 329.047 418.269 326.491 418.485 325.649C418.872 324.092 419.095 321.693 419.623 319.778C419.824 319.033 420.033 318.25 420.636 317.773C423.3 318.056 426.099 317.088 428.801 316.864C431.719 316.618 434.897 316.902 437.807 316.514C438.492 316.134 438.217 315.307 438.276 315.27C438.358 315.218 439.959 314.86 440.227 314.815C446.553 313.765 452.471 313.645 458.731 314.949C458.976 315.001 460.07 314.54 459.832 315.24L459.825 315.255Z" fill="black"/>
</g>
<defs>
<clipPath id="clip0_527_3344">
<rect width="442" height="279" fill="white" transform="translate(104 186)"/>
</clipPath>
</defs>
</svg>
