<svg width="650" height="650" viewBox="0 0 650 650" fill="none" xmlns="http://www.w3.org/2000/svg">
<path d="M371.701 181.37C391.341 180.19 418.041 180.6 435.181 191.25C451.911 201.65 466.991 236.46 469.001 255.78C474.691 310.47 465.501 352.39 427.941 392.51C386.631 436.63 297.761 426.02 248.501 400.79C185.411 368.48 180.141 284.15 159.491 224.4C156.531 215.84 144.011 193.81 147.661 186.38C151.131 179.34 159.301 187.65 163.561 189.34C176.191 194.37 198.981 190.04 213.741 190.36C223.441 190.57 236.511 193.23 246.021 193.11C286.921 192.58 330.761 183.82 371.701 181.36V181.37ZM432.631 209.28C433.151 207.02 431.891 206.56 430.591 205.27C414.811 189.63 339.791 201.32 316.141 202.6L264.941 205.29L188.761 205.25C194.741 210.97 203.211 216.85 210.741 220.31C254.201 240.22 334.041 223.29 380.371 212.93C385.411 211.8 390.831 208.7 395.701 208.05C407.991 206.42 420.341 210.44 432.631 209.28ZM439.191 221.6C432.531 217.35 397.431 231.54 389.671 235.7C381.041 240.33 370.151 248.57 363.911 256.12C359.711 261.2 352.801 275.94 349.221 278.78C346.661 280.81 343.091 280.4 341.681 282.02C338.061 286.16 339.381 300.57 332.271 302.29C324.571 302.24 334.901 283.22 336.311 279.35C337.261 276.75 336.691 273.81 337.611 271.22C341.011 261.72 350.331 252.29 354.491 242.98C344.661 238.98 341.111 258.11 337.381 260.61C327.791 267.03 333.181 248.19 338.351 245.02L349.091 234.9C335.131 238.97 319.021 237.29 305.451 240.42C294.161 243.03 268.331 252.03 261.521 261.16C254.361 270.76 243.651 314.33 249.601 324.24C251.821 327.93 274.401 332.75 279.721 333.2C326.281 337.12 374.081 332 419.691 323.65C430.691 321.64 441.581 317.68 452.541 315.4C460.411 283.87 449.711 251.16 439.181 221.59L439.191 221.6ZM233.221 318.4V296.17C233.221 292.19 240.331 269.66 242.391 264.93C245.681 257.36 251.611 249.87 256.121 242.97C250.051 243.83 242.431 240.28 236.761 240.71C221.161 241.88 194.771 275.63 194.811 290.79C194.831 297.92 201.501 320.28 204.301 327.78C223.231 378.45 296.201 415.07 348.471 411.41C384.931 408.86 403.111 394.02 425.851 367.54C434.731 357.21 442.221 345.74 446.121 332.57C413.051 337.89 380.831 351.5 347.121 353.49C324.201 354.84 297.191 352.25 274.681 347.67C263.311 345.36 241.491 339.93 232.571 333.19C226.001 328.22 206.611 306.5 224.311 305.02C227.691 309.9 226.501 315.6 233.211 318.4H233.221Z" fill="black"/>
<path d="M490.79 240.05C490.99 240.37 495.48 241.82 497.38 243.56C504.24 249.88 503.46 264.47 502.75 273.31C502.35 278.32 496.96 302.03 494.72 305.35C493.05 307.82 489.73 307.69 488.51 304.89C487 301.45 493.78 289.75 493.27 284.73C475.53 286.27 486.16 274.65 485.3 269.42C485.09 268.13 481.98 267.91 481.05 266.68C478.22 262.93 480.39 241.02 479.78 234.23C478.17 216.18 468.19 196.52 455.49 184.14C455.33 177.44 458.33 176.55 463.01 180.95C471.37 188.82 483.9 210.31 487.21 221.41C488.31 225.09 490.3 239.24 490.8 240.05H490.79Z" fill="black"/>
<path d="M276.639 471.69C275.779 470.16 275.049 465.05 278.379 465.19C282.269 465.36 288.039 469.6 292.799 471C304.839 474.54 314.529 473.25 326.669 471.78C333.889 470.9 349.929 466.1 355.189 466.46C362.619 466.97 363.639 475.7 354.829 478.37C339.149 483.12 305.739 484.14 290.119 479.08C287.559 478.25 277.569 473.33 276.649 471.68L276.639 471.69Z" fill="black"/>
<path d="M209.64 168C211.12 168 214.01 170.15 217.66 170.29C230.3 170.77 242.85 169.71 255.42 168.9C262.88 170.38 262.8 183.56 255.42 185C246.59 186.72 218.04 184.72 209.79 180.84C200.58 176.51 202.98 167.96 209.64 168Z" fill="black"/>
</svg>
