<svg width="650" height="650" viewBox="0 0 650 650" fill="none" xmlns="http://www.w3.org/2000/svg">
<g clip-path="url(#clip0_579_2868)">
<path d="M433.841 127.881C454.554 137.041 484.921 161.384 494.931 182.648C497.046 187.142 499.382 199.61 501.019 202.147C501.84 203.411 504.398 204.64 505.756 206.183C516.866 218.78 519.574 239.601 517.424 255.77C538.28 279.885 549.384 303.256 556.7 334.366C559.93 348.106 563.138 362.76 562.795 376.893C567.611 376.843 573.641 381.652 572.984 386.725C572.755 388.489 571.305 389.776 570.969 391.34C569.818 396.699 576.042 419.556 575.985 428.48C575.935 435.818 571.562 449.73 563.524 451.873C558.408 453.238 558.651 451.044 554.735 449.294C552.82 460.347 535.629 467.228 533.514 452.945C528.027 460.59 521.832 460.283 517.288 452.002C511.086 440.713 516.538 427.501 520.353 416.391C513.28 418.249 506.463 421.435 499.64 416.998C488.715 409.903 500.74 396.928 509.178 393.877C512.272 392.755 517.045 391.833 520.696 390.769C524.04 389.79 533.093 388.668 534.1 385.167C535.108 381.666 533.221 379.637 536.129 375.507C538.023 372.806 539.673 372.077 543.024 372.535C542.639 357.737 536.573 343.947 532.85 329.829L530.949 329.986C530.221 335.845 528.934 337.56 527.834 341.625C521.761 364.246 511.3 382.502 496.203 400.679C480.155 419.992 464.615 432.11 443.208 445.636C442.415 446.136 441.629 446.414 440.686 446.4C442.515 453.231 446.938 462.105 446.459 469.286C446.223 472.808 439.486 483.969 436.999 486.941C429.518 495.908 398.673 508.962 386.941 509.269C363.305 509.891 351.973 490.085 349.987 469.036C348.965 468.921 348.3 468.714 346.471 468.35C340.984 467.249 334.875 467.064 328.98 466.292C315.612 464.549 303.415 462.426 291.633 457.425C290.061 456.76 289.74 456.996 288.275 456.996C288.339 459.197 287.403 465.692 287.174 467.249C285.281 479.96 277.557 491.978 265.411 498.145C263.246 499.245 258.08 500.009 257.13 500.831C255.779 501.989 255.515 508.855 249.82 508.519C258.266 516.293 262.181 527.646 259.395 538.921C257.751 540.965 245.226 540.865 242.146 540.665C217.582 539.086 200.991 531.769 207.886 503.503C210.537 492.643 217.367 487.527 227.835 484.705C229.7 484.197 231.615 484.69 233.208 484.226C234.801 483.762 236.187 480.653 237.895 480.139C243.583 478.431 248.02 483.083 250.985 487.241C260.13 482.211 266.654 471.229 269.512 461.298C270.069 459.354 270.012 451.323 269.598 450.044C268.883 447.843 267.104 447.1 265.646 446.243C247.584 435.632 230.729 422.4 217.975 406.195C208.7 394.398 198.905 377.479 198.905 361.052C198.905 357.23 199.983 352.971 200.091 349.12C196.489 349.642 190.931 345.591 187.237 345.355C164.222 340.796 152.833 336.566 130.869 316.803C111.099 285.786 117.329 276.541 115.865 254.213C109.327 253.777 96.0944 248.511 101.375 239.815C95.8086 237.515 91.6644 235.2 89.1494 229.398C85.5697 221.145 91.0785 216.765 90.2854 212.95C89.9568 211.356 82.5045 202.982 80.8968 200.367C75.8524 192.172 67.7714 172.166 79.2892 166.55C92.3503 160.184 103.204 176.889 104.325 188.278C110.077 182.919 115.722 181.597 122.588 186.084C123.61 180.49 123.003 175.888 124.767 170.344C127.075 163.07 132.77 152.974 140.837 151.317C158.149 147.758 163.565 165.178 156.749 178.196L148.182 191.929C176.455 198.731 168.66 220.581 149.968 233.606C151.861 242.738 149.039 250.776 138.686 251.162C140.772 262.265 142.823 274.247 146.045 285.086C149.989 298.355 153.812 308.529 166.737 314.61L183.578 321.197L198.219 323.391C196.711 321.426 196.039 320.604 195.203 319.604C159.843 277.27 180.292 218.116 212.494 180.411C216.51 175.703 221.947 167.993 226.584 163.599C227.42 162.806 229.357 161.091 230.057 160.505C230.614 160.041 233.422 157.29 235.18 155.747C289.761 107.718 366.17 97.9645 433.841 127.874V127.881ZM397.716 127.874C397.022 127.574 385.969 125.78 383.94 125.48C353.045 120.979 320.878 123.944 292.819 135.133C280.951 139.87 271.162 145.608 261.002 152.46C228.063 174.674 205.528 201.675 192.395 240.165C190.266 246.403 189.073 256.67 188.423 263.958C187.773 271.246 190.109 285.258 192.403 291.388C205.957 327.649 245.019 339.574 280.908 342.547C288.125 343.147 296.092 340.718 303.222 343.518L304.373 344.983L304.43 347.07L304.373 348.642L303.644 350.106C302.236 352.193 296.542 352.771 293.026 353.036C285.803 353.579 284.302 353.7 273.992 353.4C264.475 352.671 242.539 347.913 235.044 345.269C232.329 344.312 228.599 343.518 224.577 343.154C220.547 342.79 219.125 344.069 217.253 345.269C216.939 345.476 213.402 348.591 213.223 348.884C212.416 350.228 212.887 351.792 212.487 352.964C212.28 353.586 212.259 354.322 212.13 354.865C211.373 358.009 211.415 364.168 212.13 367.312C212.251 367.855 212.387 368.791 212.53 369.362C223.283 414.362 281.737 447.15 323.386 454.331C331.545 455.739 340.026 454.353 348.079 456.639C350.28 450.923 354.152 446.707 360.125 444.771C360.976 438.633 359.097 419.535 352.237 417.42C347.25 415.876 346.7 419.492 344.235 422.679L344.171 423.665C347.071 423.993 349.222 429.416 349.208 432.003C349.151 445.75 330.631 442.263 322.228 438.662C315.519 435.775 309.781 427.387 316.726 421.471C320.828 417.97 325.072 420.664 326.622 419.699C327.408 419.206 329.373 413.39 330.388 411.739C332.145 408.867 340.276 399.707 343.185 398.221C346.543 396.499 354.445 395.706 357.86 397.185C364.562 400.086 373.222 415.198 374.53 422.186C375.637 428.08 375.273 435.761 376.338 441.577C376.53 442.62 377.252 443.835 378.295 444.078C379.524 444.371 390.942 436.833 393.879 435.754C405.096 431.624 414.721 432.889 425.888 435.904C430.104 437.04 430.168 439.112 435.327 436.597C437.706 435.432 442.737 430.695 444.894 429.538C488.958 406.073 537.837 332.93 517.538 281.242C516.066 277.484 515.052 273.547 513.044 270.16C509.221 274.583 507.121 278.849 502.026 282.15C487.193 291.774 478.483 284.015 464.45 278.906C443.051 271.118 422.144 281.499 411.405 300.462C409.684 303.499 409.055 309.908 404.918 308.815C401.903 306.721 409.455 292.76 411.255 290.081C422.859 272.811 444.18 264.094 464.257 271.046C470.967 273.368 480.927 279.627 487.264 280.949C491.008 281.735 496.324 279.456 499.411 277.334C513.823 267.424 514.38 239.908 508.571 225.282C507.335 222.167 502.212 211.621 500.197 209.535C498.954 208.241 493.252 204.426 489.594 204.026C484.835 204.426 481.041 206.376 478.612 208.42C477.254 209.563 474.096 211.599 472.839 212.75C458.834 225.547 448.538 237.743 430.418 245.631C420.737 249.847 405.318 252.476 395.815 246.646C394.043 245.553 385.369 235.843 384.89 234.149C384.662 233.335 384.276 232.313 385.483 232.127C387.963 231.756 392.678 238.765 395.072 240.08C407.847 247.075 420.858 241.687 432.662 235.464C447.295 227.733 454.897 218.309 466.587 207.984C472.381 202.861 479.148 197.052 487.472 197.788C488.1 197.145 486.379 192.215 485.914 191.1C477.204 170.358 450.56 149.28 430.333 139.785C419.429 134.669 409.855 132.882 399.916 128.631L397.723 127.845L397.716 127.874ZM142.144 157.026C133.899 158.733 128.769 171.694 127.733 179.161C127.425 181.383 126.739 188.914 126.947 190.879C127.061 191.972 127.018 192.722 128.083 193.38C132.934 191.179 138.579 190.429 143.802 190.879C150.004 183.319 157.606 170.966 152.254 161.205C149.968 157.04 146.839 156.054 142.144 157.026ZM121.209 213.2C119.351 219.187 111.106 222.696 105.776 218.644C100.024 214.272 97.9735 207.32 98.4665 200.353C98.5951 198.517 99.7955 196.823 99.724 195.359C99.6669 194.087 94.4153 180.611 93.5007 179.004C90.8499 174.338 84.0978 166.964 79.0391 172.895C73.566 179.332 81.9972 194.98 86.1627 200.946C87.9347 203.483 95.9372 211.721 96.1515 212.95C96.6874 215.951 93.5793 220.131 93.3649 223.096C92.9577 228.819 99.7098 235.307 105.033 236.2C107.241 236.571 117.387 234.392 118.194 236.907C119.623 241.394 106.991 239.479 104.797 240.858C101.225 245.989 109.548 248.947 113.635 249.504C120.03 250.376 133.013 248.682 139.579 247.31C145.781 246.01 147.66 242.88 147.446 236.536C146.66 235.75 130.876 240.108 126.675 237.2C120.588 232.992 133.234 233.749 134.642 233.606C144.345 232.599 149.211 229.576 155.513 222.303C158.928 218.359 163.544 212.264 161.393 206.877C159.471 202.061 145.545 196.373 140.501 196.273C136.099 196.188 124.482 199.11 123.446 204.183C121.081 215.772 144.766 206.569 146.617 209.599V213.786C138.243 216.458 129.469 215.794 121.195 213.2L121.209 213.186V213.2ZM115.836 214.429C117.351 212.864 116.351 209.556 116.794 207.698C117.129 206.298 118.373 202.282 118.887 201.025C119.887 198.574 122.488 197.366 123.889 195.244C116.05 180.304 102.032 194.48 103.575 206.955C103.94 209.906 107.934 217.165 111.085 216.708C111.428 216.658 115.622 214.643 115.829 214.429H115.836ZM556.929 390.083L543.696 385.353C542.689 383.981 545.883 374.328 541.331 375.55C539.338 376.086 537.566 381.895 538.037 383.695C538.802 386.596 544.161 387.303 546.383 388.568C546.897 395.913 538.352 389.804 535.358 388.046C530.313 391.948 522.761 394.513 516.588 396.892C514.887 397.542 512.965 397.256 511.065 397.957C501.369 401.536 492.595 416.612 510.172 413.869C511.593 413.647 522.64 410.118 523.133 409.653C524.097 408.717 523.633 403.951 524.826 402.208C527.684 398.028 529.213 405.03 528.999 407.788C528.32 416.555 520.582 427.33 519.653 436.518C519.081 442.17 519.017 451.259 525.741 452.809C536.501 445.907 539.016 432.853 542.782 421.492C546.69 421.285 547.704 421.364 547.354 425.451C547.097 428.43 542.882 438.412 541.353 441.42C539.266 445.521 533.386 450.051 537.53 453.709C544.318 459.711 551.005 449.308 553.099 443.656C555.871 436.154 555.793 428.623 556.986 420.871L559.894 421.114C561.066 421.935 560.63 428.738 560.48 430.574C560.194 433.996 555.921 445.75 559.58 447.022C565.103 448.637 568.854 440.191 569.354 435.783C569.968 430.352 569.854 418.02 569.161 412.575C568.468 407.131 565.26 400.943 564.617 395.184L563.817 394.563C561.43 395.856 554.864 394.391 555.435 391.19C555.557 390.49 557.25 391.333 556.914 390.104L556.929 390.09V390.083ZM557.665 390.797C564.753 392.827 574.606 383.459 562.723 383.066C561.852 383.709 562.188 385.917 561.652 387.125C560.866 388.89 558.401 389.311 557.665 390.797ZM325.136 422.971C318.999 421.678 317.505 430.359 321.271 433.246C322.55 434.225 330.988 437.383 332.817 437.597C339.962 438.426 349.579 436.161 342.199 428.187C339.898 427.309 339.583 431.91 336.44 432.474C334.675 432.789 326.987 431.324 325.643 430.331C323.057 428.416 325.572 423.386 325.136 422.971ZM442.122 470.486C442.958 459.969 435.706 445.193 425.303 441.613C421.823 440.42 409.319 437.619 405.897 437.562C400.688 437.49 387.598 444.528 383.39 447.943C378.76 451.702 375.809 456.882 371.55 460.976C365.384 459.39 376.988 447.586 376.316 447.1C370.979 446.45 358.689 450.187 355.824 454.753C353.345 458.69 355.117 466.878 356.067 471.372C356.653 474.151 362.198 492.371 364.255 492.414C366.756 487.756 367.671 482.676 370.35 478.053C384.047 454.424 414.857 448.551 437.271 463.305L442.122 470.5H442.115L442.122 470.486ZM408.39 461.055L403.382 461.719C403.289 462.384 403.296 462.648 403.725 463.191C405.289 465.163 411.255 468.714 413.62 470.843C417.957 474.752 422.423 479.46 426.053 484.047L429.697 483.64L408.39 461.055ZM433.098 475.866C430.268 472.665 423.488 468.943 419.844 466.085C417.622 464.334 416.007 460.826 412.884 460.99L432.262 481.432C434.927 479.21 435.52 478.61 433.098 475.859V475.866ZM436.277 476.338C436.185 467.85 430.068 464.27 422.387 463.184L436.277 476.338ZM420.201 489.485L397.566 464.277L390.971 467.192C396.422 469.893 412.177 490.128 416.314 490.799C417.486 490.992 418.872 489.399 420.201 489.478V489.485ZM388.57 468.428C387.791 468.593 384.29 470.979 384.712 471.958L409.891 494.293C411.991 493.972 413.428 493.772 411.784 491.693C407.018 485.648 400.359 478.217 394.979 472.672C393.479 471.129 390.885 467.928 388.577 468.428H388.57ZM404.839 497.53L382.897 473.73L381.911 473.466C380.467 474.73 378.553 475.445 379.932 477.452C381.425 479.617 387.219 484.898 389.47 486.948C393.671 490.764 399.509 496.073 404.832 497.537H404.839V497.53ZM378.467 477.853C377.023 476.988 373.68 481.982 373.387 483.297L391.421 500.374C393.343 501.717 395.986 500.781 397.923 499.745C398.394 499.252 397.616 498.166 397.273 497.766C392.671 492.4 384.461 483.633 379.06 479.239C378.617 478.889 378.488 478.389 378.467 477.845H378.474L378.467 477.853ZM246.905 488.756C244.754 485.512 240.096 481.597 236.716 485.519C233.337 489.442 237.345 494.522 236.666 498.988C232.629 498.166 231.436 492.95 231.55 489.485C216.424 489.585 210.687 501.003 210.322 514.678C210.179 519.93 211.087 524.596 215.109 528.232C220.74 533.312 237.481 536.399 245.097 536.992C249.22 537.314 253.1 536.664 257.144 536.263C256.787 523.795 252.971 508.176 237.216 510.863C232.743 511.627 229.893 515.428 225.713 516.536C223.298 513.849 234.994 506.226 238.138 507.762C236.952 504.768 233.572 507.933 231.722 506.133L230.814 505.683L230.45 504.582L230.814 503.482L231.722 502.817C234.473 501.653 238.552 501.903 239.088 502.031C239.931 502.239 240.567 503.553 241.618 503.911C244.183 504.797 250.828 506.026 252.021 502.989C252.328 501.338 251.306 501.974 250.213 501.896C244.633 501.531 240.196 502.553 240.274 494.958C240.324 489.492 242.139 489.749 246.905 488.727V488.749V488.756ZM388.027 501.188C384.304 498.173 377.023 488.056 373.415 486.198C372.129 485.534 372.015 486.084 371.215 486.963C370.929 488.213 371.658 488.72 372.279 489.542C373.815 491.585 382.232 500.831 384.026 501.188C385.269 501.438 386.741 501.117 388.034 501.195L388.027 501.188ZM379.253 500.452L369.757 489.492C369.821 490.385 369.021 491.271 369.057 492.086C369.114 493.357 376.709 501.724 379.253 500.452Z" fill="black"/>
<path d="M485.747 210.491C494.614 210.127 501.08 222.238 502.638 229.783C505.01 241.258 504.602 254.619 498.758 265.008C492.12 276.826 480.595 277.119 473.722 265.273C467.312 254.233 467.148 232.355 473.293 221.273C475.686 216.958 477.144 214.686 481.938 211.649C482.81 210.999 484.653 210.534 485.747 210.484H485.754L485.747 210.491Z" fill="black"/>
<path d="M332.042 232.949C325.59 239.915 317.23 233.335 314.922 226.197C312.179 217.723 308.163 194.458 320.71 192.165C336.901 189.214 339.944 224.432 332.042 232.942V232.949Z" fill="black"/>
<path d="M398.148 180.268C402.342 177.032 407.493 179.597 409.573 183.869C413.045 191.029 415.281 213.914 403.664 214.657C391.11 215.465 389.195 187.199 398.155 180.268H398.148Z" fill="black"/>
<path d="M404.833 150.952C406.469 152.86 405.805 155.51 403.19 155.882C400.846 156.211 399.424 154.282 397.445 154.403C394.666 154.582 390.193 159.769 388.214 153.996C387.771 148.944 401.368 146.894 404.84 150.959L404.833 150.952Z" fill="black"/>
<path d="M322.986 164.971C324.222 174.802 318.749 170.122 314.019 170.715C311.754 171.001 310.368 173.588 307.745 172.902C306.688 165.278 317.313 162.677 322.986 164.964V164.971Z" fill="black"/>
<path d="M552.549 396.656C554.192 395.491 560.515 403.887 559.737 407.109L557.879 408.981C551.741 408.474 550.791 401.543 552.556 396.656H552.549Z" fill="black"/>
<path d="M544.993 396.035C548.937 394.949 546.487 402.308 545.565 403.923C543.257 407.981 536.712 406.081 539.027 401.043C539.356 400.322 544.343 396.206 544.993 396.027V396.035Z" fill="black"/>
<path d="M366.815 454.409C365.822 458.196 366.065 461.061 369.78 462.912L368.63 466.098C365.701 466.692 361.849 454.766 366.808 454.409H366.815Z" fill="black"/>
<path d="M253.489 530.44V533.355C243.272 532.955 232.426 532.755 223.516 527.146C223.444 524.066 235.72 528.653 237.106 528.903C242.372 529.854 248.159 530.511 253.489 530.44Z" fill="black"/>
<path d="M215.464 508.497C215.571 510.798 216.478 512.856 217.536 514.842C218.679 517 225.538 523.237 221.608 524.524C217.722 525.788 214.356 515.614 214.013 512.527C213.913 511.648 213.727 506.632 215.471 508.497H215.464Z" fill="black"/>
</g>
<defs>
<clipPath id="clip0_579_2868">
<rect width="502.59" height="429.875" fill="white" transform="translate(73.4062 110.883)"/>
</clipPath>
</defs>
</svg>
