<svg width="650" height="650" viewBox="0 0 650 650" fill="none" xmlns="http://www.w3.org/2000/svg">
<g clip-path="url(#clip0_579_2883)">
<path d="M455.848 265.26C474.529 274.958 487.305 295.322 492.274 315.431C500.97 350.622 487.933 386.948 465.152 413.797C470.254 425.097 472.879 437.533 471.977 450.009C471.804 452.414 470.682 455.659 470.682 457.87C470.682 460.288 471.85 463.888 472.004 466.579C472.258 471.021 471.423 484.619 468.925 487.972C465.218 492.954 458.94 489.781 458.446 484.064C458.192 481.126 458.967 479.57 459.294 477.018C459.354 476.564 459.608 475.856 458.907 475.976C457.478 477.98 455.006 480.044 453.003 481.633C432.733 497.669 407.634 503.253 382.568 495.605C383.149 500.715 384.993 505.597 382.368 510.459C379.282 516.176 371.882 515.087 369.237 509.584C366.593 504.081 370.112 493.368 368.83 491.237C368.503 490.69 359.025 486.516 357.409 485.647C354.818 484.258 348.106 479.443 345.781 479.496C343.911 479.543 341.133 480.471 339.103 480.712C299.35 485.42 259.344 478.261 225.563 456.528C198.347 439.016 162.195 399.845 180.955 365.315C181.443 364.42 184.809 359.946 184.509 359.518C169.261 349.527 160.398 333.264 157.172 315.525C147.688 263.444 178.204 207.703 217.455 175.411C274.539 128.445 358.431 120.497 420.39 163.088C442.183 178.069 474.408 211.797 470.127 240.495C468.658 250.32 462.854 258.595 455.848 265.254V265.26ZM303.164 436.705C303.939 442.021 301.828 450.363 294.882 447.812C288.043 445.307 291.142 432.998 290.962 427.301C290.755 420.582 288.03 420.228 286.387 414.865C285.579 412.227 285.752 409.235 285.078 407.011C284.403 404.787 280.049 398.79 278.653 395.991C259.344 357.154 266.624 313.147 294.208 280.521C329.372 238.939 395.939 237.323 426.187 285.096C443.659 312.686 447.159 348.291 434.182 378.473C442.323 384.757 450.411 391.209 456.503 399.611C472.779 378.286 482.182 351.504 478.022 324.441C474.736 303.056 461.264 281.423 441.168 272.3C438.336 271.011 430.161 269.121 428.792 267.231C424.364 261.126 436.5 258.448 439.859 256.905C466.688 244.643 449.944 214.862 436.64 199.18C398.056 153.704 333.339 140.928 277.771 159.822C223.346 178.322 176.481 229.535 171.425 288.169C167.264 336.376 192.824 355.404 236.703 362.477C240.764 363.131 253.594 362.944 254.656 367.646C256.225 374.599 244.805 375.801 240.15 376.075C226.425 376.896 211.297 373.524 198.681 368.328C197.686 368.408 194.56 373.35 194.033 374.452C182.652 398.155 212.753 428.337 230.439 440.712C259.051 460.735 295.089 468.496 329.779 465.918C329.986 465.077 329.472 465.077 329.044 464.689C319.601 456.1 311.105 446.676 303.171 436.692L303.164 436.705ZM355.947 260.906C341.22 261.874 327.421 267.418 315.86 276.434C310.264 280.802 305.068 286.072 300.987 291.869C318.205 296.163 336.024 297.606 353.749 297.519L355.947 260.899V260.906ZM360.742 297.112C370.046 296.811 379.763 295.449 388.759 293.058C395.545 291.254 403.192 288.79 408.288 283.801C400.808 274.885 391.919 267.438 380.605 263.945C374.347 262.014 368.122 261.44 361.624 260.899L360.749 297.112H360.742ZM336.498 451.352C362.799 476.537 403.005 495.579 437.488 473.966C462.366 458.371 462.734 436.371 449.096 412.267C433.942 385.485 404.775 373.049 374.714 380.87L387.591 390.448C395.652 397.801 406.392 412.301 404.782 423.802C404.301 427.235 400.3 428.41 397.829 426.012C395.826 424.069 392.94 417.377 391.03 414.491C374.006 388.765 339.39 372.862 311.058 391.149C306.463 394.114 301.548 398.389 299.23 403.291C310.023 420.395 321.858 437.319 336.511 451.345L336.498 451.352Z" fill="black"/>
<path d="M288.208 207.342C293.33 206.287 296.116 209.159 297.932 213.56C300.67 220.185 300.764 229.89 298.861 236.755C295.882 247.508 286.157 249.265 282.344 237.871C280.12 231.225 278.931 209.252 288.208 207.342Z" fill="black"/>
<path d="M379.82 205.165C387 203.702 390.84 212.238 391.675 217.975C392.53 223.839 391.816 240.883 384.061 242.112C372.981 243.862 372.42 225.542 372.968 218.376C373.289 214.168 374.878 206.173 379.82 205.165Z" fill="black"/>
<path d="M284.74 179.879C288.126 179.431 292.634 180.273 293.122 184.387C293.776 189.924 286.356 190.966 282.696 193.103C280.813 194.205 277.179 198.005 276.144 198.326C273.84 199.04 269.839 198.272 269.232 195.594C267.689 188.775 278.769 180.667 284.733 179.879H284.74Z" fill="black"/>
<path d="M379.388 178.549C381.365 178.149 383.857 178.442 385.807 178.91C390.469 180.045 400.874 187.158 396.533 192.635C393.254 196.769 389.026 192.067 386.061 190.438C383.095 188.808 376.77 187.666 375.775 184.58C374.954 182.029 376.804 179.07 379.388 178.549Z" fill="black"/>
<path d="M397.246 434.227C398.021 435.075 398.509 437.012 398.175 438.14C397.58 440.131 394.742 439.136 394.334 443.036C393.767 448.493 395.643 452.72 391.276 457.429C386.6 462.478 378.018 461.51 375.193 455.191C372.027 448.119 377.257 441.72 375.908 435.282C375.507 433.358 373.076 431.629 374.478 428.85C378.753 425.885 380.496 432.323 380.803 435.623C381.271 440.652 379.902 443.537 379.554 447.885C378.86 456.507 387.542 455.879 388.217 448.266C388.49 445.16 387.449 442.442 388.33 439.209C389.252 435.816 393.98 430.654 397.246 434.227Z" fill="black"/>
<path d="M421.277 404.319C422.318 403.291 420.956 399.584 421.844 397.908C430.614 396.813 428.029 409.743 421.497 410.865C417.57 411.539 414.938 410.471 412.815 407.105C411.759 405.442 410.831 401.595 409.802 400.519C408.634 399.29 404.359 399.531 405.902 396.145C407.084 393.567 410.043 393.934 412.093 395.17C416.06 397.561 415.74 402.536 417.857 404.233C418.785 404.981 420.395 405.181 421.277 404.313V404.319Z" fill="black"/>
</g>
<defs>
<clipPath id="clip0_579_2883">
<rect width="339.57" height="379.015" fill="white" transform="translate(155.43 135.237)"/>
</clipPath>
</defs>
</svg>
