<svg width="650" height="650" viewBox="0 0 650 650" fill="none" xmlns="http://www.w3.org/2000/svg">
<g clip-path="url(#clip0_579_2895)">
<path d="M507.086 129.847C512.472 126.059 521.021 125.522 526.541 129.278C529.475 121.061 531.223 110.219 536.165 102.872C543.33 92.2275 556.861 94.8452 558.633 107.087C560.452 119.622 555.24 126.985 550.582 137.772C549.776 139.646 546.715 146.305 546.652 147.712C546.565 149.539 548.407 152.576 548.874 154.616C551.333 165.459 551.531 175.842 542.998 184.447C541.875 185.578 538.965 186.906 538.419 188.108C537.446 190.243 538.569 192.308 538.427 194.34C537.976 200.904 532.749 205.261 526.185 206.724C525.133 229.856 521.234 255.131 506.596 274.459C495.216 289.493 474.836 300.161 455.358 302.898C462.752 349.407 439.937 396.129 402.435 426.173L461.439 460.677C466.422 443.785 457.596 427.81 459.02 410.641C460.965 387.193 481.084 366.536 507.672 376.145C550.527 391.637 535.786 475.244 510.708 500.535C492.685 518.708 461.139 514.659 457.185 488.111C430.099 473.393 403.685 457.616 375.966 443.911C359.137 453.528 340.6 461.08 321.027 464.457C301.454 467.834 279.643 467.043 259.445 462.678C237.025 484.94 212.635 505.707 186 523.572C185.605 531.67 180.021 540.076 171.346 542.188C167.605 564.228 138.906 567.178 122.306 554.533C93.4647 532.571 77.2922 463.453 102.504 436.058C108.182 429.89 116.565 425.785 125.343 425.05C163.343 421.871 170.626 462.353 165.834 489.155C170.049 491.084 173.331 492.816 176.431 496.193L228.444 453.599C202.916 442.828 180.441 425.833 165.043 403.966C151.749 385.089 139.61 355.725 149.867 333.614C151.631 329.81 154.667 327.216 156.573 323.617C144.545 313.163 135.846 299.987 132.619 284.819C124.813 248.18 139.388 206.542 162.86 177.171C211.172 116.743 298.465 98.8468 369.173 137.313C397.667 152.813 432.645 188.338 429.846 221.197C428.984 231.359 422.989 238.816 415.856 245.997C425.069 252.522 433.397 259.924 440.047 268.781C441.17 270.276 443.693 275.582 445.18 275.63C461.4 274.333 476.03 267.097 485.062 254.435C495.619 239.631 497.098 221.687 499.17 204.502C494.125 204.02 488.486 200.588 487.648 195.7C486.825 190.939 489.577 188.82 485.497 184.692C484.255 183.442 482.665 182.786 481.503 181.623C473.689 173.755 470.408 159.796 477.383 150.591C478.268 149.429 480.839 147.689 480.902 146.558C477.398 131.619 467.3 113.248 468.739 97.8741C469.68 87.8621 477.43 85.4264 486.588 89.7997C500.696 96.5376 505.283 116.451 507.086 129.847ZM501.005 142.287C499.566 128.851 497.549 106.755 485.473 97.621C475.24 89.8788 475.817 99.6693 476.829 106.787C478.569 119.029 485.141 131.896 488.265 143.956L501.005 142.287ZM529.064 185.91C546.154 178.302 544.659 161.924 538.751 147.704C541.44 136.823 556.086 116.973 549.791 106.257C546.256 100.239 542.12 106.668 540.428 110.227C539.147 112.932 531.903 134.078 532.14 135.652C532.361 137.115 534.552 139.962 534.916 142.129C535.857 147.673 532.654 159.527 528.977 164.051C528.028 165.221 524.406 167.57 524.208 168.1C523.306 170.552 525.347 174.767 522.911 177.076C520.792 178.31 519.463 172.284 518.538 170.931C518.103 170.291 516.474 168.503 515.809 168.385C509.111 171.445 494.987 172.244 493.089 163.774C499.716 163.474 512.812 166.843 514.718 158.144C517.225 146.7 496.007 148.385 488.834 151.058C476.022 155.834 480.807 171.248 488.201 178.768C495.002 185.688 503.077 186.708 511.942 190.069C510.772 195.613 496.806 190.694 496.117 191.161C494.528 192.236 495.738 195.684 496.956 196.934C502.436 202.533 519.107 202.905 526.082 199.813C535.019 195.843 528.194 187.278 529.064 185.91ZM395.943 244.819C398.157 242.533 405.781 241.149 409.426 238.413C438.521 216.539 400.284 171.074 379.612 155.874C316.954 109.8 226.807 120.919 176.154 177.076C147.234 209.136 124.173 270.916 153.987 307.927C170.698 328.671 215.293 346.607 241.525 354.927C244.561 355.891 258.781 360.636 260.694 359.751C261.446 359.403 262.766 356.991 264.047 356.05C267.923 353.218 272.984 353.282 277.452 354.721L278.061 354.413C281.201 350.79 284.04 347.524 286.167 343.246C289.789 335.939 290.667 322.653 301.77 322.692C312.755 322.732 314.985 337.251 311.814 344.741C320.062 342.305 341.937 340.692 343.906 351.376C344.697 355.678 343.344 359.632 339.896 362.55C345.701 368.79 342.039 377.189 335.523 381.332C338.228 405.769 300.916 406.481 284.024 398.565C281.659 397.458 277.689 393.788 276.092 393.48C274.139 393.092 272.968 393.946 271.426 393.883C266.507 393.685 260.52 390.419 258.156 386.418C257.365 385.073 257.555 383.136 256.092 382.115C254.075 380.7 242.687 378.011 239.263 376.833C215.443 368.647 192.398 358.738 170.357 347.058C163.469 359.268 165.201 375.188 170.215 387.857C186.332 428.553 242.822 454.034 287.14 456.169C368.374 460.076 455.303 388.387 445.631 309.968C443.029 288.852 428.319 262.573 406.919 253.21C404.76 252.268 395.919 249.888 395.081 248.931C394.1 247.816 395.033 245.752 395.935 244.819H395.943ZM523.306 135.692C517.035 129.95 505.354 135.075 507.719 143.394C517.367 144.699 525.165 152.078 521.084 161.512C528.051 156.016 530.21 142.011 523.306 135.692ZM313.166 382.772C314.012 382.005 321.217 381.601 323.273 381.135C328.152 380.028 337.722 375.496 337.334 369.937C336.867 363.27 326.239 369.533 322.284 370.039C320.339 370.285 314.25 370.814 313.316 369.059C312.763 368.015 312.7 366.228 313.609 365.366C314.273 364.741 324.609 363.254 327.014 362.558C331.181 361.348 342.546 356.421 337.627 350.98C334.384 347.39 317.816 349.644 312.889 350.561C310.738 350.964 297.262 355.796 298.646 350.949C299.105 349.335 303.605 347.042 305.005 344.93C307.567 341.079 308.231 331.376 303.115 329.327C296.875 326.828 295.531 337.829 293.996 341.482C292.684 344.614 291.047 348.284 289.164 351.131C286.262 355.528 281.398 358.841 278.828 363.009C276.962 366.03 276.519 368.995 275.333 372.198L272.921 372.388L272.304 365.421C272.343 362.946 277.175 357.845 271.6 359.11C260.663 361.577 256.78 389.51 272.248 389.415C272.636 386.75 270.58 383.697 272.32 381.277C274.486 378.256 277.033 385.801 278.338 387.438C285.558 396.485 305.89 398.494 316.788 396.042C322.474 394.761 329.394 390.949 329.434 384.899C325.361 385.698 317.278 387.952 313.467 386.03C312.352 385.469 312.328 383.523 313.158 382.772H313.166ZM514.386 393.938C511.254 388.466 499.929 382.107 493.555 384.48C489.767 385.888 488.747 389.257 486.406 391.969L514.386 393.938ZM481.527 387.161C480.886 386.52 478.972 388.695 478.506 389.154C459.178 408.023 473.737 428.759 472.432 449.668C471.428 465.793 457.375 491.685 478.189 501.389C478.79 499.807 477.438 498.297 477.264 496.589C476.323 487.051 481.313 475.133 482.642 465.39C484.896 448.917 478.664 437.988 476.742 422.424C475.224 410.111 475.896 398.541 481.519 387.161H481.527ZM522.895 411.471L518.221 400.265C507.134 398.501 495.754 397.228 484.5 398.225L483.353 406.386C496.687 406.402 510.131 407.825 522.895 411.471ZM523.986 418.383C510.977 414.358 497.098 412.381 483.353 412.602L483.962 422.788C498.134 422.163 511.792 425.145 525.331 428.435L523.986 418.383ZM524.69 434.69C511.665 432.025 498.711 428.276 485.18 429.012L488.605 439.111C500.364 439.237 511.966 441.895 523.235 444.813C524.445 444.947 524.002 444.836 524.113 444.006C524.493 441.143 524.501 437.616 524.682 434.69H524.69ZM132.643 434.097C129.574 433.717 125.77 434.374 122.607 434.097L129.867 437.814C139.578 444.568 145.992 459.585 146.933 470.586C148.467 488.585 141.864 504.497 147.249 522.322C150.199 532.073 157.775 541.927 154.248 552.295C164.173 547.74 165.826 536.399 162.591 527.281C160.583 521.618 156.154 518.645 155.466 511.852C154.169 498.937 158.693 484.995 157.918 471.685C157.143 458.375 149.986 436.264 132.643 434.105V434.097ZM126.87 445.967C117.158 435.932 104.6 441.293 101.318 453.322L126.87 445.967ZM522.231 451.116L490.052 444.844L490.684 454.999C500.609 456.343 510.685 457.466 520.167 460.661L522.231 451.124V451.116ZM131.709 450.499L100.495 459.498L98.2809 471.424C110.602 466.711 123.516 463.136 136.605 460.677L131.717 450.507L131.709 450.499ZM518.64 466.339L490.044 461.238L488.826 470.285L515.588 475.378L518.64 466.331V466.339ZM138.4 466.355L98.3521 477.142L98.8899 487.257L139.673 476.232L140.092 475.703L138.4 466.363V466.355ZM485.228 484.94L507.395 488.965C509.664 488.72 511.254 482.709 513.152 481.31L487.015 475.948L485.228 484.94ZM139.642 492.057V482.164L100.092 493.797L102.243 503.097L139.649 492.057H139.642ZM503.433 494.042L483.97 490.649C484.042 500.835 489.459 505.303 499.131 498.811C499.795 498.368 504.152 494.627 503.425 494.042H503.433ZM171.892 533.062C182.6 524.378 176.771 501.729 164.592 496.304C164.039 496.81 162.718 509.013 162.821 510.642C163.232 517.38 172.746 525.201 171.892 533.062ZM138.424 509.305V498.558L104.347 509.06L107.716 518.36L138.424 509.297V509.305ZM138.424 514.967L110.444 523.453C110.911 525.106 114.525 532.556 116.106 532.421L140.258 525.138L138.424 514.96V514.967ZM143.264 530.254L118.969 537.862C120.298 539.207 125.873 546.64 127.502 546.403L146.672 538.748L143.256 530.262L143.264 530.254ZM148.768 543.809L131.741 550.587C141.358 555.458 148.673 556.257 148.768 543.809Z" fill="black"/>
<path d="M218.721 309.683C205.072 311.281 208.417 299.988 207.76 291.874C206.487 275.954 191.105 271.62 189.524 256.8C185.657 220.54 242.541 237.385 264.044 238.991C290.679 240.976 318.509 238.556 343.23 228.915C353.068 225.08 369.296 215.321 379.624 216.373C386.077 217.029 389.312 221.648 389.075 227.429C388.719 236.112 377.964 250.11 372.001 256.792C368.039 261.229 357.758 269.517 356.469 274.586C355.354 278.975 356.437 286.021 351.376 288.513C349.367 289.501 346.939 289.074 346.133 291.557C345.824 292.498 345.27 296.468 345.255 297.528C345.239 298.588 345.895 299.695 345.887 300.897C345.872 306.923 348.347 321.925 337.481 319.497C328.695 317.536 332.657 305.349 332.506 299.197C332.475 297.805 330.917 294.95 333.392 294.958C340.652 298.73 335.48 307.888 336.824 314.12C338.256 314.752 339.877 315.243 341.055 313.969C342.953 311.692 339.102 294.23 342.281 287.967C343.839 284.906 346.536 284.1 350.031 284.147L350.719 276.31C314.594 301.253 261.466 305.452 222.786 282.985L204.724 271.217C204.304 271.612 209.358 277.979 209.919 279.11C213.897 287.121 211.77 293.463 212.632 301.466C213.265 307.342 217.329 305.871 218.049 300.85C218.389 298.501 216.665 290.237 221.347 291.628C223.055 292.807 223.427 295.606 223.593 297.489C223.965 301.514 222.857 324.25 223.838 325.539L227.223 326.069C228.243 320.415 224.352 301.427 228.71 297.757C233.067 294.088 239.085 302.613 242.834 302.74C243.482 302.763 254.261 298.264 253.368 302.02C250.956 304.448 246.416 307.445 242.731 307.445C238.002 307.445 235.59 303.388 231.477 302.313V326.915C231.477 328.489 227.31 331.352 225.151 331.154C222.604 330.917 218.706 327.516 218.706 325.223V309.675L218.721 309.683ZM371.415 224.289C370.19 223.039 355.804 231.81 353.21 232.261C353.701 245.871 371.692 238.635 371.969 229.042C372.009 227.587 371.02 225.91 371.415 224.289ZM349.509 234.467L327.659 241.3C328.007 252.403 343.546 250.56 348.9 243.791C351.834 240.09 350.269 238.516 349.509 234.459V234.467ZM233.328 241.252C228.512 241.845 210.204 238.54 207.159 240.968C204.115 243.396 209.484 249.548 212.189 251.003C221.924 256.262 234.862 253.526 233.32 241.252H233.328ZM263.736 245.214L237.575 241.814C236.246 252.648 242.083 257.781 253.629 256.46C260.177 255.709 264.258 251.422 263.736 245.214ZM297.204 246.345C298.58 254.206 304.756 256.318 312.664 255.337C319.031 254.554 326.773 248.694 323.009 242.431L297.204 246.337V246.345ZM293.55 246.907C285.001 246.978 276.444 247.073 267.998 245.776C262.787 261.403 294.681 260.406 293.55 246.907ZM331.265 280.28C318.865 276.104 305.31 273.787 292.332 276.887C291.929 277.386 299.608 281.893 298.746 283.673L297.504 284.669C278.999 274.72 250.481 270.98 232.102 282.534C257.369 293.922 288.243 293.961 314.966 286.907C316.089 286.607 332.499 281.759 331.257 280.288L331.265 280.28Z" fill="black"/>
<path d="M247.767 184.834C259.645 182.588 260.223 204.012 257.526 210.876C253.509 221.125 244.414 217.654 241.409 208.575C239.44 202.612 239.463 186.4 247.759 184.834H247.767Z" fill="black"/>
<path d="M341.439 178.041C353.207 175.534 354.164 195.55 351.926 202.485C348.96 211.683 340.332 212.513 336.457 203.355C334.092 197.78 333.467 179.733 341.439 178.033V178.041Z" fill="black"/>
<path d="M200.888 226.946C199.322 228.583 193.747 230.726 191.398 232.537C184.953 237.488 184.502 245.301 184.652 252.569C178.958 252.822 178.768 245.444 179.156 241.513C180.121 231.723 190.765 223.703 201.101 224.558C202.106 225.143 201.457 226.361 200.888 226.954V226.946Z" fill="black"/>
<path d="M398.112 221.948C393.494 223.197 394.205 217.495 392.735 214.379C391.343 211.437 388.456 209.35 385.15 208.424C381.426 207.38 377.013 208.812 378.207 203.442C391.801 199.433 402.051 209.508 398.112 221.948Z" fill="black"/>
<path d="M353.025 165.324C350.289 168.321 345.789 161.164 342.823 160.104C340.166 159.155 333.072 159.203 331.847 158.436C331.396 158.151 331.301 157.724 331.238 157.257C330.431 151.358 343.978 152.615 347.734 154.41C351.143 156.039 355.999 162.073 353.025 165.324Z" fill="black"/>
<path d="M235.971 170.196C234.35 171.556 230.546 178.302 227.897 174.759C224.227 169.856 234.84 161.307 239.854 160.516C243.247 159.978 249.36 159.551 248.53 164.035C248 166.882 242.899 166.582 240.202 167.626C238.897 168.132 237.015 169.31 235.971 170.196Z" fill="black"/>
<path d="M327.617 299.505C328.067 299.869 325.829 302.439 325.426 302.835C320.539 307.612 303.963 314.413 297.027 312.95C296.134 312.76 295.366 312.317 294.781 311.661C294.765 310.316 308.233 306.852 310.574 305.998C313.184 305.041 326.304 298.462 327.617 299.505Z" fill="black"/>
</g>
<defs>
<clipPath id="clip0_579_2895">
<rect width="468.98" height="474.279" fill="white" transform="translate(90.0234 87.7207)"/>
</clipPath>
</defs>
</svg>
