<svg width="650" height="650" viewBox="0 0 650 650" fill="none" xmlns="http://www.w3.org/2000/svg">
<g clip-path="url(#clip0_579_2898)">
<path d="M452.082 269.057L479.732 249.502C477.548 243.429 479.053 239.156 484.005 235.068C480.787 230.028 482.455 224.42 482.005 218.952C481.363 211.204 471.674 202.29 479.275 195.103C491.812 183.245 506.149 199.796 507.005 211.964C507.751 212.695 521.66 203.508 523.498 202.534C530.559 198.785 544.705 192.55 552.542 195.236C554.483 195.9 557.958 199.316 558.467 199.412C559.227 199.553 560.629 198.601 561.699 198.519C570.857 197.796 574.074 202.017 572.672 210.547C572.325 212.65 570.584 214.805 570.2 216.495C569.174 221.041 569.875 221.941 567.049 226.464C559.345 238.78 538.669 251.789 524.398 255.826C522.118 256.475 517.1 256.866 515.558 257.641C515.108 257.87 513.506 261.087 512.458 262.076C508.311 266.009 502.615 265.419 497.56 267.064L453.662 299.385C445.98 352.352 404.605 399.903 350.398 414.403C350.066 430.726 351.195 446.967 353.099 463.172C367.916 460.087 372.89 468.964 367.783 481.332C370.152 481.125 375.605 481.701 376.978 483.723C377.421 484.372 377.457 485.774 377.649 485.929C377.937 486.165 383.641 486.955 385.073 487.412C396.791 491.146 402.421 502.406 401.499 513.763C399.765 535.089 358.722 533.819 343.41 530.285C336.334 528.654 323.582 524.175 320.446 517.423C317.672 511.446 321.074 498.872 323.472 492.755C324.062 491.249 326.416 487.966 326.416 486.777C326.416 485.508 324.202 482.83 323.863 480.948C322.94 475.724 324.394 468.625 330.172 466.721L328.084 419.052H296.538L291.1 464.205C301.652 465.164 304.397 472.949 301.157 481.848C300.788 482.867 299.29 484.505 299.349 485.139C299.386 485.553 302.486 490.312 303.083 491.958C305.238 497.883 306.559 510.76 304.249 516.456C300.988 524.492 288.915 529.458 280.673 531.325C267.575 534.299 232.524 533.989 228.687 517.799C225.861 505.875 232.945 492.659 244.877 488.349C246.227 487.862 252.145 486.726 252.389 486.438C252.647 486.135 252.389 484.97 252.979 484.158C253.606 483.302 255.739 482.734 256.772 482.313C255.909 477.177 254.248 470.108 258.181 465.754C261.465 462.124 268.276 463.673 268.859 462.869L274.179 414.433C259.62 410.942 245.873 404.559 233.72 396.228L225.986 406.33L237.284 429.147C238.715 433.264 237.837 437.692 233.631 439.706C224.577 444.03 220.74 436.039 217.043 429.781C215.582 427.302 210.475 416.012 208.844 415.274C206.867 414.381 196.588 417.089 192.92 417.001C190.382 416.941 186.146 416.108 183.608 415.495C182.007 415.104 178.752 413.377 177.705 413.377C176.509 413.377 173.439 415.82 171.587 416.322C163.507 418.491 157.235 413.37 152.143 408.16C151.339 407.334 150.468 405.371 149.863 405.009C146.941 403.283 142.255 402.914 138.322 400.065C111.093 380.319 129.143 345.593 147.244 326.665C149.553 324.252 152.498 322.186 154.519 319.751L129.858 272.163C121.616 258.667 107.492 249.819 93.3244 242.647C91.4648 242.366 92.0699 247.421 87.4358 247.509C75.2529 247.746 73.9615 228.051 88.2401 230.656C90.4613 214.038 93.6343 196.313 88.8895 179.968C87.8712 178.227 87.2218 179.681 84.7424 177.688C75.8875 170.59 89.9152 159.86 96.0104 167.763C99.4195 172.191 96.2981 175.024 96.8073 176.257C98.261 179.791 110.813 188.609 114.34 191.48C121.291 197.117 128.958 202.571 137.57 205.662L138.544 205.242C147.207 189.775 160.069 216.598 143.768 215.654C143.473 217.462 142.89 219.24 142.639 221.063C141.34 230.456 143.06 249.568 147.059 258.349L172.274 304.867L182.309 298.329C162.437 274.067 165.78 238.699 176.487 211.33C190.02 176.744 217.847 145.456 253.208 129.879C300.56 109.026 362.566 114.744 401.506 148.91C421.371 166.339 442.984 201.929 415.106 222.096C433.945 232.08 447.817 248.69 452.082 269.064V269.057ZM232.406 383.706C271.486 413.163 324.143 418.749 369.075 397.711C416.006 375.736 452.06 321.876 442.659 271.041C438.66 249.399 423.621 234.869 402.561 227.305C400.185 226.449 392.548 225.807 393.551 222.339C394.171 220.199 399.949 219.469 402.177 218.598C439.413 204.039 406 163.675 386.216 149.478C340.399 116.589 274.224 121.282 230.251 154.673C177.07 195.059 140.101 297.857 234.974 314.062C238.331 314.637 252.071 315.611 253.606 317.036C254.78 318.128 255.112 319.847 253.879 320.991C251.075 323.573 238.413 322.437 234.28 321.987C223.573 320.828 213.375 317.368 203.362 313.818C201.155 315.7 183.866 324.215 183.475 325.418C182.243 329.241 188.98 324.555 189.821 324.208C203.295 318.674 213.287 327.669 212.246 340.671C218.113 341.173 223.706 341.106 227.469 346.131C230.62 350.345 229.661 355.259 229.063 360.078C238.759 364.159 236.811 376.334 232.406 383.699V383.706ZM540.16 231.674C538.817 232.567 533.172 226.11 531.733 224.959C526.626 220.841 519.026 216.672 512.171 216.598C509.972 216.576 503.648 218.642 502.637 217.971C500.785 211.079 496.431 194.542 485.768 197.664C479.326 199.553 487.096 209.684 487.93 213.824C489.17 219.978 486.89 225.357 488.912 231.571C490.469 236.352 494.402 239.835 497.243 243.879C495.376 248.011 488.513 240.204 486.668 240.47C480.699 248.078 494.151 260.187 501.759 260.032C504.098 259.988 508.216 258.652 508.643 256.084L503.271 252.085C502.165 248.159 512.355 251.893 514.384 251.937C528.7 252.276 554.947 235.4 562.031 223.719C563.146 221.889 564.371 219.86 564.12 217.661C562.821 217.595 561.559 217.617 560.275 217.89C556.77 218.642 543.938 226.782 541.318 229.379C540.617 230.08 540.3 230.707 540.167 231.659L540.16 231.674ZM531.445 217.144C531.519 216.694 531.688 216.215 532.057 215.919C538.381 210.843 545.052 206.43 552.136 202.371C547.288 198.372 538.595 202.113 533.46 204.26C532.345 204.725 518.886 211.396 519.513 211.964L531.438 217.144H531.445ZM566.267 211.949C569.617 196.933 553.833 207.588 547.841 211.234C544.868 213.042 542.071 215.078 539.156 216.953L534.766 220.502L538.824 225.446C543.414 221.358 548.697 217.012 554.313 214.289C558.253 212.377 561.751 210.806 566.267 211.949ZM205.635 342.678C206.749 335.638 202.041 326.392 193.378 329.683C184.626 333.011 182.088 347.733 176.583 354.654C171.078 361.576 164.297 361.303 160.976 371.944C160.556 373.287 159.39 380.289 158.91 380.607C156.032 382.51 154.261 375.825 155.139 373.899C155.065 373.803 153.317 374.976 153.029 375.249C143.65 384.075 155.73 411.444 170.37 409.703L167.204 406.242C165.817 403.984 162.563 400.405 165.743 398.398C172.975 404.508 181.276 409.703 191.282 410.249C201.288 410.795 221.802 405.954 225.868 395.461C226.244 394.487 227.757 389.24 226.097 388.945C220.872 392.096 210.675 396.811 204.469 395.07C202.653 394.561 202.329 392.494 204.24 391.424C207.398 389.646 213.427 388.753 217.316 386.783C225.315 382.724 234 373.287 225.831 365.302C225.182 364.808 224.946 365.251 224.466 365.561C221.485 367.509 219.234 369.575 215.869 371.383C212.8 373.036 200.381 378.909 197.554 377.264C195.865 376.283 196.551 374.88 197.923 373.973C201.163 371.826 206.299 370.276 209.892 368.269C215.124 365.339 226.185 357.872 221.736 351.075C217.109 343.999 205.915 348.338 200.115 351.673C197.975 352.905 191.334 358.462 189.688 358.351C187.807 358.226 188.146 356.086 188.729 354.809C190.81 350.271 200.838 344.619 205.635 342.663V342.678ZM165.463 342.767L164.341 343.091C158.246 350.382 152.284 358.58 151.339 368.188C152.616 367.487 155.877 366.778 156.77 365.848C157.456 365.133 158.504 361.495 160.046 359.635C162.009 357.274 168.805 353.171 169.573 351.562C170.495 349.614 165.883 345.002 165.463 342.759V342.767ZM280.304 485.929C279.19 484.239 282.717 477.635 280.702 473.871C278.304 469.4 266.903 466.81 262.638 469.348C260.329 470.721 261.369 479.118 262.882 481.022C263.871 482.276 269.257 482.815 271.523 483.678C275.271 485.102 281.204 488.696 280.156 493.197C276.673 495.027 274.054 491.294 271.154 489.744C267.449 487.766 263.243 486.401 259.03 487.567L267.745 490.917L274.105 496.119C271.995 503.041 269.058 497.197 264.977 495.116C253.518 489.286 238.258 493.957 235.24 506.635C234.236 510.833 234.118 513.077 238.331 515.357C248.81 521.024 271.102 519.6 282.407 516.36C285.875 515.364 298.589 510.361 299.254 507.011C299.822 504.126 297.291 489.707 294.922 488.298C294.066 487.788 289.432 490.046 289.033 486.859C289.011 485.501 292.14 484.187 293.092 483.221C296.154 480.099 298.412 473.51 293.8 470.721C291.668 469.429 289.225 470.359 287.808 472.211C286.421 474.026 287.572 485.995 283.197 486.534C282.606 486.608 280.533 486.254 280.311 485.921L280.304 485.929ZM361.681 481.73C363.112 480.136 364.19 471.724 362.662 469.872C358.877 465.267 348.531 471.399 347.697 476.432C347.528 477.472 347.572 478.97 347.646 480.055C347.845 482.977 351.328 488.408 347.188 488.851C341.942 489.412 341.927 479.376 342.229 476.137C337.942 476.609 334.422 475.561 331.072 473.038C328.755 475.886 329.892 480.372 332.142 482.903C333.234 484.128 337.315 486.062 336.776 487.803C335.788 489.478 332.083 487.906 331.286 488.917C329.744 490.866 327.309 498.422 326.711 501.049C325.235 507.572 325.353 507.933 331.331 511.188C345.521 518.914 367.311 520.677 383.014 516.892C387.441 515.822 395.359 513.431 394.916 508.133C393.728 494.002 377.701 488.445 365.429 494.4C363.681 495.249 357.423 500.436 356.353 499.802C352.464 497.485 360.065 492.024 362.168 490.77C364.404 489.441 366.942 488.74 369.311 487.7C370.078 487.36 370.794 488.01 370.499 486.527C364.433 485.914 360.5 487.028 355.637 490.246C353.933 491.375 350.147 495.736 348.428 494.356C345.69 490.556 352.295 486.091 355.453 484.357C356.619 483.723 361.452 481.974 361.673 481.73H361.681ZM235.631 518.19C237.586 522.301 242.744 524.094 247.054 525.186C260.734 528.654 277.374 528.558 290.022 522.087C294.221 519.939 298.53 517.349 299.254 512.472C281.492 524.891 255.658 526.116 235.631 518.183V518.19ZM393.883 516.626C372.838 526.012 346.022 525.341 326.453 512.988C324.136 516.021 333.714 520.994 335.869 521.902C348.79 527.341 378.033 529.2 390.031 521.504C391.758 520.397 393.935 518.854 393.883 516.626Z" fill="black"/>
<path d="M377.996 202.217C379.944 205.471 373.598 214.591 371.326 217.167C362.936 226.671 350.672 233.349 339.226 238.95C339.19 244.366 339.883 249.871 339.5 255.302C339.3 258.091 338.968 262.703 336.814 264.674C333.006 268.142 318.838 270.097 314.514 267.219C309.954 264.194 311.85 253.206 311.23 248.55C311.127 247.79 310.817 246.941 310.145 247.783C309.422 254.04 310.086 260.497 309.621 266.747C309.393 269.839 309.422 272.451 306.471 274.119C301.844 276.731 288.894 278.111 284.193 275.919C277.294 272.695 279.042 252.432 276.984 251.14C260.676 250.668 244.028 247.399 230.458 238.448C226.791 247.333 221.773 240.905 223.249 234.146C224.208 229.763 230.266 225.852 234.273 229.091L234.657 233.143C245.032 238.426 256.846 242.293 268.601 243.562C298.073 246.742 349.07 234.744 367.149 210.585C368.603 208.636 371.436 202.741 372.691 201.862C374.122 200.859 377.177 200.851 377.996 202.217ZM333.522 241.038L316.632 246.543L317.237 260.467L318.528 262.873C321.221 264.696 331.191 262.069 333.522 259.464V241.038ZM304.154 248.823L283.455 251.199C283.721 254.771 284.097 268.902 286.776 270.857C288.311 271.979 292.605 271.75 294.568 271.595C296.295 271.455 304.154 270.282 304.154 268.289V248.823Z" fill="black"/>
<path d="M270.785 177.902C276.799 183.562 278.621 197.693 275.891 204.984C273.766 210.651 268.445 212.939 263.42 208.548C258.395 204.157 256.196 192.491 256.845 186.285C257.576 179.364 263.774 171.306 270.785 177.902Z" fill="black"/>
<path d="M337.184 164.339C347.995 162.554 351.205 181.577 350.319 188.816C348.888 200.482 337.834 202.305 332.705 191.723C329.65 185.421 327.06 166.007 337.184 164.339Z" fill="black"/>
<path d="M522.231 229.623C522.379 230.479 522.253 230.789 521.678 231.424C519.501 233.822 511.059 236.545 508.476 239.622L506.477 239.459C506.595 232.922 516.158 228.236 522.231 229.63V229.623Z" fill="black"/>
</g>
<defs>
<clipPath id="clip0_579_2898">
<rect width="495.08" height="415.068" fill="white" transform="translate(77.9219 117.711)"/>
</clipPath>
</defs>
</svg>
