<svg width="650" height="650" viewBox="0 0 650 650" fill="none" xmlns="http://www.w3.org/2000/svg">
<g clip-path="url(#clip0_579_2876)">
<path d="M201.568 449.893C179.542 427.989 156.151 389.268 179.907 360.485V359.882C178.683 359.346 177.172 358.097 176.185 357.189C119.874 305.716 167.326 220.933 217.172 184.339C285.455 134.219 390.601 137.935 448.55 202.289C465.33 220.921 481.221 251.568 460.34 273.229C482.945 286.682 497.184 311.516 498.793 337.753C502.229 393.893 461.863 450.173 414.96 477.256C346.835 516.592 257.275 505.296 201.562 449.893H201.568ZM431.917 277.451C429.912 275.02 432.697 271.748 435.006 270.645C438.899 268.799 442.506 268.945 446.735 266.246C473.83 248.912 440.922 211.318 424.959 198.164C363.554 147.58 268.59 152.772 211.134 206.834C180.718 235.446 148.218 291.452 172.401 332.44C189.492 361.411 225.117 368.083 255.892 372.61C260.2 374.651 262.168 379.678 257.647 382.797C253.808 385.448 245.577 384.004 240.983 383.389C224.227 381.146 207.155 375.48 191.917 368.327C189.723 367.602 187.109 371.654 186.189 373.39C177.038 390.706 189.559 415.12 200.428 428.903C237.224 475.568 303.892 495.974 361.489 483.751C428.206 469.591 489.038 407.663 485.169 336.485C483.81 311.529 465.44 284.592 440.154 279.346C438.064 278.913 433.233 279.047 431.917 277.451Z" fill="black"/>
<path d="M404.795 218.916C407.311 218.355 409.888 220.305 411.003 222.462C413.922 228.104 416.737 240.107 417.949 246.541C427.832 299.056 407.207 335.949 359.567 357.749C325.873 373.164 258.156 383.315 230.781 352.235C211.357 330.185 219.393 294.888 249.389 288.515C266.37 284.908 284.106 283.787 301.52 279.851C330.79 273.228 385.157 257.6 399.067 228.5C400.377 225.764 401.559 219.641 404.801 218.922L404.795 218.916ZM396.222 252.75C380.923 265.38 363.783 274.185 345.157 280.881C314.82 291.787 287.993 295.022 256.694 300.366C249.626 301.572 241.839 303.065 238.239 309.999C242.156 313.094 247.079 312.607 251.649 311.455C253.026 311.108 254.513 310.145 255.908 309.926C260.606 309.188 261.861 312.558 265.943 313.752C276.685 316.896 288.456 308.524 298.942 305.807C316.204 301.329 331.015 300.555 347.43 291.842C350.488 290.215 353.992 287.248 356.935 286.048C360.56 284.573 364.862 284.634 368.517 283.568C373.428 282.136 375.018 277.542 378.656 274.678C380.764 273.021 383.616 271.863 385.846 270.285C392.207 265.795 395.265 260.591 396.222 252.744V252.75ZM315.363 311.071C313.577 310.791 311.232 311.272 309.367 311.071L317.008 316.457C319.061 318.572 322.632 321.234 322.619 324.518C322.619 325.92 321.547 327.357 320.018 327.126C318.488 326.894 311.524 319.997 309.258 318.419C306.047 316.195 302.659 314.855 299.143 313.21L286.214 317.274L294.348 321.332C297.322 322.977 306.382 328.546 302.141 332.579C300.6 334.041 298.357 333.901 296.395 333.755C291.411 333.383 286.513 330.983 281.663 329.874C268.575 326.882 251.692 327.656 242.376 338.575C241.328 339.799 239.378 341.627 240.267 343.126C240.834 344.083 244.057 347.385 245.044 348.293C245.641 348.841 249.644 351.979 250.034 352.016C264.755 345.076 280.578 351.266 295.945 350.364C308.398 349.633 331.375 342.559 330.041 326.565C329.529 320.418 321.309 311.979 315.363 311.053V311.071Z" fill="black"/>
<path d="M258.801 216.449C268.05 214.987 271.992 228.574 272.546 235.593C273.095 242.472 272.376 257.857 265.216 261.336C254.249 266.661 249.881 247.962 249.399 240.547C248.942 233.448 249.673 217.893 258.801 216.449Z" fill="black"/>
<path d="M355.176 198.657C361.495 197.737 365.565 206.48 366.978 211.477C369.342 219.867 370.165 237.621 362.11 243.239C354.049 248.857 348.559 237.652 346.713 231.333C344.197 222.7 343.46 204.872 352.508 199.723C353.184 199.339 354.445 198.767 355.183 198.657H355.176Z" fill="black"/>
<path d="M382.476 355.404C387.216 354.691 386.332 359.937 383.834 362.575C377.918 368.82 360.742 377.058 352.169 376.01C348.891 375.608 348.934 373.274 351.42 371.526C354.966 369.034 362.808 367.011 367.286 364.641C371.819 362.246 376.346 358.267 380.709 356.141C381.281 355.861 381.836 355.501 382.482 355.404H382.476Z" fill="black"/>
<path d="M252.607 194.544C256.262 194.093 259.315 195.897 258.413 199.93C257.889 202.264 250.316 205.609 247.964 207.681C244.698 210.569 244.534 214.163 239.3 213.42C236.119 212.969 235.821 210.879 236.351 208.064C237.387 202.55 247.19 195.214 252.601 194.544H252.607Z" fill="black"/>
<path d="M223.645 281.387C226.338 280.826 227.587 282.082 227.496 284.793C227.404 287.504 222.756 292.726 221.104 295.389C219.453 298.051 216.937 303.858 215.066 305.899C212.599 308.598 209.321 306.77 209.424 303.486C209.491 301.481 213.537 293.226 214.737 291.099C216.273 288.382 220.55 282.039 223.639 281.393L223.645 281.387Z" fill="black"/>
<path d="M368.021 386.466C371.75 386.179 386.111 385.826 388.603 387.971C389.59 388.824 389.657 390.591 388.81 391.535C386.836 393.728 374.619 392.455 371.195 392.528C367.223 392.613 362.854 393.406 358.827 393.345C358.022 393.223 356.84 392.65 356.597 391.84C355.36 387.733 365.468 386.661 368.027 386.466H368.021Z" fill="black"/>
<path d="M337.226 179.69C338.323 178.532 341.326 176.296 342.746 175.492C345.756 173.792 354.883 170.715 356.016 175.705C357.083 180.427 351.678 180.817 348.534 182.523C346.451 183.65 341.375 188.421 340.157 188.634C336.671 189.244 334.137 185.71 335.197 182.42C335.349 181.938 336.787 180.153 337.226 179.696V179.69Z" fill="black"/>
<path d="M208.349 277.64C211.262 277.208 211.688 281.004 210.957 283.173C210.403 284.824 205.565 292.446 204.31 293.896C202.805 295.627 200.648 297.449 198.704 294.975C196.615 292.318 200.788 284.757 202.677 282.338C203.634 281.107 206.905 277.86 208.349 277.647V277.64Z" fill="black"/>
</g>
<defs>
<clipPath id="clip0_579_2876">
<rect width="348.32" height="350.568" fill="white" transform="translate(150.68 150)"/>
</clipPath>
</defs>
</svg>
