<svg width="650" height="650" viewBox="0 0 650 650" fill="none" xmlns="http://www.w3.org/2000/svg">
<g clip-path="url(#clip0_579_3005)">
<path d="M416.082 203.41C427.122 208.574 436.118 218.428 442.933 228.337C443.286 228.842 443.679 229.075 444.304 229.115C446.076 229.219 454.847 226.894 457.06 226.205C472.743 221.298 489.203 208.718 496.034 193.541C499.915 184.914 496.684 187.776 491.36 183.823C486.429 180.167 485.667 175.052 485.218 169.263C478.644 163.274 467.868 164.276 461.246 159.658C453.108 153.989 455.753 143.478 464.404 140.079C470.386 137.73 475.565 138.588 481.57 140.175C478.355 129.952 460.772 119.73 469.824 108C472.101 105.05 475.044 103.871 478.772 104.36C479.365 92.8948 490.093 91.4356 497.525 98.6675C505.495 90.6178 514.924 98.1945 519.518 105.867C523.342 112.257 523.984 119.257 526.782 124.909C527.84 127.042 531.087 129.832 532.595 132.526C536.78 140.023 536.764 147.712 534.455 155.842C533.862 157.934 532.017 161.149 531.905 162.849C531.609 167.315 533.701 169.752 531.232 174.996C529.348 179.005 523.054 182.709 522.284 184.521C521.514 186.333 521.073 192.065 520.336 194.88C512.39 225.114 483.623 246.121 454.711 254.339C466.369 312.186 425.783 366.217 378.647 394.608C379.561 398.047 381.59 401.038 382.68 404.438C390.786 429.685 375.128 453.682 355.909 468.659C358.812 475.61 360.375 484.39 352.301 488.278C351.636 489.208 356.479 492.103 357.36 493.001C366.581 502.373 363.654 518.673 357.433 528.936C351.796 538.228 344.717 538.076 335.312 534.075C317.056 526.306 294.053 498.83 296.947 477.96C297.749 472.203 309.928 461.964 314.987 459.07C317.537 457.611 322.235 456.376 323.967 455.181C325.699 453.987 326.292 451.734 329.355 450.491C334.454 448.431 337.533 451.686 339.393 451.052C341.983 450.17 349.231 441.231 351.075 438.633C356.005 431.69 359.501 424.963 357.649 416.039C357.32 414.452 353.528 406.562 352.133 406.642C346.168 408.743 340.106 410.587 333.933 411.982C314.129 416.464 294.013 416.905 273.953 413.834L277.312 483.219C283.053 483.219 289.306 488.687 289.09 494.676C289.034 496.168 288.048 497.402 287.951 498.677C287.823 500.417 291.688 506.005 292.69 508.411C295.472 515.098 298.695 529 296.635 535.839C294.318 543.552 275.692 552.171 268.332 554.544C254.71 558.946 240.775 559.459 226.945 555.683C224.917 555.13 218.639 553.198 217.268 552.075C216.426 551.386 215.857 549.501 215.736 548.419C215.351 544.923 215.913 537.563 216.386 533.931C218.294 519.114 227.498 504.025 243.734 503.36C239.557 495.198 243.093 484.502 253.251 484.895L250.95 408.278C233.888 403.355 217.989 394.76 204.183 383.68C192.453 393.806 173.082 395.41 162.018 383.335C161.192 382.429 159.693 379.671 159.236 379.406C158.274 378.845 156.598 379.278 155.299 378.869C148.035 376.6 146.64 368.719 144.708 362.593C126.275 353.213 107.818 331.461 116.277 309.588C122.667 293.056 144.94 286.874 160.911 285.103C116.582 231.152 162.523 158.07 208.52 122.608C260.018 82.9048 327.455 79.6656 381.566 116.779C406.549 133.913 441.594 172.238 416.098 202.593V203.41H416.082ZM507.852 128.429C510.073 124.035 498.303 107.07 494.719 103.791C491.632 100.969 485.13 97.8016 484.401 104.144C483.927 108.273 487.094 109.115 489.371 111.937C493.749 117.357 497.101 124.356 498.351 131.227C501.27 130.097 504.605 127.844 507.852 128.429ZM526.325 168.157C523.318 167.347 519.085 171.26 517.914 167.315C517.914 165.695 521.619 164.493 522.982 163.41C527.985 159.433 530.927 149.051 529.989 142.941C528.754 134.859 524.2 133.232 521.354 127.515C517.618 119.987 517.602 111.937 510.875 104.977C508.702 102.732 503.515 99.2207 501.751 103.438C507.323 110.293 512.486 118.72 512.334 127.86L517.377 128.694L517.682 131.821C513.336 132.534 509.392 132.566 505.062 133.745C502.889 134.338 500.604 135.276 498.528 136.158C496.684 136.944 493.444 139.445 491.793 139.526C487.752 139.726 494.567 133.031 496.122 132.606C494.527 130.057 493.244 127.275 491.729 124.685C489.211 120.403 481.29 107.022 475.084 111.031C468.798 115.096 479.919 126.136 482.356 129.584C485.996 134.731 490.558 141.634 487.72 148.008C496.363 141.666 509.392 144.569 510.594 156.034L509.271 156.956C504.533 152.354 502.248 148.201 494.759 149.171C493.02 149.395 489.075 151.552 488.105 151.296C487.135 151.039 486.742 149.395 485.643 148.682C484.184 147.728 476.359 144.833 474.579 144.641C469.544 144.112 458.968 146.709 463.659 153.316C466.241 156.948 477.914 158.455 482.893 160.941C487.824 163.402 491.256 167.042 496.98 168.678C499.762 169.472 504.677 169.087 505.623 171.773C505.086 174.146 493.284 173.312 491.079 172.069C494.094 188.65 525.459 183.631 526.333 168.149L526.325 168.157ZM207.943 342.693C213.09 344.457 214.798 351.585 214.02 356.436C213.756 358.111 212.08 359.803 211.96 361.03C211.864 362.048 212.81 363.211 212.898 364.349C213.195 368.254 212.994 371.822 211.351 375.414C228.877 390.679 253.171 399.571 276.061 403.034C342.792 413.129 415.809 372.992 439.037 308.907C452.803 270.935 442.332 220.552 398.844 209.167C396.182 208.47 383.145 207.86 390.714 202.937C396.27 199.329 401.217 202.071 407.415 195.016C426.569 173.2 394.691 140.039 377.308 127.732C303.682 75.6087 212.625 109.267 170.517 183.102C137.532 240.949 155.692 293.048 224.411 301.346C228.067 301.787 236.735 300.609 236.438 306.622C236.205 311.384 227.594 312.788 223.842 313.092C211.463 314.11 197.159 310.174 186.36 304.313C178.679 309.58 175.672 320.917 176.009 329.889C182.655 325.399 190.176 324.092 198.049 325.471C207.967 327.211 211.134 333.056 207.943 342.693ZM170.404 307.512C160.759 307.336 138.791 310.494 140.17 324.028C140.691 329.16 147.009 335.213 151.611 337.137C155.147 332.703 160.318 329.849 165.858 328.703C165.401 321.046 167.478 314.415 170.404 307.512ZM202.836 341.058C203.854 335.718 202.635 332.527 196.943 331.621C186.624 329.985 178.566 334.099 171.23 341.074C169.715 342.517 164.183 350.92 162.282 346.702C163.277 341.803 168.047 338.693 170.966 334.932C162.611 333.85 157.416 338.869 154.465 346.125C151.515 353.381 148.628 368.142 156.967 372.415C157.063 369.128 156.494 365.6 158.057 362.585L159.757 362.345C162.218 370.427 163.886 380.377 172.754 383.768C176.939 385.364 186.311 386.334 190.2 384.105C190.898 383.704 191.419 383.375 190.553 382.758L186.616 382.221C186.007 381.9 185.846 380.673 186.103 380.288C186.696 379.382 195.981 377.939 197.945 377.29C204.095 375.261 207.654 371.429 206.781 364.582C204.92 364.975 203.726 366.522 201.906 367.26C199.573 368.206 188.452 370.146 190.801 365.696C192.493 362.489 208.873 363.219 207.927 352.547C206.981 341.876 189.927 350.294 187.714 346.855C187.314 346.237 187.041 344.954 187.249 344.249C187.923 342.02 200.294 340.705 202.828 341.042L202.836 341.058ZM351.724 474.272C348.886 474.536 346.825 476.124 343.883 475.731C339.208 475.105 332.281 468.05 332.185 463.303C332.137 461.058 334.165 458.541 334.294 457.106C334.494 454.965 330.982 456.384 329.932 457.234C325.731 460.641 327.086 468.483 326.019 472.909L323.253 473.077C322.516 471.161 322.003 469.156 321.658 467.12C321.465 465.973 322.019 462.694 320.68 463.087C317.841 463.929 310.056 469.766 308.605 472.275C307.266 474.584 309.246 481.062 310.032 483.78C314.642 499.647 328.521 517.222 345.013 521.552C346.585 521.969 351.275 523.099 352.566 522.971C354.001 522.827 355.26 519.034 355.669 517.663C359.189 505.877 355.38 494.075 341.926 492.736C338.19 492.367 328.12 494.709 330.237 488.751C337.661 485.729 355.116 486.322 351.724 474.263V474.272ZM351.724 525.761C333.46 525.184 318.547 509.573 310.778 494.236L304.724 475.394C301.734 479.226 302.439 482.097 303.289 486.611C305.903 500.473 317.473 515.21 328.826 523.187C334.286 527.028 348.421 535.759 351.716 525.753L351.724 525.761ZM282.147 491.798C281.746 491.333 278.266 488.944 277.857 489.385C278.146 496.208 264.516 497.29 259.713 496.617C254.51 495.879 254.061 490.828 252.898 490.547C248.697 491.141 246.123 496.713 249.002 500.056C250.749 502.085 257.236 503.143 260.162 504.57C263.337 506.118 271.331 510.784 269.19 515.13C267.434 518.689 260.804 511.65 258.214 510.439C251.647 507.368 244.448 507.801 237.929 510.736C227.089 515.611 223.249 526.402 222.142 537.555C237.055 543.977 253.403 543.608 268.493 537.94C273.311 536.128 278.21 533.602 282.299 530.475C284.857 528.519 290.365 523.941 290.076 520.614C289.86 518.144 285.394 505.725 283.47 504.739C280.703 505.043 275.773 508.507 273.985 504.771C277.152 502.181 286.228 496.497 282.171 491.806L282.147 491.798ZM221.894 540.874L222.15 547.609C241.609 555.611 265.366 552.476 282.844 541.107C287.519 538.06 293.524 533.674 290.445 527.453C273.696 545.252 244.263 550.359 221.894 540.874Z" fill="black"/>
<path d="M381.395 177.673C378.052 193.925 375.63 210.859 367.404 225.491C372.383 228.008 386.783 232.931 388.523 238.544C390.527 245.014 378.934 237.277 376.729 236.339C372.143 234.39 366.851 232.306 361.808 233.364C356.901 240.235 350.791 245.591 343.351 249.592C346.253 252.502 349.228 256.263 350.727 260.119C351.617 262.396 353.854 269.508 349.188 266.694C347.721 265.804 344.898 260.857 343.359 259.093C341.82 257.329 337.474 252.743 335.325 252.815C324.333 256.615 312.836 258.58 301.338 260.199C299.687 265.748 298.701 273.982 293.168 277.213C291.18 278.375 287.195 279.257 285.656 277.061C283.17 273.509 287.604 273.469 289.585 271.953C292.439 269.764 294.796 264.088 294.972 260.496L273.742 258.868C271.449 262.059 273.188 269.981 276.652 272.074C277.951 272.859 281.423 273.22 281.751 274.286C282.553 276.94 278.592 278.023 276.54 277.83C267.825 276.996 265.307 265.403 267.191 258.323C262.789 257.746 255.734 254.154 251.701 253.922C248.726 253.745 242.497 258.099 240.348 260.199C238.432 262.075 234.992 267.888 233.421 268.939C232.571 269.508 231.785 269.756 230.823 269.219C228.955 267.872 232.338 261.843 233.204 260.336C235.602 256.166 238.865 252.567 242.601 249.592C239.602 247.9 236.716 246.353 233.95 244.26C231.921 242.721 223.375 233.901 222.629 233.701C221.883 233.5 221.603 233.789 221.033 234.166C219.638 235.104 215.966 239.137 214.611 240.62C213.032 242.344 206.882 250.995 205.391 251.011C202.561 250.185 204.477 245.599 205.247 243.563C207.772 236.86 212.503 231.969 218.532 228.321L200.917 201.75C193.228 212.622 189.075 204.156 194.808 195.072C197.742 190.414 203.667 186.717 209.304 187.182C213.665 187.543 217.466 191.384 212.382 193.629C211.468 194.029 206.906 194.527 207.395 195.809C216.359 210.682 226.333 228.433 241.19 238.135C268.354 255.87 331.196 255.293 353.397 229.428C366.362 214.322 369.136 192.057 373 173.2C366.129 174.49 363.083 167.315 370.611 166.056C376.456 165.078 382.822 166.93 386.711 171.516C392.179 177.954 388.226 182.989 381.395 177.673Z" fill="black"/>
<path d="M247.831 163.875C248.721 163.049 251.351 161.67 252.521 161.566C266.801 160.299 269.671 198.303 253.083 195.457C243.205 193.757 241.489 169.72 247.831 163.883V163.875Z" fill="black"/>
<path d="M332.333 150.999C333.207 150.158 335.171 149.348 336.39 149.179C349.026 147.432 351.094 168.983 347.695 177.273C344.833 184.265 336.687 184.545 332.79 178.42C329.286 172.904 327.45 155.738 332.333 150.999Z" fill="black"/>
<path d="M251.965 126.882C255.212 126.361 259.069 126.505 260.351 129.977C262.38 135.461 255.749 134.94 251.965 136.391C249.479 137.345 246.304 139.285 244.268 141.009C242.231 142.733 239.024 147.888 236.707 147.792C232.129 146.124 234.085 140.199 236.451 137.113C239.674 132.903 246.681 127.724 251.957 126.882H251.965Z" fill="black"/>
<path d="M327.517 119.048C334.083 118.006 346.639 122.071 350.303 127.892C351.514 129.808 351.931 132.919 349.189 133.448C344.795 134.298 341.492 129.784 337.299 128.581C333.747 127.563 330.836 128.164 327.397 127.851C318.345 127.042 320.333 120.187 327.525 119.04L327.517 119.048Z" fill="black"/>
<path d="M400.579 341.258C401.285 340.673 402.367 340.288 403.241 340.761C406.793 343.279 396.899 354.688 394.775 356.428C393.171 357.734 383.991 363.194 382.492 362.104C381.922 361.695 381.858 361.062 381.93 360.42C382.155 358.4 391.094 351.617 393.083 349.709C395.36 347.528 398.35 343.11 400.579 341.266V341.258Z" fill="black"/>
<path d="M169.431 354.079C170.457 353.02 181.337 356.388 181.899 357.294C182.267 357.887 182.284 358.528 182.099 359.178C180.993 362.625 166.192 359.547 169.431 354.071V354.079Z" fill="black"/>
<path d="M166.491 362.352C169.281 361.695 169.305 363.972 170.692 365.142C172.897 367.019 175.214 368.029 177.515 369.512C179.993 371.108 177.644 372.783 175.671 372.984C171.486 373.401 165.882 366.521 166.491 362.352Z" fill="black"/>
</g>
<defs>
<clipPath id="clip0_579_3005">
<rect width="421.85" height="467.438" fill="white" transform="translate(114.148 90.7861)"/>
</clipPath>
</defs>
</svg>
