<svg width="650" height="650" viewBox="0 0 650 650" fill="none" xmlns="http://www.w3.org/2000/svg">
<path d="M507.582 263.55C508.192 273.47 506.892 287.63 496.892 292.6C494.532 293.77 489.262 294.5 488.952 294.77C488.392 295.26 488.062 299.73 487.022 301.6C478.692 316.66 458.762 323.04 442.912 326.88C443.552 329.2 446.632 328.83 448.872 331.01C463.592 345.39 461.042 373.73 448.982 388.85C435.542 405.69 408.692 408.17 389.012 402.98C386.572 402.34 384.102 399.6 381.592 399.68C377.742 399.81 362.732 408.28 353.352 409.09C296.222 414.04 222.942 393.95 176.232 361.11C173.332 359.07 170.732 354.75 167.692 353.48C163.842 351.87 160.432 353.02 156.902 352.15C149.742 350.39 141.252 348.29 135.002 344.71C124.162 354.48 116.892 371.07 115.512 385.48C115.102 389.75 118.332 402.33 112.132 402.38C105.932 402.43 106.972 376.99 107.362 371.95C109.492 343.79 136.342 309.37 160.902 296.15C171.872 290.25 181.542 289.67 192.222 285.71C196.362 284.18 205.242 270.05 208.462 279.03C202.942 282.77 200.602 291.06 196.212 295.09C189.432 301.31 175.102 304.82 166.812 310.15C164.432 311.68 143.532 329.64 145.132 330.9C157.082 332.71 169.282 338.07 181.172 340.01C269.072 354.29 387.712 290.16 472.842 264.53C484.812 260.92 523.382 256.12 529.172 248.1C544.892 226.32 500.882 216.52 507.602 196.21C513.192 194.97 512.132 199.66 514.312 202.27C520.662 209.85 530.832 212.54 537.222 221.13C553.362 242.84 531.272 266.44 507.572 263.56L507.582 263.55ZM496.802 266.26L426.882 289.29C425.022 298.92 430.502 306.73 431.402 316.15C432.592 317.83 435.002 317.58 436.802 317.51C442.872 317.26 469.702 305.38 474.592 301.29C480.832 296.08 478.982 290.09 481.302 283.75C484.232 275.73 491.132 280.86 490.092 287.81C495.282 286.79 498.502 268.21 496.802 266.26ZM386.312 305.32C343.422 318.24 303.202 338.92 259.272 348.71C252.782 351.9 263.792 358.4 268.542 359.08C292.642 362.5 345.222 358.19 365.992 344.94C380.402 335.75 386.762 322.46 386.312 305.32ZM344.562 364.57C366.572 367.1 379.302 392.08 400.482 394.21C432.252 397.39 453.732 385.83 448.222 350.53C446.372 338.7 439.112 338.21 432.222 332.85C424.482 326.84 422.042 321.44 410.652 319.41C400.092 317.52 391.662 318.42 391.762 330.84C399.742 333.91 411.742 337.25 417.982 343.04C421.712 346.5 428.092 354.41 422.722 358.57C417.292 361.93 412.232 351.42 407.762 347.87C401.402 342.82 393.312 340.29 386.352 336.3C382.772 346.94 371.822 352.6 362.572 357.68L344.562 364.57Z" fill="black"/>
<path d="M405.837 222.16C411.477 221.67 426.057 238.29 429.057 239.11C434.197 240.51 449.137 227.7 452.097 237.56C454.427 245.3 444.527 247.4 438.537 249.08C420.787 254.06 422.567 249.49 412.607 237.94C410.537 235.54 403.977 230.4 403.117 228.5C401.967 225.98 403.437 222.36 405.837 222.16Z" fill="black"/>
<path d="M414.44 418.64C417.72 423.86 412.91 426.81 408.82 429.52C401.56 434.32 358.67 454.95 351.92 454.93C346.8 454.91 345.45 451.96 350.34 449.18C357.22 445.28 366.75 442.01 374.23 438.04C383.07 433.35 398.7 422.23 406.91 419.53C409.4 418.71 411.78 417.8 414.44 418.64Z" fill="black"/>
<path d="M129.281 412.76C125.281 408.58 122.491 371.95 130.971 374.03C135.071 375.03 132.781 385.61 133.181 389.35C133.771 394.91 138.691 406.9 138.411 409.69C137.941 414.27 132.231 415.84 129.291 412.77L129.281 412.76Z" fill="black"/>
<path d="M336.127 438.9C340.737 438.11 342.147 440.36 344.037 444.04L343.937 446.72C340.567 452.32 325.697 459.96 324.297 450.05C323.507 444.46 331.457 439.7 336.127 438.9Z" fill="black"/>
</svg>
