<svg width="650" height="650" viewBox="0 0 650 650" fill="none" xmlns="http://www.w3.org/2000/svg">
<path d="M374.768 195.24C386.718 204.2 413.378 212.75 427.768 219.62C435.568 223.35 429.998 225.53 429.498 230.13C428.778 236.85 437.628 263.46 439.618 272.44C443.568 290.23 446.428 308.39 450.628 326.09C457.218 353.83 467.668 380.38 472.598 408.49C469.128 410.7 467.338 407.23 465.218 407.19C461.668 407.11 420.258 440.74 410.698 445.63C381.868 460.38 359.808 462.56 327.798 459.69C311.578 458.24 298.548 449.36 283.928 444.28C255.948 434.53 225.178 431.07 208.298 402.69C188.248 368.99 191.018 355.63 192.338 317.58C192.808 304.08 192.538 289.21 193.718 275.85C195.158 259.48 203.308 230.37 202.798 216.27C202.728 214.2 200.318 212.85 200.548 211.35C200.748 210.04 204.008 208.12 205.058 206.36C206.738 203.53 205.928 199.73 209.768 198.97C211.948 198.54 213.978 199.8 216.598 199.16C220.858 198.13 227.878 192.81 232.798 190.99C280.408 173.32 305.608 171.45 355.148 184.45C368.328 187.91 365.798 188.52 374.758 195.24H374.768ZM294.758 186.24L257.018 190.27C259.248 205.63 252.868 217.22 248.158 230.76C251.218 235.38 280.298 233.28 286.598 231.98L294.748 186.24H294.758ZM359.198 197.25C342.068 192.46 325.108 184.89 306.878 186.23C307.338 201.93 298.878 216.25 300.208 231.98C311.108 231.91 316.728 241.03 321.248 249.65C327.828 251.14 360.018 236.06 362.458 230.35C366.598 220.67 360.488 207.13 359.198 197.25ZM246.238 194.32C244.998 193.1 215.808 205.08 213.888 207.11C209.208 212.03 221.258 224.22 226.778 225.24C236.918 227.12 243.818 219.98 245.658 210.55C246.878 204.29 243.908 200.26 246.238 194.32ZM403.888 215.89L378.228 205.65L374.258 233.38C378.078 237.1 399.458 222.83 402.578 219.28C403.608 218.11 404.318 217.79 403.888 215.9V215.89ZM249.258 381.24C255.218 387.98 275.898 380.3 284.568 381.65C290.668 382.6 307.848 392.35 310.258 392.26C312.668 392.17 318.748 387.51 323.688 386.92C336.318 385.41 336.848 391.88 342.648 392.28C350.598 392.82 374.278 384.16 378.598 377.15C387.588 362.57 397.978 327.8 398.578 310.76C398.928 300.62 378.288 291.24 370.878 285.93C368.958 299.9 358.318 293.9 349.338 293.89C331.568 293.86 317.898 318.84 322.948 334.92C320.188 339.07 315.678 337.59 314.238 333.14C310.308 320.99 319.218 307.66 323.058 296.73C301.958 287.75 263.538 293.27 250.518 313.76C242.208 326.84 239.588 354.05 243.668 368.67C243.988 369.81 248.808 380.73 249.268 381.25L249.258 381.24ZM454.968 362.84C449.798 362.92 442.808 360.58 440.878 366.67C439.378 371.41 439.598 404.32 441.638 405.81L462.788 393.08L454.958 362.84H454.968ZM238.158 419.28C240.338 409.34 241.798 399.44 240.648 389.19C235.868 386.93 229.288 373.82 224.358 375.02C220.458 375.97 209.158 386.92 209.818 391.48C209.938 392.29 211.968 392.16 212.468 393.37C213.198 395.13 212.798 397.28 214.078 399.59C216.078 403.2 235.518 421.66 238.168 419.27L238.158 419.28ZM432.188 412.58C423.118 410.13 429.278 399.88 427.818 391.98C427.218 388.75 421.008 379.01 418.158 378.92C415.548 380.19 408.688 380.52 406.938 381.91C403.378 384.72 395.438 417.73 394.488 424.02C393.988 427.36 395.188 431.73 394.498 434.59C394.118 436.17 391.198 434.58 391.778 436.79C397.678 439.19 433.688 414.59 432.188 412.58ZM288.688 395.04H260.388L247.588 424.66L286.648 438.15C285.878 423.39 297.948 409.2 288.678 395.04H288.688ZM335.018 403.29L309.758 404.65L298.788 442.17C311.198 444.93 323.598 449.68 336.598 446.97C341.988 432.76 340.198 417.26 335.018 403.28V403.29ZM371.448 405.91C361.538 406.75 358.758 410.48 356.128 419.35C354.738 424.04 350.878 444.17 356.288 446.01C367.868 447.68 378.028 441.1 389.068 439.48L383.578 435.89L371.448 405.91Z" fill="black"/>
<path d="M238.156 459.69V455.66C248.276 455.27 258.146 455.75 268.116 457.36C273.876 458.29 299.366 464.33 303.286 466.65C307.206 468.97 306.486 474.92 301.446 473.98C296.776 473.11 289.156 468.98 283.666 467.41C268.846 463.18 253.666 460.02 238.166 459.68L238.156 459.69Z" fill="black"/>
<path d="M181.573 335.76C175.183 335.07 177.313 318.92 177.483 313.48C177.943 298.88 179.443 278.2 181.753 263.86C182.283 260.55 182.503 256.06 184.953 253.61C189.923 253.61 184.523 281.81 184.293 285.25C183.153 302.06 183.443 319.01 181.583 335.75L181.573 335.76Z" fill="black"/>
<path d="M416.892 187.7C421.112 186.42 438.182 199.43 441.692 203.01C444.442 205.82 454.632 218.61 449.792 222.02C443.662 226.34 439.202 213.01 435.602 209.1C431.842 205 414.652 194.84 414.622 190.95C414.392 189.5 415.622 188.09 416.892 187.71V187.7Z" fill="black"/>
<path d="M460.109 426.27C464.689 425.24 468.799 426.64 467.069 431.89C466.219 434.45 452.959 439.02 449.259 441.06C447.919 441.8 438.879 451.06 437.579 444.18C436.559 438.73 455.579 427.29 460.109 426.27Z" fill="black"/>
<path d="M436.893 177.16C441.833 177.57 453.953 195.11 447.673 197C442.833 198.45 443.053 191.7 441.173 188.71C439.113 185.42 436.253 182.9 433.562 180.18L436.893 177.17V177.16Z" fill="black"/>
</svg>
