<svg width="650" height="650" viewBox="0 0 650 650" fill="none" xmlns="http://www.w3.org/2000/svg">
<g clip-path="url(#clip0_527_3312)">
<path d="M393.672 376.026C393.524 374.944 393.332 373.635 393.559 372.475C393.402 371.288 393.08 370.128 392.931 369.028C392.042 362.415 391.763 355.644 390.299 349.091C389.785 346.788 388.713 345.287 388.102 343.019C387.762 341.771 387.318 340.235 387.03 339.022C386.856 338.298 386.673 337.435 386.533 336.571C386.446 336.335 386.35 336.1 386.263 335.855C385.845 334.677 385.226 333.116 385.644 331.955C385.566 331.022 385.487 330.088 385.339 329.268C385.13 328.142 384.441 326.799 384.267 325.507C383.256 317.812 384.136 309.724 384.25 301.766C384.363 294.053 384.668 276.289 380.589 269.954C380.249 269.431 379.674 269.405 379.36 268.733C379.098 268.174 379.046 266.674 378.898 266.072C378.872 265.967 378.34 265.199 378.026 264.213C377.128 261.334 375.725 258.83 374.2 256.439C372.561 253.865 371.358 251.387 369.292 249.197C365.082 244.721 361.299 241.231 356.278 237.872C347.1 231.73 336.196 225.927 325.265 223.039C325.178 223.013 325.073 222.987 324.978 222.961C323.513 222.795 322.049 222.507 320.619 222.359C318.475 222.123 316.339 221.844 314.213 221.504C311.415 221.059 308.617 220.622 305.819 220.143L305.775 220.239C305.775 220.239 305.775 220.169 305.775 220.134C304.319 219.89 302.864 219.628 301.417 219.349C300.868 219.261 300.327 219.174 299.787 219.069C299.133 218.939 298.471 218.799 297.808 218.642C297.747 218.642 297.686 218.642 297.634 218.633C292.195 218.232 286.546 217.691 281.073 217.822C277.063 217.918 273.053 218.685 269.087 218.912C264.075 219.192 259.97 218.843 254.696 219.462C244.298 220.684 235.424 223.074 225.252 225.238C224.119 225.482 222.585 225.369 221.382 225.631C219.621 226.023 216.684 227.219 213.999 228.458C208.586 232.462 202.45 235.324 196.087 237.584C195.285 238.02 194.492 238.457 193.69 238.884V238.902C193.672 238.902 193.646 238.919 193.602 238.928C192.304 239.626 190.996 240.315 189.689 241.004C189.689 241.013 189.689 241.031 189.689 241.039H189.619C189.201 241.266 188.774 241.484 188.355 241.702V241.842C188.294 241.816 188.233 241.807 188.181 241.79C188.102 241.833 188.015 241.877 187.937 241.921C178.087 248.438 168.194 254.895 158.379 261.456C156.06 263.541 153.812 265.679 151.737 267.188C150.839 267.843 149.392 269.064 148.329 269.989C145.993 272.022 143.779 274.116 141.574 276.228C138.959 279.718 136.161 283.068 133.171 286.244C127.714 292.046 121.63 297.369 115.093 301.976C112.6 304.41 110.116 306.844 107.605 309.252C101.809 315.918 95.9166 322.506 89.9284 329.006C89.6669 329.39 89.4228 329.783 89.1875 330.219C89.3357 333.011 89.911 335.751 90.7913 338.438C92.9182 344.921 96.2217 350.871 98.9674 357.101C99.4294 358.148 99.8652 359.204 100.292 360.268C103.683 363.453 106.411 367.414 108.32 371.681C116.008 381.017 124.855 389.375 133.816 397.524C139.979 403.126 146.193 408.666 152.19 414.451C156.967 418.029 161.587 421.728 166.442 425.227C174.182 430.811 179.769 433.306 188.46 437.032C198.545 441.351 208.455 445.164 218.75 448.645C227.327 451.551 235.956 453.932 244.751 456C246.363 456.376 247.47 456.48 249.031 456.794C263.64 459.813 278.824 461.07 293.677 461.009C297.756 460.991 302.219 460.773 306.586 460.319C307.771 459.839 308.965 459.368 310.142 458.897C311.275 458.443 312.522 457.806 313.786 457.431C315.32 456.471 317.272 456.157 319.094 456.088C319.809 456.061 320.506 456 321.203 455.939L322.336 455.678L322.38 455.721C322.467 455.704 322.554 455.686 322.641 455.669C322.781 455.564 323.164 455.503 323.6 455.468C324.55 455.276 325.509 455.102 326.477 454.953C327.915 454.412 329.562 453.601 330.879 453.13C330.983 453.095 331.096 453.095 331.21 453.112C333.284 452.065 335.385 451.114 337.538 450.277C337.547 450.277 337.564 450.259 337.573 450.259C338.628 449.736 339.839 449.186 341.051 449.038C341.896 448.767 342.759 448.514 343.622 448.279C344.607 447.825 345.583 447.354 346.586 446.952C350.081 445.556 353.794 444.614 357.115 442.808C357.307 442.703 357.813 442.407 358.458 442.023C359.111 441.517 359.765 441.011 360.41 440.496C361.412 439.693 362.397 438.821 363.435 438.053C363.844 437.381 364.254 436.718 364.672 436.063C365.596 434.632 366.808 433.271 368.394 432.573C368.665 432.451 368.97 432.338 369.275 432.251C370.547 431.029 371.715 429.633 372.997 428.455C374.984 426.632 377.991 424.721 379.735 422.714C380.955 421.309 382.079 419.486 383.448 417.959C385.522 415.655 387.579 413.806 388.922 410.822C389.27 410.036 389.297 409.033 389.61 408.361C389.706 408.16 390.055 407.872 390.404 407.611C390.43 406.424 390.7 405.211 391.092 404.068C392.147 401.032 393.263 398.109 393.803 394.924C394.361 391.679 394.291 388.459 394.126 385.187C394.03 383.329 394.038 381.479 394.352 379.682C394.073 378.486 393.847 377.282 393.681 376.052L393.672 376.026ZM305.383 237.026C305.409 236.965 305.435 236.904 305.461 236.842C305.531 235.726 305.81 234.618 306.368 233.64C306.516 233.379 306.69 233.143 306.865 232.907C306.865 232.855 306.865 232.811 306.847 232.759L306.943 232.803C307.85 231.677 309.096 230.918 310.491 230.438C312.217 229.854 314.091 229.871 315.843 230.325C316.592 230.525 317.298 230.813 317.978 231.154C318.937 231.372 319.922 231.782 320.724 232.079C333.45 236.834 339.438 251.3 341.347 264.431C341.905 265.758 342.227 267.119 342.358 268.541C342.698 269.893 342.768 271.333 342.672 272.712C342.628 273.418 341.905 273.898 341.251 273.523C339.525 272.528 337.738 271.656 335.856 271.001C335.071 270.731 334.278 270.504 333.476 270.286C332.369 270.539 331.288 270.975 330.234 271.647C328.926 272.485 327.619 273.436 326.05 273.706C325.832 273.741 325.614 273.767 325.396 273.776C325.378 273.776 325.352 273.802 325.344 273.802C325.195 273.837 325.073 273.811 324.96 273.767C323.679 273.724 322.458 273.244 321.308 272.633C320.027 271.952 318.85 271.211 317.368 271.089C315.956 270.966 314.544 271.281 313.324 271.996C312.007 272.773 311.049 274.282 309.366 274.273C307.588 274.273 306.873 272.589 306.377 271.167C305.793 269.492 305.374 267.756 305.147 265.993C304.964 264.536 304.964 263.131 304.991 261.692H304.938C304.991 258.882 303.648 255.82 303.378 253.132C302.933 248.761 303.901 241.17 305.348 237.008L305.383 237.026ZM261.774 230.936C262.55 229.95 264.032 229.636 265.226 229.732C265.296 229.732 265.365 229.749 265.426 229.758C266.289 229.636 267.222 229.836 267.972 230.299C268.033 230.307 268.085 230.334 268.155 230.36L268.129 230.412C268.373 230.587 268.599 230.779 268.791 231.005C268.983 231.241 269.14 231.503 269.27 231.773C270.142 232.873 270.29 234.687 270.979 235.944C271.118 236.197 272.652 238.448 272.774 238.553C273.35 239.076 275.991 239.539 276.723 239.286C279.216 238.422 278.719 236.389 282.171 236.24C283.783 236.171 284.594 236.607 285.457 238.012C287.27 240.961 287.087 247.513 287.653 251.03C288.516 256.378 290.957 261.526 290.87 267.031L292.029 273.61C292.029 273.61 292.038 273.628 292.047 273.628C292.169 273.846 292.203 274.09 292.16 274.326L292.177 274.404C292.177 274.404 292.151 274.404 292.142 274.404C292.055 274.744 291.811 275.032 291.436 275.128C289.519 275.617 287.462 275.791 285.483 275.835C283.801 275.87 282.188 275.704 280.95 274.457C280.122 273.619 279.408 272.755 278.545 272.031C278.214 271.918 277.874 271.813 277.516 271.743C277.385 271.734 277.255 271.717 277.098 271.717C276.906 271.717 274.936 271.822 274.831 271.865C274.091 272.179 272.565 274.046 271.598 274.518C271.537 274.544 271.476 274.561 271.423 274.587C270.343 275.748 268.756 276.481 267.178 275.879C266.228 275.512 265.435 274.788 265.235 273.75C265.121 273.191 265.174 272.598 265.348 272.057C265.409 271.874 265.444 271.691 265.487 271.499C265.278 270.146 265.365 268.759 265.156 267.415C264.869 265.618 264.59 265.496 264.616 263.664C264.686 258.751 263.247 253.926 262.585 249.162C261.975 244.782 261.818 239.565 262.079 235.063C262.062 235.001 262.036 234.94 262.018 234.879C261.826 234.321 261.661 233.745 261.53 233.169C261.347 232.375 261.251 231.616 261.783 230.936H261.774ZM212.064 249.206C212.604 247.644 213.415 246.196 214.417 244.896C214.487 244.669 214.566 244.442 214.653 244.224C215.324 242.619 216.379 241.118 217.73 240.01C218.314 239.539 218.933 239.216 219.621 238.98C220.292 238.509 221.007 238.09 221.757 237.732C224.293 236.528 227.135 235.944 229.942 236.101C230.046 236.101 230.151 236.118 230.255 236.118C230.255 236.101 230.255 236.083 230.255 236.066C235.015 234.906 237.874 236.136 239.913 240.568C242.31 245.76 244.463 254.363 245.396 260.758C246.407 263.402 246.991 266.229 247.34 268.995C247.505 270.312 247.61 271.656 247.619 272.982C247.619 274.134 247.619 275.46 247.069 276.516C246.529 277.563 245.518 277.999 244.376 277.894C244.01 277.859 243.653 277.79 243.304 277.694C241.901 278.121 240.297 277.964 238.911 277.475C238.658 277.388 238.405 277.275 238.161 277.17C232.156 277.092 226.089 276.193 219.97 276.254C219.089 276.263 215.368 276.821 214.757 276.411C214.426 276.193 214.557 275.914 214.531 275.626C214.513 275.355 214.496 274.91 214.496 274.422C214.234 273.872 214.069 273.261 213.938 272.694C213.171 269.3 212.491 265.88 211.89 262.451C211.602 260.837 211.236 258.943 211.698 257.408C211.131 254.616 211.175 251.736 212.038 249.206H212.064ZM179.011 282.806C178.741 281.733 178.523 280.337 178.488 279.884C178.235 276.62 179.037 264.737 179.97 262.145C180.441 260.819 180.972 258.045 181.687 256.788C182.811 253.804 185.078 251.152 187.457 249.189C188.451 248.368 189.48 247.601 190.526 246.859C191.58 246.117 192.94 245.219 194.143 246.205C194.186 246.239 194.23 246.292 194.274 246.327C194.805 246.353 195.372 246.423 195.599 246.484C196.244 246.676 200.279 249.354 200.828 249.93C204.489 253.743 203.661 259.153 204.681 263.786C205.021 265.356 205.056 266.29 205.178 268.122C205.431 271.865 205.971 275.94 205.596 279.657C205.666 279.901 205.727 280.145 205.753 280.398C205.919 281.663 205.413 282.754 204.237 283.321C203.112 283.862 201.84 283.478 200.68 283.269C199.852 283.121 199.007 283.016 198.17 282.946C197.464 282.946 196.932 282.902 196.122 282.841C195.721 282.841 195.311 282.841 194.91 282.841C194.561 282.972 194.012 283.26 193.324 283.225C192.992 283.208 192.696 283.086 192.426 282.972C190.883 283.121 189.349 283.365 187.841 283.74C186.464 284.08 185.147 284.569 183.796 284.996C182.637 285.354 181.373 285.537 180.275 284.901C179.56 284.482 179.028 283.662 179.011 282.815V282.806ZM363.103 384.245C362.676 390.248 361.84 393.825 359.939 398.423C359.905 398.746 359.87 399.069 359.826 399.374C359.634 400.805 359.321 402.192 358.71 403.501C358.187 404.618 357.446 405.7 356.531 406.529C355.79 407.192 354.858 407.681 353.908 408.03C348.224 411.537 341.53 413.09 335.35 415.158C331.053 416.598 326.424 418.674 322.127 419.817C319.477 420.524 316.601 420.698 313.995 421.292C311.432 421.876 308.207 423.237 305.618 423.517C303.3 423.77 302.367 422.967 299.865 424.188C298.662 424.782 297.922 424.363 296.3 424.415C294.653 424.468 292.805 424.729 291.253 424.825C287.322 425.061 283.138 425.471 279.268 426.064C274.03 426.867 270.578 428.411 265.165 427.295C262.306 426.701 261.469 426.422 258.471 426.195C251.602 425.689 246.285 424.913 239.669 422.906C236.183 421.85 231.911 421.196 228.076 419.808C226.472 419.233 224.563 418.561 222.794 417.88C220.606 417.427 218.436 416.929 216.274 416.449C214.112 415.969 211.75 415.594 210.059 414.032C209.859 413.849 209.684 413.649 209.527 413.43C209.231 413.343 208.935 413.23 208.647 413.099C208.42 413.055 208.194 412.994 207.967 412.889C207.584 412.715 207.244 412.453 206.93 412.165C206.538 411.921 206.18 411.685 205.867 411.485C203.661 410.071 201.656 408.466 199.87 406.538C199.172 405.787 198.519 404.993 197.891 404.182C196.714 403.161 195.572 402.175 194.535 401.32C190.316 397.839 189.009 395.963 185.705 391.722C185.252 391.146 184.319 390.658 184.101 390.326C181.347 386.252 179.142 379.071 179.979 374.228C180.362 371.995 181.155 368.06 181.861 365.966C181.879 365.905 181.931 365.8 181.992 365.669C182.288 363.941 183.125 362.502 184.372 361.298C184.572 360.957 184.729 360.713 184.799 360.643C185.165 360.251 185.74 360.19 186.124 359.832C190.447 355.775 202.171 350.112 207.95 347.765C209.048 347.32 210.46 347.154 211.82 346.858C218.924 342.504 227.858 341.361 235.938 340.331C238.571 340 241.203 339.721 243.844 339.511C245.675 339.363 247.558 339.171 249.423 339.162C251.428 338.307 253.694 338.516 255.638 339.546C256.553 340.035 257.372 340.672 258.139 341.378C259.055 341.614 259.961 341.867 260.868 342.137C261.513 342.451 261.983 342.774 262.358 343.176C263.204 343.917 264.476 344.502 265.662 345.078C266.176 345.366 266.708 345.619 267.231 345.88C267.675 346.229 268.198 346.421 268.704 346.674C270.7 347.826 271.877 348.629 273.254 349.693C275.424 351.054 275.171 351.185 276.749 352.433C277.603 353.053 278.527 353.532 279.477 353.986C280.541 354.728 281.168 354.928 282.293 355.426C283.208 356.019 284.149 356.56 285.108 357.084C285.195 357.145 285.283 357.206 285.361 357.275C286.712 358.227 288.699 360.338 290.373 362.502C291.698 364.386 293.598 365.765 294.94 367.641C295.455 368.409 295.376 368.313 296.292 370.791C296.448 371.34 296.754 371.82 297.015 372.318C297.041 372.51 297.067 372.675 297.093 372.832C296.998 373.687 297.006 374.542 297.111 375.398C297.128 376.034 297.067 376.663 297.146 377.3C297.163 377.684 297.407 378.757 297.503 379.149C297.39 379.751 297.372 380.449 297.503 381.06C297.172 382.901 296.527 384.664 295.411 386.243C294.74 387.194 293.947 388.04 293.119 388.852C292.509 389.838 291.864 390.815 291.654 391.103C291.001 392.001 289.397 393.72 288.124 395.256C287.854 395.788 287.601 396.329 287.357 396.879C287.305 397.664 287.34 398.441 287.523 399.217C287.558 399.365 287.601 399.531 287.671 399.671C287.854 399.749 288.02 399.854 288.194 399.976C288.778 399.828 289.362 399.252 289.841 398.921C290.713 398.327 291.585 397.734 292.456 397.149C292.482 397.123 292.517 397.088 292.543 397.062C292.561 397.045 292.578 397.018 292.604 396.992C294.034 394.113 295.734 391.391 297.93 389.017C298.523 388.372 299.185 387.691 299.918 387.063C300.615 386.138 301.347 385.24 302.088 384.358C302.044 384.245 302.071 384.175 302.262 384.158C302.742 383.59 303.239 383.023 303.735 382.465C303.918 382.264 304.102 382.055 304.293 381.837C305.304 380.606 306.647 378.94 306.725 378.774C307.536 377.169 307.841 375.572 308.198 373.975C308.277 372.422 308.198 370.852 307.937 369.325C307.728 368.095 307.257 366.908 307.074 365.678C307.03 365.416 307.048 365.154 307.091 364.91C304.738 360.321 302.332 356.246 300.162 351.456C299.124 349.161 296.64 344.833 296.047 342.739C295.943 342.382 295.873 342.041 295.917 341.666C297.59 341.352 299.299 340.89 300.929 340.41C308.599 338.167 317.098 337.243 325.126 336.859C330.112 336.623 335.202 337.609 339.848 339.371C340.528 339.633 341.059 339.912 341.53 340.209C342.297 340.48 343.047 340.794 343.744 341.117C346.054 342.172 348.172 343.621 350.055 345.322C350.831 346.029 351.554 346.797 352.234 347.599C355.834 350.418 357.874 354.798 359.608 358.959C363.583 368.479 363.827 374.01 363.103 384.236V384.245ZM373.328 273.305C373.188 273.462 372.979 273.54 372.779 273.567C372.587 273.593 372.334 273.575 372.169 273.453C372.134 273.436 372.108 273.41 372.073 273.392C372.047 273.383 372.02 273.375 371.986 273.366C371.925 273.348 371.872 273.322 371.811 273.296C369.667 273.209 367.444 273.505 365.309 273.61C363.121 273.715 360.924 273.785 358.737 273.907C357.194 273.994 354.744 274.509 353.96 272.799L353.62 272.467C353.82 269.632 353.977 266.709 353.82 263.855C353.585 259.659 352.757 255.418 352.251 251.274C352.016 249.293 352.007 247.269 351.685 245.306C353.977 245.594 356.139 248.142 357.168 250.096C357.961 251.597 358.458 255.54 360.619 255.61C361.517 255.645 363.539 254.301 364.088 254.912C365.352 257.032 366.712 259.109 367.828 261.316C369.127 263.873 369.972 266.665 371.192 269.16C371.585 269.954 372.047 270.609 372.474 271.281C372.866 271.507 373.223 271.787 373.459 272.153C373.694 272.52 373.589 273.008 373.31 273.314L373.328 273.305Z" fill="black"/>
<path d="M591.591 315.831C591.756 315.587 591.913 315.334 592.044 315.063C592.584 313.946 592.689 312.481 592.741 312.419C593.317 310.98 592.811 307.167 592.689 305.753C592.68 305.631 592.672 305.57 592.663 305.527C592.584 304.008 592.297 302.508 592.044 301.007C592.044 300.963 592.044 300.92 592.035 300.876C592.035 300.675 592.009 300.475 591.992 300.274C592.14 299.733 592.262 299.175 592.123 298.608C592.079 298.433 591.756 298.416 591.652 298.259C591.573 297.953 591.486 297.639 591.39 297.342C591.373 297.299 591.364 297.255 591.347 297.212C590.109 292.212 589.952 286.925 587.991 282.143C587.389 280.669 586.117 278.976 585.533 277.388C581.863 267.372 579.248 256.945 574.907 247.173C572.702 242.208 569.381 237.523 567.254 232.672C566.104 230.045 565.851 228.693 564.36 226.154C562.216 222.481 561.484 217.944 559.287 214.75C558.512 213.616 557.902 213.293 557.195 211.766C556.594 210.466 556.28 208.433 555.67 207.421C555.644 207.386 555.461 207.186 555.208 206.933C554.607 205.702 553.814 204.333 552.977 203.233C552.166 202.143 551.12 201.226 550.144 200.293C549.481 199.726 549.29 199.542 548.366 198.609C548.095 198.373 547.825 198.12 547.529 197.92C547.511 197.876 547.503 197.832 547.485 197.789C547.294 197.361 546.866 197.108 546.448 196.934C546.064 196.785 545.62 196.637 545.21 196.777C544.295 197.405 544.478 198.932 545.167 199.717C545.664 200.895 546.962 202.614 547.381 203.416C548.645 205.886 550.423 209.402 551.408 211.932C556.864 225.962 563.497 239.643 568.832 253.769C570.662 258.612 572.92 264.414 573.661 269.492C574.846 277.65 577.156 285.642 578.22 293.73C579.309 302.045 580.408 310.509 580.373 318.85C580.373 319.722 580.19 322.418 580.085 324.966C579.989 325.036 579.893 325.141 579.824 325.289C579.257 326.292 579.266 327.523 579.187 328.666C579.03 329.695 578.969 331.589 579.362 332.993C579.475 333.613 579.64 334.171 579.885 334.564C579.876 335.061 579.85 335.524 579.797 335.899C579.013 341.649 577.47 347.111 577.148 353.026C577.104 353.794 577.461 354.675 577.426 355.679C577.165 363.435 574.271 371.541 573.269 379.045C573.077 380.458 573.382 380.048 572.894 381.374C572.197 383.25 570.392 390.213 569.878 393.249C568.405 396.338 568.021 398.711 567.49 401.73C566.897 403.222 566.278 404.705 565.773 406.215C564.282 410.621 563.131 415.132 561.432 419.494C560.787 421.161 559.732 421.902 560.36 423.892L561.039 423.647L561.292 424.162H561.824L564.866 419.25C566.679 418.997 567.272 416.449 568.091 415.01C572.746 406.834 577.557 399.601 580.503 390.256C582.099 385.187 583.441 379.961 584.652 374.743C584.809 374.385 584.975 374.028 585.123 373.67C585.812 372.038 586.239 369.936 586.561 367.981C586.744 367.388 586.919 366.768 587.058 366.088C587.302 364.543 587.764 362.99 587.677 361.42C587.668 361.271 587.633 361.123 587.59 360.984C587.677 360.443 587.756 359.91 587.834 359.422C588.209 357.083 588.462 357.031 589.046 355.033C591.216 347.669 593.221 334.189 592.654 326.589C592.48 324.216 591.591 319.312 591.565 315.84L591.591 315.831Z" fill="black"/>
<path d="M84.8279 148.135C84.8715 148.1 85.1592 147.122 85.0982 147.07C83.1544 146.616 84.2701 148.527 84.8279 148.135Z" fill="black"/>
<path d="M535.56 328.238C535.56 328.238 535.56 328.221 535.56 328.212C535.603 328.422 535.595 328.352 535.56 328.204C535.56 328.108 535.542 327.933 535.525 327.785C535.725 326.118 535.429 325.254 535.211 324.094C535.211 324.059 535.194 323.998 535.167 323.911C535.133 323.649 535.08 323.387 535.037 323.126C535.176 321.808 535.298 320.499 535.289 319.365C535.237 312.882 533.381 306.522 532.77 300.196C532.666 299.149 532.509 298.172 532.335 297.203C532.448 296.784 532.474 296.357 532.448 295.929C532.509 294.324 532.265 292.692 531.89 291.148C531.411 289.848 531.114 288.443 530.426 287.23C530.382 287.178 530.33 287.117 530.277 287.065C529.598 284.883 528.918 282.562 528.403 280.669C527.889 278.758 527.549 276.577 526.939 274.596C526.521 273.253 525.98 271.185 525.475 269.946C524.969 268.724 523.548 266.752 522.633 265.217C522.555 264.981 522.476 264.746 522.398 264.51C522.354 264.013 522.162 263.262 521.927 262.512C521.927 262.468 521.936 262.434 521.936 262.39L521.892 262.407C521.509 261.195 521.047 260.008 521.012 259.921C520.55 258.525 520.044 258.149 519.704 257.556C519.051 256.274 518.528 254.921 517.804 253.673C517.15 252.644 516.619 251.928 516.601 251.85C516.087 250.89 515.695 249.852 515.05 248.962C514.161 247.758 514.396 248.002 513.612 246.283C513.594 246.248 513.577 246.222 513.559 246.187C513.516 246.056 513.472 245.917 513.428 245.786C512.888 243.884 512.435 241.912 511.337 240.246C510.875 239.478 510.683 239.085 510.5 238.771C509.872 237.576 509.192 236.398 508.46 235.263C508.338 235.089 508.225 234.897 508.111 234.705C507.911 234.182 507.702 233.667 507.458 233.161C507.118 232.55 506.673 232.026 506.281 231.451C505.61 230.264 505.061 228.999 504.224 227.899C503.98 227.603 503.718 227.324 503.457 227.044C503.378 226.896 503.3 226.739 503.213 226.591C502.829 225.945 502.289 225.404 501.836 224.802C501.548 224.409 501.295 223.991 500.946 223.65C500.319 222.97 500.415 223.083 500.031 222.516C499.839 222.315 499.656 222.254 499.5 222.28C499.482 222.246 499.465 222.202 499.447 222.167C499.439 222.132 499.421 222.106 499.421 222.071C499.351 221.818 499.264 221.565 499.099 221.356C498.253 219.994 497.19 221.591 497.155 222.638C497.146 222.734 497.146 222.821 497.137 222.917C496.919 222.883 496.728 222.839 496.597 222.76C496.213 222.533 495.873 221.199 495.446 220.841C494.993 220.457 494.287 220.309 493.93 220.893C494.453 221.879 494.688 222.987 495.063 224.025C497.085 229.653 498.924 236.372 501.217 241.511C501.705 242.61 502.167 244.015 502.707 245.324C502.725 245.681 502.821 246.72 503.073 247.767C503.431 248.761 503.431 248.561 503.605 249.215C503.954 250.532 504.459 251.091 504.747 251.562C504.747 251.562 504.747 251.562 504.747 251.571C504.747 251.571 504.747 251.579 504.756 251.588C504.79 251.649 504.825 251.71 504.86 251.771C505.261 252.574 505.819 253.281 506.307 254.031C506.926 255.104 507.353 255.602 507.963 256.492C508.443 257.207 508.974 257.923 509.506 258.612C510.055 260.27 510.526 261.927 510.761 263.009C512.4 270.583 515.765 278.348 517.778 285.887C520.192 294.935 521.805 304.62 522.947 313.999C522.921 315.072 523.043 315.255 523.322 316.416C523.47 316.861 523.688 317.995 523.845 318.859C523.984 323.981 523.426 330.106 522.877 334.503C522.703 335.908 521.683 339.215 521.692 340.236C521.692 340.393 521.735 340.532 521.796 340.672C521.535 341.3 521.622 342.103 521.587 342.757C521.552 343.481 521.535 344.197 521.57 344.912C521.561 345.122 521.552 345.322 521.552 345.523C521.491 345.628 521.448 345.732 521.43 345.854C521.308 346.806 520.977 348.175 520.872 348.847C520.454 350.374 520.341 352.067 520.184 353.236C520.07 353.812 519.739 354.274 519.513 355.112C519.155 356.377 519.068 357.694 518.841 358.977C518.371 361.106 515.337 370.407 515.207 372.178C514.265 376.235 514.605 376.637 513.062 381.191C512.583 383.8 511.328 387.901 510.046 391.941C509.401 394.209 509.462 393.86 508.73 395.71C508.443 396.294 507.867 398.938 507.832 399.104C507.824 399.156 507.806 399.2 507.798 399.252C507.545 400.483 507.571 399.392 506.595 401.852C506.072 404.042 506.203 403.414 505.871 405.098C505.706 405.709 505.575 406.328 505.531 406.965C505.435 407.166 505.357 407.402 505.305 407.655C505.096 408.248 504.878 408.841 504.66 409.435C504.172 410.769 502.925 411.258 504.233 412.733C505.47 412.514 506.403 411.904 507.144 411.092C507.187 411.066 507.24 411.049 507.283 411.022C507.353 410.988 507.414 410.944 507.475 410.9C507.51 410.874 507.554 410.848 507.588 410.822C507.658 410.769 507.719 410.726 507.789 410.673C507.998 410.56 508.216 410.412 508.451 410.185C509.096 409.469 509.489 408.859 509.907 408.108C510.639 407.087 511.337 406.032 511.99 404.95C512.452 404.138 512.844 403.292 513.193 402.437C515.128 401.425 514.405 400.177 515.163 398.58C515.39 398.109 516.174 397.69 516.549 397.027C517.29 395.727 517.83 393.302 518.484 391.749C522.223 382.849 524.804 375.284 527.479 366.315C528.09 364.273 528.621 362.197 529.362 360.19L529.397 359.492C529.711 358.602 529.955 357.677 530.164 356.752C530.417 355.583 530.731 354.204 530.966 352.73C531.89 346.884 533.537 341.187 534.392 335.332C534.444 334.992 534.505 334.59 534.566 334.172C534.906 333.953 535.202 333.456 535.316 333.037C535.455 332.592 535.49 332.139 535.481 331.676C535.708 330.804 535.83 329.914 535.717 329.015C535.682 328.762 535.621 328.518 535.577 328.273L535.56 328.238Z" fill="black"/>
<path d="M484.744 319.199C484.7 318.728 484.744 318.649 484.709 318.169C484.709 318.082 484.718 317.977 484.727 317.855C484.761 317.087 484.831 316.285 484.578 315.543C484.482 315.255 484.352 315.081 484.204 314.993C484.021 314.13 483.803 313.196 483.724 312.777C482.835 307.943 481.388 302.717 479.584 298.215C477.579 293.224 475.147 289.586 472.89 285.153C472.837 284.979 472.776 284.796 472.707 284.621C472.654 284.438 472.619 284.255 472.558 284.08C472.349 282.963 471.861 281.96 471.373 280.948C471.373 280.93 471.364 280.922 471.355 280.913C471.355 280.896 471.338 280.878 471.329 280.843C471.12 280.232 470.902 279.622 470.519 279.098C469.107 276.803 467.921 275.146 466.047 271.821C465.986 271.691 465.794 271.368 465.629 271.097C465.585 271.001 465.542 270.905 465.507 270.809C465.402 270.6 465.297 270.443 465.202 270.312C465.123 270.12 465.036 269.919 464.949 269.701C463.772 266.77 461.698 264.379 459.745 261.945C458.839 260.924 456.45 257.285 454.881 256.71C454.358 255.924 453.713 255.113 452.641 254.031C451.691 253.062 451.316 251.98 450.549 250.916C449.032 251.352 450.645 253.333 450.872 254.066C452.353 258.751 453.975 263.41 456.163 267.45C456.816 268.663 458.917 272.476 459.937 273.645C460.207 274.073 460.512 274.483 460.652 274.971C460.869 275.626 460.808 276.062 461.114 277.353C461.454 278.802 462.752 279.665 463.397 280.93C463.929 282.51 464.609 284.185 465.332 285.764C465.01 284.717 465.89 287.579 466.073 287.893C466.335 288.425 466.649 288.931 466.98 289.42C467.433 290.258 467.128 289.795 467.599 291.837C468.13 293.87 468.662 294.027 468.802 295.083C468.871 295.405 468.889 295.484 468.88 295.44C469.141 296.723 469.447 298.006 469.952 299.218C470.972 301.426 470.719 300.815 471.321 302.665C473.046 309.252 473.901 316.049 474.65 322.846C474.72 325.35 474.868 326.135 474.842 328.997C474.816 330.847 474.764 332.697 474.746 334.546C474.685 334.913 474.659 335.288 474.598 335.654C474.537 335.942 474.267 337.024 474.275 337.74C474.275 337.879 474.267 338.237 474.258 338.368C474.092 339.136 474.302 338.447 473.918 339.816C473.918 339.904 473.622 340.671 473.535 341.247C473.517 341.439 473.482 341.64 473.447 341.841C473.378 342.05 473.308 342.251 473.238 342.46C472.951 343.437 472.837 344.467 472.785 345.479C472.837 345.898 472.645 346.168 472.916 346.936C472.436 348.742 471.8 350.522 471.277 352.293C470.144 356.167 468.958 360.268 467.703 363.941C465.219 371.209 461.244 377.544 458.246 384.384C457.941 384.882 457.627 385.449 457.078 386.478C456.903 386.792 456.72 387.107 456.555 387.429C456.485 387.499 456.415 387.586 456.363 387.682C455.422 388.747 455.831 393.04 457.557 392.097C457.557 392.106 457.557 392.124 457.566 392.132C460.364 390.911 461.715 387.909 463.354 385.519C463.267 385.649 463.179 385.789 463.092 385.92C464.809 383.564 466.588 381.235 467.93 378.661C468.488 378.521 469.002 378.233 469.464 377.701C470.867 376.069 472.75 371.017 473.648 368.784C473.831 368.339 473.578 367.78 473.674 367.65C476.577 363.514 476.315 358.916 477.71 354.187C478.834 350.348 479.636 343.987 481.083 340.951C482.364 338.263 482.46 337.312 482.826 334.258C483.253 330.716 483.776 327.043 484.038 323.387C484.082 322.75 484.247 321.651 484.378 320.708C484.631 320.351 484.814 319.696 484.727 319.225L484.744 319.199Z" fill="black"/>
</g>
<defs>
<clipPath id="clip0_527_3312">
<rect width="509" height="314" fill="white" transform="translate(84 147)"/>
</clipPath>
</defs>
</svg>
