<svg width="650" height="650" viewBox="0 0 650 650" fill="none" xmlns="http://www.w3.org/2000/svg">
<g clip-path="url(#clip0_527_3328)">
<path d="M478.208 290.4C477.118 286.99 475.218 284.24 473.108 281.41C472.578 280.71 472.098 279.95 471.678 279.15C468.968 276.45 466.258 273.75 463.638 270.95C458.258 265.18 453.038 259.16 448.818 252.46C448.558 252.06 448.328 251.64 448.078 251.23C442.658 244.89 437.978 238.01 432.618 231.63C424.248 221.67 414.768 211.8 405.438 202.68C403.478 201.68 401.798 200.16 400.358 198.48C398.008 195.76 395.898 192.79 393.928 189.78C393.278 188.79 392.648 187.79 392.028 186.78C391.988 186.74 391.958 186.69 391.928 186.65C386.878 180.64 381.918 176.38 376.158 171.21C371.248 166.81 366.318 160.93 359.648 159.26C358.538 158.98 358.048 158.93 357.088 158.62C348.348 155.78 341.638 154.76 332.638 157.91C329.358 159.06 325.068 158.97 321.258 159.1C319.848 159.15 318.428 160.19 317.188 160.26C314.948 160.39 312.088 159.87 309.618 160.03C306.708 160.22 303.068 161.36 300.118 161.1C299.498 161.05 298.798 160.47 297.978 160.47C297.118 160.47 295.978 161.11 295.088 160.75C294.928 160.77 294.758 160.8 294.598 160.82C293.368 160.96 292.138 160.87 290.918 160.64C281.198 161.03 274.718 168.49 268.158 174.91C266.258 177.94 263.998 180.75 261.648 183.45C257.658 188.03 253.208 192.25 248.718 196.33C247.258 197.66 245.738 198.95 244.178 200.18C243.268 201.44 242.288 202.64 241.218 203.75C240.088 204.93 238.868 206.01 237.588 207.03C237.578 207.04 237.558 207.06 237.548 207.08C233.278 212.03 229.948 217.51 225.518 222.65C223.768 224.68 221.888 226.61 220.158 228.66C220.218 228.89 220.188 229.14 220.018 229.41C217.398 233.57 214.288 237.38 210.818 240.84C210.258 241.4 209.688 241.95 209.108 242.49C207.538 244.51 205.918 246.47 204.218 248.31C203.528 249.05 201.428 250.59 201.008 251.18C200.898 251.27 200.788 251.36 200.678 251.45C199.888 251.99 198.878 253.44 198.368 254.64C198.248 254.85 198.138 255.06 198.018 255.26C197.408 256.17 196.838 257.1 196.258 257.79C191.798 263.14 187.538 268.29 183.238 273.53C182.518 274.4 178.448 279.8 178.018 279.91C177.708 280.64 177.318 281.34 176.888 281.98C175.588 283.91 174.058 285.64 172.838 287.63C172.788 287.73 172.738 287.83 172.688 287.93C171.478 290.49 170.668 293.18 170.238 295.94C170.178 297.44 170.068 298.97 170.008 300.49C170.188 301.41 170.358 302.32 170.488 303.24C170.508 303.24 170.518 303.24 170.548 303.24L170.498 303.28C170.558 303.68 170.598 304.09 170.648 304.5C170.948 304.97 170.888 305.59 170.848 306.26C170.858 306.39 170.868 306.53 170.888 306.66C171.318 307.83 171.778 308.98 172.248 310.09C174.678 315.82 177.238 321.65 177.058 327.91C177.858 330.51 178.838 333.71 179.638 336.11C179.738 336.23 179.838 336.35 179.938 336.47C181.098 337.9 182.208 339.43 183.148 341.02C184.418 343.16 185.438 345.44 186.258 347.79C186.678 347.74 187.148 347.91 187.348 348.4C187.488 348.73 187.628 349.06 187.768 349.39C187.888 349.55 187.968 349.74 187.998 349.93C189.648 353.87 191.318 357.81 192.938 361.76C193.068 361.99 193.188 362.21 193.318 362.45C193.738 363.24 194.258 363.92 194.608 364.76C194.688 364.96 194.778 365.16 194.848 365.36C194.978 365.72 194.778 365.46 195.068 365.65C195.368 365.85 195.628 366.17 195.858 366.45C196.348 367.04 196.738 367.69 197.038 368.39C197.348 369.11 197.548 369.85 197.628 370.61C197.638 370.65 197.658 370.69 197.668 370.73C197.918 371.35 198.538 371.79 198.958 372.31C199.868 373.42 200.488 374.75 201.008 376.08C201.078 376.25 201.128 376.42 201.188 376.59C201.928 377.53 202.518 378.6 202.948 379.74C203.368 380.86 203.658 382.02 203.948 383.18C204.248 384.35 204.618 385.54 204.628 386.76C204.628 387.36 204.518 387.98 204.328 388.57C204.538 388.88 204.618 389.28 204.428 389.7C200.488 398.4 197.198 407.39 194.488 416.54C194.118 417.78 193.768 419.03 193.428 420.28L193.508 420.31L193.418 420.34C189.348 435.24 187.178 450.52 186.548 465.96C186.428 468.93 186.398 471.9 186.398 474.87C186.488 475.3 186.568 475.73 186.648 476.16C186.778 476.35 186.808 476.6 186.788 476.87C186.878 477.34 186.978 477.81 187.068 478.29H187.078V478.34C187.528 480.57 187.968 482.81 188.388 485.05C189.398 490.48 190.448 495.9 191.398 501.33C192.038 504.97 192.788 508.6 193.738 512.17C195.478 515.39 197.438 518.51 199.498 521.49C205.528 530.24 213.788 537.36 223.498 541.72C224.628 542.23 225.778 542.69 226.948 543.12C228.088 543.28 229.238 543.46 230.378 543.68C234.518 544.45 238.608 545.53 242.618 546.77C242.788 546.82 242.958 546.88 243.118 546.93C248.008 547.18 253.648 546.37 258.478 546.45L258.608 546.41C266.008 544.38 273.518 542.84 280.958 540.94C281.128 540.9 281.288 540.85 281.458 540.81C284.088 539.36 286.628 537.79 289.058 536.48C289.138 536.44 289.308 536.38 289.518 536.32C290.798 534.57 293.308 533.34 294.888 532.2C305.128 524.83 312.608 514.67 320.488 504.98C324.488 500.06 328.628 495.23 333.358 490.99C333.798 490.6 334.258 490.19 334.728 489.79C339.088 480.67 345.378 472.79 353.038 466.34C355.718 462.21 358.438 458.11 361.168 454.01C362.198 452.47 363.218 450.92 364.238 449.37L363.958 449.2C364.088 449.22 364.208 449.22 364.328 449.23C365.328 447.71 366.328 446.19 367.338 444.69C369.118 442.04 370.748 439.22 372.928 436.88C373.498 436.27 374.108 435.69 374.758 435.16L374.668 435.13L374.848 435.09C374.848 435.09 374.858 435.08 374.868 435.07C376.358 433.66 377.988 432.36 379.528 431.06C381.648 429.28 383.758 427.48 385.838 425.65C386.358 424.46 387.128 423.4 388.148 422.58C389.118 421.8 390.268 421.23 391.488 420.91C393.188 419.72 395.018 418.78 397.008 418.46C399.438 417.06 402.048 415.98 404.768 415.3C407.638 413.37 410.518 411.44 413.378 409.49C414.058 409.03 414.738 408.57 415.418 408.12C415.898 408.1 416.528 407.58 416.958 407.42C417.118 407.33 417.268 407.22 417.428 407.12C417.838 406.92 418.198 406.64 418.498 406.32C419.188 405.72 419.798 405.03 420.328 404.28C420.348 404.23 420.368 404.19 420.388 404.14C420.408 404.14 420.428 404.13 420.438 404.12C420.928 403.85 421.568 402.98 422.138 402.19C423.198 399.67 424.978 397.4 427.188 395.73C428.008 394.37 428.828 393.01 429.748 391.7C430.938 390 432.208 388.35 433.408 386.65C434.378 385.28 435.558 383.73 436.938 382.46C437.088 381.91 437.278 381.37 437.498 380.84L437.368 380.67H437.568C437.898 379.92 438.278 379.2 438.698 378.48C439.918 376.39 441.188 374.36 442.498 372.32C442.918 371.67 443.338 371.02 443.758 370.37L443.798 370.25C443.798 370.25 443.828 370.25 443.848 370.24C445.908 367.08 448.078 363.96 450.598 361.17C451.848 356.61 454.438 352.35 457.868 348.98C461.488 343.79 464.618 338.17 467.688 332.65C469.238 329.86 470.788 327.08 472.248 324.24C472.388 323.96 472.528 323.68 472.668 323.39C472.828 322.55 472.998 321.71 473.198 320.89C473.708 318.71 474.398 316.59 475.228 314.53C475.828 313.65 476.528 312.75 476.888 311.21C477.008 310.87 477.508 309.91 477.478 309.08C477.478 309.01 477.478 308.9 477.478 308.77C479.898 303.06 480.088 296.25 478.218 290.41L478.208 290.4ZM232.688 231.7C232.748 231.61 232.798 231.53 232.858 231.45C233.028 231.21 233.208 230.97 233.388 230.74C233.658 230.39 233.948 230.05 234.248 229.72C234.728 229.21 235.268 228.75 235.818 228.32C236.108 228.03 236.388 227.74 236.678 227.45C240.568 222.41 244.718 217.71 249.508 213.45C251.118 212.02 252.798 210.66 254.518 209.34C256.578 207.08 259.508 204.28 261.948 201.91C261.988 201.84 262.038 201.76 262.078 201.69C262.188 201.52 262.298 201.35 262.418 201.19C262.708 200.78 263.028 200.37 263.358 199.99C263.958 199.3 264.678 198.72 265.428 198.2C265.808 197.93 266.208 197.7 266.618 197.5C266.868 197.3 267.088 197.11 267.248 196.94C274.698 189.15 287.058 182.58 297.538 179.19C303.038 177.41 312.958 177.31 319.058 177.32C320.048 177.32 321.638 177.86 322.458 177.8C323.548 177.73 326.068 175.23 327.608 174.69C331.508 173.31 335.968 174.43 339.948 174.71C340.728 174.77 341.828 174.45 342.628 174.49C352.288 175.08 364.668 182.46 372.088 188.33C374.808 190.48 377.268 192.85 379.678 195.27C388.608 204.2 397.398 213.31 406.358 222.26C406.738 222.4 407.108 222.55 407.448 222.75C407.628 222.86 407.798 222.98 407.958 223.11C408.058 223.19 408.158 223.26 408.258 223.34C408.248 223.34 408.238 223.33 408.238 223.32C408.258 223.33 408.268 223.34 408.288 223.36C408.398 223.44 408.508 223.53 408.608 223.62C409.238 224.14 409.728 224.8 410.128 225.51C411.838 226.95 413.438 228.59 415.268 229.87C416.728 230.9 415.488 232.93 413.888 232.23C412.798 231.75 411.718 231.25 410.648 230.72C410.578 230.72 410.518 230.72 410.448 230.74L410.498 230.64C409.688 230.24 408.888 229.84 408.088 229.42C405.088 229.42 402.848 227.35 400.608 225.56C398.778 224.64 396.968 223.7 395.158 222.76C394.918 222.64 394.688 222.52 394.468 222.4C393.058 221.9 391.748 221.24 390.518 220.31C389.938 219.87 389.388 219.39 388.858 218.89C388.228 218.63 387.618 218.37 387.108 218.13C380.268 214.93 373.888 212.11 366.628 209.85C364.018 209.04 361.288 208.68 358.748 207.63L358.478 207.08C359.608 204.8 361.528 202.19 360.378 199.68C361.368 198.41 361.918 195.48 359.498 195.69C359.008 195.73 354.008 200.38 352.898 201.18C349.898 203.35 346.018 205.72 342.238 203.94C342.068 203.86 341.928 203.74 341.818 203.62C340.348 203.17 339.328 201.74 338.878 200.25C338.408 198.71 338.508 197.11 338.608 195.52C338.848 194.62 338.988 193.67 338.958 193.3C339.008 192.83 338.988 192.35 338.798 191.92C338.748 191.32 338.598 191.25 338.508 190.75C338.408 190.39 338.208 190.19 338.008 190.14C337.888 189.95 337.708 189.8 337.608 189.6C337.528 189.37 337.348 189.09 337.208 189.47C337.208 189.49 337.208 189.52 337.198 189.54C337.028 189.49 336.838 189.5 336.718 189.63C336.708 189.64 336.698 189.66 336.688 189.68C336.628 189.66 336.578 189.62 336.518 189.6C334.518 190.27 334.948 193.65 334.258 195.72C333.758 197.22 333.628 198.18 333.198 199.56C333.028 200.09 331.998 202.19 331.648 202.6C331.188 203.13 330.838 203.41 330.118 203.52L320.368 204.26C319.488 204.7 318.488 204.86 317.468 204.68C315.928 204.41 314.528 203.5 313.178 202.75C310.198 201.09 307.238 199.39 304.248 197.75C303.418 197.29 302.598 196.81 301.808 196.28C301.578 196.22 301.348 196.17 301.118 196.13C301.078 196.13 300.938 196.11 300.908 196.1C300.778 196.09 300.638 196.08 300.508 196.08C300.348 196.08 300.188 196.08 300.028 196.08C299.978 196.08 299.958 196.08 299.938 196.08C299.938 196.08 299.928 196.08 299.888 196.09C299.758 196.12 299.628 196.15 299.508 196.19C299.448 196.21 299.408 196.21 299.388 196.22C299.378 196.22 299.348 196.24 299.328 196.26C299.948 199.11 301.908 201.91 303.638 203.81C303.868 204.06 303.968 204.36 303.988 204.66C304.188 204.9 304.348 205.14 304.438 205.38C304.568 205.77 304.718 205.84 304.288 206.15C302.708 206.59 300.958 206.68 299.378 207.05C297.828 207.42 294.548 208.69 293.178 208.37C292.958 208.32 289.748 206.18 289.378 205.89C288.998 205.59 288.698 204.59 288.058 204.31C287.198 203.93 286.308 204.42 285.438 203.87C284.408 203.21 283.758 200.25 281.848 200.84C279.808 201.48 280.458 205.28 281.498 206.59C281.938 207.14 282.618 207.33 283.028 207.81C283.758 208.67 284.528 209.97 285.308 210.88C283.998 211.14 282.738 211.71 281.448 212.07C272.808 214.49 264.228 216.77 255.888 220.49C252.518 221.99 249.158 223.76 245.838 225.61C244.808 226.37 243.768 227.11 242.748 227.87C240.638 229.43 238.468 230.9 236.328 232.43C236.218 232.51 236.098 232.55 235.968 232.57C235.228 233.07 234.418 233.49 233.608 233.75C233.138 233.9 232.648 233.65 232.398 233.26C232.118 232.83 232.278 232.32 232.568 231.96C232.448 232.11 232.678 231.79 232.698 231.76L232.688 231.7ZM407.248 239.31C404.068 241.01 399.108 242.46 394.818 243.28C394.688 243.36 394.568 243.45 394.438 243.53C393.408 244.15 392.288 244.66 391.088 244.84C389.968 245.01 388.848 244.98 387.818 244.48C386.938 244.06 386.148 243.25 385.678 242.41C384.658 240.6 384.378 238.46 384.098 236.44C383.938 235.27 383.798 234.07 383.798 232.88C383.798 231.85 384.048 230.81 384.758 230.03C384.848 229.93 384.938 229.85 385.038 229.76C385.278 229.19 385.578 228.79 385.948 228.71C386.668 228.54 389.438 229.34 390.308 229.6C395.338 231.14 400.908 234.36 405.558 236.99C406.628 237.59 409.048 238.34 407.248 239.3V239.31ZM338.458 244.42C336.208 243.99 335.558 242.74 334.498 240.73C331.728 235.43 330.608 222.58 332.488 216.9C333.008 215.34 334.988 215.24 336.538 215.14C341.778 214.8 350.988 216.52 356.038 217.97C357.538 218.4 362.858 219.83 363.828 220.44C363.928 220.5 365.268 221.8 365.458 222.01C368.348 225.12 369.208 229.2 370.098 233.28C370.828 234.38 371.438 235.57 371.888 236.84C372.678 239.08 373.168 241.89 372.598 244.25C372.328 245.38 371.408 246.24 370.218 246.23C370.198 246.23 370.178 246.23 370.148 246.23C369.888 246.27 369.598 246.3 369.258 246.33C361.698 246.85 345.968 245.89 338.448 244.44L338.458 244.42ZM279.388 249.33C278.478 243.31 277.998 236.33 279.568 230.36C279.908 229.07 281.618 227.57 282.748 226.81C288.348 223 301.448 218.68 308.178 217.67C311.168 217.22 314.088 217.17 317.078 217.01C317.548 217.32 318.198 223.77 318.298 224.81C318.748 229.44 319.078 236.23 318.638 240.99C318.468 242.77 318.488 244.37 317.118 245.59C314.238 248.16 309.608 248.78 305.898 249.37C297.598 250.69 289.248 251.37 280.828 251.57C278.768 251.63 279.528 250.39 279.378 249.34L279.388 249.33ZM262.108 233.87C262.748 235.97 264.158 239.6 264.318 241.7C264.448 243.41 263.468 245.95 263.498 247.79C262.638 248.07 262.228 248.96 261.588 249.39C258.638 251.39 248.468 254.46 245.048 254.32C244.488 254.3 244.648 253.74 244.398 253.68C242.978 253.34 241.628 254.55 239.988 253.24C238.168 251.79 238.128 248.08 236.368 246.44C236.308 246.08 236.968 245.46 237.248 245.25C239.218 243.74 243.048 242.21 245.368 240.83C248.038 239.25 250.488 237.31 253.268 235.88C254.258 235.37 261.638 232.08 262.038 232.57C262.038 233 261.988 233.46 262.108 233.87ZM200.528 354.18C194.248 345.69 188.438 336.24 184.698 326.26C183.598 323.33 182.828 319.52 181.628 316.79C180.918 315.17 179.268 313.68 179.568 311.81C180.188 312.23 180.358 312.96 180.778 313.52C186.618 321.32 193.258 327.52 199.308 334.91C199.578 335.24 200.988 336.55 201.038 336.66C201.168 336.93 200.898 337.73 201.218 338.06C202.758 339.6 204.678 341.93 206.378 343.44C207.728 344.64 209.348 345.07 210.698 346.09C211.698 346.85 212.868 348.87 213.798 349.94C214.588 350.85 216.318 351.39 216.078 353.18C214.018 357.73 212.448 362.43 210.938 367.18C210.078 366.24 208.788 365.22 207.978 364.31C205.108 361.07 203.018 357.53 200.538 354.18H200.528ZM393.678 390.66C392.228 393.52 389.158 397.38 387.278 400.2C387.008 400.61 386.308 402.4 385.928 402.67L385.608 402.56C384.038 406.35 381.918 409.88 379.158 412.95C377.668 414.61 376.008 416.2 374.228 417.64C374.028 417.9 373.838 418.16 373.638 418.43C371.758 422.54 369.368 426.38 366.428 429.85C365.548 430.89 364.618 431.9 363.648 432.89C359.798 438.69 355.408 444.09 351.258 449.82C344.858 458.64 339.188 467.59 331.908 475.3C331.138 476.12 330.428 476.97 329.758 477.84C326.588 483.4 322.698 488.53 318.338 493.21C317.138 494.5 315.888 495.79 314.598 497.04C311.678 500.34 308.488 503.43 305.068 506.25C304.968 506.42 304.858 506.6 304.748 506.77C303.288 509.36 301.548 511.8 299.598 514.06C297.868 515.47 296.078 516.99 294.658 518.31C294.628 518.33 294.608 518.36 294.578 518.38C294.448 518.48 294.208 518.67 294.038 518.77C293.678 518.93 292.238 520.12 291.898 520.41C291.228 520.93 290.438 521.29 289.768 521.82C288.418 522.91 288.828 522.7 287.678 523.52C285.458 524.84 283.058 525.81 280.808 527.07C279.008 527.96 277.238 528.9 275.458 529.83C273.378 530.7 271.268 531.58 269.408 532.88C268.958 533.21 268.378 533.17 267.868 533.35C267.228 533.56 266.858 534.18 266.308 534.54C265.668 535.11 264.758 535.05 264.068 535.48C263.988 535.55 263.898 535.61 263.808 535.67C263.218 535.67 262.628 535.66 262.058 535.63C262.048 535.63 262.028 535.63 262.018 535.63C259.308 536.31 256.548 536.69 253.758 536.91C251.258 537.1 248.738 537.1 246.228 536.94L246.098 536.99V536.93C245.758 536.91 245.408 536.88 245.058 536.85C244.788 536.93 244.528 536.87 244.258 536.77C243.758 536.72 243.258 536.68 242.758 536.61C241.618 536.46 240.268 536.36 239.208 535.79C238.758 535.87 238.258 535.81 237.738 535.69C237.738 535.69 237.738 535.7 237.728 535.71C237.728 535.71 237.728 535.71 237.718 535.72C237.428 535.59 237.138 535.48 236.848 535.37C236.368 535.1 235.898 534.8 235.358 534.66C234.238 534.28 233.228 533.68 232.138 533.23C231.188 533.03 230.208 532.75 229.238 532.86C229.168 532.83 229.108 532.78 229.038 532.75C228.968 532.67 228.908 532.59 228.748 532.59C225.778 530.97 223.118 528.71 220.928 526.11C220.928 526.11 220.918 526.11 220.908 526.11C220.678 525.47 220.458 524.78 219.938 524.05C219.658 523.57 219.258 523.19 218.888 522.78C218.818 522.67 218.758 522.56 218.678 522.44C217.798 521.28 217.118 519.9 215.908 519.05C215.658 518.66 215.408 518.27 215.168 517.87C213.698 516.54 212.488 514.89 211.578 513.13C209.998 510.08 209.368 506.67 209.068 503.25C209.038 503.15 209.018 503.05 208.988 502.96C207.018 496.4 205.238 486.25 204.648 479.31C204.168 473.64 205.478 467.15 204.358 461.75C203.398 457.1 203.408 455.05 203.708 450.13C204.028 444.88 204.648 431.81 206.408 427.37C208.568 421.91 209.428 416.74 210.798 410.99C211.148 409.5 211.638 407.95 212.098 406.37C212.038 397.9 213.938 389.34 217.228 381.68C217.398 381.27 217.708 381.12 218.028 381.14C218.378 379.64 218.568 378.06 219.078 376.72C220.518 372.9 222.938 368.31 224.458 364.61C225.678 359.2 227.348 353.9 228.768 348.53C230.298 342.73 232.098 336.85 234.948 331.55C235.088 331.28 235.288 331.13 235.508 331.07C235.638 330.66 235.768 330.28 235.868 330.01C237.168 326.53 238.928 321.52 240.488 318.17C241.608 315.77 242.958 312.11 244.048 309.59C245.218 306.88 246.388 303.06 248.078 300.78C249.208 299.25 252.428 297.37 253.918 295.91C254.188 295.65 254.418 295.3 254.608 294.96C254.628 294.93 254.648 294.89 254.668 294.86C254.998 294.25 255.218 293.67 255.368 293.53C255.428 293.47 255.538 293.43 255.668 293.4C256.618 292.1 257.708 290.89 258.908 289.81C260.088 288.74 261.398 287.78 262.778 286.93C263.008 286.7 263.248 286.48 263.498 286.26C265.328 284.66 267.528 283.59 269.908 283.19C275.878 279.84 280.678 278.39 286.238 277.43C287.158 277.01 288.098 276.62 289.068 276.28C293.278 274.8 297.458 274.17 301.908 274C302.338 273.98 302.628 274.19 302.788 274.47C306.618 274.24 310.748 274.61 314.058 275.93C315.648 276.56 319.968 280.3 321.298 281.63C323.888 284.2 323.228 287.51 323.248 290.87C323.258 293.24 323.118 295.46 323.248 297.88C323.768 306.83 320.798 317.05 317.538 324.96C317.508 325.04 317.468 325.1 317.438 325.17C316.988 327.81 316.188 330.4 315.038 332.84C315.028 333.18 314.998 333.53 314.938 333.88C314.628 335.79 313.858 337.66 313.308 339.51C312.688 341.6 312.068 343.71 311.388 345.79C310.948 347.12 310.488 348.5 309.308 349.24C308.778 350.39 308.248 351.53 307.768 352.68C305.198 358.75 302.448 364.75 299.788 370.78C299.948 372.01 299.658 373.3 299.138 374.55C298.558 375.94 297.798 377.26 297.008 378.57C296.988 378.63 296.968 378.69 296.948 378.75C295.158 384.03 292.588 388.94 289.228 393.4C287.728 397.18 286.528 400.96 285.708 405.46C285.758 405.78 285.818 406.1 285.868 406.42C285.768 407.09 285.758 407.71 285.718 408.22C285.718 408.18 285.718 408.13 285.718 408.11C285.538 409.61 285.388 411.13 285.668 412.64C285.668 412.74 285.678 412.84 285.678 412.95C284.748 414.7 283.888 416.53 283.508 418.37C283.008 420.31 282.628 422.27 282.218 424.23C281.928 425.53 281.608 426.83 281.288 428.13C280.548 430.18 279.588 432.24 280.048 435.49C280.048 435.52 280.048 435.56 280.058 435.59C279.538 437.25 279.058 438.9 278.668 440.45C278.878 440.84 279.128 441.21 279.468 441.48C280.598 442.4 282.068 442.32 283.478 441.86C285.218 439.31 288.548 429.81 289.588 427.13C290.318 425.26 291.238 422.01 292.118 419.61C293.418 413.66 295.538 407.89 298.278 402.46C299.788 399.46 301.478 396.54 303.428 393.8C303.498 393.7 303.578 393.59 303.648 393.49C304.028 386.93 306.518 380.68 310.478 375.39C310.508 375.32 310.548 375.24 310.598 375.16C310.688 375.03 310.788 374.9 310.878 374.76C310.928 374.53 310.978 374.34 311.028 374.3C311.068 374.26 311.158 374.24 311.258 374.23C313.348 371.31 315.638 368.5 318.168 365.94C318.808 364.65 319.408 363.34 319.978 362.03C321.318 358.94 322.658 355.85 324.008 352.76C324.348 352.22 324.638 351.77 324.928 351.33C325.008 351.33 325.098 351.33 325.188 351.3C325.878 350.87 326.138 350.04 326.448 349.3C328.438 346.18 330.178 342.9 331.968 339.66C333.448 336.56 334.808 333.39 336.488 330.39C338.708 326.34 340.288 323.83 341.158 319.97C341.568 318.19 342.288 316.48 342.688 314.7C343.838 311.56 345.218 308.5 346.708 305.5C349.588 299.7 353.548 294.39 357.958 289.66C362.368 284.92 367.488 280.55 373.478 277.95C379.128 275.51 385.448 274.74 391.258 277.12C392.528 277.64 393.828 278.33 395.048 279.16C396.748 279.53 398.498 279.93 400.048 280.3C403.418 280.45 406.678 281.1 408.988 283.39C416.098 286.31 421.698 292.52 422.938 300.4C425.088 314.05 424.418 330.77 420.748 344.04C420.038 346.61 420.198 347.43 418.738 349.67C416.008 353.84 413.788 358.25 411.018 362.47C410.798 362.81 410.748 363.51 410.708 363.55C410.688 363.57 410.638 363.55 410.568 363.54C410.458 363.83 410.358 364.13 410.238 364.41C407.968 369.88 404.538 375.1 400.258 379.43C397.968 382.96 395.498 387.06 393.658 390.69L393.678 390.66ZM448.988 351.12C448.798 351.4 448.918 351.81 448.828 351.9C448.698 352.03 448.508 352.08 448.338 352.11C448.158 352.4 447.958 352.68 447.768 352.96C447.768 353.09 447.758 353.22 447.698 353.33C447.668 353.38 447.508 353.48 447.318 353.63C447.188 353.81 447.078 354 446.938 354.18C446.708 354.49 446.468 354.8 446.228 355.11C445.988 355.67 445.728 356.33 445.508 356.7C440.868 364.39 435.868 370.7 430.168 377.53C428.158 380.78 425.718 383.73 422.938 386.29L422.968 386.43C422.908 386.42 422.868 386.43 422.808 386.41C420.568 388.46 418.108 390.25 415.478 391.76C414.338 392.7 413.138 393.56 411.918 394.34C410.728 395.1 409.498 395.81 408.218 396.44C406.988 397.04 405.628 397.49 404.448 398.18C403.248 398.89 402.308 397.34 403.068 396.39C403.578 395.75 403.978 395.04 404.448 394.38C404.468 394.26 404.498 394.14 404.558 394.02C406.278 390.44 408.048 386.93 410.108 383.53C410.348 383.13 410.618 382.74 410.868 382.34C411.848 379.66 413.398 377.13 415.148 375.02C416.008 373.99 416.948 373.06 417.938 372.21C419.548 370.15 421.228 368.15 422.968 366.19C423.318 365.66 423.678 365.13 424.058 364.62C425.538 362.65 427.248 360.76 429.188 359.15C430.898 356.85 432.768 354.66 434.668 352.59C436.738 350.35 438.958 348.25 441.318 346.31C442.638 345.22 443.998 344.1 445.408 343.06C447.488 340.79 450.048 338.82 451.888 336.57C454.688 333.14 457.428 329.49 460.378 326.02C462.738 322.24 465.378 318.62 468.178 315.18C468.858 314.34 470.388 315.24 470.018 316.25C468.518 320.27 466.598 324.13 464.338 327.78C463.618 328.44 462.938 329.71 462.468 330.63C462.308 330.86 462.148 331.1 461.988 331.33C461.918 331.6 461.808 331.9 461.638 332.24C461.538 332.44 461.368 332.73 461.168 333.05C460.928 333.38 460.668 333.73 460.368 334.13C460.208 334.32 460.098 334.61 459.998 334.92C459.918 335.05 459.848 335.17 459.778 335.28C456.578 340.63 452.618 345.95 448.988 351.13V351.12Z" fill="black"/>
<path d="M401.348 533.99C400.478 530.59 400.678 529.19 399.498 526.73C399.498 526.25 399.478 525.77 399.408 525.3C398.658 523.71 397.838 522.15 396.878 520.64C395.838 519 394.668 517.51 393.448 516.04C392.688 515.12 391.908 514.22 391.118 513.3C390.978 513.14 390.838 512.96 390.698 512.78C390.698 512.78 390.678 512.77 390.668 512.76C390.618 512.74 390.568 512.71 390.518 512.67C390.468 512.63 390.408 512.58 390.358 512.53C389.078 511.07 387.918 509.55 386.998 507.87C382.628 502.75 374.158 494.09 371.968 488.08C370.918 485.19 370.078 482.41 368.888 480C368.298 478.81 367.528 473.01 367.268 471.36C367.088 470.26 365.968 466.76 364.558 468.63C365.038 469.77 364.548 470.59 364.518 471.64C364.488 472.82 364.838 474.22 364.538 475.64C364.518 475.74 364.478 475.83 364.428 475.92C364.278 478.56 363.938 481.19 363.428 483.8C363.448 483.89 363.448 483.98 363.438 484.08C363.138 487.49 362.378 490.98 361.138 494.27C360.808 495.86 360.368 497.46 359.698 499.26C357.848 504.25 355.878 509.51 354.218 514.58C353.598 516.47 354.548 515.77 353.008 517.17C351.288 518.73 350.938 521.69 350.328 523.54C349.608 525.73 348.628 528.16 347.768 530.61C347.238 534.97 346.628 539.32 346.008 543.65C346.088 543.94 346.148 544.23 346.178 544.48C347.178 555.22 346.138 562.05 354.438 570.49C358.848 574.98 363.808 576.06 369.318 577.95C369.998 577.84 370.698 577.87 371.388 577.99C373.128 578.29 374.738 578.77 376.528 578.76C378.328 578.74 380.008 578.2 381.778 577.96C382.628 577.85 383.488 577.8 384.328 578.02C384.348 578.02 384.358 578.03 384.378 578.03C384.748 577.98 385.128 577.97 385.478 577.98C385.578 577.98 385.668 577.98 385.768 577.98C387.088 577.23 389.318 575.89 389.628 575.66C392.108 573.89 398.348 565.32 399.578 562.37C400.578 560 400.788 557.84 401.328 555.58C401.618 554.37 402.898 552.52 403.268 551.06C404.298 546.95 404.228 541.61 402.948 537.59C402.588 536.45 401.678 535.25 401.358 533.98L401.348 533.99ZM385.088 550.39C384.928 550.73 384.748 551.07 384.568 551.4C383.608 553.61 382.248 555.64 380.578 557.35C379.428 559.17 378.248 560.6 375.408 560.84C373.448 561 371.818 560.73 370.438 560.14C365.758 559.51 362.598 555.07 361.328 550.72C360.948 549.42 360.668 548.08 360.488 546.71C360.488 546.71 360.488 546.69 360.488 546.68C360.488 546.67 360.488 546.65 360.488 546.64C360.488 546.64 360.488 546.63 360.488 546.62C360.458 546.42 360.448 546.22 360.418 546.02C360.368 545.58 360.328 545.15 360.298 544.71C360.288 544.51 360.278 544.3 360.268 544.1C360.238 543.53 360.228 542.96 360.228 542.39C360.238 541.27 360.308 540.14 360.448 539.02C360.478 538.8 360.518 538.57 360.548 538.35C360.578 538.14 360.608 537.93 360.648 537.72C360.698 537.41 360.768 537.1 360.828 536.8C360.998 536 361.188 535.2 361.428 534.42C361.428 534.18 361.428 533.85 361.438 533.47C361.918 531.19 362.538 528.89 363.048 527.05C364.478 522 366.308 516.69 368.108 511.61C368.368 509.93 368.748 508.28 369.258 506.73C369.598 505.68 370.998 505.47 371.598 506.42C371.708 506.6 371.808 506.79 371.928 506.98C372.428 507.48 372.868 508.03 373.308 508.61C373.858 509.33 374.408 510.05 374.958 510.77C375.478 511.47 375.968 512.22 376.318 513.02C376.418 513.24 376.508 513.47 376.598 513.7C376.918 514.22 377.208 514.76 377.458 515.31C377.458 515.33 377.468 515.35 377.478 515.37C379.928 518.09 381.878 521.24 383.268 524.62C384.308 526.11 385.158 527.76 385.588 529.85C385.978 531.71 387.138 539.92 386.888 541.38C387.348 544.48 386.888 547.8 385.108 550.35L385.088 550.39Z" fill="black"/>
<path d="M467.364 487.34C465.424 481.66 463.424 475.53 459.544 470.92C458.104 469.21 457.804 469.32 456.454 467.23C456.184 466.81 455.834 466.36 455.464 465.92C454.384 465.16 453.364 464.34 452.394 463.55C451.044 462.45 449.704 461.35 448.374 460.21C447.524 459.48 446.524 458.72 445.974 457.72C445.104 456.9 444.464 455.76 443.974 454.55C440.064 449.54 437.584 443.65 436.494 437.35C436.094 435.06 436.314 433.15 435.464 430.73C434.934 429.23 433.754 427.92 433.304 426.46C432.974 425.41 432.634 422.76 432.344 421.37C432.314 421.25 432.344 421.11 432.364 420.97C432.314 420.9 432.274 420.82 432.224 420.75C432.314 420.88 432.214 420.75 432.144 420.67C432.144 420.69 431.864 420.46 431.904 420.48C431.844 420.44 431.774 420.4 431.714 420.37C431.694 420.37 431.644 420.35 431.594 420.33C431.564 420.33 431.414 420.31 431.374 420.3C431.324 420.3 431.294 420.3 431.274 420.3C431.274 420.3 431.264 420.3 431.254 420.3C431.204 420.32 431.174 420.32 431.164 420.33C431.164 420.33 431.144 420.33 431.144 420.34C431.134 420.34 431.144 420.34 431.124 420.35C431.104 420.38 431.074 420.4 431.054 420.43C431.054 420.41 431.054 420.4 431.064 420.39C431.044 420.43 431.004 420.56 431.054 420.43C431.004 420.55 430.984 420.68 430.954 420.8C430.954 420.84 430.934 420.86 430.934 420.88C430.934 420.9 430.934 420.93 430.934 420.98C430.934 421.28 430.914 421.58 430.914 421.87C430.914 421.89 430.914 421.9 430.914 421.92C431.544 426.3 430.244 440.5 428.744 444.63C425.814 452.73 422.684 461.11 419.074 468.93C415.254 477.21 410.744 489.07 410.464 498.26C409.974 514.41 426.304 522.84 440.604 522.61C451.914 522.43 460.274 519.54 465.824 509.49C466.234 508.75 466.724 507.56 467.194 506.24C467.644 503.94 467.924 501.6 468.024 499.25C468.154 496.24 467.964 493.25 467.534 490.26C467.394 489.25 467.294 488.25 467.374 487.31L467.364 487.34ZM451.304 504.87C451.154 505.1 450.814 505.26 450.454 505.39C450.284 505.62 450.114 505.85 449.934 506.07C449.634 506.41 449.314 506.71 448.964 506.99C448.594 507.29 448.184 507.51 447.784 507.76C447.684 507.82 447.584 507.85 447.474 507.87C445.664 509.11 442.684 510.52 441.234 510.35C440.444 510.26 437.514 510.07 437.284 510C435.074 509.32 430.594 506.69 428.794 505.03C428.734 504.97 428.564 504.77 428.364 504.53C427.344 504.03 426.464 503.05 425.934 502.06C424.744 499.84 424.134 497.25 424.114 494.74C424.104 492.63 424.434 490.45 425.004 488.31C424.954 487.45 424.914 486.59 424.944 485.8C425.064 482.15 425.804 480.1 426.894 476.8C428.424 472.19 429.244 467.42 430.794 462.65C431.554 460.3 432.714 457.96 433.554 455.62C433.754 455.62 435.124 457.44 435.364 457.78C438.684 462.56 442.504 468.19 446.244 472.6C446.914 473.39 448.514 474.44 448.904 474.95C448.964 475.03 448.824 475.4 448.984 475.64C452.464 480.74 455.334 487.43 455.674 493.61C454.274 497.39 453.164 501.27 451.304 504.86V504.87Z" fill="black"/>
</g>
<defs>
<clipPath id="clip0_527_3328">
<rect width="309.46" height="422.76" fill="white" transform="translate(170 156)"/>
</clipPath>
</defs>
</svg>
