<svg width="650" height="650" viewBox="0 0 650 650" fill="none" xmlns="http://www.w3.org/2000/svg">
<g clip-path="url(#clip0_527_3336)">
<path d="M461.421 422.22C461.152 422.03 460.779 421.863 460.398 421.689C460.199 421.443 459.969 421.237 459.652 421.182C456.899 421.213 454.495 422.878 452.305 424.392C451.281 425.16 450.083 425.66 449.227 426.627C448.973 426.841 448.806 427.126 448.679 427.427C447.354 428.172 445.974 428.783 444.847 429.314C443.308 430.035 441.697 430.661 440.055 431.24C435.897 433.554 431.541 436.098 427.384 437.723C423.06 439.411 418.331 440.101 413.84 441.448C409.738 442.677 405.549 443.469 401.392 444.539C400.717 444.642 400.051 444.769 399.392 444.96C398.052 445.395 396.6 445.601 394.997 445.871C394.092 446.053 393.212 446.307 392.339 446.592C392.26 446.608 392.172 446.616 392.093 446.624C390.554 447.06 389.721 447.345 388.427 447.591C386.428 448.225 384.579 449.24 382.572 449.866C382.08 450.048 381.541 450.191 381.144 450.555C381.128 450.571 381.12 450.595 381.104 450.611C380.295 450.959 379.486 451.3 378.684 451.649C374.717 453.369 370.385 454.518 366.585 456.555C366.204 456.761 365.807 456.967 365.411 457.181C365.03 457.276 364.617 457.379 364.117 457.53C363.252 457.855 362.404 458.228 361.523 458.529C360.801 458.838 360.039 459.012 359.317 459.329C358.325 459.781 357.389 460.368 356.366 460.764C355.334 461.097 354.898 461.121 353.803 461.541C352.827 461.929 351.946 462.515 350.931 462.809C350.05 463.181 349.526 463.205 348.559 463.562C347.733 463.799 346.948 464.14 346.154 464.457C344.591 464.79 343.084 465.147 342.83 465.282C340.854 466.352 339.109 466.455 336.864 467.105C335.515 467.493 334.079 468.183 332.698 468.531C331.373 468.872 324.28 469.91 323.844 470.505C324.05 471.844 324.399 472.946 325.28 474.008C325.367 474.048 326.645 473.913 326.859 473.865C333.627 472.264 340.664 472.058 347.487 470.663C350.994 469.942 354.588 468.222 358.175 467.493C358.262 467.477 358.413 467.445 358.603 467.414C360.936 466.463 363.284 465.551 365.577 464.552C367.592 463.673 369.647 462.833 371.702 462.056C374.035 461.168 376.312 461.073 378.724 460.566C381.39 460.003 383.77 458.917 386.515 458.584C387.69 458.442 388.911 458.362 390.117 458.235C391.006 457.823 393.458 457.372 394.251 457.245C394.489 457.205 394.703 456.896 394.973 456.896L395.417 457.094C397.274 456.555 399.337 456.048 400.947 455.271C401.051 455.224 401.13 455.176 401.225 455.129C402.669 455.041 404.058 454.637 405.399 454.082C406.271 453.789 407.136 453.48 408.001 453.163C408.231 453.107 408.453 453.068 408.659 453.044C413.095 452.505 415.848 451.34 420.053 450.096C421.767 449.588 425.067 449.144 426.487 448.502C426.63 448.439 426.757 448.376 426.876 448.304C428.471 448.114 429.947 447.337 431.47 446.846C432.803 446.529 434.049 446.061 435.231 445.467C435.786 445.3 436.365 445.118 437 444.904C439.452 444.096 441.927 443.525 444.085 442.384C446.497 441.107 448.338 440.085 450.472 438.603C450.48 438.555 450.496 438.516 450.504 438.5C450.559 438.357 450.631 438.23 450.702 438.104C450.829 438.016 450.956 437.921 451.083 437.818C452.067 436.978 453.154 437.24 454.066 436.36C454.804 435.559 454.907 434.957 455.526 434.252C455.558 434.204 455.606 434.172 455.637 434.125C458.295 432.112 460.461 429.488 462.635 426.976C462.611 426.175 463.119 425.604 462.96 424.693C462.841 424.035 461.985 422.624 461.421 422.22Z" fill="black"/>
<path d="M547.739 268.694C547.763 267.616 547.557 266.57 547.271 265.531C547.247 265.397 547.224 265.23 547.216 265.151C547.216 265.206 547.231 265.31 547.231 265.389C547.192 264.58 547.033 263.788 546.882 262.995C546.866 262.551 546.859 262.107 546.866 261.672C546.89 258.057 547.017 255.362 547.684 251.986C548.374 248.491 547.715 246.771 547.612 243.434C547.533 240.81 548.263 238.876 547.176 236.356C546.993 235.928 546.652 235.326 546.248 234.652C546.184 234.47 546.121 234.279 546.033 234.097C546.033 234.081 546.025 234.065 546.018 234.05C545.994 233.978 545.962 233.907 545.938 233.836C545.716 233.122 545.565 232.623 545.422 232.219C545.184 230.602 545.549 229.5 544.772 226.068C544.716 225.799 544.581 225.188 544.494 224.824C544.494 224.808 544.494 224.808 544.494 224.792C544.018 222.692 543.78 221.717 543.082 218.713C542.653 217.033 542.534 216.834 542.503 216.224C542.495 216.074 542.487 216.01 542.487 215.994C542.487 215.939 542.487 215.875 542.479 215.82C542.479 215.36 542.455 214.805 542.384 214.084C542.304 213.038 541.963 211.413 541.63 210.018C541.543 209.416 541.535 209.059 541.075 207.648C541.075 207.632 541.075 207.624 541.067 207.609C541.019 207.26 541.011 206.903 540.884 206.578C540.781 206.166 540.495 205.651 540.13 205.437C539.773 204.113 539.369 202.782 538.996 201.323C538.313 198.676 538.194 195.561 536.766 193.064C536.433 192.486 535.83 192.343 535.529 191.987C534.315 190.568 533.926 186.629 533.386 184.774C532.569 181.976 531.696 179.844 531.07 176.983C530.919 176.769 530.784 176.539 530.673 176.301C530.371 176.254 530.086 176.158 529.8 176.008C529.753 176.047 529.713 176.095 529.657 176.127C529.53 176.246 529.38 176.333 529.221 176.404C529.197 176.42 529.181 176.436 529.158 176.452C529.134 176.468 529.118 176.475 529.094 176.491C528.927 176.753 528.729 176.999 528.467 177.22L528.38 177.292C528.84 180.106 528.919 183.046 529.729 185.757C529.951 186.502 530.744 187.691 530.816 188.071C531.316 190.655 530.879 194.341 531.093 197.027C531.093 197.075 531.093 197.115 531.101 197.162C531.141 197.638 531.205 198.082 531.3 198.478C531.3 198.51 531.331 198.533 531.355 198.549C531.355 198.597 531.371 198.636 531.379 198.692C531.379 198.7 531.379 198.7 531.379 198.708C531.252 199.477 531.268 200.253 531.514 200.99C531.681 201.395 531.808 201.704 531.911 201.989C532.395 207.513 532.244 214.298 533.442 219.696C533.537 220.132 533.926 220.52 533.95 220.861C534.037 222.422 532.934 222.05 532.03 222.327C524.23 224.697 516.13 228.367 508.513 231.386C500.674 234.501 492.748 237.402 484.75 240.065C484.306 240.184 483.878 240.295 483.425 240.39C481.886 240.739 480.299 240.866 478.76 241.207C477.276 241.627 475.88 242.316 474.42 242.808C472.111 243.664 471.143 243.767 468.644 244.496C467.057 245.011 465.518 245.629 463.979 246.271C461.892 246.874 459.559 247.682 457.195 248.752C456.624 249.061 455.934 249.299 455.656 249.941C455.64 249.981 455.632 250.02 455.616 250.06C454.886 250.306 454.148 250.536 453.411 250.718C450.927 251.336 448.349 251.463 445.754 251.518L442.826 252.248C431.354 253.135 421.262 258.168 410.281 260.8C403.814 262.345 396.594 262.551 390.406 264.041C389.723 264.208 388.279 265.254 387.185 265.428C374.625 267.362 360.994 270.057 348.299 269.082C345.054 268.829 341.722 268.797 338.429 268.496C338.152 268.472 337.882 268.432 337.612 268.393C334.05 268.948 330.471 269.312 326.814 269.003C316.88 268.163 306.709 268.559 296.744 268.385C291.88 268.298 287.127 267.402 282.272 267.132C278.432 266.926 274.782 267.014 270.974 266.253C269.157 265.888 267.316 265.373 265.499 264.81C261.096 265.254 256.66 265.127 252.209 265.024C246.084 264.882 240.046 265.611 233.929 265.69C227.828 265.769 221.528 265.928 215.459 265.333C209.976 264.794 204.724 263.637 199.313 262.718C187.769 260.768 175.939 260.356 164.609 257.241C160.19 256.028 155.794 254.792 151.446 253.365C151.073 253.246 150.692 253.119 150.32 252.993V253.04C148.011 252.525 145.646 252.351 143.322 252.01C138.506 251.296 133.563 250.433 128.731 249.569C128.477 249.521 127.914 249.466 128.096 249.061C128.199 248.776 128.35 248.514 128.556 248.285C133.713 242.404 138.91 236.079 144.115 230.071C144.234 229.936 144.329 229.809 144.44 229.674C145.258 228.874 146.36 227.63 146.709 227.297C147.431 226.805 148.098 226.25 148.669 225.593C149.098 225.141 149.431 224.602 149.875 224.174C150.375 223.785 150.732 223.27 151.049 222.723C151.391 222.272 151.867 221.915 152.128 221.4C152.248 221.146 152.644 220.671 153.081 219.886C153.152 219.791 153.287 219.593 153.398 219.426C153.398 219.426 153.406 219.418 153.422 219.394C153.866 218.729 153.668 219.038 154.049 218.428C154.667 217.675 154.929 217.35 155.167 216.755C155.239 216.684 155.572 216.272 155.667 216.153C155.794 215.947 155.977 215.772 155.937 215.764C155.953 215.749 155.961 215.733 155.977 215.725C156.008 215.693 156.04 215.653 156.072 215.614C156.072 215.614 156.072 215.606 156.08 215.598C156.111 215.542 156.143 215.487 156.175 215.432C156.207 215.368 156.23 215.305 156.254 215.233C156.254 215.218 156.254 215.21 156.262 215.194C156.278 215.13 156.294 215.075 156.31 215.004C156.31 214.964 156.326 214.924 156.326 214.885C156.326 214.845 156.334 214.813 156.342 214.774C156.381 214.354 156.326 213.902 156.175 213.569C156.167 213.545 156.151 213.529 156.143 213.513C155.961 213.022 155.604 212.61 155.072 212.649C154.755 213.03 154.525 213.45 154.215 213.87C153.303 215.13 152.128 215.883 150.93 216.819C150.343 217.278 149.701 217.722 149.185 218.269C148.725 218.752 148.336 219.299 147.852 219.775C146.805 220.797 145.559 221.606 144.361 222.438C143.131 223.294 142.012 224.309 140.759 225.125C140.362 225.387 139.965 225.64 139.569 225.902C139.466 225.981 139.37 226.068 139.267 226.147C137.982 227.003 135.388 228.818 134.142 229.825C133.507 230.285 132.991 230.578 132.603 230.879C132.254 231.061 131.904 231.236 131.563 231.418C130.786 231.822 130.921 231.83 130.445 232.25C130.405 232.29 130.365 232.33 130.326 232.369C130.072 232.544 129.842 232.758 129.659 233.003C129.54 233.162 129.405 233.336 129.27 233.511C129.072 233.725 128.874 233.954 128.699 234.176C128.279 234.628 127.834 235.009 127.334 235.563C127.263 235.643 127.2 235.714 127.128 235.801C126.47 236.713 126.66 236.586 126.128 237.307C125.525 238.433 125.041 238.781 124.462 240.271C124.399 240.446 124.367 240.628 124.351 240.802C124.073 241.072 123.835 241.318 123.693 241.5C121.09 244.821 118.837 248.372 116.719 251.923C114.513 253.936 112.926 256.67 111.45 259.143C111.244 259.508 111.038 259.864 110.831 260.229C110.689 260.364 110.522 260.538 110.355 260.728C109.578 262.559 108.856 264.398 108.126 266.253C108.039 266.467 107.959 266.681 107.872 266.887C107.364 268.155 106.928 269.399 106.515 270.707C106.134 271.904 105.881 273.14 105.46 274.329C105.047 275.502 104.738 276.707 104.365 277.888C103.968 279.14 103.873 280.496 103.619 281.796C103.445 282.707 103.175 283.626 103.008 284.554C102.953 284.855 102.913 285.148 102.889 285.449C102.794 286.757 102.532 288.049 102.382 289.357C102.247 290.482 102.405 291.869 101.866 292.9V292.908C101.834 292.971 101.81 293.003 101.794 293.027C101.794 293.058 101.794 293.098 101.779 293.161C101.763 293.312 101.723 293.47 101.707 293.621C101.683 293.883 101.683 294.144 101.652 294.414C101.604 294.794 101.517 295.159 101.406 295.523C101.39 296.332 101.382 297.148 101.382 297.964C101.271 299.185 101.303 300.168 101.35 301.087C101.318 301.333 101.279 301.579 101.231 301.824C101.231 301.832 101.231 301.84 101.231 301.848C101.025 303.053 100.938 303.83 101.072 304.709C101.057 305.074 101.072 305.447 101.136 305.803C101.12 305.922 101.096 306.041 101.08 306.16C101.049 306.517 101.033 306.897 101.08 307.262C101.057 307.61 101.104 307.951 101.35 308.197C101.35 308.197 101.358 308.197 101.366 308.205C101.517 308.815 101.834 309.386 102.39 309.711C102.556 309.798 102.707 309.845 102.858 309.877C102.945 309.949 103.04 310.004 103.167 310.012C103.27 309.996 103.35 309.949 103.421 309.885C103.492 310.012 103.58 310.131 103.691 310.234C104.262 310.48 104.508 309.655 104.571 309.227C104.556 309.275 104.516 309.441 104.508 309.505C104.556 309.314 104.579 309.124 104.603 308.934C104.603 308.894 104.619 308.855 104.627 308.815C104.786 308.324 104.857 308.007 104.913 307.753C105.23 306.952 105.42 306.112 105.278 305.272C105.206 304.963 105.111 304.741 105 304.583C105.079 303.671 105.135 302.688 105.222 301.872C105.04 301.23 104.944 300.556 104.881 299.835C104.873 299.724 104.881 299.605 104.881 299.494C104.881 299.375 104.881 299.264 104.897 299.145C104.913 298.995 104.928 298.852 104.96 298.702C104.984 298.599 105.159 297.972 105.095 298.305C105.246 297.6 105.365 297.275 105.468 296.649C105.539 296.189 105.547 295.769 105.69 295.317C105.809 294.961 105.92 294.596 106.039 294.239C106.246 293.613 106.476 293.003 106.682 292.377C106.801 292.02 106.904 291.663 107.007 291.307C107.11 290.926 107.213 290.546 107.317 290.165C107.491 289.507 107.666 288.85 107.88 288.208C108.324 286.892 108.61 285.552 109.149 284.268C109.697 282.961 110.379 281.708 111.022 280.448C111.212 280.068 111.419 279.695 111.609 279.323C112.164 277.642 112.775 275.994 113.473 274.361C113.894 273.37 114.322 272.379 114.759 271.397C114.91 271.056 115.06 270.715 115.267 270.406C115.401 270.192 115.584 270.018 115.719 269.804C115.774 269.716 115.782 269.708 115.774 269.724C116.155 268.987 116.346 268.567 116.917 267.767C117.337 267.172 117.853 266.665 118.313 266.102C118.885 265.405 119.543 264.882 120.217 264.311C120.305 264.168 120.4 264.033 120.479 263.891C120.797 263.352 121.122 262.916 121.423 262.535C121.542 262.393 121.9 261.838 122.098 261.505C122.145 261.426 122.622 260.855 122.526 261.006C122.653 260.808 122.733 260.617 122.836 260.403C122.947 260.174 123.074 259.983 123.217 259.817C123.32 259.65 123.463 259.508 123.629 259.389C123.82 259.199 124.058 259.064 124.335 259C125.01 258.676 125.843 258.62 126.446 259.072C126.612 259.199 126.755 259.325 126.89 259.452C126.89 259.444 126.906 259.436 126.914 259.428C127.176 259.666 127.303 259.904 127.43 260.181C127.517 260.316 127.612 260.475 127.66 260.562C127.636 260.506 127.636 260.491 127.691 260.562C127.763 260.657 127.977 261.125 128.072 261.331C128.072 261.315 128.064 261.307 128.056 261.299C128.08 261.354 128.096 261.378 128.104 261.402C128.104 261.386 128.088 261.362 128.072 261.331C128.31 261.862 128.453 262.258 128.826 262.734C128.842 262.749 128.85 262.757 128.874 262.781C129.056 262.979 129.215 263.193 129.381 263.399C129.611 263.693 129.81 264.002 130.024 264.311C130.357 264.802 130.651 265.317 130.944 265.833C131.746 267.236 132.277 268.337 133.063 269.907C133.666 271.119 134.459 272.197 135.253 273.283C135.284 273.315 135.292 273.323 135.268 273.299C135.348 273.41 135.427 273.521 135.514 273.632C135.713 273.901 135.808 274.187 135.84 274.464C136.181 275.082 136.514 275.708 136.832 276.342C136.847 276.382 136.863 276.414 136.887 276.453C137.514 277.278 138.125 278.165 138.299 278.459C139.482 280.432 140.6 282.445 141.687 284.482C143.353 286.321 144.908 288.279 146.4 290.427C152.858 299.684 159.587 308.823 164.863 318.818C166.577 320.958 168.155 323.201 169.369 325.618C170.671 328.202 171.654 330.905 173.051 333.449C174.479 336.065 176.216 338.474 177.716 341.05C178.073 341.668 178.406 342.294 178.74 342.928C179.342 343.8 179.922 344.688 180.453 345.623C183.246 350.49 185.587 355.499 188.078 360.532C188.697 361.784 189.355 363.021 190.03 364.241C194.155 370.907 198.186 377.612 201.804 384.595C203.113 387.123 203.819 389.596 205.835 391.705C207.358 393.306 209.27 394.78 210.262 396.793C211.047 398.394 211.349 399.131 212.515 400.51C212.848 400.907 213.102 401.327 213.332 401.755C213.753 402.159 214.173 402.571 214.602 403.007C222.084 410.608 227.701 415.276 236.611 421.237C243.601 425.913 250.273 431.414 258.699 433.181C271.616 435.892 284.446 437.041 297.473 438.222C299.108 438.373 299.774 438.357 301.385 438.389C306.495 438.492 311.263 439.451 316.46 438.626C317.269 438.5 318.213 438.198 319.165 437.905C319.824 437.976 320.474 438.151 321.141 438.19C322.093 438.286 323.045 438.159 323.989 438.143C324.188 438.143 324.394 438.151 324.592 438.159C324.791 438.278 325.005 438.381 325.243 438.42C325.862 438.531 326.496 438.333 327.123 438.365C331.796 437.794 336.446 436.756 339.064 435.987C340.23 435.591 341.159 435.535 342.73 435.012C344.316 434.434 345.784 433.578 347.379 433.015C347.76 432.856 348.141 432.69 348.514 432.508C355.408 430.502 362.327 428.315 368.888 425.636C378.497 421.712 387.526 416.489 396.436 411.591C398.292 410.568 400.704 409.816 402.537 408.706C406.329 406.423 409.955 402.436 413.272 399.52C417.493 395.802 421.817 392.418 426.157 388.812C433.67 382.582 440.24 375.528 446.841 368.894C458.655 357.013 466.502 346.844 474.579 332.236C478.871 324.485 484.29 318.635 489.519 311.692C496.755 302.07 503.126 292.02 508.91 281.502C510.79 278.086 512.742 272.926 515.527 270.136C515.979 269.685 517.106 269.288 517.732 268.623C518.415 267.893 519.303 266.387 519.875 265.484C522.779 260.903 525.508 255.648 527.896 250.456C528.277 249.473 528.562 248.459 528.951 247.476C529.173 246.905 529.3 246.303 529.562 245.74C529.808 245.217 529.983 244.773 530.118 244.195C530.403 242.99 530.863 241.841 531.189 240.644C531.339 240.081 531.371 239.503 531.562 238.956C531.752 238.393 532.046 237.862 532.268 237.307C532.474 236.776 532.617 236.253 532.775 235.706C532.839 235.484 532.966 235.286 533.045 235.072C533.148 234.771 533.14 234.47 533.252 234.161C533.45 233.582 533.672 232.98 533.966 232.425C533.966 232.417 533.966 232.401 533.966 232.393C533.989 232.242 534.021 232.108 534.069 231.981C534.116 231.743 534.235 231.521 534.41 231.347C534.434 231.315 534.457 231.275 534.481 231.244C534.608 231.077 534.791 230.982 534.997 230.935C535.148 230.744 535.33 230.578 535.568 230.435C536.647 229.801 537.901 230.237 538.528 231.204C538.663 231.339 538.774 231.497 538.861 231.664C538.877 231.696 538.893 231.727 538.909 231.751C538.909 231.767 538.924 231.783 538.932 231.799C539.059 232.036 539.147 232.29 539.21 232.559C539.329 232.726 539.448 232.892 539.472 232.908C539.464 232.892 539.456 232.869 539.44 232.853C539.472 232.9 539.48 232.916 539.472 232.908C539.591 233.106 539.678 233.32 539.765 233.534C539.781 233.574 539.789 233.606 539.805 233.629C539.845 233.717 539.884 233.82 539.805 233.629C539.765 233.526 539.726 233.447 539.884 233.859C539.948 234.026 539.988 234.184 540.019 234.351C540.281 235.017 540.495 235.659 540.837 236.285C540.876 236.356 541.043 236.729 541.122 236.911C541.122 236.895 541.122 236.903 541.146 236.966C541.186 237.061 541.17 237.014 541.122 236.911C541.146 236.974 541.336 237.418 541.376 237.529C541.44 237.711 541.503 237.902 541.566 238.084C541.662 238.369 541.606 238.314 541.566 238.234C541.725 238.639 541.963 239.019 542.09 239.439C542.106 239.479 542.122 239.518 542.13 239.558C542.241 240.002 542.344 240.533 542.415 240.985C542.55 241.865 542.693 242.76 542.852 243.656C543.145 245.281 542.765 247.008 542.868 248.657C542.907 249.315 542.979 249.973 542.971 250.654C542.971 251.13 542.884 251.637 542.844 252.089C542.844 252.089 542.844 252.105 542.844 252.113C542.884 252.327 542.915 252.462 542.899 252.382C542.899 252.414 542.915 252.446 542.923 252.485C542.955 253.04 543.01 253.532 543.082 254.023C543.122 254.205 543.153 254.388 543.177 254.554C543.256 255.188 543.304 255.798 543.36 256.393C543.431 257.193 543.74 257.93 543.717 258.755C543.701 259.555 543.542 260.213 543.637 261.022C543.812 262.488 543.947 264.073 543.899 265.547C543.883 266.102 543.844 266.649 543.804 267.196C543.836 267.553 543.883 267.909 543.963 268.258C543.986 269.296 544.193 270.319 544.589 271.286C544.605 271.333 544.621 271.373 544.645 271.42C544.645 271.428 544.645 271.436 544.645 271.444C544.645 271.444 544.645 271.444 544.645 271.436C544.677 271.777 544.716 272.229 544.772 272.451C544.772 272.609 544.772 272.76 544.772 272.918C544.764 273.362 544.772 273.806 544.804 274.25C544.804 274.163 544.812 274.076 544.819 273.981C544.819 274.084 544.812 274.179 544.804 274.266C544.693 276.176 544.677 275.479 545.01 277.492C544.978 277.357 544.938 277.143 544.923 277.08C544.931 277.206 544.97 277.389 545.026 277.587C545.026 277.611 545.026 277.619 545.026 277.587C545.089 277.817 545.169 278.062 545.232 278.221C545.24 278.253 545.256 278.276 545.264 278.308C545.264 278.292 545.256 278.276 545.248 278.261C545.248 278.284 545.264 278.3 545.264 278.316C545.28 278.364 545.343 278.546 545.438 278.76C545.43 278.728 545.422 278.712 545.415 278.689C545.597 279.061 546.002 279.743 546.47 279.505C547.144 279.299 547.35 278.427 547.446 277.801C547.652 275.566 548.112 273.307 547.898 271.056C547.66 269.899 547.803 270.239 547.787 268.662L547.739 268.694ZM212.285 278.792C212.055 279.806 211.238 280.44 210.301 280.718C210.048 280.924 209.762 281.098 209.429 281.185C209.032 281.296 208.564 281.296 208.159 281.209C207.993 281.169 207.826 281.106 207.667 281.043C206.652 281.019 205.787 280.884 204.898 280.512C204.565 280.472 204.232 280.424 203.907 280.361C203.534 280.29 203.304 280.282 202.812 280.171C202.09 279.996 201.399 279.695 200.669 279.6C198.987 279.378 197.48 278.8 195.861 278.332C195.258 278.158 194.497 278.189 193.83 277.999C193.061 277.785 192.291 277.579 191.529 277.317C190.72 277.04 189.966 276.802 189.125 276.667C188.459 276.564 187.856 276.398 187.245 276.16C186.92 276.097 186.61 276.002 186.301 275.907C186.166 275.891 186.031 275.875 185.904 275.867C184.841 275.78 183.794 275.756 182.738 275.621C181.754 275.494 180.779 275.352 179.787 275.272C178.129 275.138 176.629 274.837 175.003 274.773C173.257 274.71 171.623 274.519 169.877 274.385C169.25 274.337 168.147 274.313 167.346 274.179C166.553 274.044 165.775 273.822 164.982 273.679C164.601 273.608 164.18 273.568 163.808 273.513C163.133 273.418 162.721 273.212 162.165 272.839C161.173 272.173 160.864 271.167 160.824 270.018C160.793 269.249 160.888 268.187 161.261 267.64C161.277 267.624 161.316 267.521 161.34 267.473C161.364 267.315 161.364 267.148 161.403 266.99C161.491 266.649 161.665 266.316 161.808 265.999C162.483 264.501 163.831 263.36 165.616 263.273C166.45 263.233 167.354 263.336 168.187 263.407C168.592 263.447 168.996 263.518 169.409 263.542C169.552 263.542 170.345 263.645 170.734 263.716H170.964C171.139 263.716 171.313 263.716 171.488 263.724C171.408 263.724 171.805 263.788 172.099 263.851C172.099 263.851 172.107 263.851 172.115 263.851C172.567 263.701 173.082 263.574 173.559 263.701C173.662 263.732 173.733 263.748 173.797 263.772C173.828 263.772 173.868 263.756 173.924 263.756C174.082 263.74 174.296 263.732 174.463 263.748C175.003 263.78 175.526 264.002 176.042 264.049C176.938 264.129 177.827 264.224 178.74 264.327C180.604 264.549 182.445 264.961 184.309 265.088C185.245 265.151 186.118 265.428 187.039 265.555C187.848 265.666 188.657 265.634 189.466 265.658C190.387 265.682 191.529 265.999 192.418 266.261C193.18 266.483 193.973 266.467 194.735 266.689C195.417 266.895 196.337 267.37 196.845 267.481C197.432 267.608 198.384 267.909 199.09 268.099C200.725 268.543 202.431 268.963 204.01 269.439C204.462 269.582 204.946 269.732 205.43 269.907C207.215 270.081 209.389 270.319 210.286 270.66C211.095 270.969 211.563 271.722 211.864 272.483C212.325 273.64 212.428 274.496 212.229 275.582C212.261 275.796 212.277 276.01 212.277 276.231C212.523 277.048 212.475 277.991 212.293 278.792H212.285ZM337.787 281.074C337.755 279.307 339.397 277.523 341.23 277.634C342.817 277.729 344.42 277.246 346.189 277.531C347.641 277.769 349.061 278.15 350.489 278.522C352.203 278.72 353.909 278.879 355.591 278.784C363.446 278.34 370.927 278.324 378.647 277.785C380.52 276.858 382.749 276.43 384.725 276.073C386.066 275.827 386.939 275.272 388.39 275.605C388.581 275.653 388.708 275.677 388.787 275.693C388.882 275.677 388.986 275.653 389.081 275.637C389.247 275.597 389.414 275.558 389.596 275.518C390.049 275.415 390.461 275.368 390.85 275.383C391.04 275.352 391.239 275.312 391.342 275.296C391.691 275.241 391.85 275.272 392.191 275.272C392.651 275.272 393.167 275.233 393.619 275.352C394.849 275.677 395.579 276.723 396.269 277.69C396.65 278.221 397.023 278.776 397.293 279.378C397.61 280.099 397.34 279.521 397.602 280.163C397.864 280.813 398.142 281.455 398.189 282.168C398.189 282.303 398.197 282.382 398.197 282.445C398.276 282.699 398.372 282.961 398.372 283.222C398.38 283.254 398.387 283.286 398.403 283.325C398.475 283.571 398.578 283.809 398.633 284.054C398.768 284.681 398.808 285.402 398.8 286.044C398.8 286.971 398.435 287.843 397.848 288.525C396.832 290.712 394.182 291.6 391.731 292.258C383.527 294.461 375.402 294.469 367.056 294.073C359.891 293.732 352.56 294.223 345.411 292.844C345.356 292.836 345.3 292.821 345.237 292.805C344.316 292.844 343.38 292.908 342.484 292.844C342.206 292.828 342.024 292.813 341.905 292.805C341.563 292.781 341.698 292.805 341.905 292.805C342.182 292.813 342.595 292.813 342.174 292.71C341.865 292.781 341.563 292.765 341.254 292.686C340.373 292.717 339.556 292.044 339.104 291.37C337.668 289.238 337.501 288.184 337.422 286.282C337.358 284.768 337.826 281.986 337.811 281.05L337.787 281.074ZM278.178 275.201L278.487 275.13C279.59 275.177 280.693 275.217 281.788 275.265C293.03 275.748 304.448 276.731 315.746 277.294C320.498 277.531 325.568 276.628 329.615 279.354C329.868 279.521 331.582 280.852 331.796 281.058C332.558 281.803 332.709 283.428 332.63 284.498C332.598 284.895 332.423 285.33 332.161 285.782C332.138 285.909 332.114 286.028 332.074 286.131C332.074 286.313 332.042 286.496 332.027 286.678C331.979 287.138 331.971 287.629 331.844 288.073C331.773 288.326 331.614 288.58 331.511 288.826C331.439 288.992 331.431 288.992 331.511 288.842C331.487 288.929 331.463 289.024 331.447 289.111C331.368 289.412 331.273 289.729 331.17 290.023C331.074 290.292 330.963 290.482 330.805 290.712C330.773 290.76 330.733 290.807 330.702 290.855C330.702 290.879 330.702 290.887 330.694 290.918C330.662 291.148 330.543 291.346 330.384 291.505C330.289 291.655 330.17 291.798 330.011 291.909C329.972 291.972 329.916 292.036 329.876 292.099C329.773 292.289 329.646 292.464 329.472 292.638C329.273 292.828 329.075 293.003 328.813 293.114C328.797 293.122 328.781 293.13 328.766 293.138C328.512 293.367 328.178 293.51 327.806 293.518C327.441 293.518 327.092 293.486 326.774 293.367C326.639 293.344 326.512 293.32 326.393 293.28C326.163 293.264 325.949 293.193 325.767 293.082C325.735 293.066 325.703 293.042 325.663 293.027C325.648 293.011 325.624 293.003 325.6 292.987C325.56 292.987 325.513 292.987 325.473 292.987C325.322 292.971 325.124 292.963 324.981 292.9C325.068 292.916 325.195 292.9 325.005 292.892C324.791 292.884 324.568 292.828 324.354 292.733C324.394 292.757 324.394 292.765 324.346 292.733C324.275 292.702 324.204 292.662 324.132 292.622C323.965 292.607 323.815 292.591 323.664 292.551C323.021 292.567 322.402 292.567 322.037 292.551C317.523 292.4 312.001 291.204 307.217 290.72C297.632 289.745 289.682 289.951 280.153 287.629C279.09 287.367 277.527 287.55 276.869 286.29C276.456 285.497 275.147 280.638 275.036 279.671C274.774 277.42 277.337 276.866 278.194 275.233L278.178 275.201ZM226.662 282.461C224.488 282.2 220.441 282.477 219.037 280.559C218.934 280.416 217.799 278.601 217.752 278.482C217.26 277.349 217.886 276.041 218.053 274.995C218.164 274.274 217.886 273.243 218.362 272.53C218.474 272.364 221.457 271.5 221.838 271.484C231.414 270.992 241.078 273.172 250.781 273.933C255.153 274.274 259.58 274.091 263.912 274.401C264.785 274.464 267.483 274.527 268.006 274.702C268.641 274.908 268.768 276.596 268.863 277.246C269.014 278.229 269.22 279.529 269.371 280.741C269.474 280.86 269.561 280.995 269.601 281.154C269.617 281.185 269.625 281.209 269.633 281.241C269.672 281.272 269.728 281.328 269.76 281.383C269.847 281.526 269.902 281.7 269.974 281.859C270.061 282.025 270.109 282.208 270.133 282.398C270.133 282.39 270.133 282.366 270.133 282.366C270.133 282.438 270.14 282.509 270.148 282.58C270.18 282.747 270.236 282.953 270.236 283.016C270.236 283.08 270.22 283.143 270.212 283.206C270.228 283.357 270.236 283.508 270.228 283.674C270.275 284.007 270.244 284.364 270.188 284.728C270.117 285.18 269.942 285.521 269.68 285.79C269.545 285.996 269.363 286.163 269.157 286.297C269.054 286.377 268.934 286.44 268.815 286.496C268.657 286.591 268.498 286.67 268.331 286.718C268.197 286.773 268.054 286.813 267.911 286.828C267.681 287.042 266.832 286.939 266.562 286.9C266.277 286.971 266.023 287.019 265.84 287.035C263.944 287.193 262.936 286.504 261.461 286.337C260.469 286.226 258.303 286.622 257.398 286.496C252.916 285.846 248.298 285.037 243.767 284.356C238.071 283.492 232.358 283.159 226.685 282.469L226.662 282.461ZM379.607 388.534C379.568 388.55 379.52 388.558 379.473 388.574C378.068 389.256 376.592 389.89 375.109 390.381C372.633 391.205 369.96 391.483 367.397 391.95C364.739 392.442 362.129 393.155 359.423 393.274C358.526 393.314 357.622 393.322 356.725 393.33C356.567 393.345 356.408 393.369 356.249 393.385C356.226 393.385 356.202 393.385 356.178 393.385C352.854 394.082 349.569 394.82 346.348 395.176C335.065 396.429 323.815 401.081 312.54 401.715C311.612 401.771 310.612 401.43 309.93 401.517C309.724 401.541 309.525 401.62 309.319 401.723C309.145 401.707 308.978 401.691 308.803 401.668C306.614 401.311 304.4 401.034 302.178 401.232C300.782 401.248 299.401 401.034 298.013 401.049C297.656 401.065 297.299 401.081 296.95 401.113C296.49 401.089 296.029 401.073 295.569 401.097C290.61 400.574 285.358 400.265 280.804 398.426C280.455 398.283 279.804 398.196 279.392 398.125C273.314 397.094 268.435 394.883 262.571 392.83C260.58 392.133 259.009 391.728 256.978 390.389C253.447 388.067 251.71 385.824 250.194 381.861C248.933 378.556 248.583 375.005 248.917 371.517C248.917 371.359 248.933 371.2 248.956 371.05C248.956 371.002 248.964 370.947 248.972 370.899C248.98 370.899 248.988 370.899 249.004 370.899C249.179 370.225 249.615 369.655 250.202 369.235C251.281 367.887 253.019 367.261 254.153 366.215C254.558 365.842 255.105 365.169 255.788 364.566C256.502 363.377 257.295 362.188 258.319 361.253C259.358 360.294 260.588 359.478 261.81 358.764C262.357 358.447 262.936 358.162 263.516 357.908C264.063 357.671 264.539 357.385 265.086 357.124C266.205 356.585 267.3 356.054 268.538 355.903C268.966 355.761 269.379 355.665 269.831 355.562C270.315 355.451 270.823 355.428 271.283 355.269C272.433 354.873 273.544 354.611 274.758 354.5C275.956 354.389 277.067 354.12 278.281 354.152C279.392 354.175 280.677 354.017 281.724 354.453C282.708 354.556 283.755 354.706 284.668 355.023C289.079 354.77 293.514 354.564 297.95 354.334C301.464 354.152 306.098 354.968 310.509 355.333C311.961 355.705 313.223 356.141 315.063 356.331C317.452 356.506 319.816 356.26 322.188 355.99C326.584 356.664 330.21 358.677 334.502 361.071C335.264 361.499 336.533 361.721 336.969 362.006C337.374 362.268 337.739 363.037 338.033 363.583C338.175 364.217 338.461 364.812 338.747 365.391C338.961 365.731 339.143 366.175 339.477 366.421C339.794 367.071 340.159 367.752 340.23 368.466C340.341 369.512 340.04 370.677 340.207 371.89C340.468 373.808 341.73 375.718 341.302 377.731C341.238 378.025 340.199 380.426 340.032 380.593C339.731 380.894 339.151 380.989 338.802 381.306C338.001 382.027 337.279 383.065 336.367 383.739C333.859 385.602 330.654 386.561 327.845 387.861C327.893 388.859 327.623 390.302 328.234 391.063C328.282 392.022 328.702 392.886 329.678 392.505C329.932 392.402 330.178 392.283 330.432 392.172C330.59 392.117 330.757 392.053 330.916 391.99C332.582 391.483 334.605 390.746 336.581 389.684C337.541 389.343 338.437 388.843 339.27 388.265C339.278 388.265 339.286 388.249 339.294 388.241C339.429 388.186 339.556 388.106 339.659 387.995C339.699 387.94 339.723 387.876 339.754 387.821C340.04 387.607 340.318 387.377 340.58 387.123C340.706 387.028 340.833 386.933 340.96 386.838C341.333 386.585 341.698 386.315 341.936 385.935C342.254 385.633 342.563 385.316 342.833 384.968C342.96 384.825 343.079 384.666 343.19 384.492C344.816 382.836 346.244 380.791 346.736 378.746C347.276 377.311 347.181 377.406 347.53 375.9C347.665 375.052 347.768 374.41 347.847 373.895C347.887 373.8 347.911 373.713 347.927 373.657C347.966 373.451 347.982 373.245 347.974 373.031C348.149 371.803 348.125 371.557 348.228 369.607C348.299 368.981 348.371 368.355 348.363 367.721C348.561 366.136 348.442 365.391 348.284 364.63C348.307 364.574 348.331 364.527 348.363 364.471C348.291 364.384 348.236 364.281 348.172 364.186C348.165 364.154 348.149 364.122 348.141 364.091C348.149 363.805 348.165 363.496 348.18 363.155C348.307 360.429 346.665 358.543 346.363 358.019C346.054 357.512 345.737 356.997 345.292 356.601C346.443 356.363 347.609 356.26 348.752 356.014C351.663 355.388 354.551 354.35 357.352 353.668C369.714 350.672 381.734 349.951 393.96 353.66C395.737 354.199 400.387 358.408 401.347 360.009C402.029 361.15 403.529 364.59 403.513 365.826C403.481 369.298 400.831 374.918 398.364 377.398C394.69 381.084 384.558 386.767 379.599 388.534H379.607ZM455.164 274.512C453.887 275.716 448.055 278.443 446.238 278.958C442.993 279.885 439.796 279.56 436.543 280.448C427.537 282.905 418.477 286.884 409.099 287.772C407.059 287.97 405.369 287.835 403.68 286.63C403.124 286.234 401.783 284.411 401.141 283.23C401.053 283.095 400.966 282.961 400.903 282.818C400.752 282.493 400.649 282.16 400.553 281.811C400.522 281.692 400.49 281.566 400.458 281.447C400.442 281.375 400.427 281.312 400.411 281.241C400.411 281.264 400.363 281.043 400.347 280.924C400.339 280.9 400.323 280.876 400.315 280.844C400.252 280.694 400.236 280.551 400.212 280.408C400.212 280.424 400.212 280.424 400.189 280.377C400.141 280.258 400.133 280.068 400.125 279.933C400.101 279.719 400.125 279.497 400.125 279.283C400.125 279.101 400.125 278.934 400.157 278.76C400.165 278.681 400.181 278.538 400.228 278.451C400.22 278.197 400.212 277.84 400.315 277.642C400.323 277.626 400.331 277.619 400.339 277.611C400.339 277.611 400.339 277.603 400.339 277.595C400.363 277.452 400.363 277.294 400.395 277.151C400.427 276.984 400.474 276.818 400.506 276.652C400.538 276.461 400.585 276.303 400.657 276.128C400.799 275.78 400.704 275.986 400.68 276.057C400.72 275.962 400.752 275.875 400.792 275.78C401.022 275.241 401.355 274.71 401.847 274.424C402.132 274.218 402.466 274.107 402.846 274.107C402.854 274.107 402.862 274.107 402.878 274.107C403.029 274.004 403.188 273.909 403.386 273.854C403.386 273.87 404.719 273.663 404.679 273.814C404.838 273.782 404.997 273.759 405.163 273.759C405.473 273.735 405.782 273.79 406.091 273.79C406.171 273.774 407.155 273.719 407.305 273.719C407.639 273.719 407.972 273.719 408.305 273.719C410.019 273.473 411.733 273.212 413.431 272.879C424.443 270.715 436.074 267.085 446.873 263.772C449.142 263.074 450.364 261.6 452.514 263.36C453.736 264.358 455.061 265.88 455.838 267.204C456.418 268.179 456.909 269.978 456.902 271.127C456.894 272.245 455.965 273.751 455.172 274.496L455.164 274.512ZM482.338 262.987C478.109 264.905 473.769 265.761 469.104 266.586C465.637 267.196 462.138 267.988 458.647 267.196C457.227 265.904 455.085 260.784 457.195 259.547C458.361 258.866 460.9 258.366 462.297 257.843C468.779 255.418 475.079 253.302 481.632 251.162C483.282 250.623 485.044 249.838 486.773 249.093C486.829 249.045 486.885 248.998 486.948 248.95C487.456 248.562 488.091 248.071 488.638 247.754C488.773 247.674 488.908 247.595 489.051 247.532C489.328 247.278 489.654 247.08 490.011 246.945C490.082 246.905 490.161 246.874 490.233 246.842C490.399 246.707 490.574 246.596 490.788 246.541C491.232 246.414 491.597 246.303 492.073 246.303C493.803 246.303 495.136 247.421 495.922 248.855C497.746 252.152 498.968 256.163 495.382 258.557C491.391 261.212 486.869 261.917 482.33 263.003L482.338 262.987Z" fill="black"/>
<path d="M545.117 278.118C545.149 278.197 545.165 278.253 545.189 278.3C545.189 278.285 545.181 278.277 545.173 278.261C545.157 278.213 545.133 278.166 545.117 278.118Z" fill="black"/>
<path d="M544.721 274.06C544.721 274.258 544.737 274.456 544.721 274.654C544.729 274.535 544.737 274.416 544.745 274.297C544.729 274.083 544.713 273.846 544.721 274.06Z" fill="black"/>
</g>
<defs>
<clipPath id="clip0_527_3336">
<rect width="447" height="298" fill="white" transform="translate(101 176)"/>
</clipPath>
</defs>
</svg>
