<svg width="650" height="650" viewBox="0 0 650 650" fill="none" xmlns="http://www.w3.org/2000/svg">
<path d="M319.253 155.417C364.184 150.434 413.654 191.042 437.111 226.508C472.318 279.742 481.253 379.187 453.447 436.986C419.231 508.111 275.911 510.118 221.72 463.254C139.34 392.005 212.831 167.232 319.253 155.417ZM343.882 176.273C351.419 189.024 351.036 203.465 348.016 217.602C343.994 236.418 326.52 251.784 324.312 272.854C321.292 301.703 361.716 329.087 374.83 302.143C384.925 281.422 364.747 255.29 365.085 234.794C365.333 219.891 376.712 204.006 384.869 192.225C384.08 188.798 346.732 174.199 343.87 176.273H343.882ZM296.811 252.201C292.766 251.333 293.476 252.562 291.819 254.084C286.378 259.066 279.438 271.287 285.443 278.006L296.811 252.201ZM311.975 297.746C313.034 296.765 315.073 277.702 316.031 273.7C317.451 267.815 320.864 262.618 321.968 258.334C322.487 256.327 322.408 254.162 320.323 253.712C316.166 252.821 308.426 272.414 307.795 276.078C307.007 280.723 307.04 287.6 307.592 292.301C307.739 293.496 309.091 300.395 311.975 297.735V297.746ZM299.852 285.593C297.87 275.808 304.044 267.939 306.68 259.743C307.559 257.026 307.469 257.139 305.181 255.267C299.988 254.467 288.733 284.793 299.852 285.593ZM377.286 322.052C392.304 323.799 395.898 276.574 388.643 274.985C386.446 274.793 385.207 276.214 385.162 278.389C385.071 283.372 387.099 288.829 386.254 295.356C384.914 305.66 376.678 312.086 377.286 322.052ZM399.312 291.692C396.124 292.357 397.093 303.36 396.349 306.968C395.729 309.978 393.104 313.168 392.755 315.558C391.741 322.277 396.507 320.485 399.166 315.863C401.137 312.447 406.072 290.283 399.312 291.703V291.692ZM410.533 300.914C404.067 296.946 407.109 306.167 406.624 309.651C405.835 315.254 402.76 319.775 401.577 325.085C411.57 327.565 414.646 303.428 410.533 300.914ZM210.927 359.142C204.189 367.124 200.517 374.948 197.047 384.756C200.81 476.421 292.98 491.889 366.933 476.489C398.355 469.95 424.819 457.887 439.792 427.888C447.668 412.105 440.468 398.081 431.027 384.463C404.191 345.738 359.7 350.867 335.646 389.006C333.618 392.23 326.689 408.182 324.875 408.622C315.806 410.843 327.861 382.445 326.396 378.341C324.593 373.268 301.069 346.11 295.999 341.848C268.859 319.053 231.139 335.197 210.916 359.153L210.927 359.142Z" fill="black"/>
<path d="M164.665 400.956C159.268 405.42 155.945 395.567 155.562 391.227C152.418 355.298 162.66 305.795 177.103 272.91C180.066 266.169 200.098 224.806 204.976 224.885L208.469 228.639C185.857 267.071 173.182 315.096 167.966 359.446C167.245 365.534 166.265 399.625 164.665 400.956Z" fill="black"/>
<path d="M480.505 414.687C484.088 390.133 489.811 364.599 488.065 339.537C486.882 322.627 480.471 289.28 475.852 272.775C471.233 256.271 459.595 238.301 455.403 223.374C454.682 220.815 454.435 218.391 454.694 215.742C459.403 215.021 462.636 219.384 465.059 222.822C484.843 250.859 498.035 331.364 495.737 365.388C495.14 374.226 489.867 405.014 486.228 412.072C484.628 415.161 483.772 414.969 480.494 414.676L480.505 414.687Z" fill="black"/>
</svg>
