<svg width="650" height="650" viewBox="0 0 650 650" fill="none" xmlns="http://www.w3.org/2000/svg">
<g clip-path="url(#clip0_527_3352)">
<path d="M520.009 306.908C519.816 306.835 519.623 306.763 519.438 306.674C519.55 306.715 519.518 306.699 519.341 306.626C519.244 306.586 519.148 306.546 519.051 306.497C518.914 306.425 518.786 306.337 518.657 306.256C518.609 306.224 518.134 305.862 518.335 306.023C518.158 305.886 517.973 305.766 517.828 305.605C517.731 305.5 517.635 305.388 517.546 305.267C517.087 304.817 515.993 303.651 515.816 303.45C514.657 302.115 513.675 301.022 512.33 299.784C502.849 291.035 493.665 281.596 483.821 273.547C463.047 256.558 440.992 241.506 419.035 226.124C418.906 226.036 418.777 225.939 418.648 225.843C418.19 225.577 417.731 225.312 417.272 225.039C415.316 223.857 413.312 222.771 411.356 221.597C410.278 220.954 409.183 220.327 408.104 219.684C407.106 219.089 406.229 218.381 405.287 217.706C403.565 216.475 401.697 215.438 399.975 214.208C398.188 212.93 396.337 211.731 394.566 210.437C392.844 209.175 391.137 207.888 389.447 206.586C388.73 206.031 388.095 205.412 387.362 204.873C387.056 204.648 386.75 204.431 386.445 204.214C383.394 202.461 380.207 200.845 377.373 200.225C376.617 200.057 375.168 200.137 374.291 200.024C374.275 200.024 374.267 200.024 374.25 200.024C374.226 200.024 374.21 200.024 374.186 200.024H374.17C374.114 200.032 374.073 200.04 374.049 200.049C373.904 200.113 373.759 200.161 373.598 200.177C373.317 200.242 373.051 200.274 372.769 200.346C372.206 200.507 371.602 200.644 371.047 200.845C370.411 201.078 369.936 201.19 369.244 201.174C368.753 201.166 368.294 201.198 367.819 201.247C366.218 201.858 364.101 202.445 362.869 203.032C354.796 206.843 346.683 212.905 339.27 217.907C337.322 219.217 336.098 221.059 333.41 220.214C332.517 219.933 332.388 218.896 331.679 218.494C330.271 217.706 327.518 217.247 325.884 216.636C322.592 215.414 318.745 213.935 315.903 212.576C315.445 212.359 314.913 212.166 314.519 211.876C313.996 211.699 313.497 211.466 312.966 211.257C312.958 211.257 312.95 211.257 312.941 211.249C312.756 211.225 312.571 211.185 312.402 211.145C311.766 210.992 305.327 208.081 304.973 207.784C304.941 207.751 304.917 207.719 304.892 207.679C304.715 207.623 304.538 207.574 304.361 207.518C304.055 207.43 303.685 207.301 303.428 207.197C303.411 207.197 302.776 206.851 302.776 206.827C302.534 206.77 301.81 206.674 302.43 206.746C302.148 206.714 302.019 206.666 301.769 206.569C301.568 206.497 301.27 206.344 300.973 206.24C300.313 205.999 299.532 205.741 298.775 205.588C297.713 205.371 296.642 205.178 295.572 205.002C294.735 204.865 293.906 204.841 293.069 204.744C291.185 204.527 289.269 204.206 287.378 204.214C286.332 204.214 285.285 204.165 284.239 204.117C283.023 204.278 281.808 204.455 280.609 204.672C279.071 204.945 277.606 205.5 276.085 205.822C274.701 206.111 273.324 206.288 272.012 206.859C271.521 207.076 271.014 207.293 270.499 207.446C269.598 207.968 268.712 208.507 267.795 209.022C266.644 209.665 265.404 210.172 264.197 210.71C263.69 210.935 263.191 211.153 262.708 211.418C262.603 211.474 261.951 211.828 262.225 211.643C261.911 211.852 261.597 212.069 261.283 212.286C260.341 212.93 259.472 213.726 258.571 214.433C257.637 215.165 256.695 215.792 255.697 216.427C255.198 216.749 254.635 216.934 254.12 217.231C253.645 217.513 253.186 217.746 252.663 217.931C251.987 218.172 251.27 218.293 250.61 218.534C250.337 218.638 250.039 218.711 249.725 218.783C249.685 218.815 249.652 218.855 249.62 218.871C248.606 219.555 248.357 219.852 247.302 220.673C242.481 224.436 237.901 228.199 232.959 231.921C217.416 243.644 201.286 255.52 185.55 266.705C172.35 276.088 159.359 286.131 146.996 296.455C142.988 299.8 139.615 301.657 135.808 305.492C134.174 307.141 131.663 308.162 129.634 310.156C125.908 313.83 121.577 317.151 117.851 320.769C116.861 323.133 115.838 323.753 114.317 326.205C114.229 326.35 113.947 326.969 114.293 327.821C114.679 328.03 114.913 327.958 115.203 327.909C117.046 327.612 119.018 327.909 121.062 327.483C124.773 326.711 128.266 324.331 132.138 324.01C143.768 323.045 155.423 321.871 166.99 319.877C169.638 319.419 171.408 318.976 173.855 318.767C174.177 318.679 174.499 318.574 174.821 318.486C179.28 317.28 184.287 317.232 188.883 316.894C195.386 316.42 201.584 316.275 207.782 316.966C208.611 316.926 209.448 316.894 210.269 316.854C215.493 316.58 220.869 316.21 226.069 316.958C227.848 317.216 228.91 318.172 230.552 318.671C230.979 318.8 231.204 318.687 231.832 318.872L233.08 318.96C239.615 320.343 246.095 322.104 252.55 323.921C260.873 326.253 269.38 328.408 277.421 331.857C281.905 333.779 287.104 335.837 291.41 338.097C293.165 339.014 294.791 340.807 296.441 341.948C300.852 344.996 305.77 347.545 310.06 350.713C311.058 351.452 312.024 352.264 312.99 353.052C313.143 353.141 313.304 353.229 313.457 353.318C314.109 353.696 314.591 354.162 315.171 354.62C315.058 354.532 315.525 354.789 315.59 354.829C315.831 354.974 316.072 355.111 316.298 355.272C316.902 355.69 317.545 356.1 318.165 356.534C318.334 356.606 318.503 356.679 318.68 356.767C319.678 357.241 320.652 357.812 321.562 358.448C322.407 359.043 323.043 359.79 323.711 360.57C323.993 360.9 324.258 361.238 324.532 361.567H324.548C324.548 361.567 324.548 361.583 324.548 361.591C324.934 362.074 325.329 362.548 325.739 363.015C325.796 363.063 325.86 363.103 325.924 363.151C327.422 364.301 328.758 365.507 330.005 366.826C330.625 367.373 331.237 367.976 332.082 368.715C333.144 369.64 334.939 370.717 335.889 371.554C336.863 372.414 338.151 374.135 339.423 375.26C340.767 376.458 342.151 377.753 343.568 379.023C343.624 379.064 343.68 379.096 343.737 379.136C345.081 380.109 346.481 381.033 347.802 382.047C348.542 382.617 349.17 383.301 349.886 383.896C350.546 384.443 351.174 385.005 351.794 385.584C353.082 386.782 354.426 387.844 355.545 389.219C356.486 390.377 357.444 391.518 358.33 392.708C358.716 392.966 359.094 393.207 359.352 393.456C360.559 394.654 364.978 399.125 365.614 400.258C365.992 400.934 366.137 401.151 366.548 401.875C366.91 402.679 367.763 402.984 368.383 403.531C369.727 404.713 371.119 406.892 372.407 408.259C378.074 414.257 386.63 420.352 392.932 425.224C394.944 426.776 396.755 428.545 398.695 430.065C401.383 432.171 403.637 432.622 406.1 435.002L407.324 435.733L412.04 438.66L413.867 439.681C416.813 440.678 419.824 441.844 422.745 443.01C432.3 446.813 436.026 448.88 446.812 449.032C450.522 449.089 450.627 448.751 454.064 447.923C458.531 446.845 461.469 446.291 465.663 444.224C470.17 442.005 476.134 437.647 480.094 434.503C486.896 429.1 491.427 422.788 496.514 415.825C498.824 412.657 501.336 409.449 502.986 406.088C503.533 404.978 503.951 403.177 504.467 402.132C504.563 401.939 505.247 401.127 505.344 400.861C506.72 397.147 509.771 393.014 511.204 389.154C512.725 385.062 514.455 376.933 515.252 372.494C516.105 367.71 516.242 362.822 516.862 358.046C516.814 357.772 516.765 357.507 516.733 357.233C516.596 356.204 516.62 355.175 516.612 354.138C516.604 352.321 516.725 350.544 516.902 348.759C516.355 345.076 516.089 341.249 516.105 337.55C516.113 335.797 516.451 334.044 516.572 332.292C516.637 331.311 516.765 330.346 516.798 329.365C516.822 328.521 517.079 327.692 517.176 326.864C517.385 325.055 517.78 323.246 518.158 321.469C518.472 320.014 518.697 318.526 518.955 317.047C519.285 314.482 519.615 311.925 519.961 309.416C520.001 309.119 520.122 307.181 520.082 307.076C520.065 307.028 520.033 306.988 520.001 306.94L520.009 306.908ZM165.058 296.616C166.587 295.345 168.213 294.228 169.968 293.303C170.386 293.086 170.813 292.909 171.256 292.732C171.497 292.636 171.706 292.587 171.948 292.523C175.763 289.741 180.295 287.683 184.102 284.941C189.229 281.242 193.825 276.643 198.847 272.8C200.755 271.344 203.105 270.21 205.27 268.618C210.269 264.928 215.163 261.35 220.169 257.868C220.676 257.514 221.513 256.775 222.278 256.156C222.898 255.464 223.566 254.797 224.322 254.274C224.765 253.969 225.361 253.792 225.852 253.558C227.808 251.91 231.381 249.691 233.023 249.024C242.207 245.301 250.586 239.729 259.416 235.17C261.066 234.06 262.619 232.814 264.35 231.873C264.897 231.576 265.493 231.431 266.056 231.19C266.596 230.956 267.086 230.715 267.658 230.554C267.827 230.506 267.996 230.482 268.165 230.466C270.499 229.163 273.18 228.552 275.634 227.507C278.894 226.124 282.033 224.387 285.374 223.189C289.414 221.75 291.636 221.219 295.99 221.855C303.999 223.02 313.119 225.738 320.516 228.898C324.371 230.546 327.687 230.964 331.462 232.259C332.734 232.693 332.573 233.602 334.489 232.822C334.939 232.637 336.605 231.568 336.855 231.503C347.761 228.584 351.995 221.525 364.889 221.525C374.444 221.525 381.229 225.819 389.278 229.959C400.152 235.548 410.535 240.814 420.854 247.214C430.609 253.269 439.93 258.021 449.903 263.545C463.127 270.862 474.5 280.744 486.839 289.049C489.053 290.537 490.252 291.711 492.2 293.239C493.19 294.019 494.188 294.782 495.202 295.506C495.275 295.522 495.347 295.538 495.411 295.57C495.532 295.635 495.669 295.683 495.782 295.755C495.919 295.844 496.031 295.956 496.152 296.061C496.184 296.085 496.216 296.109 496.249 296.125C496.345 296.189 496.442 296.254 496.538 296.326C496.925 296.583 497.343 296.793 497.722 297.058C497.907 297.195 498.1 297.323 498.285 297.46C498.374 297.524 498.462 297.589 498.551 297.661C498.639 297.725 498.72 297.79 498.808 297.862C498.832 297.886 498.985 298.023 498.881 297.918C498.792 297.83 498.897 297.918 498.921 297.942C499.017 298.007 499.106 298.079 499.203 298.151C499.219 298.167 499.235 298.176 499.243 298.192C499.347 298.256 499.452 298.32 499.549 298.401C499.758 298.505 499.959 298.642 500.12 298.811C500.354 298.939 500.571 299.132 500.724 299.341C500.804 299.398 500.885 299.454 500.957 299.51C500.965 299.518 500.973 299.526 500.981 299.526C501.014 299.542 501.062 299.567 501.142 299.615C501.175 299.631 501.191 299.655 501.215 299.679C501.231 299.687 501.255 299.711 501.271 299.719C501.271 299.719 501.263 299.711 501.255 299.703C501.327 299.743 501.416 299.792 501.488 299.84C501.336 299.735 501.521 299.864 501.593 299.896C501.674 299.936 501.738 299.985 501.794 300.041C501.794 300.033 501.794 300.041 501.81 300.057C501.835 300.073 501.859 300.081 501.875 300.089C501.931 300.121 501.931 300.121 501.859 300.089C501.931 300.113 502.004 300.145 502.068 300.186C502.148 300.226 502.221 300.274 502.301 300.314C502.406 300.371 502.495 300.451 502.591 300.523C502.607 300.531 502.607 300.539 502.615 300.539C502.728 300.668 502.768 300.7 502.752 300.628C502.728 300.62 502.969 300.765 502.986 300.773C503.026 300.797 503.058 300.821 503.09 300.845C503.243 300.925 503.396 300.998 503.533 301.102C503.686 301.215 503.782 301.36 503.839 301.504C504.048 301.721 504.273 301.995 504.442 302.252C504.909 302.927 503.871 303.683 503.324 303.112C503.179 302.968 503.042 302.823 502.905 302.67C502.8 302.558 502.688 302.477 502.559 302.349C502.205 302.148 501.81 302.019 501.432 301.874C500.965 301.697 500.498 301.52 500.064 301.279C499.927 301.207 499.79 301.118 499.653 301.038C499.541 301.014 499.42 300.99 499.315 300.95C498.575 300.684 497.826 300.443 497.158 300.009C496.45 299.55 495.878 298.923 495.267 298.36C478.138 289.878 461.429 278.846 443.745 272.132C441.95 271.449 440.542 270.026 438.546 269.197C435.237 267.822 431.398 266.753 427.889 265.354C424.903 264.156 421.12 262.805 417.868 261.277C416.982 261.109 416.089 261.06 415.26 260.65C412.893 259.484 410.431 258.495 408.056 257.321C407.613 257.104 407.187 256.871 406.752 256.638C406.487 256.542 406.229 256.453 405.979 256.373C397.182 253.534 388.376 252.336 379.289 250.768C376.399 250.27 375.176 249.9 374.701 246.7C374.693 246.636 374.685 246.571 374.685 246.507C374.637 246.418 374.597 246.338 374.597 246.346C374.395 245.936 374.186 245.655 374.106 245.212C374.106 245.212 374.106 245.22 374.114 245.228C373.719 244.312 373.776 243.114 373.743 242.173C373.719 241.634 373.703 240.862 373.647 240.549C373.558 240.332 373.526 240.219 373.534 240.171C373.486 240.155 373.446 240.147 373.405 240.131C373.317 240.123 373.228 240.107 373.148 240.099C372.785 240.227 371.031 242.133 370.701 242.567C369.663 243.926 368.697 245.655 367.505 246.973C367.441 247.046 366.226 248.051 366 248.22C365.501 248.589 363.916 249.369 362.257 250.101C362.177 250.222 362.08 250.334 361.976 250.423C361.944 250.463 361.911 250.511 361.871 250.551C361.807 250.616 361.292 250.953 361.589 250.752C361.332 250.929 361.106 251.034 360.825 251.162C361.002 251.074 360.793 251.195 360.72 251.227C360.302 251.46 359.907 251.741 359.481 251.95C359.601 251.894 358.748 252.256 359.134 252.095C358.748 252.264 358.66 252.296 358.861 252.208C359.062 252.119 358.973 252.159 358.587 252.32C358.555 252.328 358.523 252.336 358.491 252.352C358.338 252.385 358.322 252.385 358.458 252.328C358.668 252.232 358.579 252.272 358.185 252.441C358.161 252.441 358.136 252.449 358.112 252.457C357.581 252.586 356.969 252.513 356.422 252.513C356.382 252.513 356.358 252.521 356.317 252.521C356.285 252.521 356.245 252.521 356.189 252.505C355.641 252.505 355.126 252.473 354.611 252.24C354.313 252.111 354.064 251.918 353.846 251.677C353.718 251.532 353.597 251.379 353.508 251.211C353.267 250.768 353.412 250.784 353.275 250.31C353.42 250.817 353.194 249.844 353.218 249.956C353.259 250.157 353.235 250.061 353.202 249.924C353.154 249.731 353.13 249.538 353.122 249.353C353.098 249.273 353.09 249.192 353.09 249.112C353.09 249.088 353.074 249.056 353.066 249.032C353.066 249.016 353.066 248.999 353.066 248.991C353.066 248.991 353.066 248.991 353.057 248.975C353.017 248.855 353.017 248.71 353.025 248.581C353.025 248.549 353.033 248.38 353.041 248.388C353.041 248.348 353.033 248.308 353.025 248.268C353.001 248.203 352.985 248.139 352.977 248.075C352.977 248.051 352.961 248.035 352.953 248.01C352.888 247.874 352.872 247.721 352.888 247.568C352.913 247.351 352.977 247.182 353.09 247.046C353.106 247.021 353.106 247.005 353.122 246.981C353.146 246.949 353.162 246.933 353.17 246.917C353.17 246.925 353.154 246.933 353.146 246.949C353.194 246.885 353.194 246.885 353.17 246.917C353.194 246.893 353.218 246.861 353.235 246.837C353.275 246.724 353.339 246.627 353.42 246.539C353.436 246.515 353.452 246.483 353.468 246.459C353.516 246.298 353.565 246.137 353.589 245.968C353.701 245.317 353.782 244.658 353.975 244.022C354.096 242.39 354.281 240.822 354.056 238.965C353.959 238.145 354.667 237.493 353.259 237.67C352.76 237.847 352.736 238.651 352.462 239.053C351.295 240.782 351.746 240.79 351.021 242.607C350.9 242.913 350.739 243.21 350.57 243.492C350.554 243.564 350.546 243.636 350.538 243.709C350.353 244.706 349.894 245.51 349.54 246.443C349.202 247.335 348.896 248.252 348.276 248.999C347.632 249.771 346.916 250.511 346.16 251.17C345.926 251.379 345.709 251.597 345.451 251.798C345.258 251.95 345.081 252.119 344.88 252.264C344.856 252.28 344.679 252.368 344.614 252.401C344.566 252.449 344.509 252.489 344.453 252.521C344.332 252.642 344.115 252.722 343.97 252.77C343.713 252.867 343.415 252.923 343.101 252.923C343.004 252.947 342.908 252.955 342.803 252.955C342.666 252.971 342.521 252.971 342.377 252.955C342.103 252.939 341.853 252.923 341.596 252.787C338.513 253.06 332.058 253.06 329.538 252.143C327.84 251.524 325.796 251.178 324.113 250.173C323.486 249.795 321.288 248.075 319.558 246.644C319.534 246.627 319.501 246.611 319.477 246.587C318.761 246.121 318.028 245.719 317.336 245.212C316.998 244.971 316.773 244.633 316.467 244.36C316.121 244.055 315.759 243.781 315.429 243.46C315.002 243.041 314.6 242.599 314.189 242.165C314.157 242.141 314.117 242.117 314.084 242.093C313.948 241.996 313.811 241.884 313.674 241.787C313.658 241.779 313.634 241.763 313.601 241.747C313.44 241.658 313.296 241.562 313.151 241.441C313.102 241.393 313.078 241.377 313.062 241.361C312.917 241.256 312.772 241.16 312.628 241.055C312.515 240.975 312.306 240.862 312.241 240.734C312.241 240.734 312.241 240.734 312.241 240.726C312.177 240.686 312.104 240.637 312.048 240.589C311.855 240.444 311.847 240.436 312.024 240.557C311.935 240.485 311.839 240.42 311.75 240.348C311.75 240.348 311.75 240.348 311.742 240.348C311.823 240.42 311.831 240.436 311.742 240.388C311.702 240.372 311.67 240.332 311.629 240.308C311.541 240.267 311.46 240.219 311.38 240.163C311.364 240.163 311.348 240.147 311.324 240.139C311.291 240.115 311.259 240.091 311.227 240.066C311.243 240.066 311.251 240.074 311.243 240.082C311.227 240.074 311.211 240.066 311.195 240.058C311.074 240.026 310.8 240.026 311.155 240.034C311.155 240.034 311.138 240.034 311.13 240.026C311.082 240.026 311.034 240.01 310.994 240.002C310.961 240.002 310.929 240.002 310.905 240.002C310.921 240.002 310.857 240.01 310.768 240.026C310.744 240.034 310.728 240.05 310.704 240.058C310.639 240.147 310.567 240.227 310.487 240.3C310.478 240.316 310.462 240.332 310.454 240.348C310.414 240.436 310.366 240.509 310.326 240.557C310.285 240.661 310.245 240.766 310.189 240.846C310.173 241.482 310.1 242.117 310.165 242.728C310.334 244.312 310.969 245.06 310.704 246.941C310.519 248.22 309.416 250.64 308.048 250.937C307.758 251.002 307.597 250.68 307.307 250.704C305.239 250.897 302.961 251.773 301.013 251.814C298.807 251.862 294.397 248.951 292.014 247.986C289.648 247.03 286.919 246.451 284.633 245.494C283.925 245.196 283.506 244.135 283.064 244.199C282.371 244.304 281.905 245.068 282.146 245.759C282.532 247.512 283.82 250.302 284.239 252.344C284.464 252.754 284.504 253.261 284.343 253.727C284.231 254.716 283.531 255.118 282.653 255.319C281.454 256.172 280.44 256.815 278.605 257.096C275.192 257.611 271.771 257.949 268.366 258.495C267.473 258.64 266.596 258.817 265.726 259.026C262.732 260.224 259.762 261.607 256.736 262.435C250.675 264.092 245.024 266.174 239.205 268.53C234.335 270.5 229.345 272.076 224.395 273.748C222.455 274.4 220.483 274.898 218.503 275.356C214.752 276.828 211.042 278.557 207.444 279.883C199.845 282.681 192.593 286.074 184.89 289.54C182.154 290.77 179.031 292.113 176.238 293.142C175.755 293.432 175.272 293.729 174.789 294.019C173.276 294.927 171.738 295.804 170.225 296.704C169.525 297.122 168.793 297.476 168.084 297.87C167.65 298.111 167.175 298.409 166.676 298.569C166.128 298.939 165.243 298.698 164.937 298.127C164.929 298.103 164.913 298.079 164.905 298.063C164.663 297.613 164.671 296.921 165.098 296.567L165.058 296.616ZM477.366 294.123C477.486 293.818 477.269 294.38 477.245 294.421C477.189 294.525 477.1 294.614 477.02 294.702C476.416 295.514 475.112 295.41 474.307 295.273C473.8 295.184 473.293 295.056 472.778 294.999C472.23 294.943 471.675 294.999 471.12 294.943C470.709 294.903 470.403 294.959 469.848 295.008C469.429 295.048 469.003 295.088 468.584 295.096C467.441 295.112 466.21 294.943 465.083 294.782C463.996 294.622 462.853 294.605 461.751 294.557C460.817 294.517 459.883 294.485 458.95 294.453C458.483 294.437 458.04 294.34 457.581 294.284C457.34 294.26 457.106 294.276 456.865 294.228C456.849 294.228 456.841 294.228 456.825 294.228C456.68 294.26 456.543 294.268 456.398 294.228C456.076 294.195 455.778 294.083 455.448 293.922C455.287 293.874 455.143 293.785 455.014 293.673C454.804 293.568 454.619 293.415 454.523 293.206C454.643 293.472 454.442 293.142 454.37 293.005C454.217 292.82 454.12 292.595 454.12 292.362C454.12 292.362 454.12 292.362 454.12 292.354C454.12 292.346 454.12 292.338 454.104 292.33C453.895 291.96 453.879 291.566 453.967 291.18C453.436 289.54 453.122 287.457 452.857 286.485C452.688 285.857 451.199 281.853 451.392 281.668C451.891 281.604 452.35 281.708 452.824 281.837C454.466 282.263 457.493 283.445 459.835 284.426C460.584 284.667 461.324 284.957 462.04 285.246C464.584 286.267 467.176 287.136 469.655 288.261C469.727 288.294 469.848 288.358 469.936 288.406C470.178 288.454 470.444 288.454 470.661 288.527C470.862 288.591 471.144 288.76 471.248 288.84C471.418 288.937 471.546 289.074 471.643 289.234C471.659 289.275 471.675 289.299 471.691 289.331C471.764 289.411 471.812 289.468 471.836 289.5C472.303 289.773 472.762 290.047 473.253 290.272C474.122 290.682 474.975 291.108 475.869 291.486C476.529 291.759 477.261 292.073 477.47 292.925C477.47 292.941 477.543 293.335 477.543 293.472C477.543 293.617 477.261 294.421 477.382 294.131L477.366 294.123ZM403.565 294.734C402.832 294.437 402.422 293.809 402.253 293.07C402.213 292.973 402.172 292.877 402.148 292.78C402.043 292.515 402.011 292.209 401.979 291.856C401.923 291.293 401.826 290.746 401.81 290.175C401.665 289.661 401.657 289.066 401.762 288.495C401.416 287.393 401.134 286.292 401.045 285.246C400.699 281.258 401.641 276.868 402.832 273.089C403.476 272.623 408.418 273.676 409.577 273.78C412.137 274.022 414.809 274.142 417.457 274.327C417.586 274.327 417.723 274.311 417.852 274.311C418.834 274.279 419.816 274.311 420.798 274.271C421.554 274.239 422.303 274.158 423.059 274.199C423.913 274.239 424.766 274.488 425.611 274.601C426.319 274.697 427.036 274.81 427.744 274.922C429.265 275.163 430.859 275.147 432.292 275.766C432.984 276.064 433.692 276 434.384 276.329C434.875 276.562 435.455 276.723 435.994 276.892C436.34 277.005 436.654 277.174 436.968 277.31C438.401 277.568 439.801 277.857 441.065 278.291C443.029 278.959 443.737 281.001 444.413 282.834C445.452 285.64 446.047 288.189 444.896 291.092C444.413 292.306 443.439 291.856 442.538 292.185C435.503 294.758 429.74 296.27 422.753 295.715C421.997 295.763 421.232 295.804 420.476 295.828C418.455 295.884 416.419 295.82 414.399 295.659C413.095 295.812 411.759 295.619 410.447 295.739C409.795 295.804 409.199 295.796 408.547 295.739C407.847 295.683 407.171 295.514 406.47 295.45C406.205 295.426 405.939 295.442 405.682 295.41C405.585 295.402 404.869 295.257 405.086 295.297C404.45 295.192 404.024 295.056 403.549 294.742L403.565 294.734ZM344.791 280.808C344.687 278.701 343.874 275.911 344.051 273.909C344.075 273.644 345.105 270.347 345.226 270.162C345.395 269.905 346.876 268.385 347.085 268.297C350.506 268.626 353.991 268.474 357.42 268.659C365.984 269.133 374.669 270.066 383.153 270.588C384.32 270.661 387.579 270.299 388.328 270.846C388.658 271.039 388.626 271.481 388.811 271.714C389.954 273.202 392.369 278.187 393.101 280.116C393.978 282.44 395.564 288.278 395.532 290.617C395.532 290.939 395.242 293.054 395.154 293.367C394.856 294.356 393.689 295.627 392.691 295.828C391.926 295.98 391.169 296.181 390.397 296.415C388.521 297.918 385.68 298.352 383.434 298.618C380.327 298.988 377.132 298.875 374.017 298.61C368.399 298.119 362.909 297.114 357.492 295.651C352.663 295.337 348.357 294.67 345.548 289.355C344.123 286.661 344.928 283.719 344.791 280.8V280.808ZM333.893 294.332C333.595 294.782 331.929 296.125 331.43 296.294C323.775 298.875 314.583 296.712 307.058 294.597C303.299 293.536 299.773 291.856 295.749 291.1C293.374 290.658 289.455 291.172 287.933 289.291L283.144 281.99C283.603 279.851 283.378 277.616 283.869 275.413C284.263 273.636 285.688 270.403 286.742 268.924C287 268.562 288.408 267.083 288.746 266.994C289.76 266.729 292.223 266.472 293.342 266.399C303.13 265.724 312.917 267.316 322.689 267.388C324.645 267.404 331.349 266.447 332.621 267.453C332.798 267.597 332.983 268.104 333.289 268.377C336.235 271.023 336.895 272.446 337.338 276.41C337.901 281.54 336.774 289.982 333.885 294.332H333.893ZM275.586 286.501C275.16 287.465 274.524 288.221 273.743 288.832C273.477 289.283 273.252 289.628 273.107 289.797C272.222 290.826 271.159 290.545 270.04 290.915C267.481 291.759 267.127 291.928 265.179 292.049C260.841 293.415 255.705 293.753 251.19 293.89C246.344 294.035 241 293.994 236.227 293.174C235.052 292.973 234.118 292.459 233.297 291.614C233.192 291.381 233.096 291.14 233.015 290.899C232.798 290.553 232.556 290.191 232.355 289.894C232.251 289.741 232.178 289.58 232.122 289.435L230.592 287.176C230.552 287.007 230.729 286.549 230.971 285.97C230.866 285.118 230.914 284.177 231.14 283.124C231.172 283.019 231.22 282.931 231.261 282.834C231.277 282.754 231.293 282.665 231.309 282.561C231.462 282.223 231.615 281.974 231.776 281.733C231.8 281.636 231.824 281.532 231.864 281.403C232.677 278.822 235.18 278.098 237.563 277.471C239.575 276.225 241.426 275.951 243.777 275.228C246.216 274.472 248.695 273.925 251.238 273.587C254.643 273.137 257.734 271.939 261.066 271.336C263.69 270.862 266.338 270.532 268.962 270.042C270.218 269.808 272.173 269.125 273.654 269.439C274.371 269.173 275.168 268.964 275.667 269.776C275.9 270.154 276.882 272.767 277.051 273.322C277.84 275.992 276.753 276.828 276.464 279.119C276.222 281.017 276.536 282.705 275.884 284.7C275.852 284.796 275.804 284.925 275.731 285.077C275.828 285.528 275.795 286.026 275.578 286.525L275.586 286.501ZM221.143 282.987C221.207 282.947 221.264 282.906 221.328 282.866C221.505 282.762 221.682 282.673 221.867 282.593C221.972 282.553 222.069 282.504 222.173 282.472C222.181 282.472 222.189 282.472 222.197 282.472C222.222 282.464 222.246 282.448 222.286 282.432C222.455 282.36 222.632 282.295 222.809 282.247C223.139 282.159 223.437 282.191 223.719 282.295C223.815 282.295 223.904 282.295 224 282.295C224.025 282.295 224.049 282.295 224.073 282.295C224.089 282.295 224.113 282.279 224.121 282.279C224.363 282.207 224.588 282.094 224.846 282.183C225.377 283.019 225.795 284.499 225.819 285.873C225.844 285.938 225.86 286.002 225.876 286.05C225.876 286.05 225.892 286.147 225.9 286.235C226.133 286.782 226.093 287.441 226.133 288.069C226.158 288.487 226.045 288.985 225.988 289.283C225.948 289.492 225.908 289.669 225.852 289.837C225.642 291.124 224.741 291.936 223.469 292.418C222.761 292.684 221.988 292.676 221.248 292.756C220.435 292.853 219.662 292.82 218.857 292.652C218.125 292.491 217.44 292.322 216.692 292.314C215.959 292.314 215.227 292.29 214.495 292.29C213.11 292.298 211.565 292.394 210.18 292.033C209.343 292.016 208.458 292 207.476 292.008C205.729 292.024 204.176 291.832 202.421 292.25L209.142 289.484C211.428 288.028 213.883 286.822 216.37 285.801C217.07 285.375 217.811 285.005 218.535 284.595C219.026 284.233 219.509 283.879 220.04 283.574C220.33 283.405 220.62 283.228 220.926 283.091C221.022 283.051 221.111 283.011 221.207 282.971C221.183 282.971 221.159 282.971 221.135 282.971L221.143 282.987ZM510.133 322.981C509.859 325.497 509.988 328.102 509.851 330.603C508.99 346.025 507.235 363.191 503.469 378.195C502.044 383.88 498.422 389.854 495.339 394.952C494.937 395.619 494.252 397.299 493.93 397.734C493.552 398.248 492.659 398.087 493.335 399.229C493.126 399.229 492.804 399.149 492.643 399.286C492.49 399.414 491.773 401.079 491.612 401.336C491.282 401.867 490.896 402.108 490.421 402.847C489.866 403.716 489.431 403.925 488.964 404.488C488.514 405.035 488.449 406.032 487.419 406.168L487.66 406.876C487.258 406.9 486.823 406.932 486.493 407.197C485.849 407.704 484.666 409.963 483.885 410.743C483.217 411.411 481.519 413.18 480.996 413.638C480.553 414.024 479.418 413.871 480.006 414.997C479.177 415.423 477.551 416.42 476.786 417.079C476.319 417.489 476.182 418.301 475.901 418.478C472.287 420.746 468.021 423.005 463.972 424.742C454.128 428.955 440.743 426.832 431.744 421.453C423.752 416.677 415.437 411.853 407.436 406.852C403.677 404.504 400.208 401.674 396.61 399.133C388.409 393.336 379.764 387.916 371.482 382.095C363.159 376.249 357.452 368.852 349.838 362.323C347.81 360.586 344.332 357.402 342.272 356.059C339.455 354.226 337.378 352.329 334.617 349.965C331.317 347.143 327.043 344.57 323.26 342.037C322.737 341.755 322.222 341.466 321.739 341.128C320.459 340.244 319.163 339.407 317.859 338.563C316.861 337.912 315.976 337.092 315.091 336.288C314.406 335.958 313.706 335.628 312.998 335.267C311.734 334.623 310.43 334.052 309.15 333.433C308.032 332.887 307.138 331.922 306.043 331.439C305.754 331.311 305.544 331.142 305.311 330.941C305.271 330.901 305.206 330.844 305.142 330.78C305.11 330.772 304.957 330.667 304.925 330.643C304.522 330.338 304.08 330.105 303.701 329.759C303.677 329.735 303.653 329.711 303.629 329.686C302.719 329.284 300.876 328.143 300.071 327.733C291.443 323.383 285.728 322.217 276.431 319.813C275.119 319.475 271.481 317.449 271.191 317.449C265.259 317.593 256.816 313.766 250.473 313.227C250.409 313.227 250.369 313.171 250.337 313.107C247.479 312.777 244.63 312.447 241.773 312.037C233.49 310.855 225.087 310.317 216.772 309.376C212.386 308.877 208.007 308.612 203.62 308.21C201.447 308.009 198.67 307.334 196.352 307.149C196.183 307.149 196.014 307.157 195.845 307.165C194.461 307.414 193.084 307.647 191.676 307.696C190.364 307.744 189.084 307.623 187.804 307.495C183.892 307.945 179.989 308.395 176.053 308.733C175.264 309.175 174.25 309.183 173.356 309.191C172.423 309.199 171.545 309.304 170.636 309.464C170.266 309.529 169.903 309.537 169.533 309.513C169.324 309.545 169.106 309.577 168.897 309.617C167.714 309.834 166.539 310.067 165.348 310.252C164.8 310.341 164.269 310.437 163.714 310.494C163.239 310.534 162.764 310.582 162.305 310.743C161.903 310.888 161.339 311.201 160.615 311.089C159.351 311.185 158.627 311.571 157.057 311.257C157.122 310.88 157.516 310.791 157.798 310.646C158.933 310.067 160.067 309.561 161.202 309.095C161.323 308.926 161.492 308.781 161.734 308.693C161.87 308.644 162.023 308.612 162.16 308.572C162.265 308.467 162.386 308.379 162.555 308.323C162.852 308.218 163.158 308.138 163.464 308.049C164.261 307.623 165.098 307.47 165.983 307.366C168.495 306.602 170.998 306.039 173.525 305.605C174.282 305.388 175.039 305.171 175.803 304.97C177.099 304.624 178.427 304.158 179.755 303.965C180.391 303.868 181.051 303.9 181.687 303.828C182.363 303.756 182.999 303.659 183.675 303.667C183.973 303.667 184.271 303.667 184.569 303.651C185.744 303.402 186.919 303.225 188.126 303.217C189.398 302.984 190.67 302.694 191.933 302.437C192.634 302.292 193.334 302.3 194.042 302.236C194.646 302.18 195.225 302.059 195.829 302.011C196.553 301.947 197.262 301.963 197.978 301.85C198.574 301.754 199.226 301.689 199.829 301.673C200.626 301.657 201.479 301.721 202.22 301.89C202.461 301.947 202.687 302.035 202.888 302.131C203.17 302.131 203.459 302.131 203.741 302.123C203.87 302.107 203.991 302.099 204.119 302.083C207.379 301.77 210.712 301.078 213.955 300.966C216.048 300.893 217.98 300.443 220.04 300.194C221.843 299.977 223.638 300.346 225.433 300.435C229.023 300.604 232.645 300.998 236.211 301.335C238.641 301.569 240.67 301.858 243.133 301.577C244.775 301.392 245.918 301.319 247.544 301.561C249.862 301.898 252.22 302.164 254.554 302.485C255.343 302.461 256.132 302.469 256.929 302.542C258.16 302.646 259.392 302.759 260.623 302.807C261.653 302.847 262.78 302.952 263.803 302.807C264.881 302.654 265.992 302.477 267.087 302.477C268.133 302.477 269.018 302.477 270.016 302.156C270.137 302.115 270.274 302.075 270.419 302.027L270.298 301.906C270.435 301.93 270.572 301.938 270.7 301.938C271.24 301.778 271.868 301.625 272.455 301.601C272.85 301.496 273.236 301.4 273.63 301.392C276.922 301.335 280.697 301.882 284.199 301.866C291.708 301.826 299.282 301.553 306.591 303.112C307.227 303.072 307.863 303.048 308.506 303.048C309.191 303.048 309.754 303.032 310.285 303.37C310.358 303.394 310.43 303.426 310.503 303.466C310.623 303.498 310.736 303.555 310.841 303.635C318.664 306.481 327.164 306.023 335.253 307.39C335.728 307.47 336.613 307.647 337.587 307.856C338.682 307.961 339.809 307.993 340.887 308.218C341.765 308.403 342.586 308.773 343.431 309.054C344.228 308.902 345.926 309.288 346.675 309.304C352.599 309.464 360.358 308.299 364.085 314.168C364.149 314.273 364.229 314.417 364.326 314.594C364.833 315.141 365.308 315.736 365.71 316.371C366.169 316.934 366.596 317.529 366.974 318.14C367.248 318.59 367.465 319.049 367.658 319.515C368.487 320.657 369.107 322.691 369.574 324.348C370.5 325.521 371.345 326.703 371.876 328.135C372.061 328.625 372.125 329.164 372.262 329.67C372.391 330.153 372.504 330.659 372.568 331.158C372.625 331.608 372.633 332.066 372.786 332.509C372.93 332.927 373.164 333.313 373.309 333.731C373.888 335.5 373.88 337.381 374.323 339.174C374.79 341.072 375.498 342.977 375.538 344.947C375.562 346.009 375.731 346.941 375.957 347.987C376.166 348.968 376.44 349.989 376.52 350.986C376.577 351.677 376.617 352.353 376.738 353.02L377.148 353.157L379.378 337.984C377.84 330.692 379.683 322.965 378.13 315.8V310.027L393.117 315.31C397.335 317.585 401.528 319.113 405.601 321.903C406.438 322.474 407.235 323.093 408.032 323.712C411.469 325.119 414.584 327.331 417.176 330.056C418.6 331.102 419.985 332.195 421.313 333.377C422.287 334.237 423.228 335.122 424.154 336.03C435.237 344.827 444.043 353.76 458.966 355.111C466.419 355.786 469.059 352.707 475.353 349.828C482.445 346.588 482.501 345.446 487.717 340.244C493.93 334.044 500.684 328.392 506.704 321.984C508.314 320.271 509.698 318.333 511.381 316.685C511.123 318.743 510.399 320.954 510.181 322.997L510.133 322.981Z" fill="black"/>
<path d="M117.571 304.535C118.336 302.589 119.116 299.976 119.865 297.934C119.986 297.596 120.115 297.267 120.235 296.929C120.461 295.868 120.678 294.806 120.903 293.737C121.032 293.126 121.177 292.539 121.354 291.944C121.386 291.831 121.418 291.735 121.443 291.654C121.435 291.598 121.435 291.493 121.443 291.3C121.555 289.475 122.489 288.036 122.891 286.299C122.964 286.002 123.012 285.696 123.06 285.399C123.06 285.262 123.069 285.133 123.06 284.997C123.02 283.356 122.964 281.7 123.028 280.06C123.189 275.935 124.509 272.003 124.847 267.927C124.904 267.259 124.936 266.592 124.968 265.924C125.29 264.96 125.588 263.898 125.588 262.467C125.588 262.443 125.604 262.427 125.604 262.403C125.813 261.478 125.733 260.497 125.692 260.151C124.984 259.428 123.72 259.669 122.972 260.192C122.183 260.738 121.716 261.695 121.37 262.628C121.249 263.207 121.121 263.786 120.992 264.357C120.606 266.045 120.131 267.709 119.615 269.366C119.076 271.111 118.448 272.799 117.772 274.472C117.796 274.52 117.829 274.56 117.861 274.608C115.277 285.375 112.677 295.626 110.013 306.336C108.242 313.444 106.278 318.502 103.027 324.982C101.964 327.089 100.29 330.522 98.5594 333.779C97.4406 337.775 96.362 342.012 94.5591 345.631C92.9734 348.823 91.5005 352.248 89.5929 355.295C89.5929 356.895 88.4258 357.884 87.637 359.396C87.4599 359.734 87.476 360.176 87.2908 360.53C86.7999 361.454 83.6608 365.475 85.6408 365.949C86.8079 366.23 87.9348 364.108 88.5465 363.497C88.6833 363.36 88.8121 363.247 88.9328 363.151C88.9811 363.062 89.0375 362.974 89.0858 362.886C89.7216 361.269 90.5748 359.685 91.3153 358.182C92.4261 355.898 93.9715 353.357 95.9354 351.363C96.5713 350.19 97.2716 349.04 98.0845 348.043C98.5835 347.005 99.0826 345.96 99.5655 344.915C99.5655 344.867 99.5494 344.835 99.5494 344.786L99.6058 344.826C99.8714 344.239 100.153 343.661 100.411 343.074C102.093 339.214 102.705 334.937 104.548 331.101C105.989 328.11 107.301 325.409 109.176 322.811C111.317 319.844 111.752 319.475 112.597 316.009C113.265 313.251 114.754 311.056 116.05 308.692C116.468 307.285 117.048 305.918 117.579 304.567L117.571 304.535Z" fill="black"/>
<path d="M564.997 328.818L559.974 323.656C559.644 322.731 560.699 323.229 561.012 322.522C561.809 320.713 560.361 320.922 559.684 320.246C558.767 319.33 557.68 316.829 556.843 315.687C554.903 313.042 552.118 310.533 550.364 307.864C547.088 302.895 538.821 290.713 537.791 285.423C537.357 283.212 537.485 283.903 536.632 281.901C535.183 278.524 534.145 274.463 532.753 270.99C531.706 268.401 528.165 259.42 526.764 257.747C526.362 257.273 525.806 257.337 525.645 257.08C524.889 255.801 525.484 255.504 523.995 253.735C523.738 253.429 521.717 247.367 521.275 246.233C520.905 245.276 520.333 242.47 519.673 242.148L518.369 242.47L518.305 243.266L521.846 255.271C523.432 264.799 526.225 275.34 530.024 284.369C530.499 285.503 532.093 289.234 532.72 289.99C533.058 290.4 533.445 290.279 533.775 290.681C534.491 291.542 535.409 294.726 536.101 296.004C538.797 300.949 542.822 305.781 545.977 310.606C546.717 310.895 547.458 311.723 547.748 312.431C548.19 313.524 548.979 314.481 549.696 315.414C550.509 316.475 551.161 317.609 551.861 318.751C551.957 318.912 552.062 319.08 552.167 319.241C555.491 322.787 558.839 326.269 562.711 329.212C562.888 329.324 563.073 329.445 563.258 329.541C563.403 329.598 563.556 329.638 563.717 329.67C563.886 329.678 564.047 329.686 564.216 329.67C564.272 329.654 564.321 329.646 564.361 329.638C564.385 329.63 564.401 329.614 564.417 329.606C564.49 329.565 564.554 329.525 564.618 329.485C564.715 329.397 564.804 329.276 564.908 329.179C564.924 329.155 564.94 329.123 564.956 329.099C564.981 329.027 564.997 328.954 565.013 328.882C565.013 328.866 565.013 328.858 565.013 328.842C565.013 328.834 565.013 328.826 565.013 328.818H564.997Z" fill="black"/>
</g>
<defs>
<clipPath id="clip0_527_3352">
<rect width="480" height="249" fill="white" transform="translate(85 200)"/>
</clipPath>
</defs>
</svg>
