<svg width="650" height="650" viewBox="0 0 650 650" fill="none" xmlns="http://www.w3.org/2000/svg">
<g clip-path="url(#clip0_527_3360)">
<path d="M523.751 326.441C523.666 325.581 523.348 324.675 523.037 323.869C522.719 323.041 522.184 322.305 521.865 321.484C521.477 320.485 521.089 319.447 520.748 318.432C520.74 318.401 520.717 318.363 520.709 318.332C518.257 315.257 514.43 310.796 513.6 309.657C513.204 309.123 513.057 308.364 512.606 307.798C512.226 307.326 511.535 307.032 511.318 306.737C511.225 306.613 511.225 305.839 510.984 305.382C510.969 305.351 510.946 305.32 510.93 305.289C510.534 304.716 510.138 304.135 509.75 303.539C509.424 303.043 509.114 302.547 508.803 302.044C506.584 299.186 503.984 296.955 501.663 293.795C499.948 291.464 499.188 290.496 497.154 288.327C495.687 286.763 494.174 285.043 492.816 283.463C492.342 283.076 491.877 282.658 491.395 282.278C491.302 282.201 491.178 282.154 491.085 282.077C491.046 282.046 490.829 281.829 490.837 281.829C490.782 281.775 490.728 281.721 490.712 281.705C490.658 281.651 490.612 281.589 490.565 281.535C489.828 281.109 489.354 280.203 488.764 279.629C487.926 278.816 487.181 277.957 486.397 277.089C484.969 275.501 483.402 274.03 481.935 272.473C481.143 271.637 480.514 270.661 479.855 269.724C479.249 268.856 478.551 268.074 477.977 267.191C477.48 266.625 476.991 266.045 476.44 265.541C476.137 265.262 475.873 264.953 475.571 264.681C475.252 264.403 474.942 264.139 474.639 263.845C474.104 263.318 473.693 262.652 473.211 262.071C472.676 261.413 472.171 260.716 471.597 260.089C471.03 259.469 470.379 258.919 469.804 258.299C468.64 257.029 467.499 255.751 466.467 254.373C465.629 253.257 464.612 252.282 463.828 251.12C463.394 250.469 462.866 249.896 462.439 249.245C462.004 248.587 461.64 247.875 461.213 247.209C460.786 246.542 460.344 245.892 459.878 245.249C459.847 245.249 459.823 245.249 459.792 245.249V245.133C458.481 243.328 457.045 241.593 455.702 239.82C455.687 239.796 455.671 239.781 455.656 239.758C455.609 239.758 455.57 239.765 455.524 239.773V239.595C455.12 239.076 454.709 238.565 454.274 238.062C453.933 237.829 453.669 237.488 453.436 237.124C452.093 235.63 450.689 234.174 449.377 232.655C448.353 231.47 447.351 230.293 446.28 229.162C445.225 228.047 444.069 226.994 443.091 225.817C442.144 224.678 441.228 223.563 440.18 222.517C439.039 221.379 437.891 220.248 436.758 219.102C436.595 218.931 436.432 218.761 436.269 218.59C436.253 218.583 436.23 218.575 436.222 218.567C436.207 218.552 436.176 218.513 436.145 218.459C435.958 218.265 435.78 218.071 435.593 217.878C435.531 217.847 435.477 217.808 435.454 217.8C435.236 217.661 435.066 217.537 434.879 217.359C434.732 217.219 434.6 217.096 434.468 216.987C434.375 216.925 434.266 216.855 434.096 216.763L434.134 216.708C433.863 216.491 433.614 216.306 433.374 216.143C433.079 215.942 432.792 215.748 432.582 215.446C432.489 215.306 432.248 214.888 432.458 215.237C432.419 215.175 432.396 215.128 432.357 215.074C431.628 214.578 431.03 213.843 430.363 213.184C429.579 212.41 428.888 211.55 428.112 210.768C427.747 210.396 427.32 210.102 426.963 209.722C426.567 209.296 426.179 208.87 425.76 208.46C425.007 207.716 424.355 206.895 423.61 206.152C422.501 205.044 421.453 203.859 420.382 202.713C419.722 202.008 419.179 201.203 418.527 200.49C417.821 199.723 417.107 198.988 416.447 198.174C415.197 196.625 413.707 195.324 412.403 193.837C411.208 192.474 409.982 191.072 408.701 189.794C407.033 188.129 405.325 186.495 403.61 184.884C403.261 184.597 402.912 184.303 402.555 184.024C402.376 183.885 402.159 183.614 401.934 183.311C401.29 182.707 400.645 182.103 400.001 181.499C399.9 181.406 399.807 181.313 399.706 181.22C399.419 181.182 399.14 181.174 398.884 181.034C398.379 180.763 396.54 178.85 396.02 178.695C395.477 178.533 394.227 178.602 394.142 178.525C394.072 178.463 394.173 178.084 394.056 177.929C393.816 177.611 392.263 177.069 391.736 176.813C389.927 175.946 387.778 174.8 385.845 173.878C385.496 173.708 385.108 173.63 384.743 173.599C384.479 173.599 384.215 173.591 383.944 173.568C383.672 173.568 383.478 173.584 383.439 173.56C383.431 173.56 383.424 173.545 383.416 173.522C382.252 173.398 381.095 173.158 380.117 172.972C376.555 172.298 373.016 171.516 369.462 170.826C365.651 170.091 361.926 168.999 358.123 168.255C356.749 167.984 355.383 167.736 354.009 167.488C352.744 167.256 352.131 167.349 350.889 167.349L350.827 167.403V167.349C350.827 167.349 350.788 167.349 350.765 167.349C349.911 167.349 349.174 167.248 348.406 167.031C346.543 167.093 344.704 167.225 342.926 167.504C339.473 168.038 336.097 168.851 332.589 168.991C331.743 169.022 330.905 169.084 330.074 169.153C329.096 169.634 328.025 170.067 327.001 170.238C325.821 170.439 324.533 170.416 323.252 170.346C322.538 170.315 321.84 170.493 321.118 170.493C320.388 170.493 319.698 170.455 318.976 170.369C318.355 170.292 317.719 170.269 317.098 170.253C317.028 170.253 316.135 170.184 316.159 170.176C315.802 170.16 315.468 170.168 315.103 170.114C314.443 170.021 313.854 170.145 313.194 170.145C312.472 170.145 311.797 169.92 311.114 169.742C309.802 169.409 308.832 169.285 307.629 169.029C307.032 168.898 306.512 168.681 306.007 168.542C305.782 168.48 305.572 168.371 305.363 168.255C303.345 168.209 301.335 168.077 299.294 167.883C297.78 167.744 296.283 167.697 294.785 167.426C294.684 167.411 294.591 167.395 294.49 167.388C294.303 167.434 294.117 167.473 293.923 167.504C292.821 167.697 291.672 167.744 290.563 167.852C290.058 167.899 289.561 168.038 289.057 168.061C288.785 168.077 288.529 168.038 288.281 167.984C287.769 168.015 287.187 168.015 286.62 168.015C286.224 168.061 285.828 168.108 285.433 168.131C285.021 168.239 284.602 168.348 284.191 168.433C284.167 168.503 284.136 168.565 284.067 168.58C283.911 168.611 283.733 168.604 283.547 168.58C282.507 168.782 281.482 168.983 280.442 169.192C280.434 169.192 277.726 169.363 278.89 169.192C278.021 169.316 276.911 169.37 275.84 169.486C275.7 169.68 275.553 169.827 275.405 169.897C274.784 170.207 273.682 169.974 273.061 170.176C272.914 170.245 272.774 170.315 272.627 170.393C272.021 170.803 271.866 171.446 271.494 171.702C271.036 172.019 270.291 171.702 270.399 172.391L270.112 172.159C269.258 172.879 268.475 173.653 267.854 174.335C261.94 180.91 262.786 191.568 263.329 199.909C263.345 199.979 263.345 200.041 263.345 200.095C263.368 200.467 263.391 200.839 263.414 201.195C263.445 201.644 263.469 202.086 263.5 202.535C263.733 206.268 263.958 210.071 263.896 213.85L264.214 213.695C264.416 214.323 263.965 214.966 263.849 215.516C263.849 215.554 263.849 215.601 263.849 215.639C263.865 215.81 263.888 215.98 263.903 216.143C264.09 216.747 264.532 217.444 264.454 218.203C264.315 218.226 264.214 218.203 264.128 218.164C264.167 218.513 264.206 218.854 264.237 219.202C264.338 219.357 264.408 219.489 264.416 219.559C264.501 220.287 264.524 221.015 264.516 221.758C264.881 225.089 265.269 228.411 265.743 231.726C265.859 232.532 265.952 233.337 266.045 234.143C266.232 234.809 266.418 235.467 266.364 235.537C266.302 235.521 266.239 235.513 266.185 235.513C266.208 235.777 266.239 236.032 266.263 236.296C266.294 236.288 266.317 236.28 266.348 236.265L266.596 237.326L266.34 237.295C266.364 237.597 266.395 237.907 266.418 238.209L266.612 238.302L266.573 239.084H266.48C266.534 239.851 266.589 240.617 266.635 241.384C266.682 241.539 266.721 241.702 266.744 241.872C266.783 242.151 266.845 243.739 266.845 244.715C266.938 246.155 267.047 247.588 267.171 249.021C267.171 249.021 267.171 249.036 267.171 249.044C267.225 249.462 267.256 249.888 267.295 250.307C267.543 251.182 267.598 251.716 267.683 252.708C267.792 253.358 267.877 254.001 267.993 254.652C268.156 255.534 268.413 256.402 268.544 257.293C268.607 257.734 268.669 258.176 268.715 258.617L268.738 258.687H268.731C268.785 259.105 268.832 259.531 268.87 259.957L268.979 260.112L268.886 260.081C268.995 261.088 269.103 262.087 269.251 263.086C269.507 264.867 269.662 266.734 269.662 268.531C269.662 269.507 269.747 270.49 269.763 271.474C269.778 272.272 270.004 273.046 269.709 273.782C269.678 274.386 269.196 274.92 268.583 274.951C268.436 275.013 268.281 275.06 268.11 275.099C267.52 275.23 266.193 274.99 265.541 275.075C264.509 275.207 262.545 275.834 261.443 275.85C261.047 275.85 260.263 275.122 259.371 275.679L258.991 275.184L258.866 275.664C257.182 274.812 255.064 275.447 253.193 275.153C248.8 274.471 244.617 273.433 240.077 273.046C236.173 272.713 232.06 272.876 228.187 272.566C217.329 271.691 207.178 268.608 196.786 265.882C196.374 265.913 195.986 265.913 195.598 265.828C195.024 265.789 194.651 265.681 194.069 265.595C193.681 265.533 193.317 265.495 192.952 265.409C192.781 265.409 192.618 265.417 192.447 265.409C191.749 265.394 191.508 265.262 191.027 264.999C190.546 264.844 190.111 264.627 189.63 264.395C189.327 264.248 189.017 264.108 188.73 263.938C189.087 264.147 188.505 263.829 188.435 263.791C188.318 263.729 188.225 263.659 188.117 263.597C186.991 262.939 185.796 262.389 184.818 261.971C184.376 261.777 183.972 261.576 183.569 261.305C183.468 261.235 183.018 261.003 182.878 260.848C182.761 260.793 182.637 260.731 182.521 260.677C182.296 260.569 182.079 260.46 181.861 260.336C181.357 260.05 180.821 259.81 180.317 259.515C179.797 259.206 179.354 258.78 178.865 258.431C177.74 257.618 176.63 256.766 175.482 255.991C175.427 255.953 175.373 255.922 175.319 255.883C170.243 253.18 165.121 251.189 159.967 248.316C159.191 247.882 158.57 247.278 158.074 246.852C157.786 246.736 157.499 246.62 157.212 246.488C157.08 246.457 156.948 246.411 156.816 246.364C156.157 246.264 155.264 246.109 154.822 245.853C154.488 245.659 154.309 245.272 154.139 244.924C153.409 244.544 152.695 244.126 151.935 243.801C151.034 243.413 150.033 243.026 149.071 242.616C148.605 242.414 148.147 242.221 147.666 242.043C147.092 241.833 146.649 241.547 146.199 241.183C145.516 240.873 144.919 240.517 144.321 240.013C143.723 239.502 143.134 239.03 142.606 238.441C142.241 238.031 141.861 237.628 141.48 237.225C137.654 234.553 133.494 231.029 129.327 229.015C128.954 228.837 128.457 228.977 128.201 228.829C128.124 228.783 127.371 227.745 126.998 227.489C124.841 226.026 121.954 224.399 119.346 223.129C119.261 223.098 119.183 223.067 119.098 223.036C118.787 222.928 118.321 222.711 118.135 222.641C118.197 222.664 117.809 222.54 117.809 222.54C117.856 222.556 117.227 222.331 117.437 222.385C117.312 222.354 117.025 222.277 117.134 222.3C117.243 222.324 116.164 221.99 116.342 222.052C115.768 221.859 115.248 221.735 114.713 221.433C114.891 221.534 114.681 221.448 114.604 221.417C114.65 221.417 114.697 221.417 114.736 221.41C114.565 221.386 114.394 221.363 114.224 221.34C114.053 221.301 113.89 221.231 113.719 221.193C113.222 221.069 112.765 220.86 112.276 220.72C112.276 220.728 111.872 220.643 111.802 220.62C111.569 220.55 111.344 220.496 111.119 220.41C110.483 220.17 109.846 219.923 109.225 219.675C108.628 219.435 108.03 219.28 107.394 219.133C107.099 219.063 106.804 218.97 106.509 218.892C106.393 218.861 106.276 218.823 106.16 218.799C106.307 218.838 107.006 218.9 105.811 218.745C105.717 218.73 105.283 218.676 105.291 218.676C105.151 218.652 105.011 218.629 104.872 218.598C104.887 218.598 104.763 218.567 104.716 218.559C104.553 218.536 104.088 218.466 104.189 218.482C103.599 218.381 103.017 218.25 102.419 218.18C101.759 218.102 101.1 218.04 100.432 217.994C96.9164 218.381 93.7111 218.861 90.2109 220.116C87.7972 220.976 87.5721 221.541 86.0432 223.315C84.8946 224.647 84.328 225.174 84.1185 227.071C84.1185 227.118 83.9167 227.342 83.6683 227.621C83.614 227.877 83.5597 228.14 83.5208 228.403C83.42 229.069 83.3191 229.72 83.1638 230.378C82.8689 231.664 82.7525 233.089 82.6982 234.406C82.6594 235.413 82.3877 236.551 82.3256 237.659C82.2868 238.348 82.1316 239.022 82.0851 239.711C82.054 240.207 82.0851 240.71 82.054 241.206C81.9764 242.67 81.9997 244.18 82.1006 245.667C82.3101 246.333 82.5197 247.007 82.7603 247.665C83.1638 248.781 83.5752 249.881 83.9322 251.011C84.5996 253.118 85.0886 255.31 85.9268 257.316C86.3614 258.361 86.7029 259.477 86.9823 260.584C87.153 261.243 87.3082 261.909 87.4712 262.567C87.5411 262.838 87.6264 263.094 87.7041 263.357C87.7506 263.527 87.9835 264.317 87.805 263.837C88.1852 264.836 88.5423 265.897 88.9148 266.951C89.2175 267.81 89.4813 268.662 89.5434 269.491C89.6909 269.894 89.7763 270.359 89.8306 270.816C91.6389 274.154 93.6723 277.593 95.5971 280.683C97.6537 283.99 98.5152 285.787 101.814 287.777C102.489 288.188 102.823 289.288 103.203 289.954C103.568 290.124 103.909 290.333 104.235 290.597C105.197 291.108 106.043 291.991 106.796 292.734C107.697 293.617 108.542 294.554 109.451 295.429C110.351 296.297 111.15 297.304 111.965 298.249C112.858 299.294 113.789 300.301 114.713 301.324C115.465 302.168 116.172 303.043 116.855 303.949C116.979 304.027 117.064 304.089 117.103 304.135C117.157 304.205 117.181 304.305 117.204 304.398C117.46 304.747 117.701 305.095 117.949 305.444C118.104 305.591 118.267 305.73 118.415 305.878C118.601 306.064 118.787 306.242 118.973 306.42C118.997 306.443 119.02 306.459 119.035 306.482C119.369 306.807 119.703 307.14 120.029 307.465H120.068L120.06 307.496C120.246 307.682 120.432 307.86 120.611 308.046C120.766 308.209 120.906 308.372 121.046 308.526C121.216 308.728 121.395 308.914 121.604 309.084C121.961 309.371 122.318 309.68 122.629 310.021C123.669 311.16 124.717 312.275 125.888 313.29C127.091 314.335 128.139 315.644 129.008 316.845C129.885 318.061 130.724 319.292 131.57 320.531C132.998 321.91 134.418 323.258 135.613 324.559C135.9 324.869 136.358 325.914 136.63 326.185C137.158 326.704 137.941 326.813 138.298 327.138C141.302 329.887 144.639 332.629 147.526 335.371C148.59 336.386 149.94 337.021 150.941 337.896C151.158 338.082 151.096 338.523 151.314 338.717C151.678 339.042 153.347 339.608 153.945 340.003C155.163 340.816 156.149 342.063 157.445 342.69L157.429 343.519L159.571 343.759L159.556 344.588C159.991 344.936 160.588 344.99 161.046 345.207C161.628 345.486 162.233 345.85 162.932 346.23C163.134 346.338 163.382 346.361 163.607 346.384L163.374 346.841C170.01 350.203 176.064 354.3 182.994 357.599C186.991 359.505 191.524 361.596 195.777 363.292C196.863 363.726 198.641 364.283 200.232 364.88C201.07 364.849 201.892 364.996 202.661 365.445C203.484 365.6 204.244 365.894 205.036 366.336C205.571 366.468 206.06 366.708 206.51 367.041C208.125 367.614 209.607 368.443 211.151 369.178C212.285 369.72 213.402 370.294 214.551 370.813H214.768L214.737 370.898C215.086 371.053 215.428 371.2 215.785 371.339C216.165 371.486 216.53 371.649 216.902 371.796C217.259 371.889 217.609 371.99 217.958 372.083C218.167 372.137 218.408 372.183 218.61 372.269C218.517 372.269 218.431 372.269 218.338 372.269C218.579 372.269 218.812 372.307 219.037 372.377C220.845 372.795 222.63 373.33 224.454 373.663C224.594 373.663 224.726 373.694 224.85 373.74C225.028 373.794 224.951 373.794 224.617 373.74C224.826 373.856 225.253 373.849 225.509 373.911C225.75 373.965 225.991 374.034 226.223 374.112C226.503 374.205 227.419 374.584 226.728 374.298C227.131 374.46 227.294 374.53 227.349 374.553C226.285 374.112 227.52 374.623 227.349 374.553C227.411 374.577 227.473 374.608 227.551 374.639C227.225 374.507 227.248 374.515 227.644 374.677C227.892 374.778 228.125 374.902 228.365 375.034C228.792 375.119 229.219 375.258 229.584 375.452C229.7 375.514 230.104 375.8 230.244 375.901C230.251 375.901 230.259 375.901 230.267 375.909C230.22 375.878 230.182 375.847 230.143 375.808C230.205 375.855 230.244 375.886 230.275 375.909C230.655 376.079 230.678 376.079 230.329 375.901C230.484 375.963 230.632 376.033 230.787 376.095C230.95 376.141 231.105 376.203 231.253 376.296C231.253 376.296 231.26 376.296 231.268 376.304C231.516 376.412 231.749 376.544 231.974 376.699C233.014 376.97 234.054 377.256 235.079 377.551C236.189 377.868 237.267 378.139 238.408 378.341C239.479 378.527 240.574 378.527 241.652 378.728C242.708 378.922 243.763 379.138 244.796 379.425C245.696 379.673 246.619 379.75 247.528 379.983C249.724 380.548 251.881 381.261 254.039 381.942C254.233 381.927 254.404 381.934 254.512 381.973L254.481 382.082C254.637 382.128 254.8 382.182 254.955 382.229L254.978 382.206V382.237C255.545 382.415 256.111 382.585 256.678 382.755L256.88 382.678L256.926 382.825C257.656 383.042 258.385 383.243 259.123 383.429C260.116 383.677 261.102 383.747 262.126 383.84C262.995 383.917 263.849 384.064 264.718 384.142C265.23 384.188 265.774 384.304 266.27 384.328C266.643 384.343 266.984 384.304 267.349 384.351C267.644 384.39 267.9 384.459 268.141 384.552C268.405 384.514 268.684 384.545 268.925 384.638C269.049 384.676 269.165 384.707 269.22 384.723C269.173 384.699 269.134 384.668 269.08 384.653C269.266 384.73 269.282 384.738 269.22 384.723C269.631 384.924 269.887 385.211 270.066 385.613C270.415 386.256 270.368 387.162 270.322 387.852C270.252 388.882 270.213 389.92 270.159 390.958C270.159 391.066 270.159 391.174 270.151 391.283C270.213 391.531 270.306 391.786 270.469 392.034C270.291 392.073 270.182 392.143 270.12 392.22C270.12 392.483 270.112 392.747 270.112 393.01C270.128 393.149 270.135 393.297 270.112 393.444C270.112 394.753 270.135 396.069 270.058 397.37C269.996 398.401 269.747 399.376 269.592 400.391C269.895 403.272 270.221 406.153 270.57 409.019C270.648 409.639 270.865 410.243 270.896 410.816C270.896 410.831 270.904 410.839 270.912 410.855C271.191 411.9 271.564 412.861 271.695 413.953C271.812 414.913 271.905 415.866 271.998 416.826C272.177 418.708 272.619 420.59 273.038 422.426C273.108 422.743 273.201 423.053 273.294 423.371C273.294 423.371 273.302 423.378 273.31 423.386H273.302C273.69 424.687 274.226 425.95 274.621 427.243C274.87 428.057 275.196 428.816 275.413 429.644C275.654 430.558 275.832 431.449 275.972 432.386C276.018 432.711 276.073 433.052 276.143 433.401C276.29 433.78 276.437 434.16 276.562 434.539C276.779 435.19 276.88 435.856 277.051 436.514C277.066 436.545 277.074 436.592 277.097 436.623C277.431 437.312 277.765 437.939 278.145 438.605C278.525 439.271 278.789 439.984 279.123 440.673C279.123 440.689 279.138 440.697 279.138 440.712H279.177L279.162 440.766C279.86 442.191 280.652 443.624 281.474 444.972C282.25 446.25 283.19 447.365 283.818 448.736C284.524 450.269 285.386 451.718 286.131 453.228C286.573 454.119 287.101 454.971 287.598 455.83C287.893 456.342 288.289 456.814 288.591 457.318C288.591 457.318 288.599 457.325 288.607 457.333C288.77 457.511 288.863 457.712 288.917 457.922C296.251 466.271 305.386 471.158 315.724 475.797C316.112 475.975 316.376 476.394 316.842 476.58C318.2 477.122 324.191 478.291 324.711 478.942C325.029 479.345 325.386 479.693 325.775 479.987C325.79 479.987 325.813 479.995 325.829 480.003C326.372 480.15 326.915 480.328 327.466 480.429C327.878 480.499 328.343 480.568 328.724 480.731C329.174 480.917 329.5 481.103 330.004 481.196C330.361 481.265 330.711 481.351 331.068 481.405C331.844 481.529 332.581 481.722 333.318 481.939C334.583 481.978 335.81 482.055 337.005 482.551C337.106 482.59 337.199 482.621 337.292 482.659C337.463 482.659 337.641 482.675 337.812 482.683C339.038 482.706 340.28 483.039 341.506 482.992C342.663 482.946 343.796 482.807 344.96 482.791C346.264 482.776 347.568 482.768 348.871 482.768C350.525 482.768 352.178 482.907 353.823 482.9C354.622 482.845 355.437 482.807 356.244 482.745C357.044 482.636 357.843 482.559 358.643 482.497C358.868 482.466 359.093 482.435 359.302 482.388C359.814 482.288 359.97 481.815 360.288 481.738C361.103 481.544 362.236 481.436 363.493 481.374C363.579 481.351 363.656 481.327 363.742 481.296C364.386 481.079 364.999 480.785 365.612 480.499C366.163 480.243 366.66 479.925 367.288 479.894C367.343 479.894 367.933 479.894 368.227 479.995C368.266 479.98 368.297 479.964 368.336 479.949C368.569 479.848 368.833 479.763 369.073 479.685C369.524 479.546 369.904 479.476 370.339 479.461C370.633 479.368 370.944 479.283 371.278 479.228C373.777 478.771 376.338 478.895 378.798 478.183C383.501 476.812 388.197 475.883 393.001 474.845C398.333 473.698 403.556 472.591 408.29 469.694C410.51 468.331 413.024 466.712 415.64 465.775C415.904 465.465 416.23 465.024 416.757 465.055L416.284 464.582C417.223 464.544 418.185 463.924 418.962 463.397C420.444 462.391 421.926 461.322 423.362 460.206C424.224 459.099 425.132 458.03 426.117 457.023C426.56 456.566 426.986 456.086 427.452 455.652C427.615 455.505 427.794 455.358 427.98 455.211C428.329 454.746 428.702 454.297 429.113 453.894C429.509 453.515 430.215 452.918 430.456 452.639C430.72 452.337 430.813 452.167 431.03 451.888C431.278 451.578 431.55 451.315 431.876 451.09C432.093 450.936 432.14 450.912 432.373 450.75C433.343 449.518 434.375 448.318 435.415 447.125C435.904 446.358 436.47 445.653 437.076 444.98C437.953 444.011 439.016 442.679 439.947 441.494C440.041 441.378 440.141 441.262 440.235 441.146C440.863 440.185 441.368 439.357 442.315 438.474C443.122 437.188 443.789 435.755 444.814 434.624C445.24 434.16 445.768 433.656 446.133 433.238C446.374 432.967 446.599 432.673 446.824 432.378C446.839 432.355 446.839 432.355 446.855 432.34C446.901 432.231 447.08 431.898 447.064 431.929C447.165 431.797 447.266 431.666 447.367 431.542C447.243 431.72 447.266 431.689 447.437 431.457C447.522 431.348 447.6 431.232 447.701 431.139C447.848 430.992 448.065 430.814 448.252 430.705C448.236 430.713 448.516 430.574 448.64 430.519C448.648 430.519 448.655 430.512 448.663 430.504C448.795 430.411 448.904 430.341 449.02 430.279C449.191 430.171 449.377 430.101 449.571 430.055C449.827 429.815 450.083 429.582 450.301 429.319C453.126 425.888 456.502 422.147 459.109 418.646C459.684 417.879 460.103 416.036 461.174 415.812C461.236 415.703 461.306 415.595 461.368 415.494C461.562 415.176 461.81 414.913 462.09 414.665C462.229 414.541 462.377 414.433 462.524 414.317C462.811 413.767 463.184 413.194 463.673 412.791C464.333 411.97 465.109 411.257 465.823 410.483C466.614 409.608 467.29 408.671 467.988 407.733C469.331 405.929 470.122 403.768 471.434 401.956C472.117 401.011 472.932 400.252 473.77 399.539C474.531 398.37 475.237 397.301 475.788 396.147C476.316 395.024 477.348 393.901 478.45 392.816C478.535 392.692 478.621 392.568 478.706 392.445C479.381 391.414 480.204 390.439 481.058 389.556C481.624 388.959 482.09 388.293 482.594 387.658C482.734 387.348 482.874 387.046 483.014 386.736C483.627 385.389 484.589 384.281 485.598 383.228C486.537 382.252 487.228 380.982 488.237 380.083C488.966 379.123 489.828 378.271 490.674 377.404C490.705 377.373 490.728 377.334 490.759 377.303C490.759 377.272 490.759 377.249 490.759 377.21L490.813 377.241C491.38 376.621 491.807 375.886 492.265 375.181C492.521 375.041 492.668 374.739 492.769 374.445C493.607 373.376 494.189 372.075 494.958 370.944C495.555 370.061 496.137 369.054 496.937 368.319C497.364 367.691 497.86 367.126 498.318 366.529C498.706 366.018 498.916 365.391 499.226 364.833C499.871 363.695 500.716 362.378 501.795 361.58C502.377 360.86 503.014 360.233 503.689 359.59C503.751 359.288 503.906 359.009 504.318 358.924L504.333 358.993C504.574 358.777 504.822 358.568 505.063 358.351C505.435 358.025 505.746 357.607 506.141 357.274C506.646 356.856 507.15 356.407 507.67 355.957C507.686 355.934 507.694 355.911 507.709 355.895C510.612 352.952 513.476 349.986 515.982 346.779C516.099 346.57 516.208 346.354 516.324 346.144C516.332 346.113 516.34 346.075 516.347 346.067C516.433 345.695 516.619 345.447 516.766 345.091C517.053 344.386 517.24 343.619 517.535 342.922C518.148 341.505 518.808 340.111 519.498 338.717C519.537 338.531 519.56 338.368 519.537 338.268L519.576 338.554C519.801 338.105 520.01 337.664 520.243 337.214C521.345 335.061 522.463 332.908 523.627 330.778C523.79 330.244 523.938 329.709 524.007 329.175C524.124 328.276 523.875 327.308 523.782 326.41L523.751 326.441ZM270.741 198.848C270.764 198.283 270.865 197.717 270.981 197.16C270.756 195.223 272.371 192.087 272.611 190.336C272.906 189.926 273.201 189.492 273.488 189.051C273.605 188.849 273.737 188.656 273.876 188.47C275.009 186.75 276.189 184.984 277.734 183.753C278.339 183.265 279.48 182.916 279.806 182.56C280.333 181.979 279.852 181.367 280.023 181.135C280.365 180.67 289.949 178.765 291.261 178.564C293.551 178.215 295.809 178.246 298.083 178.029C300.272 177.82 303.461 177.046 305.51 177.077C306.147 177.084 306.954 177.534 307.753 177.704C308.118 177.619 308.491 177.541 308.855 177.487C310.617 177.239 312.394 177.921 314.133 178.022C315.445 178.099 316.717 177.882 318.021 177.836C318.44 177.82 318.743 177.82 319.131 177.82C319.682 177.82 321.157 177.797 319.55 177.967C319.798 177.944 320.024 177.967 320.241 178.045C320.241 178.045 320.249 178.045 320.256 178.045C322.887 177.867 325.565 178.176 328.196 178.711C328.848 178.703 329.492 178.711 330.059 178.672C334.428 178.424 338.751 178.037 343.097 177.859C343.47 177.797 343.834 177.719 344.215 177.658C347.699 177.1 350.959 176.635 354.452 177.487C355.476 177.735 356.446 178.153 357.378 178.688C359.667 179.028 362.135 179.826 364.331 180.361C367.25 181.073 370.424 181.639 373.295 182.568C376.136 183.49 377.851 185.046 380.35 186.448C384.277 188.64 387.498 190.274 391.115 193.279C393.792 195.502 396.299 197.996 399.008 200.358C405.706 206.214 413.079 211.271 419.598 217.56C420.18 218.118 420.622 218.668 421.111 219.133C423.727 221.572 426.645 223.834 429.392 226.126C430.161 226.514 430.883 226.986 431.41 227.606C431.651 227.884 431.891 228.132 432.148 228.388C432.163 228.388 432.171 228.388 432.186 228.388L432.171 228.411C432.171 228.411 432.225 228.465 432.256 228.496C432.543 228.767 432.815 228.837 433.172 229.023C433.871 229.387 434.406 230.045 434.879 230.665C435.05 230.89 435.221 231.122 435.384 231.347C435.888 231.788 436.37 232.237 436.812 232.671C441.546 237.349 446.94 241.214 451.589 246.171C452.078 246.69 452.365 247.518 452.877 247.968C453.413 248.432 454.01 248.409 454.251 248.61C454.43 248.758 454.662 249.571 454.957 249.912C455.113 250.09 455.283 250.268 455.439 250.454C455.997 250.818 456.572 251.174 457.107 251.654C457.433 251.956 457.581 252.343 457.604 252.746C458.496 253.629 459.435 254.473 460.429 255.263L462.641 258.276C461.321 257.548 459.761 257.091 458.434 256.425C458.139 256.278 457.084 255.643 456.882 255.449C456.3 255.294 455.764 255 455.237 254.683C454.67 254.613 454.15 254.373 453.591 254.04C454.049 254.318 453.607 254.102 453.506 254.04C453.172 253.807 452.831 253.544 452.52 253.288C452.427 253.211 452.342 253.126 452.249 253.041C452.218 253.048 452.202 253.056 452.171 253.064L452.202 253.002C451.892 252.708 451.589 252.405 451.255 252.134C451.147 252.041 450.774 251.778 450.549 251.608C450.332 251.484 450.068 251.329 449.998 251.282C449.711 251.081 449.478 250.794 449.191 250.601C449.222 250.616 449.261 250.624 449.268 250.616C449.199 250.562 449.121 250.516 449.051 250.461C448.671 250.268 448.298 250.198 447.934 249.873C447.84 249.788 447.74 249.71 447.646 249.625C447.546 249.532 447.476 249.47 447.414 249.416C447.041 249.083 447.359 249.416 447.414 249.416C447.437 249.416 447.414 249.362 447.251 249.16C447.251 249.16 447.235 249.145 447.235 249.137C447.126 249.036 447.018 248.928 446.901 248.827C446.474 248.455 446.032 248.161 445.543 247.875C444.612 247.332 443.789 246.628 442.897 246.047C442.47 245.768 442.035 245.567 441.639 245.264C441.275 244.993 441.034 244.606 440.739 244.281H440.506L440.623 244.165C440.568 244.11 440.514 244.049 440.452 244.002C440.079 243.708 439.606 243.584 439.233 243.274C436.952 242.058 434.802 240.238 432.737 238.859C431.954 238.34 430.471 237.899 429.711 237.372C429.074 236.931 429.222 236.133 428.942 235.947C428.64 235.754 427.343 235.544 426.676 235.227C419.435 231.811 412.14 227.288 404.821 223.981C389.19 216.925 372.046 211.535 355.585 207.112C346.9 204.781 340.008 204.239 331.238 203.333C329.453 203.147 328.103 202.837 326.24 202.821C323.974 202.806 321.312 202.604 318.658 202.504C316.842 202.752 315.056 202.899 313.489 203.108C311.339 203.394 309.065 203.309 306.791 203.271C306.481 203.394 306.162 203.495 305.844 203.557C305.107 203.704 304.028 203.743 303.578 203.813C302.973 203.898 302.398 203.921 301.739 204.03C301.544 204.061 301.125 204.115 300.838 204.184C300.644 204.231 300.73 204.254 300.481 204.316C300.481 204.316 299.814 204.432 300.14 204.386C299.596 204.471 299.069 204.618 298.518 204.696C298.471 204.711 298.432 204.734 298.386 204.75C297.905 204.812 297.819 204.82 298.13 204.789C297.951 204.82 297.773 204.851 297.586 204.866C297.431 204.897 297.284 204.928 297.121 204.951C297.066 204.982 297.012 205.005 296.958 205.036C294.536 206.462 292.612 208.739 290.151 210.094C289.872 210.249 289.678 210.357 289.585 210.396C289.329 210.899 289.104 211.504 288.894 211.906C288.389 212.867 288.025 213.99 287.404 214.88C287.187 215.19 286.55 215.957 285.953 216.437C285.145 218.575 283.826 221.03 283.399 223.028C281.467 232.059 283.05 245.443 283.508 254.814C283.531 255.279 283.531 255.767 283.531 256.255C283.733 257.207 283.935 258.168 284.16 259.113C284.493 260.522 284.866 261.924 285.231 263.334C285.588 264.712 286.069 266.052 286.333 267.462C286.426 267.958 286.48 268.453 286.535 268.957C286.667 269.445 286.752 269.956 286.83 270.444C286.915 271.001 286.993 271.559 287.016 272.117C287.016 272.202 287.016 272.279 287.016 272.365C287.109 273.147 287.093 273.906 286.744 274.688C286.604 274.998 286.178 275.246 285.828 275.254C285.735 275.346 285.634 275.439 285.518 275.525C285.378 275.664 285.223 275.788 285.037 275.896C284.773 276.051 284.501 276.16 284.206 276.198C283.997 276.26 283.787 276.307 283.547 276.307C283.485 276.307 283.415 276.307 283.353 276.299C283.166 276.299 282.98 276.268 282.794 276.229C282.755 276.214 282.724 276.198 282.693 276.191C282.685 276.191 282.677 276.191 282.67 276.191C282.25 276.144 282.095 276.059 281.723 275.935C282.018 276.059 282.072 276.09 281.901 276.02C281.762 275.966 281.63 275.904 281.49 275.85C281.234 275.726 280.978 275.594 280.776 275.385C280.574 275.176 280.419 274.92 280.318 274.649C280.287 274.587 280.256 274.533 280.233 274.471C280.225 274.456 280.217 274.448 280.233 274.456C280.233 274.44 280.225 274.417 280.217 274.402C280.178 274.355 280.147 274.316 280.093 274.254C280.085 274.231 280.077 274.208 280.07 274.185C280 274.092 279.938 273.991 279.891 273.898C279.736 273.674 279.573 273.24 279.651 272.976C279.651 272.969 279.651 272.969 279.651 272.961C279.635 272.876 279.635 272.798 279.635 272.713C279.619 272.612 279.619 272.504 279.619 272.396C279.573 272.233 279.534 272.063 279.48 271.884C279.317 271.373 279.084 270.924 278.991 270.39C278.82 269.452 278.634 268.508 278.448 267.57C278.261 266.656 278.052 265.743 277.881 264.829C277.796 264.364 277.734 263.915 277.633 263.45C277.516 262.939 277.578 262.428 277.485 261.909C277.322 261.01 277.012 260.151 276.818 259.26C276.616 258.338 276.5 257.386 276.352 256.456C276.29 256.092 276.306 255.72 276.243 255.372C276.174 254.946 275.956 254.543 275.871 254.117C275.654 253.072 275.654 251.987 275.529 250.934C275.141 247.689 274.8 244.451 274.396 241.214C274.187 239.556 274.148 237.876 273.83 236.234C273.504 234.545 273.612 232.81 273.364 231.122C273.1 229.341 273.023 227.482 272.898 225.677C272.829 224.624 272.658 223.594 272.658 222.533C272.658 221.588 272.572 220.705 272.433 219.768C272.309 218.9 272.301 218.025 272.161 217.158C272.029 216.321 271.858 215.477 271.835 214.633C271.812 213.765 271.501 212.983 271.408 212.123C271.331 211.341 271.315 210.597 271.284 209.815C271.245 208.863 271.012 207.918 271.012 206.965C271.012 206.113 270.943 205.277 270.896 204.425C270.849 203.48 270.873 202.527 270.873 201.574C270.873 200.668 270.749 199.723 270.78 198.825L270.741 198.848ZM403.874 241.779C403.804 241.206 404.487 239.216 404.891 238.89C405.24 238.604 406.598 238.325 407.048 238.093C408.282 237.457 407.863 236.908 409.943 236.822C418.038 236.513 419.528 240.478 425.597 243.623C428.321 245.032 431.208 246.178 434.002 247.704C434.08 247.743 434.111 248.006 434.259 248.084C435.966 249.021 438.209 249.424 439.559 251.05C438.45 252.374 436.587 252.196 434.988 252.661C430.184 254.071 425.426 255.96 420.731 257.788C419.846 258.842 418.752 259.81 417.417 260.127C417.13 260.259 416.843 260.352 416.54 260.398C416.137 260.553 415.702 260.569 415.275 260.53C414.856 260.491 414.305 260.36 414.025 260.321C413.707 260.274 413.451 260.29 413.148 260.127C412.916 260.003 412.706 259.841 412.512 259.663C412.279 259.446 412.124 259.299 411.922 259.128C411.814 259.074 411.72 259.004 411.627 258.927C411.053 258.671 410.649 258.121 410.486 257.509C410.455 257.448 410.44 257.409 410.417 257.362C410.029 256.967 409.679 256.503 409.369 255.96C408.352 254.164 407.405 252.212 406.544 250.345C406.521 250.291 406.49 250.229 406.458 250.175C405.822 249.16 405.279 248.208 404.767 247.301C404.216 246.333 403.781 244.32 403.89 243.212C403.921 242.918 404.27 242.639 404.262 242.492C404.262 242.329 403.913 242.066 403.874 241.764V241.779ZM368.026 257.068C368.002 257.014 367.971 256.936 367.933 256.843C367.801 256.379 367.855 255.813 367.87 255.31C367.808 255.116 367.77 254.907 367.754 254.683C367.545 254.148 367.568 253.529 367.754 252.986C367.77 252.669 367.808 252.359 367.894 252.065L367.708 252.127C367.832 250.369 367.42 248.649 367.312 246.922C367.25 246 366.939 241.384 367.04 240.919C367.133 240.486 367.537 240.122 367.599 239.796C367.653 239.533 367.001 238.883 367.638 238.348L370.936 236.226C372.636 235.165 374.273 233.283 376.299 232.338C377.774 231.649 379.597 231.409 381.111 230.82L388.864 235.18C390.284 236.528 391.146 237.705 392.613 238.921C392.783 239.068 392.861 239.432 393.164 239.673C393.948 240.292 394.53 239.928 394.988 241.175C395.314 242.074 395.601 244.389 395.725 245.45C396.059 248.293 396.144 254.667 395.523 257.463C395.112 259.33 394.212 260.127 392.473 259.833C391.759 260.499 390.517 260.491 389.609 260.6C388.228 260.755 386.901 260.832 385.511 260.832C383.09 260.832 380.653 260.762 378.255 260.499C377.564 260.422 376.966 260.546 376.276 260.569C375.701 260.584 375.166 260.499 374.599 260.445C373.924 260.375 373.21 260.429 372.527 260.437C371.914 260.437 371.34 260.654 370.727 260.646C369.337 260.631 368.189 259.508 368.142 258.137C368.142 257.99 368.165 257.804 368.15 257.664C368.065 257.486 368.026 257.293 368.01 257.091L368.026 257.068ZM358.115 258.052C358.177 258.718 358.363 259.918 358.355 260.065C358.355 260.158 357.882 261.762 357.835 261.847C357.735 262.056 357.44 262.311 357.129 262.42C357.013 262.528 356.881 262.629 356.741 262.73L356.78 262.807L356.578 262.838C356.578 262.838 356.555 262.854 356.547 262.861C355.802 263.272 354.987 263.527 354.133 263.574C353.295 263.62 352.504 263.76 351.696 263.961C351.51 264.008 351.308 264 351.114 264C351.021 264 350.975 264 350.936 263.992C350.897 264.008 350.843 264.023 350.75 264.046C350.416 264.139 350.005 264.093 349.648 264.07C348.064 264.395 344.486 264.736 343.827 264.712C341.716 264.627 336.399 262.807 334.77 261.638C334.568 261.49 332.868 259.91 332.806 259.794C332.309 258.803 331.913 255.798 331.634 254.512C330.842 250.841 330.051 247.108 329.655 243.344C329.632 243.289 329.601 243.235 329.577 243.181C328.786 241.361 328.429 239.417 328.204 237.45C328.095 236.954 327.994 236.458 327.878 235.963C327.66 234.987 327.373 233.887 327.466 232.849C327.552 231.865 327.234 231.339 327.42 230.262C327.451 230.076 327.583 229.604 327.645 229.255C327.66 229.139 327.715 228.822 327.738 228.744C327.761 228.667 327.839 228.481 327.886 228.365C328.064 227.915 328.072 227.389 328.312 226.978C328.382 226.893 328.437 226.823 328.475 226.777C328.491 226.754 328.499 226.73 328.514 226.715C328.499 226.73 328.491 226.738 328.468 226.761C328.32 226.932 328.359 226.87 328.584 226.591C328.716 226.343 328.825 226.095 328.902 225.979C329.05 225.755 329.213 225.538 329.414 225.36C329.484 225.096 329.608 224.848 329.818 224.663C330.074 224.252 330.493 223.919 330.951 223.811C331.96 222.773 333.962 221.379 335.072 221.1C336.818 220.666 342.655 219.853 344.269 220.101C346.155 220.387 347.63 222.2 349.011 223.315C351.689 225.476 354.723 227.761 355.701 231.478C356.167 233.244 356.446 235.575 356.664 237.527C357.09 238.72 357.409 239.951 357.618 241.191C358.425 246.016 358.433 250.988 358.612 255.217C358.658 256.232 358.425 257.107 358.223 258.075C358.386 257.277 358.301 257.556 358.107 258.075L358.115 258.052ZM293.783 248.858C293.768 248.184 293.589 247.03 293.783 246.349C293.721 245.892 293.659 245.427 293.551 244.97C293.256 243.677 293.52 242.592 293.853 241.345C294.008 240.765 294.164 240.176 294.296 239.587C294.296 239.518 294.311 239.456 294.334 239.401C294.428 238.96 294.513 238.511 294.567 238.062C294.629 237.55 294.606 237.039 294.738 236.528C294.738 236.513 294.746 236.489 294.754 236.474C294.754 236.443 294.769 236.412 294.777 236.381C294.847 236.048 294.917 235.637 294.971 235.374C295.421 233.244 295.856 230.866 296.911 228.868C296.989 228.729 297.051 228.582 297.128 228.442C297.152 228.396 297.175 228.349 297.198 228.303C297.641 227.412 298.021 226.514 298.432 225.6C298.712 224.98 299.076 224.384 299.534 223.88C299.628 223.601 299.348 223.199 299.534 222.928C299.659 222.757 302.763 220.658 302.957 220.573C303.19 220.465 303.423 220.426 303.656 220.426C304.113 220.046 304.571 219.682 305.052 219.334C306.124 218.288 307.777 218.056 309.298 218.335C310.082 218.257 310.858 218.327 311.37 218.505C312.775 219.001 313.101 219.923 314.071 220.682C314.731 221.2 315.111 221.038 315.289 221.526C315.476 221.611 315.654 221.712 315.833 221.843C316.096 222.045 316.368 222.262 316.616 222.486C316.873 222.602 317.09 222.78 317.268 222.997C318.006 223.625 318.223 224.585 318.588 225.476C319.007 226.498 319.31 227.397 319.434 228.504C319.449 228.659 319.465 228.814 319.48 228.969C320.512 232.454 320.901 236.071 321.133 239.688C321.537 245.822 321.972 251.832 322.22 257.951C322.398 258.625 322.577 259.283 322.818 259.949C323.089 260.7 323.128 261.444 322.949 262.149C322.74 262.954 321.948 263.287 321.188 263.342C321.017 263.535 320.745 263.628 320.629 263.427C320.249 263.45 319.884 263.396 319.542 263.303L319.046 263.527C318.96 263.38 318.937 263.272 318.867 263.194C317.975 263.218 317.074 263.264 316.174 263.264C315.119 263.264 314.11 263.527 313.077 263.527C310.819 263.527 308.568 263.442 306.31 263.442C305.79 263.442 305.293 263.512 304.773 263.527C304.222 263.551 303.679 263.496 303.135 263.62C301.933 263.891 300.784 264.093 299.558 264.24C298.199 264.403 294.435 265.634 294.102 263.434C294.04 263.241 294.008 263.055 294.016 262.854C293.993 262.761 293.985 262.668 293.985 262.583C294.001 262.071 294.032 261.599 294.203 261.111C294.265 260.933 294.342 260.755 294.428 260.584C293.993 256.712 293.884 252.638 293.783 248.874V248.858ZM489.967 370.441C489.921 370.549 489.89 370.658 489.835 370.758C489.773 370.882 489.688 370.967 489.603 371.068C489.525 371.153 489.463 371.262 489.385 371.37C489.292 371.51 489.215 371.657 489.114 371.781C489.052 371.858 488.982 371.92 488.912 371.998C488.896 372.013 488.803 372.145 488.858 372.059C488.726 372.269 488.563 372.454 488.369 372.609C488.159 372.95 487.895 373.244 487.631 373.539C487.484 373.701 487.375 373.887 487.204 374.027C487.041 374.166 486.863 374.29 486.708 374.445C486.607 374.546 486.49 374.584 486.374 374.6C486.335 374.646 486.296 374.685 486.258 374.732C485.823 375.25 485.427 375.816 484.969 376.319C484.116 377.264 483.339 378.201 482.571 379.208C482.16 379.743 481.803 380.277 481.469 380.858C481.252 381.237 480.972 381.532 480.724 381.857C480.351 382.353 479.956 382.779 479.645 383.321C479.327 383.871 478.916 384.351 478.605 384.909C478.023 385.931 477.488 387 476.603 387.79C475.819 388.487 475.128 389.385 474.593 390.268C474.344 390.686 474.034 390.973 473.63 391.252C473.359 391.445 473.499 391.5 473.266 391.902C473.041 392.282 472.606 392.53 472.303 392.847C472.164 392.994 472.024 393.149 471.884 393.297C471.744 393.521 471.597 393.753 471.481 393.994C470.961 395.078 469.913 395.922 469.051 396.751C468.213 397.556 467.336 398.315 466.49 399.113C465.598 399.957 464.62 400.678 463.743 401.553C462.819 402.474 461.911 403.404 460.98 404.31C460.258 405.015 459.668 405.789 459.055 406.572C456.424 410.367 453.925 414.247 451.224 417.779C447.414 422.767 443.269 427.313 439.001 431.867C437.728 433.223 436.727 434.826 435.151 435.879C435.112 435.879 435.089 435.856 435.066 435.809C434.794 436.096 434.546 436.383 434.282 436.661C434.274 436.932 434.111 437.033 433.894 437.08C433.141 437.908 432.396 438.745 431.659 439.573C431.232 440.054 430.696 440.464 430.238 440.983C429.718 441.572 429.167 442.153 428.515 442.594C428.228 442.919 427.895 443.198 427.514 443.392C427.336 443.5 427.157 443.585 426.955 443.663C426.529 443.973 426.094 444.205 425.574 444.383C425.558 444.383 425.543 444.391 425.527 444.399C425.256 444.546 424.969 444.616 424.767 444.701C424.542 444.848 424.332 445.042 424.107 445.189C423.998 445.258 423.905 445.328 423.804 445.398C423.587 445.568 423.37 445.739 423.152 445.909C421.942 447.133 420.622 448.318 419.256 449.34C418.527 449.89 417.759 450.378 417.014 450.897C416.354 451.362 415.756 451.904 415.065 452.33C413.979 453.003 412.97 453.886 411.829 454.467C411.697 454.583 411.565 454.676 411.418 454.762C410.882 455.273 410.207 455.629 409.625 455.993C409.268 456.218 408.833 456.481 408.383 456.682V456.752C408.383 456.752 408.344 456.721 408.321 456.713C408.135 456.791 407.956 456.861 407.77 456.915C407.343 457.132 406.909 457.325 406.466 457.503C406.404 457.55 406.334 457.589 406.264 457.62C405.931 457.767 405.682 457.844 405.465 457.914C405.287 457.984 405.116 458.053 404.937 458.131C404.588 458.286 404.247 458.433 403.913 458.557C403.812 458.619 403.719 458.673 403.61 458.743C400.847 460.547 398.131 461.477 394.669 461.724C393.986 461.771 392.155 461.655 391.549 461.903C388.95 462.956 386.055 463.281 383.168 463.893C383.036 464.009 382.904 464.125 382.756 464.242C381.957 464.869 381.142 465.016 380.195 465.287C379.31 465.543 378.41 465.829 377.494 465.961C376.524 466.093 375.577 465.915 374.63 465.76C373.823 465.628 373.032 465.806 372.224 465.891C371.309 465.984 370.393 466.077 369.493 466.24C368.616 466.395 367.785 466.774 366.908 466.883C366.07 466.983 365.232 467.084 364.394 467.193C362.795 467.409 361.281 467.642 359.667 467.626C358.674 467.618 357.711 467.433 356.718 467.502C355.841 467.572 355.018 467.882 354.126 467.921C352.535 467.983 350.936 468.083 349.353 468.238C348.483 468.323 347.599 468.424 346.729 468.579C345.868 468.734 345.076 468.509 344.223 468.509C343.353 468.509 342.492 468.509 341.623 468.509C340.909 468.509 340.21 468.401 339.504 468.37C339.434 468.37 339.364 468.385 339.287 468.385C338.347 468.424 337.416 468.563 336.477 468.579C335.685 468.587 334.754 468.734 333.978 468.602C333.559 468.525 333.148 468.269 332.728 468.161C332.232 468.029 331.704 468.006 331.192 467.99C331.083 467.99 330.974 467.983 330.874 467.975C329.803 468.192 328.561 468.083 327.536 467.766C326.419 467.417 325.332 467.2 324.246 466.728C323.749 466.511 323.213 466.271 322.763 465.969C322.336 465.682 321.917 465.574 321.459 465.365C321.048 465.179 320.419 464.691 320.202 464.575C319.69 464.311 319.03 464.218 318.479 464.094C317.354 463.839 316.446 463.289 315.476 462.685C314.544 462.104 313.465 461.663 312.596 460.973C312.061 460.718 311.541 460.408 311.013 460.137C310.446 459.85 309.763 459.556 309.306 459.099C309.143 458.936 308.941 458.696 308.832 458.51C308.747 458.371 308.708 458.286 308.692 458.239C308.646 458.2 308.576 458.146 308.483 458.069C308.157 457.782 307.932 457.418 307.629 457.108C307.202 456.899 306.799 456.589 306.535 456.225C306.481 456.179 306.434 456.125 306.395 456.071C301.475 453.398 296.531 449.689 292.192 446.304C289.67 444.337 287.505 443.221 286.077 440.061C285.223 438.164 284.796 436.127 284.012 434.299C283.539 433.207 282.235 431.666 281.956 430.411C281.684 429.211 281.901 427.747 281.731 426.6C281.35 424.052 280.194 421.318 279.821 418.817C279.239 414.89 278.649 410.034 278.378 405.65C278.323 405.495 278.277 405.332 278.23 405.178C278.114 404.759 277.959 404.194 277.959 403.752C277.959 403.659 277.959 403.598 277.959 403.543C277.951 403.505 277.943 403.458 277.935 403.419C277.71 402.962 277.765 402.443 277.765 402.018C277.741 401.932 277.734 401.855 277.718 401.77C277.702 401.715 277.687 401.661 277.679 401.607C277.307 400.561 277.648 399.191 277.873 398.222C278.153 397.03 278.3 396.108 278.362 394.915C278.44 393.436 278.564 392.336 278.781 390.818C278.805 390.632 278.836 390.439 278.859 390.245C278.898 389.896 278.781 390.803 278.867 390.067C278.898 389.842 278.952 389.532 278.999 389.223C279.014 389.106 279.053 388.843 279.1 388.68C278.975 389.176 279.076 388.75 279.138 388.502C279.2 388.262 279.325 388.053 279.472 387.875C279.519 387.805 279.557 387.736 279.612 387.674C279.713 387.356 279.914 387.077 280.178 386.868C280.465 386.62 280.838 386.458 281.273 386.458C281.676 386.458 282.025 386.597 282.313 386.822C282.739 387.139 283.042 387.635 283.003 388.185C282.91 389.687 283.205 390.81 283.438 392.344C283.57 393.242 283.679 393.947 283.779 394.853C283.888 395.806 283.873 396.766 283.95 397.727C284.043 398.904 284.121 400.081 284.206 401.266C284.307 401.576 284.385 401.901 284.447 402.18C284.587 402.777 284.75 403.295 284.975 403.876C285.433 405.061 286.022 406.208 286.41 407.424C286.783 408.609 287.489 409.708 287.939 410.878C288.265 411.722 288.801 412.551 289.235 413.503C289.623 413.999 289.965 414.642 290.237 415.176C290.501 415.695 290.78 416.075 290.974 416.516C291.339 416.935 291.665 417.376 292.06 417.779C292.417 418.135 292.736 418.561 293.007 418.91C293.062 418.948 293.116 418.979 293.17 419.026C293.287 419.088 293.395 419.157 293.512 419.25C293.225 419.033 293.465 419.196 293.651 419.297C293.814 419.39 293.962 419.49 294.102 419.599C294.614 419.777 295.087 420.195 295.46 420.474C295.856 420.776 296.22 420.97 296.562 421.295C297.02 421.605 297.392 422.023 297.749 422.434C298.215 422.976 298.751 423.448 299.286 423.921C299.565 424.161 299.806 424.486 300.109 424.687C300.396 424.881 300.722 424.966 300.993 425.206C301.296 425.47 301.607 425.717 301.909 425.973L301.933 425.919L302.158 426.097C302.685 426.314 303.174 426.701 303.617 427.088L303.593 426.872L304.144 427.476C304.664 427.662 305.161 427.809 305.697 427.956C306.38 428.149 307.055 428.405 307.738 428.583C308.18 428.699 308.716 428.947 309.127 429.125C309.306 429.164 309.453 429.203 309.763 429.396C309.849 429.435 309.942 429.474 310.027 429.505C310.415 429.567 310.796 429.753 311.16 429.977C312.185 430.396 313.186 430.86 314.242 431.186C315.258 431.348 316.306 431.433 317.276 431.619V431.658C317.967 431.766 318.681 431.921 319.356 432.123C319.581 432.154 319.814 432.169 320.047 432.185C320.171 432.13 320.287 432.084 320.419 432.061C320.481 432.045 320.637 432.038 320.497 432.068C320.722 432.007 320.893 431.914 321.141 431.898C321.545 431.867 321.964 431.875 322.36 431.945C322.43 431.96 322.507 431.976 322.577 431.991C322.585 431.991 322.624 431.991 322.678 431.991C322.802 431.999 322.926 432.03 323.05 432.045C323.058 432.045 323.097 432.045 323.159 432.045C323.26 432.045 323.811 432.099 323.601 432.099C323.648 432.099 323.718 432.099 323.726 432.099C323.78 432.099 324.238 432.192 324.09 432.161C323.819 432.107 324.587 432.247 324.346 432.208C324.121 432.169 324.727 432.278 324.812 432.301C324.913 432.332 325.014 432.371 325.115 432.394C325.332 432.456 325.549 432.494 325.767 432.549C326.201 432.665 326.605 432.789 327.001 433.013C327.102 433.068 327.195 433.137 327.288 433.192C329.321 433.424 331.448 433.517 333.497 433.765C334.056 433.679 334.676 433.618 335.204 433.625C335.856 433.633 336.5 433.827 337.129 433.958C337.152 433.958 337.183 433.966 337.207 433.974C338.278 433.912 339.232 434.462 340.241 434.462C345.107 434.462 350.152 434.64 354.995 434.245C360.761 433.772 366.761 433.052 372.535 432.022C376.415 431.333 381.002 430.458 384.96 430.086C385.154 429.939 385.612 429.598 385.946 429.443C385.923 429.458 386.761 429.149 387.017 429.11C387.102 429.079 387.195 429.048 387.289 429.04C387.475 429.017 387.529 429.04 387.32 429.087C387.475 429.048 387.615 429.009 387.754 428.963C387.933 428.893 388.111 428.831 388.29 428.785C388.476 428.692 388.67 428.614 388.864 428.56C389.268 428.49 389.47 428.459 389.477 428.467C389.493 428.467 389.508 428.459 389.532 428.452C389.904 428.39 390.191 428.39 390.548 428.359C390.649 428.351 390.688 428.351 390.704 428.359C390.704 428.359 390.727 428.343 390.82 428.32C391.813 428.041 392.776 427.739 393.792 427.592C393.909 427.561 394.033 427.53 394.157 427.499C393.986 427.538 394.359 427.398 394.429 427.375C394.553 427.336 394.902 427.236 394.607 427.336C394.7 427.305 394.778 427.274 394.863 427.251C395.236 427.034 395.663 426.895 396.144 426.786C396.4 426.732 396.664 426.686 396.92 426.616C396.974 426.6 397.238 426.554 397.331 426.538C397.487 426.477 397.642 426.407 397.797 426.345C397.456 426.492 397.588 426.43 398.201 426.174C398.449 426.105 398.713 426.082 398.961 426.02C399.233 425.95 399.505 425.872 399.768 425.787C399.745 425.787 400.529 425.532 400.195 425.656C402.337 424.85 403.967 424.145 406.032 424.021C406.21 423.882 406.389 423.742 406.606 423.673C409.454 422.736 412.566 423.293 415.353 422.534C419.117 421.52 423.634 419.126 427.375 418.36C428.189 418.197 427.7 418.6 428.577 418.12C432.318 416.059 437.122 415.262 441.29 413.302C441.321 413.271 441.352 413.24 441.391 413.209C442.012 412.628 442.741 412.21 443.401 411.676C444.651 410.661 446.141 409.918 447.476 409.05C448.05 408.516 448.787 408.113 449.431 407.702C450.184 407.222 450.906 406.758 451.605 406.215C452.125 405.813 452.474 405.456 452.885 405.038L452.901 405.03C453.002 404.93 453.102 404.821 453.219 404.713C453.754 404.171 454.344 403.497 454.965 402.97C455.601 402.203 456.447 401.506 457.169 400.833C458.054 399.996 458.947 399.222 459.878 398.432C459.979 398.346 460.018 398.315 460.01 398.331C460.087 398.215 460.181 398.114 460.289 398.029C460.483 397.835 460.708 397.673 460.918 397.487C461.337 397.13 461.733 396.751 462.129 396.371C462.26 396.247 462.392 396.124 462.524 396C462.548 395.969 462.579 395.945 462.61 395.922C462.811 395.729 463.013 395.535 463.215 395.341L463.122 395.062C463.355 394.985 463.572 394.884 463.782 394.768C463.96 394.574 464.139 394.373 464.309 394.156C465.124 393.134 465.885 392.026 466.886 391.174C467.243 390.872 467.453 390.555 467.864 390.222C467.577 390.454 467.716 390.315 467.895 390.152V390.075C467.895 390.075 467.934 390.09 467.957 390.098C468.058 390.005 468.159 389.92 468.19 389.889C468.275 389.819 468.811 389.331 468.679 389.486C468.865 389.269 469.075 389.083 469.292 388.905C469.796 388.324 470.309 387.759 470.829 387.224C471.325 386.713 471.946 386.349 472.427 385.807C472.8 385.389 473.149 384.955 473.537 384.545C474.515 383.53 475.4 382.446 476.409 381.454C478.264 379.634 480.103 377.814 481.873 375.924C482.618 375.134 483.44 374.429 484.232 373.686C484.255 373.616 484.302 373.547 484.364 373.485C484.674 373.167 484.853 372.78 485.156 372.447C485.458 372.121 485.784 371.812 486.102 371.51C486.444 371.184 486.785 370.828 487.166 370.557C487.53 370.294 487.88 370.007 488.206 369.689C488.283 369.612 488.361 369.542 488.446 369.473C488.726 368.93 489.083 368.35 489.409 368.427C489.44 368.365 489.478 368.303 489.51 368.249C489.867 367.505 490.301 366.793 490.681 366.057C490.767 365.887 490.914 365.809 491.069 365.794C491.108 365.662 491.186 365.546 491.287 365.453C491.318 365.422 491.357 365.375 491.364 365.368C491.574 365.159 492.001 365.12 492.203 365.368C492.249 365.422 492.288 365.484 492.327 365.538C492.769 365.344 493.359 365.623 493.196 366.22C492.909 367.234 492.109 368.048 491.271 368.652C491.062 368.807 490.844 368.977 490.635 369.163C490.596 369.232 490.557 369.318 490.511 369.387C490.464 369.597 490.348 369.782 490.185 369.922C490.115 370.108 490.037 370.286 489.96 370.472L489.967 370.441ZM295.01 407.385C295.01 407.385 295.056 407.331 295.08 407.3L295.188 406.912H295.468C295.468 406.912 295.491 406.897 295.506 406.889C295.631 406.812 295.762 406.758 295.918 406.711C295.941 406.696 295.972 406.68 296.003 406.672C295.988 406.672 296.019 406.657 296.143 406.603C296.088 406.626 296.05 406.649 296.003 406.672C296.057 406.672 296.546 406.486 296.663 406.479C296.973 406.455 297.307 406.479 297.617 406.541C297.633 406.541 297.648 406.548 297.664 406.548C297.703 406.533 297.881 406.572 298.036 406.61C298.968 406.533 300.699 406.455 302.142 406.494C302.553 406.424 302.949 406.363 303.314 406.339C303.935 406.301 304.595 406.293 305.215 406.339C305.72 406.378 305.961 406.564 306.31 406.889C306.408 407.013 306.408 407.013 306.31 406.889C306.449 407.013 306.543 407.168 306.597 407.338C306.675 407.517 306.698 407.695 306.713 407.873C306.729 407.927 306.744 407.989 306.752 408.043C306.869 408.399 306.884 408.787 306.931 409.228C306.977 409.701 307.001 410.204 307.086 410.638C307.21 411.273 307.226 411.9 307.288 412.466C307.303 412.605 307.303 412.737 307.319 412.876C307.319 412.876 307.319 412.876 307.334 412.915C307.389 413.147 307.435 413.387 307.489 413.627C307.784 414.859 307.839 416.245 307.839 417.515C307.839 417.841 307.823 418.182 307.73 418.499C307.645 418.77 307.637 418.933 307.427 419.297C307.342 419.444 307.21 419.56 307.101 419.692C307.35 419.421 306.892 419.909 306.799 419.978C306.589 420.133 306.372 420.203 306.139 420.242C305.766 420.366 305.355 420.35 304.89 420.234C304.789 420.211 304.789 420.188 304.89 420.211C304.641 420.149 304.432 420.126 304.183 420.017C304.129 419.994 304.075 419.963 304.09 419.971C303.966 419.924 303.842 419.878 303.725 419.823C303.826 419.87 303.865 419.893 303.663 419.8C303.687 419.808 303.702 419.816 303.725 419.823C303.624 419.777 303.469 419.692 303.43 419.676C303.33 419.63 303.236 419.583 303.143 419.529C302.957 419.413 302.786 419.281 302.631 419.212C302.22 419.041 301.824 418.871 301.444 418.615C301.125 418.468 300.846 418.267 300.598 418.019C300.186 417.926 299.798 417.694 299.589 417.361C299.457 417.268 299.348 417.167 299.247 417.058C299.061 416.904 298.89 416.725 298.751 416.516C298.735 416.501 298.727 416.493 298.712 416.478C298.681 416.478 298.657 416.447 298.634 416.4C298.611 416.377 298.58 416.354 298.556 416.323C298.525 416.292 298.262 415.951 298.394 416.098C298.029 415.703 297.78 415.517 297.47 415.083C297.051 414.495 296.709 413.682 296.453 413.109C296.189 412.504 295.825 411.738 295.568 411.033C295.514 410.893 295.468 410.746 295.429 410.607C295.382 410.506 295.359 410.398 295.343 410.282C295.173 410.065 295.048 409.747 294.948 409.461C294.653 408.98 294.583 408.399 294.785 407.888C294.831 407.687 294.917 407.517 295.033 407.362L295.01 407.385ZM316.12 406.084C316.461 406.037 316.787 406.022 317.129 406.022C317.416 406.022 317.672 406.068 317.959 406.091C317.982 406.091 318.083 406.091 318.161 406.091C318.495 406.115 318.821 406.169 319.147 406.2C319.178 406.2 319.31 406.208 319.379 406.215C320.342 406.285 321.304 406.409 322.259 406.572C322.608 406.634 322.965 406.719 323.299 406.85L323.027 406.819C323.182 406.835 323.345 406.858 323.501 406.881C323.726 406.912 323.927 406.982 324.121 407.06C324.137 407.06 324.152 407.067 324.168 407.075C324.998 407.276 326.147 407.935 326.496 408.702L326.45 408.655C326.489 408.717 326.527 408.771 326.558 408.833C326.597 408.88 326.636 408.934 326.667 408.98C326.814 409.112 326.946 409.259 327.04 409.445C327.117 409.631 327.195 409.817 327.272 410.003C327.234 409.918 327.195 409.84 327.156 409.755C327.404 410.343 327.466 410.491 327.35 410.204C327.226 409.918 327.296 410.065 327.544 410.653C327.567 410.816 327.591 410.971 327.606 411.133C327.645 411.188 327.691 411.281 327.707 411.335C327.754 411.49 327.792 411.652 327.831 411.815C327.886 411.978 327.924 412.14 327.924 412.311C327.955 412.69 327.971 412.721 327.979 412.404C328.049 412.621 328.103 412.845 328.142 413.07C328.196 413.194 328.25 413.325 328.281 413.457C328.297 413.565 328.312 413.658 328.328 413.744C328.382 413.898 328.483 414.301 328.522 414.479C328.522 414.448 328.506 414.425 328.506 414.394C328.561 414.619 328.553 414.596 328.522 414.479C328.537 414.534 328.545 414.588 328.561 414.642C328.747 415.122 328.84 415.626 328.949 416.129C329.003 416.4 329.104 416.656 329.166 416.919C329.205 417.182 329.228 417.368 329.244 417.469C329.251 417.492 329.259 417.5 329.275 417.531C329.337 417.639 329.376 417.756 329.399 417.872C329.414 417.903 329.43 417.926 329.445 417.972C329.647 418.313 329.771 418.708 329.903 419.08C330.113 419.638 330.128 420.203 330.136 420.776C330.253 421.342 330.206 421.922 329.958 422.465C329.834 422.813 329.655 423.138 329.376 423.456C328.631 424.308 327.505 424.3 326.644 423.812C326.566 423.804 326.341 423.735 326.294 423.719C326.132 423.673 325.976 423.626 325.813 423.572C325.324 423.417 324.835 423.239 324.37 423.03C324.036 422.875 323.702 422.712 323.369 422.558C323.33 422.542 323.299 422.527 323.268 422.511C323.237 422.503 323.198 422.488 323.144 422.472C322.949 422.41 322.755 422.317 322.561 422.248C322.499 422.248 322.329 422.209 322.274 422.193C322.142 422.163 322.01 422.124 321.878 422.093C321.847 422.093 321.824 422.093 321.793 422.093C321.591 422.062 321.39 422.039 321.188 422.008C321.39 422.039 321.405 422.046 321.242 422.031C321.033 422.031 320.807 421.984 320.606 421.953C320.256 421.907 320.194 421.899 320.443 421.922C320.241 421.891 320.031 421.868 319.83 421.837C319.379 421.775 318.968 421.698 318.564 421.582C318.479 421.605 318.402 421.628 318.308 421.651C317.897 421.744 317.54 421.768 317.199 421.713C317.09 421.713 316.989 421.698 316.888 421.682C316.733 421.682 316.585 421.659 316.453 421.636C316.399 421.636 316.213 421.613 316.034 421.582C316.151 421.605 316.267 421.62 316.376 421.628C316.05 421.597 315.763 421.535 315.491 421.427C314.847 421.202 314.327 420.706 314.125 420.017C314.079 419.854 314.048 419.676 314.048 419.506C313.869 419.243 313.714 418.894 313.659 418.607C313.597 418.367 313.605 418.344 313.691 418.546C313.497 418.205 313.396 417.841 313.396 417.446C313.396 417.415 313.396 417.399 313.396 417.376C313.341 417.151 313.318 416.919 313.334 416.687C313.334 416.609 313.318 416.392 313.31 416.245C313.302 416.207 313.287 416.168 313.271 416.121C313.256 416.059 313.124 415.254 313.178 415.525C313.24 415.819 313.093 415.022 313.101 415.091C313.062 414.812 313.186 414.464 313.202 414.177C313.194 414.146 313.178 414.115 313.171 414.084C313.155 414.115 313.14 414.123 313.132 414.069C313.147 414.193 313.178 414.355 313.132 414.139C313.101 414.007 313.085 413.875 313.07 413.736C313.015 413.534 312.977 413.325 312.938 413.093C312.806 412.086 313.015 413.658 312.883 412.652C312.852 412.435 312.829 412.226 312.821 412.009C312.821 411.877 312.821 411.745 312.821 411.614C312.814 411.559 312.806 411.49 312.79 411.397C312.736 411.017 312.751 410.638 312.751 410.258C312.751 408.539 313.194 406.688 314.932 406.223C315.188 406.13 315.445 406.068 315.732 406.045C316.29 406.006 315.305 406.138 316.089 406.037L316.12 406.084ZM339.535 409.189C339.333 409.151 339.434 409.166 339.83 409.228C339.892 409.244 339.946 409.282 340.001 409.306C340.086 409.329 340.164 409.352 340.249 409.383C340.326 409.406 340.412 409.437 340.489 409.468C340.528 409.476 340.567 409.484 340.598 409.499C340.73 409.515 340.885 409.553 341.048 409.592C341.095 409.592 341.141 409.592 341.18 409.592C341.553 409.592 341.918 409.592 342.29 409.592C342.663 409.592 343.02 409.67 343.384 409.708C342.523 409.623 344.277 409.832 343.928 409.778C344.098 409.809 344.269 409.832 344.44 409.902C344.525 409.925 344.564 409.941 344.58 409.948C344.75 409.972 344.913 409.995 345.076 410.049C345.131 410.057 345.216 410.088 345.301 410.111C345.348 410.111 345.433 410.127 345.565 410.134C345.55 410.134 345.519 410.134 345.495 410.134C345.596 410.15 345.728 410.165 345.899 410.181C345.953 410.196 346.008 410.204 346.062 410.22C346.691 410.382 347.335 410.584 347.948 410.839C348.041 410.839 348.15 410.839 348.251 410.847C348.421 410.862 348.708 410.948 348.972 411.095C349.407 411.242 349.787 411.575 349.989 412.032C350.105 412.303 350.175 412.566 350.276 412.837C350.292 412.884 350.563 413.72 350.393 413.24C350.23 412.799 350.47 413.488 350.478 413.573C350.509 413.767 350.548 413.976 350.579 414.177C350.602 414.309 350.61 414.371 350.61 414.41C350.61 414.441 350.625 414.487 350.649 414.58C350.649 414.588 350.742 414.936 350.757 414.991C350.757 414.967 350.757 414.944 350.742 414.921C350.757 414.991 350.757 415.006 350.757 414.991C350.827 415.3 350.858 415.556 350.882 415.835C350.897 415.904 350.897 415.966 350.897 416.036C350.897 416.036 350.897 416.036 350.897 416.044C350.928 416.129 350.944 416.207 350.967 416.284C351.091 416.547 351.13 416.857 351.192 417.128C351.223 417.206 351.246 417.291 351.246 417.376C351.246 417.384 351.246 417.384 351.246 417.392C351.27 417.5 351.293 417.608 351.293 417.616C351.339 417.833 351.363 417.965 351.386 418.104C351.487 418.662 351.51 419.235 351.673 419.769C351.766 420.071 351.797 420.389 351.821 420.706C351.836 420.923 351.914 421.241 351.852 421.442C351.844 421.473 351.836 421.489 351.828 421.504C351.828 421.512 351.828 421.512 351.828 421.52C351.859 421.667 351.859 421.783 351.867 421.922C351.875 422.186 351.867 422.441 351.828 422.697C351.805 422.875 351.782 423.084 351.72 423.262C351.696 423.34 351.665 423.394 351.634 423.456L351.642 423.448C351.619 423.557 351.564 423.65 351.495 423.735C351.479 423.766 351.487 423.758 351.495 423.735C351.378 423.983 351.246 424.246 351.045 424.447C351.083 424.409 350.788 424.664 350.742 424.68C350.734 424.68 350.734 424.68 350.726 424.68C350.633 424.757 350.54 424.811 350.447 424.858C349.733 425.323 348.662 425.353 347.831 425.299C347.086 425.253 346.365 425.168 345.643 425.059C345.612 425.059 345.581 425.059 345.565 425.059C345.426 425.059 345.286 425.059 345.154 425.051C344.347 425.268 343.493 425.276 342.624 425.206C341.987 425.16 341.56 425.106 340.893 424.951C340.87 424.951 340.846 424.935 340.823 424.935C340.342 424.974 339.838 424.989 339.387 424.873C338.86 424.804 338.347 424.579 337.944 424.354C337.913 424.339 337.89 424.323 337.858 424.308C337.633 424.199 337.455 424.091 337.292 423.921C337.222 423.866 337.168 423.797 337.113 423.719C336.95 423.549 336.873 423.355 336.803 423.131C336.795 423.107 336.787 423.092 336.78 423.076C336.787 423.107 336.787 423.123 336.764 423.061C336.733 422.991 336.749 423.022 336.78 423.076C336.764 423.03 336.733 422.929 336.71 422.86C336.687 422.813 336.617 422.55 336.694 422.805C336.694 422.805 336.702 422.829 336.71 422.852C336.663 422.743 336.632 422.519 336.648 422.31C336.64 422.217 336.648 422.124 336.648 422.015C336.617 422.364 336.632 422.147 336.632 422.085C336.632 421.93 336.64 421.729 336.687 421.582C336.71 421.512 336.741 421.45 336.78 421.388C336.795 421.342 336.818 421.303 336.85 421.272C336.811 421.001 336.78 420.737 336.772 420.466C336.756 419.754 336.671 419.041 336.64 418.329C336.609 417.585 336.539 416.749 336.508 416.245C336.461 415.525 336.562 414.797 336.547 414.069C336.539 413.325 336.64 412.938 336.64 412.226C336.64 411.583 336.741 411.11 336.927 410.607C337.113 409.352 338.503 408.81 339.605 409.236C339.605 409.236 339.605 409.236 339.612 409.236C339.581 409.22 339.55 409.197 339.519 409.182L339.535 409.189ZM356.943 412.628C356.927 412.721 356.943 412.613 356.943 412.582C356.943 412.45 356.989 412.326 357.052 412.218C357.052 412.21 357.052 412.202 357.052 412.195C357.052 412.179 357.052 412.171 357.052 412.156C357.083 411.978 357.176 411.838 357.3 411.73C357.579 411.358 358.084 411.226 358.464 411.064C358.945 410.862 359.644 410.653 360.148 410.491C360.459 410.39 360.653 410.351 361.033 410.243C361.359 410.15 361.677 410.08 362.003 410.003C362.632 409.848 363.26 409.716 363.905 409.6C364.758 409.453 365.573 409.399 366.435 409.437C366.846 409.461 367.257 409.453 367.669 409.484C367.839 409.461 368.002 409.43 368.173 409.422C368.701 409.383 369.236 409.406 369.772 409.406C370.199 409.406 370.579 409.437 370.959 409.523C371.549 409.584 372.108 409.887 372.496 410.336C372.729 410.553 372.915 410.816 373.047 411.126C373.125 411.25 373.171 411.381 373.187 411.528C373.272 411.761 373.241 411.722 373.094 411.412C373.171 411.598 373.249 411.784 373.327 411.97C373.14 411.567 373.171 411.652 373.427 412.233C373.427 412.233 373.427 412.233 373.427 412.241C373.59 412.52 373.676 412.83 373.676 413.155C373.691 413.364 373.691 413.341 373.676 413.078C373.715 413.279 373.746 413.48 373.761 413.682C373.761 413.72 373.815 414.069 373.777 414.084C373.777 414.084 373.777 414.084 373.777 414.069C373.808 414.224 373.823 414.379 373.831 414.526C373.831 414.541 373.831 414.557 373.839 414.58C373.87 414.781 373.901 414.983 373.916 415.192C373.916 415.409 373.916 415.626 373.916 415.843C373.994 416.191 373.986 416.555 373.978 416.919C373.978 417.012 374.002 417.244 373.994 417.399C374.002 417.453 374.017 417.508 374.025 417.562C374.033 417.624 374.033 417.67 374.041 417.725C374.087 417.887 374.11 418.058 374.126 418.228C374.242 418.6 374.235 419.01 374.235 419.405C374.297 419.607 374.335 419.816 374.351 420.079C374.374 420.466 374.312 420.838 374.134 421.179C374.11 421.264 374.079 421.342 374.033 421.419C374.118 421.961 374.033 422.573 373.87 423.014C371.689 422.968 369.555 422.891 367.374 423.053C366.419 423.123 364.844 423.247 363.617 423.394C363.602 423.402 363.579 423.417 363.563 423.425C362.896 423.781 362.22 424.029 361.499 424.261C361.351 424.308 361.212 424.354 361.064 424.385C361.025 424.393 360.924 424.385 360.831 424.401L360.668 424.471C360.536 424.509 360.373 424.517 360.234 424.517C360.179 424.517 360.164 424.517 360.164 424.517C360.102 424.525 360.04 424.54 359.978 424.548C359.908 424.571 359.846 424.594 359.776 424.61C359.83 424.594 358.844 424.742 359.628 424.618C359.007 424.718 358.161 424.455 358.045 423.719C357.983 423.34 358.045 422.983 358.185 422.658C358.068 422.317 357.983 422.039 357.975 421.961C357.944 421.76 357.921 421.52 357.898 421.264C357.874 421.21 357.859 421.156 357.835 421.101C357.835 421.109 357.843 421.117 357.851 421.125C357.556 420.474 357.525 419.583 357.447 418.948C357.393 418.515 357.331 418.081 357.246 417.647C357.199 417.43 357.16 417.213 357.121 416.997C357.16 417.213 357.106 417.02 357.083 416.927C357.028 416.694 357.044 416.671 357.013 416.385C357.005 416.315 356.974 416.098 356.958 415.997V416.013C356.943 415.897 356.943 415.92 356.958 415.997C356.904 415.61 356.912 415.246 356.912 414.828C356.912 414.294 356.757 413.565 356.92 412.977C356.92 412.954 356.92 412.938 356.92 412.915C356.92 412.868 356.974 412.528 356.958 412.628H356.943ZM381.662 412.659C381.739 412.559 381.825 412.45 381.902 412.349C381.833 412.442 381.755 412.543 381.685 412.636C381.817 412.458 381.965 412.303 382.12 412.148L382.073 412.179C382.073 412.179 382.151 412.117 382.19 412.086C382.259 412.024 382.329 411.97 382.407 411.916C382.461 411.877 382.523 411.838 382.578 411.8C382.617 411.776 382.648 411.753 382.694 411.73C382.942 411.583 383.214 411.49 383.509 411.451C383.548 411.436 383.571 411.428 383.618 411.412C383.664 411.412 383.695 411.397 383.734 411.397C384.239 411.188 384.301 411.157 383.905 411.319C384.091 411.242 384.277 411.164 384.464 411.087C384.968 410.893 385.558 410.816 386.093 410.831C386.125 410.831 386.132 410.831 386.156 410.831C386.489 410.769 386.776 410.746 387.11 410.746C387.871 410.738 388.631 410.746 389.384 410.746C389.687 410.746 389.99 410.731 390.292 410.746C390.486 410.769 390.68 410.793 390.866 410.824C390.96 410.824 391.061 410.824 391.154 410.824C391.93 410.824 392.675 411.226 393.094 411.869C393.094 411.869 393.094 411.877 393.102 411.885C393.117 411.916 393.14 411.939 393.164 411.97C393.179 411.993 393.187 412.009 393.203 412.032C393.335 412.249 393.443 412.481 393.529 412.737C393.56 412.822 393.591 412.915 393.614 413C393.614 413 393.614 413.008 393.622 413.016C393.769 413.186 393.886 413.372 393.955 413.589C393.963 413.604 393.963 413.612 393.971 413.635V413.62C394.103 413.945 394.103 413.945 393.971 413.635C393.986 413.775 394.196 414.108 394.227 414.201C394.312 414.394 394.406 414.596 394.468 414.797C394.483 414.851 394.491 414.882 394.499 414.913C394.623 415.176 394.739 415.448 394.84 415.719C394.949 415.997 394.995 416.276 395.065 416.563C395.065 416.594 395.112 416.702 395.135 416.795C395.135 416.803 395.135 416.803 395.143 416.818C395.166 416.849 395.174 416.865 395.182 416.873C395.251 416.966 395.321 417.051 395.391 417.144C395.399 417.159 395.407 417.175 395.414 417.19C396.229 418.042 396.299 419.583 395.383 420.412C394.964 420.784 394.537 421.047 393.971 421.125C393.963 421.125 393.955 421.125 393.948 421.125C394.002 421.125 394.041 421.125 394.049 421.132C394.049 421.132 393.761 421.21 393.738 421.21C393.536 421.241 393.335 421.264 393.133 421.287C393.241 421.28 393.35 421.272 393.459 421.264C393.412 421.318 393.04 421.357 392.822 421.365C392.714 421.38 392.613 421.396 392.504 421.411C392.364 421.473 392.147 421.504 392 421.543C391.829 421.589 391.658 421.613 391.48 421.636C390.603 421.752 391.844 421.582 391.363 421.651C391.076 421.69 390.595 421.775 390.238 421.69C390.199 421.69 390.16 421.698 390.129 421.706C389.99 421.721 389.974 421.706 390.028 421.706C389.702 421.737 389.384 421.814 389.058 421.799C388.95 421.791 388.841 421.775 388.74 421.76C388.701 421.76 388.678 421.752 388.647 421.744C388.585 421.752 388.484 421.768 388.453 421.768C388.414 421.768 388.073 421.791 388.073 421.783C388.142 421.775 388.22 421.76 388.29 421.752C388.127 421.775 387.972 421.798 387.809 421.814C387.716 421.814 387.615 421.822 387.521 421.814C387.584 421.798 387.638 421.791 387.7 421.775C387.545 421.799 387.39 421.814 387.242 421.837C386.986 421.853 386.738 421.837 386.482 421.86C386.45 421.86 386.427 421.86 386.412 421.86C386.256 421.899 386.124 421.938 385.962 421.961C385.589 422.008 384.953 422.255 384.402 422.279C384.052 422.294 383.742 422.178 383.493 421.984L382.958 422.093C382.772 420.521 382.236 418.995 382.034 417.43C382.003 417.167 381.941 416.702 381.895 416.191C381.289 415.424 380.994 414.526 381.243 413.55C381.305 413.31 381.414 413.031 381.553 412.814C381.6 412.752 381.646 412.69 381.693 412.628C381.693 412.636 381.677 412.644 381.67 412.652L381.662 412.659ZM414.072 410.351C414.126 410.374 414.15 410.382 414.072 410.351C414.134 410.374 414.196 410.405 414.251 410.429C414.553 410.421 414.848 410.429 415.151 410.491C415.275 410.514 415.384 410.553 415.508 410.584C415.562 410.599 415.624 410.599 415.679 410.615C415.927 410.715 415.974 410.738 415.826 410.677C415.71 410.63 415.725 410.638 415.857 410.692C415.958 410.739 416.059 410.777 416.152 410.824C416.323 410.909 416.074 410.8 416.168 410.839C416.268 410.886 416.362 410.932 416.447 410.986C416.656 411.11 416.835 411.304 416.967 411.521C417.006 411.575 417.037 411.629 417.06 411.676C417.06 411.668 417.06 411.66 417.06 411.652C417.068 411.676 417.076 411.691 417.083 411.714C417.083 411.73 417.091 411.738 417.099 411.753C417.13 411.815 417.161 411.877 417.176 411.931C417.184 411.954 417.2 411.978 417.208 412.001C417.293 412.187 417.27 412.117 417.239 412.063C417.246 412.078 417.254 412.102 417.27 412.14C417.324 412.264 417.332 412.288 417.293 412.202C417.324 412.28 417.355 412.349 417.386 412.427C417.402 412.489 417.409 412.551 417.417 412.613C417.433 412.644 417.448 412.667 417.456 412.698C417.487 412.892 417.495 412.977 417.495 412.954C417.495 413 417.502 413.039 417.51 413.085C417.518 413.132 417.534 413.186 417.549 413.232C417.549 413.225 417.58 413.287 417.596 413.31C417.603 413.341 417.619 413.372 417.627 413.403C417.58 413.302 417.58 413.31 417.642 413.442C417.681 413.581 417.704 413.689 417.72 413.837C417.72 413.852 417.72 413.837 417.72 413.852C417.72 413.891 417.728 413.937 417.735 413.976C417.751 414.015 417.766 414.092 417.774 414.123C417.79 414.224 417.797 414.332 417.805 414.433C417.875 414.758 417.875 415.13 417.766 415.424C417.751 415.587 417.728 415.742 417.681 415.897C417.658 416.013 417.627 416.121 417.557 416.214C417.526 416.292 417.479 416.361 417.433 416.431C417.394 416.501 417.347 416.563 417.285 416.609C417.363 416.547 417.192 416.71 417.239 416.656C417.231 416.656 417.223 416.663 417.208 416.671C417.192 416.679 417.184 416.694 417.169 416.702C417.153 416.725 417.138 416.749 417.114 416.772C416.959 416.896 416.936 416.911 417.037 416.826C416.944 416.896 416.851 416.958 416.75 417.012C416.703 417.043 416.656 417.082 416.61 417.105C416.587 417.12 416.571 417.144 416.54 417.159C416.354 417.229 416.323 417.244 416.455 417.213C416.4 417.237 416.346 417.26 416.292 417.283C416.253 417.299 416.206 417.322 416.16 417.345H416.183C415.935 417.508 415.578 417.632 415.283 417.725C415.073 417.794 414.848 417.879 414.631 417.934C414.577 417.957 414.522 417.972 414.46 417.98C414.383 418.003 414.305 418.011 414.212 418.027C414.39 418.003 414.018 418.05 413.987 418.058C414.165 418.034 413.777 418.081 413.715 418.089C413.8 418.081 413.614 418.112 413.529 418.12C413.304 418.12 413.086 418.174 412.877 418.22C412.683 418.29 412.481 418.344 412.279 418.391C412.233 418.406 412.194 418.429 412.147 418.445C411.961 418.491 411.953 418.491 412.109 418.429C412.023 418.453 411.938 418.484 411.86 418.515C411.48 418.731 410.975 418.809 410.525 418.848C409.966 419.134 409.268 419.181 408.771 419.243C408.632 419.258 408.166 419.328 407.894 419.359C408.096 419.336 407.506 419.413 407.568 419.405C407.444 419.421 407.39 419.428 407.382 419.428C407.258 419.452 407.134 419.475 407.017 419.498C406.947 419.506 406.878 419.514 406.808 419.529C406.784 419.537 406.777 419.545 406.746 419.552C406.451 419.676 406.241 419.707 405.962 419.823C405.892 419.854 405.861 419.862 405.845 419.87C405.775 419.901 406.055 419.8 405.845 419.87C405.814 419.878 405.783 419.885 405.737 419.909C405.504 419.986 405.279 420.048 405.03 420.064C404.829 420.079 404.627 420.048 404.425 420.04C404.324 420.064 404.239 420.079 404.169 420.095C403.843 420.172 403.641 420.249 403.323 420.273C402.935 420.304 402.547 420.195 402.205 420.002C401.701 420.087 401.142 420.071 400.614 419.955C400.583 419.955 400.56 419.955 400.529 419.947C400.506 419.947 400.482 419.94 400.459 419.94C400.459 419.94 400.475 419.932 400.482 419.924C399.357 419.645 398.348 418.91 398.131 417.663V417.593C398.007 416.942 398.053 416.222 398.263 415.556C398.247 415.509 398.24 415.448 398.216 415.362C398.193 415.254 398.177 415.161 398.162 415.076C398.069 414.828 397.999 414.565 397.968 414.301C397.952 414.201 397.945 414.1 397.937 413.991C397.914 413.666 397.937 413.349 398.014 413.054C398.022 413 398.03 412.954 398.038 412.899C398.038 412.876 398.045 412.853 398.053 412.837C398.503 410.94 399.931 410.212 401.383 410.305C403.199 409.832 405.271 409.91 407.033 409.925C408.212 409.933 409.175 410.08 410.083 410.243C410.223 410.22 410.362 410.196 410.502 410.173C411.278 410.049 412.14 409.894 412.916 410.072C413.195 410.134 413.412 410.227 413.7 410.251C413.785 410.251 413.878 410.274 413.956 410.297C413.971 410.297 414.041 410.328 414.088 410.343L414.072 410.351ZM513.74 324.574C513.677 325.132 512.948 327.827 512.715 328.307C510.519 332.893 507.678 337.028 504.162 340.661C503.348 341.505 502.432 342.241 501.547 343.046C501.423 343.248 501.291 343.441 501.159 343.627C500.678 344.293 500.111 344.936 499.599 345.579C499.389 345.835 499.141 346.02 498.9 346.245C498.885 346.261 498.846 346.292 498.799 346.338L498.815 346.369C498.815 346.369 498.784 346.369 498.768 346.369C498.644 346.485 498.505 346.617 498.737 346.415C498.605 346.532 498.497 346.663 498.342 346.764C498.326 346.772 498.117 346.896 498.031 346.942C498.054 346.934 498.07 346.927 498.093 346.911C497.977 346.973 497.985 346.973 498.031 346.942C497.899 347.012 497.775 347.074 497.628 347.144C497.302 347.298 496.945 347.523 496.665 347.74C496.572 347.81 496.471 347.879 496.37 347.949C496.262 348.057 496.161 348.15 496.052 348.236C494.065 349.746 491.784 351.527 489.618 352.968C489.447 353.084 489.222 353.2 488.99 353.309C488.602 353.611 488.221 353.92 487.833 354.223C487.437 354.532 487.018 354.788 486.599 355.044C486.568 355.136 486.537 355.222 486.467 355.268C486.359 355.338 486.219 355.361 486.064 355.369C485.854 355.5 485.645 355.632 485.443 355.772C485.249 355.911 485.039 356.058 484.822 356.205C484.597 356.376 484.387 356.554 484.162 356.724C483.014 357.576 481.95 358.513 480.755 359.311C479.343 360.248 477.969 361.185 476.611 362.192C475.322 363.145 473.91 363.873 472.482 364.585C470.999 365.321 469.478 365.987 467.988 366.7C467.212 367.072 466.514 367.536 465.699 367.823C465.047 368.055 464.41 368.311 463.758 368.528C463.145 368.729 462.54 369.016 461.911 369.202C461.748 369.279 461.57 369.349 461.352 369.411C461.073 369.48 460.832 369.473 460.607 369.449C460.375 369.48 460.149 369.519 459.917 369.589C459.303 369.775 458.636 369.844 457.976 369.883C455.338 370.596 452.435 371.595 449.967 372.284C444.348 373.849 438.946 376.219 433.288 377.721C422.943 380.471 410.851 382.291 399.97 383.174C399.008 383.251 398.014 383.344 397.013 383.437C396.028 383.793 395.05 384.088 394.01 384.25C392.985 384.413 391.961 384.49 390.929 384.614C388.872 384.862 386.862 385.226 384.774 385.242C383.765 385.242 382.702 385.242 381.708 385.327C380.661 385.428 379.613 385.327 378.86 385.311C378.759 385.311 378.092 385.242 377.968 385.218C377.944 385.218 377.921 385.218 377.89 385.218C377.789 385.218 377.696 385.218 377.587 385.218C377.238 385.242 376.757 385.35 376.299 385.389C375.337 385.466 374.39 385.265 373.42 385.304C372.558 385.342 371.456 385.335 370.734 385.404C370.222 385.458 369.71 385.559 369.19 385.536C368.817 385.52 368.553 385.458 368.336 385.443C367.257 385.397 366.155 385.311 365.084 385.28C365.449 385.288 364.65 385.342 364.595 385.342C364.409 385.342 364.238 385.342 364.052 385.311C363.602 385.257 363.167 385.141 362.733 385.009C362.655 384.986 362.57 384.955 362.492 384.924C362.197 384.947 361.894 384.963 361.592 384.986C361.064 385.017 360.544 385.094 360.009 385.11C359.419 385.125 358.852 385.002 358.27 384.94C357.967 384.909 357.68 384.901 357.401 384.909C357.401 384.955 357.385 384.994 357.378 385.048L357.308 384.916C356.757 384.932 356.229 384.986 355.616 385.009C355.329 385.025 355.29 385.025 355.127 385.04C355.049 385.04 354.972 385.048 354.886 385.056C354.871 385.056 354.863 385.056 354.847 385.056C354.576 385.087 354.312 385.118 354.048 385.063C353.854 385.234 352.876 385.172 352.636 385.125C352.372 385.071 352.069 385.033 351.743 384.878C351.588 384.847 351.425 384.808 351.27 384.769C350.905 384.777 350.532 384.792 350.168 384.823C347.513 385.017 344.867 385.087 342.205 384.885C340.924 384.792 339.675 384.498 338.386 384.428C337.269 384.366 336.174 384.072 335.064 384.041C335.049 384.057 335.041 384.08 335.026 384.095C335.01 384.072 334.987 384.049 334.971 384.033C334.42 384.01 333.885 383.948 333.357 383.863C332.79 383.77 332.216 383.646 331.642 383.53C327.086 383.638 322.507 383.499 317.944 383.445C316.958 383.545 315.965 383.561 314.971 383.6C314.87 383.6 314.762 383.6 314.661 383.6C314.04 383.677 313.411 383.739 312.782 383.731C311.595 383.716 310.532 383.553 309.36 383.336C309.352 383.352 309.352 383.375 309.337 383.391L309.274 383.321C309.274 383.321 309.267 383.321 309.259 383.321C308.196 383.127 307.101 382.972 306.023 382.918C305.045 382.872 304.106 382.663 303.128 382.608C302.173 382.546 301.203 382.345 300.264 382.136C299.511 381.965 298.805 381.663 298.075 381.423C297.586 381.33 297.105 381.237 296.608 381.175C294.645 380.928 292.549 380.765 290.663 380.153C290.097 379.967 289.515 379.921 288.956 379.719C288.475 379.541 288.032 379.402 287.544 379.278C286.977 379.131 286.465 378.914 285.96 378.658C285.114 378.558 284.268 378.434 283.415 378.248C281.552 377.845 279.689 377.605 277.842 377.125C276.174 376.691 274.59 376.017 272.929 375.553V375.568C272.929 375.568 272.914 375.553 272.906 375.545C272.867 375.537 272.829 375.522 272.79 375.514C271.106 375.065 269.414 374.67 267.745 374.182C267.171 374.011 266.596 373.849 266.022 373.67C265.945 373.709 265.844 373.717 265.673 373.67L265.712 373.57C265.65 373.547 265.587 373.531 265.533 373.516C265.23 373.415 264.951 373.291 264.664 373.167C264.625 373.167 264.594 373.152 264.571 373.128C264.423 373.066 264.268 373.012 264.113 372.958H263.779L263.717 372.842C263.422 372.764 263.127 372.695 262.825 372.625C262.514 372.849 262.033 372.687 261.614 372.346C261.241 372.261 260.861 372.183 260.488 372.098L260.442 372.238C260.457 372.176 260.457 372.129 260.457 372.09C258.696 371.703 256.942 371.316 255.203 370.758C253.76 370.294 252.301 369.976 250.818 369.635C249.204 369.264 247.621 368.76 246.006 368.35C244.501 367.97 243.026 367.606 241.497 367.35C240.682 367.211 239.86 366.94 239.037 366.777C238.393 366.646 237.772 366.56 237.128 366.483C236.258 366.382 235.428 366.165 234.59 365.925C233.922 365.739 233.278 365.654 232.626 365.383C232.199 365.205 231.749 365.058 231.299 364.926C231.245 364.911 231.183 364.903 231.128 364.888C231.043 364.864 230.981 364.849 230.95 364.841C230.632 364.795 230.461 364.771 230.43 364.771C230.407 364.771 230.383 364.756 230.368 364.756C229.305 364.709 228.047 364.469 227.069 364.299C226.441 364.19 225.812 364.067 225.191 363.927C225.098 363.904 224.353 363.718 224.873 363.826C224.733 363.795 224.632 363.78 224.539 363.757C224.5 363.757 224.322 363.749 223.864 363.687C224.167 363.726 223.197 363.61 223.08 363.586C222.824 363.548 222.739 363.532 222.809 363.532C222.622 363.532 222.444 363.501 222.273 363.431C222.188 363.4 222.102 363.369 222.009 363.339C222.506 363.369 222.413 363.346 221.722 363.269C221.551 363.222 221.381 363.129 221.218 363.067C221.062 363.005 220.954 362.959 220.868 362.92C220.806 362.905 220.736 362.889 220.659 362.866C220.519 362.804 220.41 362.765 220.325 362.727C220.115 362.68 219.921 362.603 219.735 362.494C219.689 362.494 219.642 362.487 219.588 362.479C219.332 362.409 219.021 362.285 218.796 362.161C218.61 362.037 218.439 361.906 218.268 361.766C218.555 362.022 218.555 362.03 218.268 361.805C218.268 361.813 218.214 361.797 218.098 361.728C217.935 361.635 217.795 361.526 217.671 361.394C217.958 361.627 217.966 361.635 217.694 361.425C217.64 361.402 217.609 361.394 217.578 361.379C217.321 361.286 217.554 361.394 217.578 361.379C217.578 361.379 217.578 361.363 217.531 361.325C217.376 361.216 217.236 361.1 217.112 360.984C216.864 360.922 216.615 360.852 216.375 360.775C215.645 360.55 214.993 360.271 214.434 360.124C213.759 359.946 213.076 359.791 212.416 359.574C212.059 359.458 211.687 359.342 211.353 359.172C211.252 359.102 211.144 359.048 211.035 358.986C210.965 358.978 210.888 358.963 210.802 358.947C210.538 358.916 210.577 358.901 210.903 358.916C210.67 358.885 210.43 358.854 210.197 358.815C210.313 358.831 210.321 358.839 210.088 358.8C210.127 358.8 210.158 358.808 210.197 358.815C209.995 358.784 209.46 358.699 209.397 358.691C209.421 358.691 209.436 358.699 209.452 358.699C209.39 358.691 209.382 358.684 209.397 358.691C209.25 358.676 209.103 358.653 208.963 358.606C208.614 358.506 208.311 358.327 208.039 358.087C208.016 358.111 207.775 358.049 207.713 358.041C207.55 358.002 207.333 357.956 207.178 357.901C207.077 357.87 207.046 357.847 207.038 357.839C206.96 357.824 206.883 357.824 206.805 357.809C206.402 357.7 206.177 357.483 205.889 357.266C205.889 357.266 205.874 357.266 205.866 357.259C206.014 357.375 205.998 357.367 205.827 357.243C205.765 357.22 205.688 357.181 205.587 357.142C201.559 356.174 196.103 353.355 192.812 351.543C192.37 351.303 191.275 351.024 191.206 350.977C191.128 350.915 191.058 350.768 190.988 350.59C190.717 350.497 190.445 350.396 190.173 350.296C190.166 350.327 190.158 350.358 190.142 350.396L190.127 350.28C189.723 350.133 189.327 349.978 188.947 349.785C188.419 349.521 187.923 349.188 187.418 348.871C187.224 348.793 187.038 348.708 186.906 348.607C186.844 348.561 186.836 348.538 186.844 348.507C186.821 348.491 186.805 348.483 186.782 348.468C186.471 348.282 186.161 348.096 185.843 347.918C185.843 347.949 185.843 347.98 185.843 348.019H185.493L185.129 347.515C182.893 346.268 180.612 345.107 178.501 343.65C177.267 342.799 176.103 341.807 174.737 341.164C174.302 340.955 173.805 340.692 173.464 340.351C173.417 340.289 173.386 340.25 173.347 340.204C173.161 340.088 173.006 339.972 172.827 339.848C172.408 339.553 171.896 339.243 171.438 338.965C170.771 338.554 170.204 337.997 169.544 337.578C169.18 337.346 168.745 337.245 168.427 336.928C168.38 336.866 168.341 336.827 168.31 336.781C168.14 336.726 167.992 336.633 167.876 336.494C167.666 336.347 167.457 336.192 167.255 336.045L166.937 336.145L167.022 335.882C166.518 335.518 166.013 335.154 165.516 334.782C165.392 334.798 165.245 334.852 165.059 334.945C165.059 334.697 164.989 334.496 164.88 334.318C164.655 334.155 164.438 333.992 164.213 333.83C163.964 333.652 163.7 333.489 163.444 333.326C163.227 333.226 163.041 333.133 162.94 333.016V333.001C162.653 332.815 162.381 332.629 162.117 332.405C161.682 332.041 161.279 331.615 160.844 331.258C160.658 331.111 160.208 330.941 159.952 330.794C159.571 330.569 159.238 330.205 158.912 329.918C158.361 329.446 157.825 328.966 157.266 328.501C156.7 328.029 156.094 327.626 155.528 327.146C155.14 326.82 154.744 326.425 154.387 326.116C153.805 325.604 153.184 325.163 152.641 324.605C152.175 324.133 151.733 323.606 151.252 323.157C150.926 322.855 150.646 322.599 150.367 322.251C150.274 322.135 149.816 321.701 150.305 322.104C150.056 321.894 149.917 321.794 149.715 321.515C149.327 320.996 148.993 320.438 148.605 319.919C148.52 319.803 148.427 319.703 148.333 319.594C148.132 319.478 147.93 319.346 147.775 319.207C146.075 317.65 144.127 315.59 142.156 313.646C140.86 312.507 139.424 311.524 138.104 310.416C137.39 309.82 136.653 309.193 135.978 308.542C135.792 308.434 135.605 308.294 135.372 308.069C135.264 307.977 135.163 307.853 135.085 307.783C134.806 307.527 134.527 307.272 134.255 307.008C133.983 306.745 133.688 306.497 133.401 306.242C133.261 306.226 133.106 306.218 132.928 306.226L133.168 306.048C132.819 305.754 132.462 305.459 132.113 305.165C131.965 305.041 131.826 304.909 131.678 304.778C131.616 304.786 131.57 304.793 131.5 304.809L131.632 304.739C130.987 304.181 130.374 303.608 129.738 303.027C128.962 302.307 128.139 301.633 127.34 300.944C126.579 300.278 126.005 299.503 125.291 298.799C124.546 298.071 123.909 297.25 123.188 296.506C122.528 295.832 121.814 295.166 121.115 294.516C120.13 293.586 119.307 292.51 118.531 291.394C117.98 291.007 117.437 290.635 117.212 290.449C113.184 287.057 110.716 283.022 107.146 279.25C106.02 278.057 104.15 277.136 103.506 276.477C102.861 275.819 102.078 273.573 101.045 274.185C101.317 272.884 100.098 272.434 99.3845 271.451C99.2292 271.242 98.2281 269.646 98.2048 269.538C98.1892 269.437 98.1892 269.359 98.2048 269.305C97.9564 269.081 97.7081 268.856 97.4985 268.616C96.9009 267.958 96.6215 266.788 96.4741 265.936C96.3809 265.402 96.2567 264.867 96.1326 264.341C96.0938 264.24 96.0627 264.155 96.0394 264.101C95.5505 262.768 94.3786 259.585 94.2001 258.338C94.138 257.904 94.138 257.471 94.1457 257.037C93.8198 256.348 93.5869 255.596 93.2377 254.923C92.7332 253.954 92.4461 253.079 92.3762 252.018C92.3529 251.693 92.3529 251.375 92.3529 251.058C92.2598 250.841 92.1822 250.64 92.1201 250.446C91.1112 247.418 90.3739 243.7 89.8694 240.586C89.0933 235.808 89.621 231.486 92.0114 227.714C92.1201 227.04 92.3296 226.413 92.6168 225.956C92.7876 225.685 92.9893 225.445 93.2222 225.236C94.2699 224.275 92.8108 225.6 93.9517 224.732C94.4562 224.345 94.8753 223.942 95.4962 223.756C95.6902 223.679 95.8842 223.617 96.0782 223.578C96.249 223.493 96.4197 223.408 96.5905 223.315C96.637 223.284 96.6914 223.253 96.7379 223.222C96.8699 223.16 96.9708 223.114 97.0484 223.083C97.2269 222.959 97.4131 222.85 97.6227 222.788L98.1116 222.726C97.809 222.788 97.9254 222.773 98.4531 222.688C98.2901 222.719 98.2746 222.719 98.4066 222.703C99.3534 222.571 100.3 222.416 101.208 222.672C101.34 222.695 101.464 222.719 101.596 222.757C101.759 222.78 101.907 222.819 102.054 222.873C102.574 222.99 103.071 223.206 103.669 223.478C104.406 223.57 105.135 223.733 105.834 223.942C106.408 224.113 108.38 225.058 109 225.545C109.381 225.7 109.761 225.879 110.11 226.103C110.39 226.212 110.646 226.366 110.832 226.599C110.886 226.653 110.941 226.715 110.987 226.777C111.026 226.808 111.065 226.847 111.096 226.885C111.142 226.909 111.181 226.94 111.22 226.963C111.329 226.963 111.437 226.978 111.538 227.009C116.591 228.946 122.241 232.609 126.703 235.63C126.843 235.723 126.905 236.04 127.037 236.118C127.448 236.358 128.62 236.551 128.799 236.737C128.954 236.892 128.9 237.395 129.202 237.659C129.482 237.899 129.847 237.643 130.056 237.767C130.18 237.837 131.119 238.844 131.251 238.921C132.835 239.835 134.674 241.113 136.42 242.298C138.958 244.018 141.403 245.659 143.925 247.441C144.391 247.681 144.841 247.937 145.276 248.223C145.733 248.525 146.323 248.889 146.634 249.098C147.13 249.424 147.503 249.493 147.961 249.881C148.155 249.997 148.333 250.121 148.535 250.252C148.559 250.268 148.745 250.368 148.853 250.43C148.97 250.477 149.218 250.601 149.203 250.585C149.963 250.926 150.499 251.391 151.112 251.933C152.346 253.033 153.658 254.055 154.938 255.101C155.963 255.937 156.948 256.843 158.081 257.548C158.733 257.951 159.362 258.423 159.998 258.865C160.58 259.275 161.201 259.632 161.791 260.034C162.513 260.522 163.173 261.095 163.84 261.645C164.368 262.087 164.841 262.342 165.431 262.675C166.766 263.427 168.171 264.008 169.312 265.069C170.266 265.952 171.213 266.858 172.16 267.772C173.363 268.446 174.581 269.112 175.73 269.824C180.55 272.806 184.267 275.432 189.49 277.445C191.469 278.212 193.604 279.335 195.754 280.21C197.624 280.977 199.572 281.496 201.388 282.178C201.605 282.263 202.102 283.006 202.7 283.246C203.825 283.711 207.806 285.237 208.714 285.338C209.304 285.4 209.46 284.695 209.762 285.709C211.066 285.462 210.554 285.965 211.12 286.244C211.702 286.53 213.945 286.863 214.807 287.088C218.711 288.095 222.529 289.21 226.472 290.403C237.143 293.625 248.218 296.003 259.099 298.419C259.286 298.458 259.247 298.954 259.899 299.07C267.054 300.317 273.931 301.401 281.249 301.719C281.405 301.719 281.381 302.129 281.498 302.144C282.856 302.385 284.602 302.075 286.022 302.199C291.238 302.663 296.197 303.546 301.49 303.879C308.103 304.29 314.296 304.096 321.001 303.856C325.169 303.709 329.57 303.771 333.854 303.5C334.188 303.477 334.661 303.461 335.127 303.438C336.531 302.919 337.827 302.826 339.31 302.509C345.325 301.231 351.448 301.285 357.409 299.751C360.466 298.969 363.555 298.853 366.59 297.947C369.64 297.033 372.527 295.809 375.694 295.259C377.968 294.864 380.257 294.531 382.554 294.244C382.818 294.159 383.082 294.059 383.354 293.911L383.556 294.121C383.804 294.09 384.06 294.066 384.316 294.035C384.409 293.997 384.51 293.958 384.603 293.927C385.674 293.354 386.807 292.858 387.972 292.517C388.523 292.362 388.965 292.06 389.493 291.844C390.052 291.619 390.688 291.518 391.286 291.464C392.419 291.363 393.497 290.961 394.623 290.744C395.267 290.62 395.865 290.333 396.517 290.24C397.099 290.163 397.688 290.093 398.286 290.016C399.442 289.876 400.583 289.497 401.74 289.288C402.888 289.086 404.037 289.063 405.201 289.024C405.131 288.807 405.155 288.637 405.465 288.428C405.589 289.109 407.374 288.745 408.049 288.629C411.014 288.149 414.165 287.375 417.107 286.794C417.797 286.654 418.62 286.298 418.783 286.283C419.388 286.221 420.366 286.639 421.375 286.499C422.307 286.375 423.385 285.787 424.518 285.601C425.395 285.454 426.924 285.322 428.585 285.167C428.601 285.167 428.616 285.159 428.632 285.152C430.533 284.408 432.466 283.758 434.491 283.448C436.3 283.169 438.015 282.526 439.8 282.209C440.592 282.069 441.531 282.131 442.338 282.309C446.242 281.326 451.294 281.047 455.105 280.28C460.429 279.204 464.923 277.577 470.611 278.235C471.613 278.352 473.452 279.064 475.307 279.924C475.338 279.939 475.369 279.947 475.408 279.963C476.983 280.195 478.59 281 479.847 281.93C480.972 282.759 482.105 283.572 483.262 284.369C485.613 286.004 487.538 288.103 489.541 290.132C490.045 290.643 490.534 291.208 491.023 291.743C491.465 292.223 491.985 292.726 492.335 293.284C493.01 294.345 493.514 295.306 494.399 296.15C495.423 297.118 496.145 298.326 497.139 299.318C498.171 300.348 498.931 301.525 499.762 302.71C499.855 302.803 499.894 302.857 499.824 302.795C500.041 302.989 500.235 303.151 500.391 303.422C500.46 303.546 500.522 303.663 500.585 303.779C501.105 304.437 501.656 305.064 502.253 305.653C502.921 306.304 503.743 306.97 504.162 307.822C504.325 308.023 504.45 308.224 504.558 308.434C504.869 308.883 505.226 309.394 505.381 309.557C507.251 311.617 509.486 314.916 511.279 316.612C511.442 316.767 511.9 316.698 512.063 316.899C512.164 317.031 512.094 318.789 512.234 319.339C512.668 321.081 513.996 322.491 513.778 324.559L513.74 324.574Z" fill="black"/>
</g>
<defs>
<clipPath id="clip0_527_3360">
<rect width="442" height="316" fill="white" transform="translate(82 167)"/>
</clipPath>
</defs>
</svg>
