<?xml version="1.0" encoding="UTF-8"?>
<svg id="Vrstva_1" data-name="Vrstva 1" xmlns="http://www.w3.org/2000/svg" viewBox="0 0 400 400">
  <defs>
    <style>
      .cls-1 {
        fill: #020202;
      }
    </style>
  </defs>
  <path class="cls-1" d="m20.22,287.38c7.24,2.87,11.45-1.46,12.01-9.73.34-4.97,2.16-10.09,8.18-6.48,21.61,12.93,46.21,11.92,69.55,17.01,35.83,7.81,71.58,11.7,107.98,5.41,8.15-1.41,9.33,1.86,9.21,9.6-.29,17.33-.88,34.81,3.93,51.73,3.45,12.11,10.08,21.12,22.05,25.05,33.75,11.08,65.03-7.35,74.08-43.05,4.21-16.62,4.86-33.24,4.26-50.21-.28-8.03-.34-18.31,7.85-21.6,9.44-3.8,18.15-9.07,27.53-12.91,8.17-3.35,11.57-1.62,11.25,7.72-.16,4.62-.14,10.06,6.8,8.15,4.66-1.28,9.38-2.81,9.03-9.73-.82-16.47-31.39-45.22-46.74-43.54-4.1.45-7.54,2.44-8.45,7.31-1.08,5.76,3.13,6.79,6.76,8.27,1.21.49,2.55.62,3.83.91,4.66,1.03,10.99,1.26,11.77,6.76,1.03,7.26-6.57,7.43-10.91,9.71-20.95,11.01-43.64,16.75-66.18,22.25-40.92,9.98-82.5,14.96-124.47,15-14.23.34-27.69-4.41-41.56-6.18-19.88-2.53-39.78-5.74-58.49-14.2-15.69-7.1-15.93-6.7-3.86-18.9,2.88-2.91,6.82-5.54,3.52-10.16-3.22-4.51-6.75-1.6-10.35.47-14.63,8.44-26.58,19.04-29.87,37.37-.89,4.96-5.87,11.16,1.28,14Zm219.68,12.88c1.37-9.33,15.05-17.26,26.83-14.3,8.67,2.18,4.85,9.97,4.35,15.89-.38,4.5-1.71,9.9,2.58,12.35,2.41,1.37,6.94.3,9.82-1.17,5.07-2.58,3.36-7.41,2.59-12.05-2.56-15.53,10.43-28.66,25.64-26.9,4.03.47,3.61,2.75,4.06,5.29,4.48,25.3,3.93,50.08-8.03,73.49-5.82,11.39-20.03,16.85-38.18,15.22-18.03-1.62-23.6-6.57-28.02-29.64-2.37-12.39-3.52-25.32-1.64-38.17Z"/>
  <path class="cls-1" d="m152.58,91.64c.86,10.81-.5,22.13-2.76,32.39-4.67,21.19-14.01,30.04-29.4,32.15-14.7,2.01-26.89-19.05-33.13-31.38-5.34-10.55-9.24-21.92-10.33-31.11-1.83-15.34,4.2-30.73,9.97-45.02,5.66-14.03,17.32-19.88,27.8-20.65,5.35-.39,14.84,3.57,19.07,8.65,5.58,6.69,11.84,14.27,15.72,30.68,1.66,7,2.36,15.64,3.06,24.3Z"/>
  <path class="cls-1" d="m303.13,86.37c-.04-10.83-2.12-22.1-5.46-32.12-6.97-20.92-21.3-25.19-33.55-26.17-14.82-1.18-19.63,11.24-24.39,24.08-4.65,12.54-5.91,30.55-6.18,39.33-.47,15.41.75,28.1,7.7,41.98,6.82,13.63,11.27,18.6,21.8,18.61,5.19,0,19.65-7.32,25.32-12.24,6.71-5.83,11.26-12.42,13.76-29.03,1.07-7.09,1.05-15.75,1.02-24.43Z"/>
</svg>