<svg width="106" height="42" viewBox="0 0 106 42" fill="none" xmlns="http://www.w3.org/2000/svg">
<g clip-path="url(#clip0_5_13)">
<path d="M104.578 8.81415C103.632 7.23101 102.301 5.98187 100.624 5.09344C98.9493 4.20835 97.0291 3.7608 94.9136 3.7608C92.798 3.7608 90.8778 4.20835 89.2036 5.09344C87.7651 5.85161 86.5861 6.88032 85.6833 8.1495V4.04135H81.9608V0H74.2869V4.04135H71.6627V6.15555C70.9889 5.51761 70.1703 4.99658 69.2069 4.59913C67.8493 4.04135 66.2761 3.7608 64.5277 3.7608C62.9377 3.7608 61.5262 4.04803 60.3404 4.60915C59.1378 5.18028 58.2114 5.97185 57.5814 6.95714C57.5141 7.06068 57.4534 7.16755 57.3928 7.27777V4.04135H49.7189V12.9958C49.7189 14.098 49.601 15.0298 49.3652 15.7713C49.1428 16.4727 48.8127 17.0037 48.3849 17.3478C47.9604 17.6884 47.4551 17.8521 46.8386 17.8521C46.1042 17.8521 45.5383 17.6216 45.1105 17.144C44.6692 16.6564 44.4536 16.0218 44.4536 15.2068V4.04135H36.7796V9.04795C36.7358 8.97113 36.6954 8.89097 36.6516 8.81415C35.705 7.23101 34.3744 5.98187 32.6968 5.09344C31.0225 4.20835 29.1023 3.7608 26.9868 3.7608C24.8712 3.7608 22.9511 4.20835 21.2768 5.09344C19.5958 5.98187 18.2652 7.23435 17.3219 8.81415C17.3051 8.84421 17.2882 8.87427 17.2714 8.90433C17.0625 8.23634 16.7493 7.61177 16.3315 7.04064C15.5567 5.98855 14.4653 5.16692 13.0875 4.59913C11.7299 4.04135 10.1567 3.7608 8.40831 3.7608C6.81828 3.7608 5.40679 4.04803 4.221 4.60915C3.01837 5.18028 2.09197 5.97185 1.46202 6.95714C0.832073 7.94577 0.512045 9.06799 0.512045 10.2904C0.512045 11.7867 0.882603 12.9991 1.61698 13.8909C2.33115 14.7626 3.19354 15.4072 4.17384 15.8047C5.11371 16.1854 6.27929 16.5361 7.64025 16.8434C8.33757 17.0037 8.89004 17.144 9.28418 17.2609C9.63453 17.3645 9.92087 17.4981 10.1398 17.6651C10.342 17.8187 10.3689 17.9556 10.3689 18.0592C10.3689 18.1126 10.3689 18.2429 10.1163 18.3865C9.8737 18.5234 9.5402 18.5936 9.11911 18.5936C8.55654 18.5936 8.1085 18.4633 7.78173 18.2095C7.47181 17.9656 7.30001 17.6383 7.26295 17.2142L7.22926 16.8367H0L0.0134749 17.2643C0.0640056 18.7205 0.488464 20.0264 1.27674 21.1419C2.06165 22.2542 3.14638 23.1225 4.49724 23.7237C5.83125 24.3183 7.38759 24.6222 9.11574 24.6222C10.8439 24.6222 12.2588 24.345 13.5355 23.7972C14.8325 23.2394 15.8532 22.4345 16.5673 21.4025C16.9345 20.8748 17.2074 20.2969 17.3893 19.6757C18.3292 21.2054 19.6362 22.4245 21.2768 23.2895C22.9477 24.1746 24.8679 24.6222 26.9868 24.6222C29.1057 24.6222 31.0225 24.1746 32.6968 23.2895C34.3777 22.4011 35.7084 21.1486 36.6516 19.5688C36.7662 19.3751 36.8773 19.1781 36.9784 18.9777C37.1367 19.7158 37.3894 20.4005 37.7397 21.0184C38.3764 22.1473 39.2927 23.0424 40.4549 23.6736C41.6104 24.3015 42.9713 24.6222 44.5007 24.6222C45.7977 24.6222 47.0003 24.4118 48.0749 23.9976C48.7386 23.7404 49.2843 23.4666 49.7222 23.1693V24.3416H57.3962V21.1353C57.3962 21.1353 57.3962 21.1386 57.3995 21.1419C58.1845 22.2542 59.2692 23.1225 60.62 23.7237C61.954 24.3183 63.5104 24.6222 65.2419 24.6222C66.9734 24.6222 68.3849 24.345 69.6617 23.7972C70.9586 23.2394 71.9793 22.4345 72.6935 21.4025C73.411 20.3637 73.7782 19.1447 73.7782 17.7753C73.7782 16.0953 73.3976 14.7626 72.643 13.8107C71.9019 12.8755 71.0092 12.2142 69.9918 11.8502C69.2642 11.5897 68.4018 11.3559 67.4215 11.1588H73.721L73.7041 10.7313C73.6974 10.591 73.6873 10.4541 73.6738 10.3138H74.2869V17.0004C74.2869 18.5501 74.6608 19.9195 75.3986 21.0718C76.1363 22.2241 77.1469 23.1092 78.4069 23.7004C79.6499 24.2882 81.0513 24.5854 82.574 24.5854C83.1399 24.5854 83.6587 24.542 84.1236 24.4552C84.5817 24.3684 85.0702 24.2414 85.5788 24.0711L85.8652 23.9776V20.4706C86.7444 21.6296 87.8595 22.5781 89.2069 23.2895C90.8778 24.1713 92.798 24.6222 94.9169 24.6222C97.0359 24.6222 98.9526 24.1746 100.627 23.2895C102.308 22.4011 103.639 21.1486 104.582 19.5688C105.525 17.989 106.003 16.1788 106.003 14.1915C106.003 12.2042 105.525 10.394 104.582 8.81415H104.578ZM91.9929 12.1007C92.2624 11.5329 92.6532 11.0887 93.1484 10.7814C93.6469 10.4741 94.2398 10.3171 94.9136 10.3171C95.5873 10.3171 96.1802 10.4741 96.6788 10.7814C97.1807 11.092 97.558 11.5262 97.8342 12.1007C98.1138 12.6885 98.2553 13.3899 98.2553 14.1915C98.2553 14.9931 98.1138 15.6945 97.8342 16.2823C97.558 16.8601 97.1807 17.291 96.6788 17.6016C96.1802 17.9089 95.5873 18.0658 94.9136 18.0658C94.2398 18.0658 93.6469 17.9089 93.1484 17.6016C92.6464 17.291 92.2657 16.8568 91.9929 16.2823C91.7133 15.6978 91.5718 14.9931 91.5718 14.1915C91.5718 13.3899 91.7133 12.6852 91.9929 12.1007ZM84.4503 17.8788C84.1471 17.9322 83.8608 17.959 83.6014 17.959C83.0759 17.959 82.6817 17.8153 82.392 17.5214C82.1023 17.2242 81.9608 16.8367 81.9608 16.3324V10.3138H84.5211C84.0596 11.5095 83.8237 12.8054 83.8237 14.1882C83.8237 15.5008 84.036 16.7332 84.4503 17.8755V17.8788ZM63.8877 10.2704C63.7361 10.1602 63.6687 10.0299 63.6687 9.83284C63.6687 9.6959 63.7193 9.61241 63.8439 9.53225C64.0258 9.42203 64.2785 9.36525 64.5985 9.36525C65.1476 9.36525 65.5923 9.49885 65.9594 9.77272C66.3031 10.0299 66.485 10.3606 66.522 10.7814L66.5422 10.9951C66.4984 10.9885 66.4547 10.9818 66.4109 10.9718C65.6394 10.8315 65.0634 10.7179 64.6995 10.6244C64.3762 10.5443 64.1033 10.424 63.8877 10.2704ZM57.7364 13.8876C58.4506 14.7593 59.313 15.4039 60.2933 15.8014C61.2331 16.1821 62.3987 16.5328 63.7597 16.8401C64.457 17.0004 65.0095 17.1407 65.4036 17.2576C65.754 17.3611 66.0403 17.4947 66.2593 17.6617C66.4614 17.8153 66.4883 17.9523 66.4883 18.0558C66.4883 18.1093 66.4883 18.2395 66.2357 18.3831C65.9931 18.5201 65.6596 18.5902 65.2385 18.5902C64.676 18.5902 64.2279 18.46 63.9012 18.2061C63.5912 17.9623 63.4194 17.635 63.3824 17.2108L63.3487 16.8334H57.3928V13.3966C57.4972 13.5669 57.6084 13.7339 57.733 13.8876H57.7364ZM24.0661 12.0973C24.3356 11.5295 24.7264 11.0853 25.2216 10.7781C25.7201 10.4708 26.313 10.3138 26.9868 10.3138C27.6605 10.3138 28.2534 10.4708 28.752 10.7781C29.2539 11.0887 29.6312 11.5229 29.9075 12.0973C30.1871 12.6852 30.3285 13.3866 30.3285 14.1882C30.3285 14.9897 30.1871 15.6911 29.9075 16.279C29.6312 16.8568 29.2539 17.2876 28.752 17.5982C28.2534 17.9055 27.6605 18.0625 26.9868 18.0625C26.313 18.0625 25.7201 17.9055 25.2216 17.5982C24.7196 17.2876 24.339 16.8534 24.0661 16.279C23.7865 15.6945 23.645 14.9897 23.645 14.1882C23.645 13.3866 23.7865 12.6818 24.0661 12.0973ZM10.4228 10.9918C10.379 10.9851 10.3352 10.9784 10.2914 10.9684C9.51999 10.8282 8.94394 10.7113 8.58012 10.6211C8.25672 10.5409 7.98386 10.4207 7.76826 10.267C7.61667 10.1568 7.54929 10.0266 7.54929 9.8295C7.54929 9.69256 7.59982 9.60907 7.72446 9.52891C7.90637 9.41869 8.15903 9.36191 8.47906 9.36191C9.02816 9.36191 9.47283 9.49551 9.84002 9.76938C10.1803 10.0266 10.3655 10.3572 10.4026 10.7781L10.4228 10.9918ZM13.869 11.8502C13.1414 11.5897 12.279 11.3559 11.2987 11.1588H16.3147C16.1294 11.8034 16.0081 12.4781 15.9475 13.1761C15.331 12.5716 14.6371 12.1274 13.869 11.8502Z" fill="black"/>
<path d="M21.3577 33.1324C21.9438 33.3963 22.311 33.0589 22.3885 32.3842C22.4357 31.9801 22.6075 31.566 23.0892 31.8866C24.8207 33.0322 26.8588 33.0489 28.7655 33.5599C31.6963 34.3448 34.6338 34.8057 37.6656 34.4383C38.3461 34.3548 38.4303 34.6287 38.3865 35.2633C38.2922 36.6828 38.1709 38.1123 38.5011 39.5151C38.7369 40.5204 39.2489 41.2852 40.2225 41.656C42.968 42.7014 45.6259 41.3153 46.5186 38.4296C46.933 37.0869 47.0542 35.7275 47.0745 34.3348C47.0846 33.6768 47.1216 32.8351 47.8122 32.598C48.6072 32.3241 49.3483 31.9267 50.14 31.6528C50.8272 31.4123 51.1034 31.566 51.0394 32.3308C51.0091 32.7082 50.9855 33.1524 51.5683 33.0255C51.9591 32.9387 52.3532 32.8351 52.3532 32.264C52.3532 30.9113 49.9446 28.4331 48.6679 28.5099C48.3276 28.5299 48.0345 28.6802 47.9402 29.0743C47.829 29.5419 48.1727 29.6421 48.4657 29.7791C48.5634 29.8225 48.6746 29.8392 48.779 29.8693C49.1597 29.9728 49.6818 30.0162 49.7256 30.4705C49.7829 31.0683 49.153 31.0516 48.7858 31.2219C47.0104 32.0402 45.1105 32.4176 43.2274 32.7784C39.8048 33.4297 36.3485 33.6701 32.8821 33.5065C31.7064 33.4764 30.6115 33.0322 29.4729 32.8318C27.8391 32.5446 26.2086 32.2005 24.6961 31.4324C23.4294 30.7877 23.4059 30.8178 24.4535 29.8693C24.7028 29.6421 25.0397 29.4417 24.787 29.051C24.5377 28.6669 24.2346 28.894 23.9314 29.051C22.6883 29.6822 21.6575 30.5038 21.3105 31.9935C21.2162 32.3943 20.7816 32.8852 21.361 33.1458L21.3577 33.1324ZM39.4578 35.0729C39.6094 34.3147 40.7716 33.7202 41.7317 34.0108C42.4391 34.2246 42.0921 34.8458 42.0281 35.3301C41.9776 35.6975 41.8462 36.135 42.1898 36.3521C42.3818 36.4757 42.7625 36.4056 43.005 36.2953C43.4329 36.105 43.3116 35.7008 43.2678 35.3167C43.1196 34.0342 44.2447 33.0122 45.4945 33.2159C45.8247 33.2693 45.7809 33.4564 45.8078 33.6668C46.0739 35.7576 45.9291 37.785 44.8444 39.6553C44.3155 40.5638 43.1196 40.9546 41.6272 40.7475C40.145 40.5404 39.7037 40.1129 39.4342 38.2058C39.2893 37.1804 39.2456 36.1183 39.4544 35.0729H39.4578Z" fill="#020202"/>
</g>
<defs>
<clipPath id="clip0_5_13">
<rect width="106" height="42" fill="white"/>
</clipPath>
</defs>
</svg>
