<svg width="21" height="21" viewBox="0 0 21 21" fill="none" xmlns="http://www.w3.org/2000/svg">
<path d="M2.54179 16.1864C3.43095 15.5899 4.29789 15.0083 5.16112 14.4303C5.54643 14.171 5.93173 13.9079 6.32074 13.6523C7.44332 12.9039 8.803 12.9854 9.80331 13.8894C10.2405 14.2821 10.711 14.4673 11.2815 14.2858C11.4705 14.2265 11.652 14.108 11.8002 13.982C13.0265 12.9409 14.2454 11.8888 15.468 10.8403C16.6388 9.83627 18.08 9.83257 19.2581 10.8292C19.3248 10.8847 19.3915 10.9366 19.4989 11.0255C19.4989 10.9107 19.4989 10.8366 19.4989 10.7625C19.4989 10.166 19.4915 9.56582 19.4989 8.96934C19.5063 8.46177 19.9324 8.12833 20.3918 8.258C20.6622 8.33581 20.866 8.58033 20.8882 8.85819C20.8882 8.89524 20.8919 8.93229 20.8919 8.96563C20.8882 10.7588 20.8957 12.5482 20.8734 14.3414C20.8623 15.2009 20.7252 16.053 20.4696 16.8792C19.8916 18.7502 18.6431 19.9283 16.7647 20.4507C15.7978 20.7211 14.8049 20.8138 13.8046 20.8138C11.6631 20.8138 9.52174 20.8249 7.38033 20.7989C6.27628 20.7841 5.19076 20.6026 4.16452 20.1691C2.64552 19.5282 1.7119 18.3723 1.24879 16.8125C1.01539 15.99 0.882013 15.1527 0.874603 14.308C0.859783 11.9629 0.856079 9.61769 0.874603 7.27251C0.882013 6.3463 1.03391 5.4312 1.3303 4.54944C1.91567 2.79334 3.10863 1.68559 4.86844 1.16691C5.69833 0.918681 6.54674 0.792716 7.40997 0.781601C8.86598 0.763077 10.322 0.766782 11.7817 0.766782C12.1485 0.766782 12.4338 0.996483 12.4967 1.31881C12.5597 1.64854 12.3967 1.97827 12.0781 2.10053C11.9521 2.14869 11.8076 2.16351 11.6743 2.16351C10.2553 2.17092 8.83264 2.16351 7.41368 2.18204C6.62454 2.19315 5.84652 2.3043 5.09444 2.55252C3.70511 3.00822 2.88634 3.97889 2.53438 5.37562C2.34914 6.09807 2.26763 6.83534 2.26763 7.58002C2.26763 9.81034 2.25651 12.037 2.28245 14.2673C2.28986 14.8527 2.41582 15.4343 2.48992 16.0197C2.49733 16.0678 2.51956 16.116 2.54549 16.1864H2.54179ZM3.0864 17.5201C3.43466 18.0648 3.88295 18.4649 4.43868 18.7502C5.36859 19.2244 6.37632 19.3837 7.39886 19.3948C9.54026 19.4207 11.6817 19.4244 13.8231 19.4022C14.527 19.3948 15.2346 19.3355 15.9274 19.2133C17.7317 18.8984 18.8654 17.8425 19.2692 16.0345C19.4915 15.0305 19.51 14.0116 19.4952 12.9928C19.4952 12.9224 19.4359 12.8335 19.3767 12.7816C19.021 12.4667 18.6616 12.1592 18.3023 11.8517C17.7317 11.3627 17.0056 11.3627 16.435 11.8517C15.1902 12.9187 13.949 13.9894 12.7005 15.0527C12.519 15.2083 12.3189 15.3491 12.1077 15.4565C11.1667 15.9382 9.85888 15.8604 8.91044 14.9638C8.3436 14.4303 7.71006 14.4044 7.06171 14.8415C6.22071 15.4084 5.38341 15.9715 4.54241 16.5347C4.06078 16.8607 3.57915 17.183 3.0864 17.5164V17.5201Z" fill="#00FF00"/>
<path d="M8.07695 9.61756C6.6654 9.61756 5.5169 8.47276 5.51319 7.06492C5.50949 5.65336 6.66911 4.49374 8.08436 4.49374C9.49962 4.49374 10.6592 5.66077 10.6481 7.07233C10.637 8.48388 9.4885 9.62127 8.07695 9.61756ZM8.07325 8.21713C8.7216 8.22083 9.24398 7.70956 9.25139 7.06492C9.2588 6.42768 8.73271 5.89418 8.09177 5.89048C7.45083 5.88677 6.92474 6.40545 6.91363 7.04639C6.90622 7.68733 7.4286 8.21342 8.07325 8.21713Z" fill="#00FF00"/>
<path d="M17.1722 3.20817C17.1722 3.28597 17.1722 3.36378 17.1722 3.43787C17.1722 4.63084 17.1722 5.82751 17.1722 7.02047C17.1722 7.36502 16.9684 7.64289 16.6609 7.7281C16.3682 7.8096 16.0385 7.69475 15.8903 7.4243C15.8162 7.29092 15.7792 7.1205 15.7792 6.9686C15.7718 5.79787 15.7755 4.62343 15.7755 3.45269V3.1526C15.5421 3.386 15.3568 3.59348 15.1456 3.77131C15.0234 3.87505 14.8715 3.97137 14.7159 4.00472C14.4084 4.0714 14.1231 3.91209 13.9897 3.64534C13.8564 3.37859 13.9008 3.06368 14.1157 2.83769C14.3417 2.60057 14.5788 2.37458 14.8085 2.14117C15.1864 1.75957 15.568 1.37427 15.9459 0.992666C16.246 0.685163 16.6906 0.681458 16.9981 0.985257C17.5946 1.58174 18.191 2.18193 18.7838 2.78211C19.1061 3.10814 19.121 3.54531 18.8246 3.83059C18.5393 4.10845 18.1095 4.08252 17.7946 3.77131C17.602 3.58236 17.4204 3.386 17.2315 3.19335C17.213 3.20076 17.1944 3.20447 17.1759 3.21188L17.1722 3.20817Z" fill="#00FF00"/>
</svg>
